<svg width="1920" height="1080" viewBox="0 0 1920 1080" fill="none" xmlns="http://www.w3.org/2000/svg">
<rect width="1920" height="1080" fill="#FFBE00"/>
<g style="mix-blend-mode:multiply">
<path d="M924.463 822.468H847.801C847.171 822.468 846.567 822.218 846.122 821.772C845.676 821.327 845.425 820.723 845.425 820.093C845.425 819.463 845.676 818.859 846.122 818.413C846.567 817.969 847.171 817.718 847.801 817.718H924.463C924.776 817.715 925.085 817.775 925.375 817.894C925.665 818.012 925.927 818.187 926.148 818.408C926.369 818.629 926.545 818.892 926.663 819.182C926.781 819.47 926.841 819.781 926.839 820.093C926.827 820.719 926.573 821.316 926.13 821.759C925.687 822.202 925.09 822.456 924.463 822.468Z" fill="#61656D"/>
<path d="M921.264 822.469L933.965 978.856H931.406L912.309 822.469H921.264Z" fill="#61656D"/>
<path d="M850.544 822.469L837.752 978.856H840.31L859.407 822.469H850.544Z" fill="#61656D"/>
<path d="M850.541 822.469L850.176 825.484H854.562L839.211 978.856H840.307L859.404 822.469H850.541Z" fill="#3F4249"/>
<path d="M924.736 882.393H922.452L912.309 822.469H921.264L933.965 978.856H932.686L924.736 882.393Z" fill="#3F4249"/>
<path d="M880.422 822.469L882.432 978.856H884.991L889.377 822.469H880.422Z" fill="#3F4249"/>
<path d="M898.24 779.078C898.24 779.078 903.814 734.592 916.606 710.293" stroke="#868A91" stroke-width="0.55" stroke-miterlimit="10"/>
<path d="M888.827 702.62C888.827 702.62 897.508 738.428 896.137 763.184" stroke="#868A91" stroke-width="0.55" stroke-miterlimit="10"/>
<path d="M915.419 712.485C915.419 712.485 915.51 688.461 936.526 687.091C936.526 686.999 938.262 708.101 915.419 712.485Z" fill="#00B77E"/>
<path d="M865.072 707.279C865.072 707.279 859.407 684.442 834.554 690.928C834.554 690.928 839.305 707.645 865.072 707.279Z" fill="#00B77E"/>
<path d="M892.026 716.687C892.026 716.687 899.427 697.23 882.249 687.091C882.249 686.999 874.665 706.182 892.026 716.687Z" fill="#00B77E"/>
<path d="M865.07 707.278C865.07 707.278 887.914 733.403 887.914 779.077" stroke="#868A91" stroke-width="0.55" stroke-miterlimit="10"/>
<path d="M905.273 703.717C900.247 723.813 898.054 728.198 895.13 779.079" stroke="#868A91" stroke-width="0.55" stroke-miterlimit="10"/>
<path d="M846.157 675.856C856.208 680.423 887.915 713.674 882.615 778.257" stroke="#868A91" stroke-width="0.55" stroke-miterlimit="10"/>
<path d="M878.775 778.256C878.775 778.256 885.354 733.495 857.667 718.606" stroke="#868A91" stroke-width="0.55" stroke-miterlimit="10"/>
<path d="M899.154 772.318C901.251 767.13 904.726 762.613 909.205 759.255" stroke="#868A91" stroke-width="0.55" stroke-miterlimit="10"/>
<path d="M901.62 758.433C901.62 758.433 917.245 744.64 925.103 742.356" stroke="#868A91" stroke-width="0.55" stroke-miterlimit="10"/>
<path d="M870.096 729.934C870.096 729.934 863.974 706.457 839.486 711.938C839.486 711.938 843.689 731.943 870.096 729.934Z" fill="#00B77E"/>
<path opacity="0.4" d="M870.096 729.934C870.096 729.934 863.974 706.457 839.486 711.938C839.486 711.938 843.689 731.943 870.096 729.934Z" fill="white"/>
<path d="M882.616 754.049C882.616 754.049 878.413 737.332 856.026 742.904C856.118 742.813 863.428 759.529 882.616 754.049Z" fill="#00B77E"/>
<path d="M897.872 743.179C897.872 743.179 899.973 716.962 927.294 713.765C927.202 713.765 928.573 739.434 897.872 743.179Z" fill="#00B77E"/>
<path d="M891.571 663.34C891.571 663.34 890.474 760.26 890.291 779.078" stroke="#868A91" stroke-width="0.55" stroke-miterlimit="10"/>
<path d="M895.587 736.236C895.587 736.236 872.287 737.423 872.287 711.663C872.287 711.663 894.856 711.937 895.587 736.236Z" fill="#00B77E"/>
<path opacity="0.4" d="M895.587 736.236C895.587 736.236 872.287 737.423 872.287 711.663C872.287 711.663 894.856 711.937 895.587 736.236Z" fill="white"/>
<path d="M917.703 746.192C917.703 746.192 924.008 728.47 944.11 732.946C944.019 732.946 940.729 747.928 917.703 746.192Z" fill="#00B77E"/>
<path opacity="0.4" d="M917.703 746.192C917.703 746.192 924.008 728.47 944.11 732.946C944.019 732.946 940.729 747.928 917.703 746.192Z" fill="white"/>
<path d="M908.38 778.622H867.08V783.829H908.38V778.622Z" fill="#868A91"/>
<path d="M903.171 817.627H872.287L870.003 783.737H905.456L903.171 817.627Z" fill="#868A91"/>
<path d="M903.171 817.627H872.287L870.003 783.737H905.456L903.171 817.627Z" fill="#868A91"/>
<path d="M908.379 778.622H901.709V783.738H870.003L870.094 785.199H895.496L895.587 817.628H903.171L905.456 783.738H908.379V778.622Z" fill="#61656D"/>
<path d="M891.295 683.345C891.295 683.345 879.874 666.081 894.768 649.547C894.676 649.547 904.545 666.355 891.295 683.345Z" fill="#00B77E"/>
<path opacity="0.4" d="M891.295 683.345C891.295 683.345 879.874 666.081 894.768 649.547C894.676 649.547 904.545 666.355 891.295 683.345Z" fill="white"/>
<path d="M901.618 718.057C901.618 718.057 889.1 691.292 911.486 674.849C911.486 674.849 926.928 699.056 901.618 718.057Z" fill="#00B77E"/>
<path opacity="0.4" d="M901.618 718.057C901.618 718.057 889.1 691.292 911.486 674.849C911.486 674.849 926.928 699.056 901.618 718.057Z" fill="white"/>
<path d="M904.636 763.822C904.636 763.822 907.651 752.129 923.642 754.596C923.642 754.596 920.992 766.471 904.636 763.822Z" fill="#00B77E"/>
<path d="M882.886 769.122C882.886 769.122 879.414 746.559 900.064 743.91C900.064 743.91 904.999 763.55 882.886 769.122Z" fill="#00B77E"/>
<path opacity="0.4" d="M882.886 769.122C882.886 769.122 879.414 746.559 900.064 743.91C900.064 743.91 904.999 763.55 882.886 769.122Z" fill="white"/>
<path d="M840.493 672.384C840.493 672.384 852.92 671.105 855.295 683.071C851.969 683.292 848.671 682.344 845.969 680.393C843.266 678.442 841.33 675.609 840.493 672.384Z" fill="#00B77E"/>
<path opacity="0.3" d="M840.493 672.384C840.493 672.384 852.92 671.105 855.295 683.071C851.969 683.292 848.671 682.344 845.969 680.393C843.266 678.442 841.33 675.609 840.493 672.384Z" fill="white"/>
<path d="M870.826 671.105C870.826 671.105 855.384 687.182 870.461 704.721C870.461 704.721 885.72 687.547 870.826 671.105Z" fill="#00B77E"/>
<path opacity="0.4" d="M870.826 671.105C870.826 671.105 855.384 687.182 870.461 704.721C870.461 704.721 885.72 687.547 870.826 671.105Z" fill="white"/>
<path d="M1755.04 728.928H1818C1818.82 728.928 1819.62 728.6 1820.19 728.018C1820.78 727.435 1821.11 726.645 1821.11 725.822C1821.11 724.998 1820.78 724.208 1820.19 723.625C1819.62 723.043 1818.82 722.716 1818 722.716H1755.04V728.928Z" fill="#B2B6BB"/>
<path d="M1809.87 725.822H1746.36V921.398H1809.87V725.822Z" fill="#B2B6BB"/>
<path d="M1748.28 725.822H1474.25V921.398H1748.28V725.822Z" fill="#DADDDF"/>
<path d="M1738.41 906.509H1483.3V753.045L1738.41 753.227V906.509ZM1484.76 905.139H1737.04V754.689H1484.76V905.139Z" fill="#B2B6BB"/>
<path d="M1467.03 728.928H1755.14C1755.96 728.928 1756.74 728.6 1757.33 728.018C1757.91 727.435 1758.24 726.645 1758.24 725.822C1758.24 724.998 1757.91 724.208 1757.33 723.625C1756.74 723.043 1755.96 722.716 1755.14 722.716H1467.03C1466.21 722.716 1465.42 723.043 1464.84 723.625C1464.26 724.208 1463.93 724.998 1463.93 725.822C1463.93 726.645 1464.26 727.435 1464.84 728.018C1465.42 728.6 1466.21 728.928 1467.03 728.928Z" fill="#DADDDF"/>
<path d="M1483.36 830.223H1738.47V828.761H1483.36V830.223Z" fill="#B2B6BB"/>
<path d="M1608.66 780.997C1609.62 780.997 1610.56 780.713 1611.35 780.182C1612.16 779.649 1612.78 778.893 1613.14 778.008C1613.51 777.124 1613.6 776.15 1613.42 775.211C1613.22 774.272 1612.77 773.409 1612.09 772.732C1611.41 772.055 1610.55 771.594 1609.61 771.408C1608.67 771.22 1607.7 771.316 1606.81 771.683C1605.92 772.049 1605.17 772.67 1604.64 773.466C1604.11 774.262 1603.82 775.199 1603.82 776.156C1603.82 777.439 1604.33 778.671 1605.24 779.579C1606.15 780.487 1607.38 780.997 1608.66 780.997Z" fill="#B2B6BB"/>
<path opacity="0.15" d="M1610.49 776.154C1610.49 775.145 1610.17 774.162 1609.58 773.342C1608.99 772.523 1608.16 771.909 1607.2 771.587C1607.7 771.399 1608.23 771.307 1608.76 771.313C1610.04 771.313 1611.27 771.823 1612.18 772.73C1613.09 773.638 1613.6 774.87 1613.6 776.154C1613.6 777.438 1613.09 778.67 1612.18 779.578C1611.27 780.486 1610.04 780.995 1608.76 780.995C1608.23 781.002 1607.7 780.909 1607.2 780.721C1608.15 780.383 1608.97 779.765 1609.56 778.949C1610.14 778.134 1610.47 777.159 1610.49 776.154Z" fill="black"/>
<path d="M1608.66 856.45C1609.62 856.45 1610.56 856.167 1611.35 855.634C1612.16 855.102 1612.78 854.346 1613.14 853.462C1613.51 852.577 1613.6 851.604 1613.42 850.664C1613.22 849.725 1612.77 848.862 1612.09 848.185C1611.41 847.509 1610.55 847.047 1609.61 846.86C1608.67 846.674 1607.7 846.77 1606.81 847.136C1605.92 847.502 1605.17 848.122 1604.64 848.919C1604.11 849.715 1603.82 850.651 1603.82 851.608C1603.82 852.893 1604.33 854.124 1605.24 855.032C1606.15 855.94 1607.38 856.45 1608.66 856.45Z" fill="#B2B6BB"/>
<path opacity="0.15" d="M1610.49 851.609C1610.49 850.6 1610.17 849.616 1609.58 848.797C1608.99 847.978 1608.16 847.364 1607.2 847.042C1607.7 846.854 1608.23 846.761 1608.76 846.768C1610.04 846.768 1611.27 847.277 1612.18 848.185C1613.09 849.093 1613.6 850.325 1613.6 851.609C1613.6 852.893 1613.09 854.124 1612.18 855.032C1611.27 855.94 1610.04 856.451 1608.76 856.451C1608.23 856.456 1607.7 856.363 1607.2 856.177C1608.16 855.861 1609 855.249 1609.59 854.428C1610.18 853.608 1610.5 852.62 1610.49 851.609Z" fill="black"/>
<path d="M1758.24 735.505L1748.28 728.928H1474.25V731.942L1758.24 735.505Z" fill="#B2B6BB"/>
<path d="M1797.35 921.489L1802.28 975.567C1802.38 976.033 1802.37 976.508 1802.26 976.965C1802.15 977.422 1801.94 977.851 1801.64 978.217C1801.34 978.582 1800.97 978.883 1800.54 979.084C1800.12 979.294 1799.65 979.395 1799.18 979.404C1798.52 979.413 1797.87 979.212 1797.33 978.838C1796.79 978.463 1796.38 977.924 1796.16 977.303L1782 921.489H1797.35Z" fill="#DADDDF"/>
<path d="M1795.52 952.913L1789.58 951.452L1781.91 921.398H1797.35L1802.28 975.476C1802.42 976.189 1802.31 976.929 1801.98 977.577C1801.65 978.217 1801.11 978.737 1800.46 979.039L1795.52 952.913Z" fill="#B2B6BB"/>
<path d="M1742.07 921.489L1747 975.567C1747.09 976.033 1747.09 976.508 1746.98 976.965C1746.87 977.422 1746.66 977.851 1746.35 978.217C1746.06 978.582 1745.69 978.883 1745.26 979.084C1744.84 979.294 1744.37 979.395 1743.9 979.404C1743.24 979.413 1742.59 979.212 1742.05 978.838C1741.51 978.463 1741.1 977.924 1740.88 977.303L1726.72 921.489H1742.07Z" fill="#DADDDF"/>
<path d="M1736.95 927.426L1728.18 925.782L1726.72 921.489H1742.16L1747.1 975.568C1747.23 976.28 1747.13 977.02 1746.79 977.659C1746.46 978.308 1745.93 978.829 1745.27 979.13L1736.95 927.426Z" fill="#B2B6BB"/>
<path d="M1540.59 921.489L1535.66 975.567C1535.57 976.033 1535.58 976.508 1535.69 976.965C1535.79 977.422 1536 977.851 1536.31 978.217C1536.6 978.582 1536.97 978.883 1537.4 979.084C1537.82 979.294 1538.29 979.395 1538.76 979.404C1539.42 979.413 1540.07 979.212 1540.61 978.838C1541.15 978.463 1541.56 977.924 1541.78 977.303L1555.94 921.489H1540.59Z" fill="#DADDDF"/>
<path d="M1543.24 950.264L1538.03 948.985L1540.5 921.489H1555.94L1541.78 977.303C1541.56 977.924 1541.15 978.463 1540.61 978.838C1540.07 979.212 1539.42 979.413 1538.76 979.404H1538.58L1543.24 950.264Z" fill="#B2B6BB"/>
<path d="M1483.76 921.489L1478.82 975.567C1478.73 976.033 1478.74 976.508 1478.85 976.965C1478.96 977.422 1479.17 977.851 1479.47 978.217C1479.77 978.582 1480.14 978.883 1480.57 979.084C1480.99 979.294 1481.46 979.395 1481.93 979.404C1482.59 979.413 1483.23 979.212 1483.77 978.838C1484.31 978.463 1484.72 977.924 1484.95 977.303L1499.11 921.489H1483.76Z" fill="#DADDDF"/>
<path d="M1489.79 926.148L1483.03 924.869L1483.76 921.398H1499.2L1485.04 977.212C1484.82 977.833 1484.41 978.372 1483.87 978.746C1483.33 979.121 1482.68 979.322 1482.02 979.313H1481.84L1489.79 926.148Z" fill="#B2B6BB"/>
<path d="M1165.55 233.703V340.672H1301.84V233.703H1165.55Z" fill="white"/>
<path d="M1179.26 247.953V326.421H1288.13V247.953H1179.26Z" fill="#DDDDDD"/>
<path d="M1304.85 233.732H1301.74V340.609H1304.85V233.732Z" fill="#DADDDF"/>
<path d="M1235.68 291.189C1239.04 291.189 1242.33 290.192 1245.12 288.325C1247.92 286.459 1250.09 283.805 1251.38 280.7C1252.67 277.595 1253 274.179 1252.35 270.883C1251.69 267.587 1250.07 264.56 1247.7 262.184C1245.32 259.808 1242.29 258.189 1239 257.533C1235.7 256.878 1232.28 257.215 1229.18 258.501C1226.07 259.787 1223.42 261.965 1221.55 264.758C1219.68 267.552 1218.68 270.837 1218.68 274.198C1218.68 278.704 1220.48 283.026 1223.66 286.212C1226.85 289.398 1231.17 291.189 1235.68 291.189Z" fill="#00B77E"/>
<path opacity="0.2" d="M1191 319.507L1218.68 301.785L1191.27 284.155L1191 319.507Z" fill="black"/>
<path opacity="0.2" d="M1239.42 278.118V314.84H1276.15V278.118H1239.42Z" fill="black"/>
<path d="M1506.24 978.034H1117.99C1114.43 978.025 1111.02 976.609 1108.5 974.097C1105.98 971.576 1104.57 968.168 1104.56 964.606V414.965C1104.57 411.405 1105.98 407.993 1108.5 405.475C1111.02 402.958 1114.43 401.542 1117.99 401.537H1506.24C1509.8 401.542 1513.21 402.958 1515.73 405.475C1518.25 407.993 1519.67 411.405 1519.67 414.965V964.514C1519.68 966.287 1519.33 968.04 1518.66 969.675C1517.99 971.311 1517 972.8 1515.76 974.051C1514.5 975.312 1513.02 976.307 1511.39 976.992C1509.76 977.678 1508.01 978.025 1506.24 978.034Z" fill="#00B77E"/>
<path opacity="0.5" d="M1506.24 978.034H1117.99C1114.43 978.025 1111.02 976.609 1108.5 974.097C1105.98 971.576 1104.57 968.168 1104.56 964.606V414.965C1104.57 411.405 1105.98 407.993 1108.5 405.475C1111.02 402.958 1114.43 401.542 1117.99 401.537H1506.24C1509.8 401.542 1513.21 402.958 1515.73 405.475C1518.25 407.993 1519.67 411.405 1519.67 414.965V964.514C1519.68 966.287 1519.33 968.04 1518.66 969.675C1517.99 971.311 1517 972.8 1515.76 974.051C1514.5 975.312 1513.02 976.307 1511.39 976.992C1509.76 977.678 1508.01 978.025 1506.24 978.034Z" fill="white"/>
<path d="M1494.54 978.034H1106.3C1102.74 978.025 1099.32 976.609 1096.8 974.097C1094.29 971.576 1092.87 968.168 1092.86 964.606V414.965C1092.87 411.405 1094.29 407.993 1096.8 405.475C1099.32 402.958 1102.74 401.542 1106.3 401.537H1494.54C1498.1 401.542 1501.52 402.958 1504.03 405.475C1506.55 407.993 1507.97 411.405 1507.97 414.965V964.514C1507.98 966.287 1507.64 968.04 1506.96 969.675C1506.29 971.311 1505.3 972.8 1504.06 974.051C1502.81 975.312 1501.33 976.307 1499.69 976.992C1498.06 977.678 1496.31 978.025 1494.54 978.034Z" fill="#00B77E"/>
<path opacity="0.7" d="M1494.54 978.034H1106.3C1102.74 978.025 1099.32 976.609 1096.8 974.097C1094.29 971.576 1092.87 968.168 1092.86 964.606V414.965C1092.87 411.405 1094.29 407.993 1096.8 405.475C1099.32 402.958 1102.74 401.542 1106.3 401.537H1494.54C1498.1 401.542 1501.52 402.958 1504.03 405.475C1506.55 407.993 1507.97 411.405 1507.97 414.965V964.514C1507.98 966.287 1507.64 968.04 1506.96 969.675C1506.29 971.311 1505.3 972.8 1504.06 974.051C1502.81 975.312 1501.33 976.307 1499.69 976.992C1498.06 977.678 1496.31 978.025 1494.54 978.034Z" fill="white"/>
<path d="M1434.78 500.193H1310.15C1308.26 500.193 1306.45 499.443 1305.11 498.106C1303.77 496.77 1303.02 494.958 1303.02 493.068C1303.02 491.179 1303.77 489.366 1305.11 488.03C1306.45 486.693 1308.26 485.942 1310.15 485.942H1434.78C1436.67 485.942 1438.49 486.693 1439.82 488.03C1441.16 489.366 1441.91 491.179 1441.91 493.068C1441.91 494.958 1441.16 496.77 1439.82 498.106C1438.49 499.443 1436.67 500.193 1434.78 500.193Z" fill="white"/>
<path d="M1438.07 533.992H1306.77C1305.77 533.992 1304.82 533.598 1304.12 532.895C1303.42 532.193 1303.02 531.24 1303.02 530.247C1303.02 529.253 1303.42 528.301 1304.12 527.599C1304.82 526.897 1305.77 526.502 1306.77 526.502H1438.07C1439.07 526.502 1440.02 526.897 1440.72 527.599C1441.42 528.301 1441.82 529.253 1441.82 530.247C1441.82 531.24 1441.42 532.193 1440.72 532.895C1440.02 533.598 1439.07 533.992 1438.07 533.992Z" fill="white"/>
<path d="M1384.34 564.867H1306.77C1305.77 564.867 1304.82 564.472 1304.12 563.77C1303.42 563.068 1303.02 562.115 1303.02 561.122C1303.02 560.128 1303.42 559.176 1304.12 558.474C1304.82 557.771 1305.77 557.377 1306.77 557.377H1384.34C1384.84 557.371 1385.33 557.465 1385.78 557.652C1386.24 557.838 1386.66 558.114 1387 558.463C1387.35 558.812 1387.63 559.226 1387.82 559.683C1388 560.139 1388.1 560.629 1388.09 561.122C1388.09 562.114 1387.69 563.063 1386.99 563.765C1386.29 564.466 1385.34 564.863 1384.34 564.867Z" fill="white"/>
<path d="M1434.78 687.456H1310.15C1308.26 687.456 1306.45 686.706 1305.11 685.37C1303.77 684.033 1303.02 682.221 1303.02 680.331C1303.02 678.442 1303.77 676.629 1305.11 675.293C1306.45 673.957 1308.26 673.206 1310.15 673.206H1434.78C1436.67 673.206 1438.49 673.957 1439.82 675.293C1441.16 676.629 1441.91 678.442 1441.91 680.331C1441.91 682.221 1441.16 684.033 1439.82 685.37C1438.49 686.706 1436.67 687.456 1434.78 687.456Z" fill="white"/>
<path d="M1438.07 721.347H1306.77C1305.77 721.347 1304.82 720.952 1304.12 720.25C1303.42 719.547 1303.02 718.595 1303.02 717.602C1303.02 716.608 1303.42 715.655 1304.12 714.953C1304.82 714.251 1305.77 713.856 1306.77 713.856H1438.07C1438.57 713.851 1439.05 713.945 1439.51 714.131C1439.97 714.318 1440.38 714.594 1440.73 714.942C1441.08 715.291 1441.36 715.705 1441.54 716.162C1441.73 716.619 1441.82 717.108 1441.82 717.602C1441.81 718.593 1441.42 719.543 1440.72 720.244C1440.01 720.946 1439.06 721.342 1438.07 721.347Z" fill="white"/>
<path d="M1384.34 752.221H1306.77C1305.77 752.221 1304.82 751.826 1304.12 751.125C1303.42 750.422 1303.02 749.469 1303.02 748.476C1303.02 747.483 1303.42 746.53 1304.12 745.827C1304.82 745.125 1305.77 744.73 1306.77 744.73H1384.34C1384.84 744.726 1385.33 744.819 1385.78 745.006C1386.24 745.192 1386.66 745.468 1387 745.816C1387.35 746.165 1387.63 746.58 1387.82 747.037C1388 747.494 1388.1 747.982 1388.09 748.476C1388.07 749.463 1387.67 750.403 1386.97 751.101C1386.27 751.799 1385.33 752.2 1384.34 752.221Z" fill="white"/>
<path d="M1734.49 855.718L1765.28 890.613L1743.35 907.604L1717.58 884.036L1734.49 855.718Z" fill="#FC9D9D"/>
<path d="M1761.17 884.859L1780.81 899.931C1781.86 900.727 1782.6 901.873 1782.89 903.161C1783.17 904.451 1782.99 905.8 1782.37 906.965L1744.63 976.664C1744.23 977.404 1743.57 977.979 1742.78 978.262C1741.99 978.555 1741.11 978.536 1740.33 978.217C1738.66 977.595 1737.29 976.362 1736.5 974.764C1735.7 973.174 1735.54 971.338 1736.04 969.63L1736.5 967.986C1738.66 960.413 1739.8 952.575 1739.88 944.692L1740.43 907.879C1740.44 906.773 1740.83 905.705 1741.53 904.845C1742.23 903.984 1743.18 903.381 1744.26 903.129C1747.78 902.336 1750.96 900.467 1753.37 897.782C1755.78 895.097 1757.28 891.73 1757.69 888.147L1757.88 886.321C1757.9 885.953 1758.03 885.6 1758.24 885.299C1758.46 884.998 1758.75 884.76 1759.08 884.61C1759.42 884.461 1759.8 884.405 1760.16 884.449C1760.53 884.493 1760.87 884.634 1761.17 884.859Z" fill="#3F4249"/>
<path d="M1751.66 874.718L1654.72 759.437L1655.9 656.945L1657 598.208L1600.81 598.117L1606.93 770.673C1606.96 774.322 1607.72 777.929 1609.18 781.273C1610.64 784.617 1612.77 787.631 1615.43 790.13L1730.65 895.728L1751.66 874.718Z" fill="#00B77E"/>
<path opacity="0.2" d="M1751.66 874.72L1654.72 759.439L1656.73 598.301L1600.81 598.21L1606.93 770.766C1606.96 774.416 1607.72 778.021 1609.18 781.366C1610.64 784.711 1612.77 787.723 1615.43 790.223L1730.65 895.822L1751.66 874.72Z" fill="white"/>
<path d="M1715.75 926.513L1687.43 927.061L1688.89 948.894L1715.02 951.269L1715.75 926.513Z" fill="#FC9D9D"/>
<path d="M1701.96 938.024C1698.33 938.029 1694.84 939.441 1692.23 941.96C1689.63 944.482 1688.1 947.916 1687.98 951.543L1687.89 955.014C1687.8 956.403 1687.59 957.782 1687.25 959.125L1683.32 973.466C1683.16 974.042 1683.14 974.645 1683.26 975.239C1683.37 975.823 1683.63 976.371 1683.98 976.846C1684.35 977.321 1684.81 977.714 1685.35 977.979C1685.88 978.244 1686.46 978.39 1687.06 978.399H1719.23C1719.86 978.408 1720.49 978.262 1721.04 977.97C1721.61 977.669 1722.09 977.239 1722.44 976.719C1722.8 976.189 1723.02 975.586 1723.07 974.955C1723.14 974.325 1723.04 973.686 1722.79 973.101L1717.22 959.308C1716.47 957.38 1716.04 955.343 1715.94 953.279L1715.85 951.634C1715.79 947.999 1714.3 944.527 1711.7 941.979C1709.1 939.427 1705.59 938.007 1701.96 938.024Z" fill="#3F4249"/>
<path d="M1714.57 598.3L1716.21 936.562H1687.7L1662.03 655.576C1662.02 654.776 1661.69 654.014 1661.11 653.458C1660.54 652.901 1659.77 652.595 1658.97 652.607C1658.17 652.62 1657.4 652.948 1656.85 653.522C1656.29 654.097 1655.99 654.868 1656 655.667L1655.27 681.61L1648.41 598.3H1714.57Z" fill="#00B77E"/>
<path opacity="0.2" d="M1714.57 598.3L1716.21 936.562H1687.7L1662.03 655.576C1662.02 654.776 1661.69 654.014 1661.11 653.458C1660.54 652.901 1659.77 652.595 1658.97 652.607C1658.17 652.62 1657.4 652.948 1656.85 653.522C1656.29 654.097 1655.99 654.868 1656 655.667L1655.27 681.61L1648.41 598.3H1714.57Z" fill="white"/>
<path opacity="0.4" d="M1602.63 608.623H1714.66L1714.57 598.3H1600.81L1602.63 608.623Z" fill="black"/>
<path d="M1682.61 609.454H1686.27V598.31H1682.61V609.454Z" fill="#3F4249"/>
<path d="M1632.6 609.454H1636.26V598.31H1632.6V609.454Z" fill="#3F4249"/>
<path opacity="0.5" d="M1707.9 952.274C1708 952.265 1708.11 952.237 1708.2 952.191C1708.29 952.146 1708.37 952.082 1708.44 952C1708.53 951.853 1708.55 951.68 1708.52 951.506C1708.49 951.342 1708.4 951.187 1708.26 951.086C1708.17 951.086 1701.96 946.975 1695.74 951.086C1695.67 951.132 1695.61 951.196 1695.56 951.269C1695.52 951.342 1695.48 951.424 1695.46 951.506C1695.44 951.589 1695.44 951.68 1695.46 951.762C1695.48 951.844 1695.52 951.927 1695.56 952C1695.61 952.073 1695.67 952.137 1695.74 952.182C1695.82 952.228 1695.89 952.265 1695.98 952.283C1696.06 952.301 1696.15 952.301 1696.24 952.283C1696.32 952.265 1696.4 952.228 1696.47 952.182C1701.96 948.528 1707.53 952.182 1707.53 952.182C1707.64 952.246 1707.77 952.274 1707.9 952.274Z" fill="black"/>
<path opacity="0.5" d="M1707.9 955.928C1708 955.919 1708.11 955.891 1708.2 955.845C1708.29 955.8 1708.37 955.736 1708.44 955.654C1708.53 955.507 1708.55 955.334 1708.52 955.16C1708.49 954.996 1708.4 954.841 1708.26 954.74C1708.17 954.74 1701.96 950.629 1695.74 954.74C1695.67 954.786 1695.61 954.85 1695.56 954.923C1695.52 954.996 1695.48 955.078 1695.46 955.16C1695.44 955.243 1695.44 955.334 1695.46 955.416C1695.48 955.498 1695.52 955.581 1695.56 955.654C1695.61 955.727 1695.67 955.791 1695.74 955.836C1695.82 955.882 1695.89 955.919 1695.98 955.937C1696.06 955.955 1696.15 955.955 1696.24 955.937C1696.32 955.919 1696.4 955.882 1696.47 955.836C1701.96 952.182 1707.53 955.836 1707.53 955.836C1707.64 955.9 1707.77 955.928 1707.9 955.928Z" fill="black"/>
<path opacity="0.5" d="M1707.9 959.673C1708 959.664 1708.11 959.636 1708.2 959.591C1708.29 959.545 1708.37 959.481 1708.44 959.399C1708.53 959.253 1708.55 959.079 1708.52 958.906C1708.49 958.741 1708.4 958.586 1708.26 958.485C1708.17 958.485 1701.96 954.375 1695.74 958.485C1695.67 958.531 1695.61 958.595 1695.56 958.668C1695.52 958.741 1695.48 958.814 1695.46 958.906C1695.44 958.988 1695.44 959.079 1695.46 959.161C1695.48 959.244 1695.52 959.326 1695.56 959.399C1695.61 959.472 1695.67 959.536 1695.74 959.582C1695.82 959.627 1695.89 959.664 1695.98 959.682C1696.06 959.691 1696.15 959.691 1696.24 959.682C1696.32 959.664 1696.4 959.627 1696.47 959.582C1701.96 955.928 1707.53 959.582 1707.53 959.582C1707.71 959.582 1707.8 959.673 1707.9 959.673Z" fill="black"/>
<path opacity="0.5" d="M1747 917.105C1747.15 917.084 1747.29 917.021 1747.41 916.924C1747.52 916.826 1747.6 916.699 1747.64 916.557C1747.73 916.191 1747.46 915.917 1747.09 915.826L1740.42 914.912C1740.06 914.821 1739.79 915.095 1739.69 915.46C1739.6 915.826 1739.88 916.1 1740.24 916.191L1746.91 917.105H1747Z" fill="black"/>
<path opacity="0.5" d="M1746.82 921.672C1746.97 921.651 1747.1 921.588 1747.22 921.491C1747.33 921.394 1747.41 921.267 1747.46 921.124C1747.55 920.759 1747.28 920.485 1746.91 920.393L1740.24 919.48C1739.88 919.388 1739.6 919.662 1739.51 920.028C1739.42 920.393 1739.69 920.667 1740.06 920.759L1746.73 921.672H1746.82Z" fill="black"/>
<path opacity="0.5" d="M1746.82 926.605C1746.97 926.584 1747.1 926.521 1747.22 926.424C1747.33 926.327 1747.41 926.199 1747.46 926.057C1747.55 925.691 1747.28 925.417 1746.91 925.326L1740.24 924.413C1739.88 924.321 1739.6 924.595 1739.51 924.961C1739.42 925.326 1739.69 925.6 1740.06 925.691L1746.73 926.605H1746.82Z" fill="black"/>
<path opacity="0.5" d="M1782.36 906.965L1744.63 976.664C1744.23 977.403 1743.57 977.979 1742.78 978.262C1741.99 978.554 1741.11 978.536 1740.33 978.217C1740 978.116 1739.69 977.97 1739.42 977.76L1780.81 899.931C1781.87 900.718 1782.62 901.864 1782.9 903.157C1783.19 904.45 1783 905.802 1782.36 906.965Z" fill="black"/>
<path opacity="0.5" d="M1719.32 978.399H1687.15C1686.57 978.39 1685.99 978.253 1685.47 978.006C1684.94 977.75 1684.49 977.376 1684.12 976.928C1683.75 976.472 1683.49 975.942 1683.35 975.375C1683.22 974.809 1683.2 974.225 1683.32 973.649H1723.06C1723.19 974.215 1723.19 974.8 1723.06 975.366C1722.94 975.933 1722.68 976.463 1722.32 976.919C1721.96 977.367 1721.5 977.741 1720.99 977.997C1720.47 978.253 1719.89 978.39 1719.32 978.399Z" fill="black"/>
<g opacity="0.2">
<path opacity="0.2" d="M1678.38 848.046L1679.75 849.599L1673.54 781.818L1672.17 780.266L1678.38 848.046Z" fill="black"/>
</g>
<path d="M1623.56 598.483C1631.87 489.231 1641.01 422.273 1641.01 422.273L1641.83 421.999C1641.83 421.999 1657.64 443.1 1678.11 426.658L1680.85 423.278L1683.23 423.917H1683.13C1683.13 423.917 1684.14 515.631 1693.37 598.392L1623.56 598.483Z" fill="white"/>
<path d="M1757.15 505.217L1719.77 513.986L1716.39 502.568L1714.93 649.273H1693.09C1691.11 649.276 1689.21 648.536 1687.75 647.199C1686.3 645.862 1685.4 644.025 1685.24 642.056C1675.55 526.775 1683.13 424.009 1683.13 424.009L1699.03 428.119L1728.27 435.61C1732.6 436.7 1736.54 438.981 1739.64 442.193C1742.74 445.406 1744.88 449.423 1745.82 453.788L1757.15 505.217Z" fill="#21252B"/>
<path d="M1640.83 382.993L1641.1 425.561C1641.11 426.478 1641.39 427.371 1641.92 428.119L1642.29 428.667C1652.8 439.172 1669.34 438.35 1681.58 428.211C1682.19 427.708 1682.66 427.058 1682.95 426.323C1683.23 425.588 1683.34 424.791 1683.23 424.009L1676.65 380.07L1640.83 382.993Z" fill="#FC9D9D"/>
<path d="M1680.39 364.906C1680.39 364.906 1687.7 412.864 1661.2 414.782C1635.35 416.701 1634.61 368.195 1634.61 368.195L1633.88 354.31L1667.14 348.464L1675.55 352.757L1680.39 364.906Z" fill="#FC9D9D"/>
<path opacity="0.15" d="M1681.03 410.762L1679.11 397.608C1676.74 406.103 1671.71 413.137 1663.03 414.599H1663.12L1661.2 414.873C1654.26 415.421 1648.59 412.224 1644.21 405.373C1644.13 405.239 1643.99 405.145 1643.83 405.111C1643.68 405.077 1643.52 405.105 1643.39 405.19C1643.26 405.275 1643.16 405.409 1643.13 405.564C1643.09 405.718 1643.12 405.879 1643.2 406.012C1647.77 413.229 1653.89 416.608 1661.3 416.06C1662.85 415.973 1664.38 415.696 1665.86 415.238C1671.31 415.794 1676.77 414.186 1681.03 410.762Z" fill="black"/>
<path d="M1674.18 354.127C1674.18 354.127 1682.59 348.555 1686.61 358.055C1689.9 366.094 1684.32 374.863 1684.32 374.863L1679.48 374.407C1677.47 374.315 1676.01 373.402 1675.82 371.392L1674.18 354.127Z" fill="#21252B"/>
<path d="M1680.21 348.372C1680.94 357.507 1673.08 359.882 1669.88 360.156L1643.75 362.349C1642.74 362.426 1641.8 362.901 1641.12 363.671C1640.45 364.441 1640.12 365.443 1640.19 366.459L1640.65 374.772C1640.68 375.311 1640.51 375.844 1640.17 376.266C1639.83 376.687 1639.35 376.969 1638.82 377.056L1637.17 377.238L1635.35 379.522C1625.11 377.056 1620.82 348.007 1639.64 342.069C1641.65 341.429 1643.33 340.017 1644.3 338.142C1647.04 332.478 1658.28 331.016 1663.95 337.319C1664.48 337.977 1665.17 338.495 1665.95 338.828C1666.73 339.163 1667.58 339.303 1668.42 339.238C1675.37 339.055 1679.75 343.348 1680.21 348.372Z" fill="#21252B"/>
<path d="M1637.17 380.161C1637.1 379.393 1636.82 378.66 1636.36 378.039C1635.9 377.417 1635.28 376.931 1634.57 376.633C1633.86 376.333 1633.08 376.231 1632.31 376.338C1631.55 376.445 1630.83 376.755 1630.23 377.238L1630.14 377.329C1625.66 381.165 1628.49 393.497 1638.45 392.31L1637.17 380.161Z" fill="#FC9D9D"/>
<path d="M1686.51 373.676C1686.49 373.676 1686.47 373.667 1686.45 373.649C1686.43 373.632 1686.42 373.609 1686.42 373.584C1685.76 373.197 1685 372.996 1684.23 373.005C1683.45 373.014 1682.7 373.232 1682.05 373.635C1681.39 374.038 1680.86 374.611 1680.5 375.295C1680.15 375.977 1679.98 376.744 1680.03 377.512L1680.58 389.205C1690.44 388.84 1691.45 376.873 1686.51 373.676Z" fill="#FC9D9D"/>
<path d="M1638.45 381.714C1638.54 382.263 1638 382.811 1637.36 382.902C1637.05 382.945 1636.75 382.876 1636.5 382.707C1636.24 382.538 1636.06 382.283 1635.99 381.989L1634.89 374.133L1638.09 374.224L1638.45 381.714Z" fill="#21252B"/>
<path d="M1682.04 378.426C1682.13 378.974 1681.58 379.522 1680.94 379.613C1680.64 379.657 1680.33 379.588 1680.08 379.419C1679.83 379.251 1679.64 378.995 1679.57 378.7L1678.47 370.844L1681.67 370.935L1682.04 378.426Z" fill="#21252B"/>
<path d="M1669.98 361.345C1669.52 361.397 1669.06 361.397 1668.61 361.345C1668.46 361.345 1668.32 361.286 1668.22 361.184C1668.11 361.081 1668.06 360.942 1668.06 360.797C1668.06 360.652 1668.11 360.512 1668.22 360.409C1668.32 360.306 1668.46 360.249 1668.61 360.249C1668.7 360.249 1673.9 360.523 1676.1 357.051C1676.17 356.93 1676.29 356.842 1676.43 356.808C1676.56 356.774 1676.71 356.796 1676.83 356.869C1676.95 356.941 1677.04 357.059 1677.08 357.196C1677.1 357.333 1677.08 357.478 1677.01 357.6C1675.37 360.523 1671.89 361.162 1669.98 361.345Z" fill="#FC9D9D"/>
<path d="M1650.42 386.921C1650.87 386.921 1651.32 386.787 1651.69 386.537C1652.07 386.286 1652.36 385.929 1652.53 385.512C1652.71 385.094 1652.75 384.635 1652.66 384.192C1652.58 383.749 1652.36 383.342 1652.04 383.023C1651.72 382.704 1651.31 382.485 1650.87 382.398C1650.42 382.31 1649.97 382.355 1649.54 382.527C1649.13 382.701 1648.78 382.993 1648.52 383.369C1648.27 383.744 1648.14 384.186 1648.14 384.638C1648.14 385.243 1648.38 385.824 1648.8 386.253C1649.23 386.681 1649.82 386.921 1650.42 386.921Z" fill="#21252B"/>
<path d="M1649.33 384.913C1649.42 384.913 1649.51 384.885 1649.58 384.836C1649.65 384.786 1649.71 384.713 1649.75 384.63C1649.78 384.547 1649.79 384.455 1649.77 384.366C1649.75 384.278 1649.71 384.196 1649.65 384.132C1649.58 384.068 1649.51 384.026 1649.42 384.007C1649.33 383.99 1649.23 383.999 1649.15 384.034C1649.07 384.068 1649 384.127 1648.95 384.202C1648.9 384.277 1648.87 384.365 1648.87 384.456C1648.87 384.576 1648.91 384.693 1649.01 384.778C1649.09 384.864 1649.21 384.913 1649.33 384.913Z" fill="white"/>
<path d="M1668.06 385.642C1668.51 385.642 1668.95 385.508 1669.33 385.257C1669.7 385.007 1669.99 384.649 1670.17 384.232C1670.34 383.815 1670.39 383.356 1670.3 382.913C1670.21 382.47 1669.99 382.063 1669.67 381.744C1669.35 381.424 1668.94 381.207 1668.51 381.119C1668.06 381.03 1667.6 381.076 1667.18 381.249C1666.77 381.421 1666.41 381.714 1666.16 382.09C1665.91 382.465 1665.77 382.907 1665.77 383.359C1665.77 383.964 1666.01 384.545 1666.44 384.973C1666.87 385.401 1667.45 385.642 1668.06 385.642Z" fill="#21252B"/>
<path d="M1666.96 383.542C1667.05 383.542 1667.14 383.515 1667.22 383.466C1667.29 383.415 1667.35 383.343 1667.38 383.26C1667.42 383.177 1667.43 383.085 1667.41 382.996C1667.39 382.907 1667.35 382.826 1667.29 382.762C1667.23 382.698 1667.14 382.655 1667.05 382.637C1666.96 382.62 1666.87 382.629 1666.79 382.664C1666.71 382.698 1666.63 382.757 1666.59 382.832C1666.53 382.907 1666.5 382.995 1666.5 383.086C1666.5 383.206 1666.55 383.323 1666.64 383.408C1666.72 383.494 1666.84 383.542 1666.96 383.542Z" fill="white"/>
<g opacity="0.3">
<path opacity="0.3" d="M1660.38 395.508L1662.21 395.325C1662.39 395.313 1662.56 395.229 1662.68 395.092C1662.8 394.955 1662.86 394.776 1662.85 394.595C1662.84 394.413 1662.75 394.244 1662.61 394.123C1662.47 394.004 1662.3 393.943 1662.12 393.955L1660.29 394.138C1660.11 394.152 1659.92 394.131 1659.75 394.075C1659.59 394.018 1659.42 393.928 1659.29 393.808C1659.15 393.688 1659.04 393.543 1658.96 393.381C1658.88 393.217 1658.84 393.04 1658.83 392.859C1658.8 392.677 1658.82 392.492 1658.87 392.316C1658.93 392.141 1659.02 391.978 1659.14 391.84C1659.26 391.702 1659.4 391.591 1659.58 391.515C1659.74 391.438 1659.92 391.398 1660.11 391.397C1660.29 391.385 1660.45 391.301 1660.57 391.164C1660.7 391.027 1660.76 390.848 1660.75 390.667C1660.74 390.485 1660.65 390.316 1660.51 390.195C1660.37 390.076 1660.2 390.015 1660.02 390.027C1659.65 390.051 1659.3 390.145 1658.97 390.304C1658.65 390.464 1658.36 390.686 1658.12 390.957C1657.89 391.229 1657.7 391.545 1657.59 391.887C1657.48 392.229 1657.43 392.59 1657.46 392.95C1657.48 393.31 1657.58 393.663 1657.73 393.986C1657.9 394.31 1658.12 394.599 1658.39 394.837C1658.65 395.074 1658.97 395.256 1659.31 395.371C1659.66 395.486 1660.02 395.533 1660.38 395.508Z" fill="black"/>
</g>
<path d="M1674.45 377.239L1664.49 377.787L1663.12 377.879L1654.35 378.336H1654.26L1643.02 378.975C1642.59 378.997 1642.16 379.105 1641.77 379.291C1641.39 379.478 1641.03 379.74 1640.75 380.063C1640.45 380.386 1640.23 380.763 1640.09 381.172C1639.95 381.58 1639.89 382.014 1639.91 382.446L1640.1 385.004C1640.12 386.211 1640.4 387.399 1640.9 388.499C1641.39 389.599 1642.11 390.587 1642.99 391.406C1643.89 392.224 1644.93 392.856 1646.06 393.264C1647.21 393.672 1648.41 393.847 1649.62 393.78C1650.82 393.712 1652 393.403 1653.08 392.872C1654.17 392.34 1655.14 391.596 1655.92 390.684C1656.72 389.771 1657.32 388.71 1657.69 387.562C1658.06 386.413 1658.2 385.201 1658.1 383.999L1657.91 381.441C1657.89 380.721 1657.59 380.035 1657.09 379.523L1660.56 379.34C1660.15 379.925 1659.95 380.637 1660.02 381.35L1660.2 383.908C1660.23 385.114 1660.5 386.303 1661 387.403C1661.5 388.503 1662.21 389.491 1663.1 390.309C1663.99 391.128 1665.03 391.76 1666.17 392.167C1667.31 392.576 1668.51 392.751 1669.72 392.684C1670.93 392.616 1672.1 392.307 1673.18 391.776C1674.27 391.244 1675.24 390.499 1676.02 389.588C1676.82 388.675 1677.42 387.614 1677.79 386.465C1678.16 385.317 1678.3 384.106 1678.2 382.903L1678.02 380.345C1677.99 379.905 1677.88 379.475 1677.69 379.078C1677.5 378.683 1677.22 378.329 1676.89 378.04C1676.55 377.751 1676.17 377.531 1675.75 377.393C1675.33 377.256 1674.89 377.203 1674.45 377.239ZM1656.64 381.533L1656.82 384.09C1656.93 386.113 1656.22 388.097 1654.87 389.604C1653.52 391.111 1651.62 392.019 1649.6 392.129C1647.57 392.238 1645.59 391.539 1644.08 390.185C1642.57 388.832 1641.67 386.935 1641.56 384.913L1641.38 382.355C1641.36 381.823 1641.54 381.304 1641.91 380.912C1642.26 380.518 1642.76 380.282 1643.29 380.254L1654.53 379.614H1654.62C1655.14 379.629 1655.63 379.833 1656 380.187C1656.37 380.542 1656.6 381.021 1656.64 381.533ZM1676.83 382.903C1676.94 384.925 1676.23 386.909 1674.88 388.417C1673.53 389.924 1671.63 390.832 1669.61 390.942C1667.58 391.05 1665.6 390.351 1664.09 388.998C1662.58 387.645 1661.68 385.747 1661.57 383.725L1661.39 381.167C1661.37 380.636 1661.55 380.117 1661.92 379.724C1662.27 379.33 1662.78 379.095 1663.31 379.066L1664.68 378.975L1674.64 378.427C1675.17 378.407 1675.69 378.597 1676.08 378.956C1676.47 379.315 1676.71 379.814 1676.74 380.345L1676.83 382.903Z" fill="#21252B"/>
<path d="M1654.72 399.162L1665.96 398.34C1666.02 398.339 1666.09 398.353 1666.16 398.381C1666.22 398.409 1666.28 398.451 1666.31 398.504C1666.36 398.557 1666.39 398.618 1666.4 398.685C1666.42 398.752 1666.42 398.821 1666.41 398.888C1666.07 400.151 1665.34 401.278 1664.33 402.116C1663.32 402.954 1662.08 403.462 1660.77 403.571C1659.48 403.681 1658.16 403.387 1657.03 402.729C1655.9 402.071 1654.99 401.081 1654.44 399.893V399.801C1654.4 399.745 1654.37 399.678 1654.37 399.609C1654.36 399.538 1654.37 399.468 1654.4 399.403C1654.42 399.338 1654.47 399.282 1654.52 399.24C1654.58 399.198 1654.64 399.17 1654.72 399.162Z" fill="white"/>
<g opacity="0.3">
<path opacity="0.3" d="M1634.71 386.465C1634.54 386.477 1634.38 386.429 1634.24 386.328C1634.1 386.228 1634.01 386.082 1633.98 385.917L1633.79 384.547C1633.61 383.086 1633.24 381.989 1632.51 381.441C1632.37 381.309 1632.19 381.208 1632 381.145C1631.82 381.082 1631.62 381.059 1631.42 381.076C1631.33 381.096 1631.24 381.099 1631.15 381.082C1631.06 381.066 1630.98 381.031 1630.91 380.98C1630.83 380.93 1630.77 380.864 1630.72 380.787C1630.67 380.711 1630.64 380.626 1630.63 380.536C1630.61 380.447 1630.62 380.356 1630.64 380.269C1630.67 380.183 1630.71 380.102 1630.77 380.033C1630.82 379.962 1630.9 379.906 1630.98 379.866C1631.06 379.824 1631.14 379.802 1631.23 379.797C1631.98 379.708 1632.73 379.904 1633.34 380.345C1634.34 381.076 1634.89 382.446 1635.16 384.364L1635.35 385.735C1635.36 385.916 1635.29 386.092 1635.17 386.228C1635.05 386.364 1634.89 386.449 1634.71 386.465Z" fill="black"/>
</g>
<g opacity="0.3">
<path opacity="0.3" d="M1683.41 382.902C1683.49 382.905 1683.57 382.89 1683.65 382.859C1683.74 382.828 1683.81 382.781 1683.86 382.721C1683.93 382.661 1683.97 382.59 1684 382.511C1684.04 382.432 1684.05 382.348 1684.05 382.263V380.801C1683.96 379.339 1684.23 378.152 1684.87 377.604C1685.33 377.147 1685.88 377.056 1685.88 377.147C1686.05 377.147 1686.2 377.08 1686.32 376.96C1686.45 376.84 1686.51 376.678 1686.51 376.508C1686.51 376.339 1686.45 376.176 1686.32 376.056C1686.2 375.936 1686.05 375.868 1685.88 375.868C1685.11 375.9 1684.39 376.228 1683.86 376.782C1682.95 377.695 1682.59 379.065 1682.68 380.984V382.354C1682.68 382.628 1682.95 382.902 1683.41 382.902Z" fill="black"/>
</g>
<g opacity="0.3">
<path opacity="0.3" d="M1735.76 454.519L1747.28 507.592L1757.24 505.217L1746.91 457.99C1744.9 445.201 1738.78 439.172 1729.83 435.884L1718.5 432.961C1728.91 437.619 1733.57 445.019 1735.76 454.519Z" fill="black"/>
</g>
<path opacity="0.3" d="M1716.39 502.568L1714.93 649.273H1703.42L1704.97 475.072C1704.99 474.767 1705.11 474.476 1705.31 474.25C1705.52 474.023 1705.79 473.876 1706.1 473.832C1706.41 473.79 1706.71 473.853 1706.97 474.012C1707.24 474.172 1707.43 474.418 1707.53 474.707L1716.39 502.568Z" fill="black"/>
<path d="M1682.49 419.807L1688.98 425.379L1697.66 457.077L1682.49 449.86L1683.13 424.374L1682.49 419.807Z" fill="#21252B"/>
<path opacity="0.3" d="M1690.17 425.653L1688.89 425.287L1697.66 457.077L1682.49 449.86L1682.31 456.529L1698.94 458.264L1690.17 425.653Z" fill="black"/>
<path opacity="0.15" d="M1648.14 598.482H1635.71L1641.01 425.926C1641.01 425.926 1652.89 512.341 1648.14 598.482Z" fill="black"/>
<path opacity="0.15" d="M1647.86 598.3H1607.75L1608.76 649.181H1635.89C1638.25 649.184 1640.53 648.304 1642.27 646.716C1644.01 645.126 1645.09 642.943 1645.31 640.595C1646.4 627.44 1647.22 613.19 1647.86 598.3Z" fill="black"/>
<path d="M1466.4 564.776L1557.68 554.91C1561.78 554.452 1565.7 552.974 1569.08 550.613C1572.46 548.252 1575.2 545.081 1577.05 541.391L1595.69 503.938L1574.13 456.254L1543.15 524.217L1463.75 546.232L1466.4 564.776Z" fill="#FC9D9D"/>
<path opacity="0.15" d="M1585.18 505.674L1566.54 543.126C1563.64 548.91 1558.58 553.333 1552.47 555.458L1557.68 554.91C1561.78 554.452 1565.7 552.974 1569.08 550.612C1572.47 548.251 1575.2 545.081 1577.05 541.391L1595.69 503.938L1585.18 505.674Z" fill="black"/>
<path d="M1629.13 649.182H1601.99L1598.8 490.785L1586.1 508.05L1572.12 458.265C1574.4 450.044 1576.14 445.933 1580.7 441.731C1583.72 439.064 1587.27 437.07 1591.12 435.885L1641.01 422.365C1641.01 422.365 1645.67 556.373 1638.54 640.596C1638.34 642.949 1637.26 645.141 1635.52 646.733C1633.77 648.324 1631.5 649.2 1629.13 649.182Z" fill="#21252B"/>
<path d="M1553.93 499.371L1587.65 520.289L1603.36 490.236L1578.97 448.49L1574.67 450.682L1553.93 499.371Z" fill="#21252B"/>
<path d="M1641.01 418.802L1635.25 423.917L1626.57 455.706L1641.74 448.49L1641.01 418.802Z" fill="#21252B"/>
<path opacity="0.3" d="M1634.07 424.283L1635.35 423.917L1626.57 455.706L1641.74 448.49L1641.92 455.158L1625.29 456.894L1634.07 424.283Z" fill="black"/>
<path d="M1764.73 539.746L1757.24 505.126L1719.87 513.895L1727.36 535.818L1664.86 549.703L1661.39 550.434C1660.2 550.708 1659.19 550.799 1658.37 549.977L1657 548.607C1655.75 547.63 1654.32 546.887 1652.8 546.415C1649.12 545.307 1646.01 542.819 1644.12 539.472L1641.1 534.174C1641.07 534.11 1641.03 534.054 1640.97 534.009C1640.92 533.963 1640.85 533.931 1640.78 533.914C1640.71 533.896 1640.64 533.895 1640.57 533.907C1640.5 533.921 1640.43 533.95 1640.37 533.991L1639.91 534.174C1638.86 534.585 1638 535.379 1637.51 536.395C1637.03 537.412 1636.94 538.576 1637.26 539.655L1639.55 546.963C1639.68 547.339 1639.65 547.748 1639.48 548.106C1639.31 548.464 1639.01 548.741 1638.63 548.881L1623.92 554.91C1620.82 556.098 1621.91 560.3 1624.75 559.66C1626.3 559.295 1626.57 559.203 1626.57 559.203L1623.65 560.665C1620.36 562.218 1621.91 566.694 1624.75 566.055C1627.58 565.415 1631.23 564.41 1631.23 564.41L1627.58 565.872C1627.02 566.207 1626.6 566.73 1626.39 567.347C1626.18 567.965 1626.2 568.635 1626.45 569.24C1626.68 569.845 1627.14 570.343 1627.72 570.648C1628.29 570.951 1628.96 571.039 1629.59 570.896C1631.69 570.348 1635.07 569.343 1635.07 569.343L1632.88 570.439C1630.05 571.353 1631.05 575.737 1633.7 575.189C1635.98 574.733 1657.64 569.434 1668.79 567.425L1751.57 558.473C1753.71 558.194 1755.76 557.474 1757.6 556.361C1759.44 555.246 1761.03 553.762 1762.27 552.002C1763.51 550.24 1764.36 548.242 1764.78 546.133C1765.21 544.023 1765.2 541.848 1764.73 539.746Z" fill="#FC9D9D"/>
<g opacity="0.2">
<path opacity="0.2" d="M1673.54 781.91L1654.72 759.53L1656 655.667C1656.02 654.911 1656.35 654.195 1656.89 653.668C1657.44 653.142 1658.16 652.843 1658.92 652.835C1655.41 652.868 1652.07 654.274 1649.59 656.751C1647.11 659.228 1645.71 662.577 1645.67 666.081L1644.67 764.828L1675.18 799.814L1673.54 781.91Z" fill="black"/>
<path opacity="0.2" d="M1715.75 832.059L1715.85 846.309L1745.82 880.656L1751.66 874.718L1715.75 832.059Z" fill="black"/>
</g>
<path opacity="0.15" d="M1751.39 558.473L1668.61 567.425C1657.46 569.435 1635.8 574.733 1633.52 575.189C1633.2 575.229 1632.87 575.199 1632.56 575.102C1632.25 575.004 1631.96 574.842 1631.72 574.626C1631.48 574.41 1631.29 574.144 1631.15 573.849C1631.02 573.552 1630.96 573.23 1630.96 572.906C1631.22 573.251 1631.58 573.496 1632 573.595C1632.42 573.696 1632.86 573.646 1633.24 573.454C1634.16 573.18 1647.41 568.338 1655.81 565.141C1660.35 563.447 1665.02 562.192 1669.79 561.396C1687.89 558.381 1734.85 550.434 1747.46 547.602C1751.12 546.78 1755.14 544.04 1754.22 539.198L1747.19 507.501L1757.15 505.126L1764.64 539.655C1765.12 541.771 1765.16 543.965 1764.74 546.095C1764.32 548.224 1763.46 550.243 1762.21 552.018C1760.97 553.793 1759.35 555.285 1757.48 556.397C1755.62 557.509 1753.55 558.217 1751.39 558.473Z" fill="black"/>
<path d="M1664.77 549.795L1667.97 567.516L1673.54 566.968L1670.34 548.516L1664.77 549.795Z" fill="#001B34"/>
<path d="M1669.43 564.594C1670.53 564.594 1671.61 564.267 1672.53 563.655C1673.44 563.042 1674.15 562.172 1674.57 561.154C1675 560.136 1675.11 559.015 1674.89 557.935C1674.68 556.853 1674.15 555.861 1673.37 555.081C1672.59 554.302 1671.59 553.771 1670.52 553.556C1669.44 553.342 1668.31 553.451 1667.29 553.873C1666.28 554.295 1665.41 555.01 1664.8 555.926C1664.18 556.842 1663.85 557.919 1663.85 559.022C1663.85 560.5 1664.44 561.917 1665.49 562.962C1666.53 564.007 1667.95 564.594 1669.43 564.594Z" fill="#00B77E"/>
<path d="M1669.43 563.681C1670.35 563.681 1671.25 563.407 1672.01 562.895C1672.78 562.383 1673.38 561.655 1673.73 560.804C1674.09 559.954 1674.18 559.016 1674 558.113C1673.81 557.209 1673.38 556.379 1672.73 555.728C1672.07 555.076 1671.24 554.632 1670.33 554.453C1669.43 554.273 1668.5 554.365 1667.65 554.717C1666.8 555.07 1666.07 555.667 1665.55 556.433C1665.04 557.199 1664.77 558.1 1664.77 559.022C1664.77 560.257 1665.26 561.443 1666.13 562.316C1667.01 563.189 1668.19 563.681 1669.43 563.681Z" fill="white"/>
<path d="M1672.53 559.478L1669.34 559.296L1667.05 557.651C1666.96 557.56 1666.87 557.377 1666.96 557.286C1667.05 557.195 1667.24 557.103 1667.33 557.195L1669.52 558.748L1672.53 558.93C1672.57 558.926 1672.61 558.929 1672.64 558.942C1672.68 558.954 1672.71 558.974 1672.74 559.001C1672.76 559.027 1672.78 559.059 1672.8 559.095C1672.81 559.129 1672.81 559.167 1672.81 559.204C1672.81 559.276 1672.77 559.342 1672.73 559.393C1672.67 559.444 1672.61 559.474 1672.53 559.478Z" fill="#001B34"/>
<path opacity="0.3" d="M1598.98 498.548L1598.43 482.744C1598.48 482.502 1598.43 482.251 1598.29 482.046C1598.16 481.84 1597.95 481.698 1597.7 481.648C1597.46 481.6 1597.21 481.65 1597.01 481.787C1596.8 481.924 1596.65 482.137 1596.6 482.379L1580.16 515.721L1587.56 520.288L1598.98 498.548Z" fill="black"/>
<path opacity="0.2" d="M1703.51 649.181L1705.79 936.562H1716.3L1714.93 649.181H1703.51Z" fill="black"/>
<path d="M1716.21 928.523L1716.3 936.562H1687.7L1686.97 928.523H1716.21Z" fill="#00B77E"/>
<path opacity="0.2" d="M1705.79 928.523V936.562H1716.3L1716.21 928.523H1705.79Z" fill="black"/>
<path d="M1746.82 868.416L1753.22 874.701L1730.6 897.31L1723.66 891.536L1746.82 868.416Z" fill="#00B77E"/>
<path opacity="0.2" d="M1738.6 876.646L1744.99 883.04L1753.22 874.718L1746.82 868.434L1738.6 876.646Z" fill="black"/>
<path d="M1205.16 662.701H1195.29V663.706C1183.95 665.98 1173.75 672.11 1166.42 681.052C1159.1 689.995 1155.09 701.198 1155.09 712.759C1155.09 724.32 1159.1 735.525 1166.42 744.467C1173.75 753.41 1183.95 759.54 1195.29 761.813V762.818H1205.16C1218.44 762.818 1231.18 757.545 1240.57 748.157C1249.96 738.769 1255.23 726.036 1255.23 712.759C1255.23 699.484 1249.96 686.751 1240.57 677.363C1231.18 667.975 1218.44 662.701 1205.16 662.701Z" fill="#00B77E"/>
<path d="M1195.39 762.727C1205.27 762.727 1214.93 759.796 1223.15 754.305C1231.37 748.815 1237.78 741.011 1241.56 731.881C1245.34 722.751 1246.33 712.704 1244.41 703.012C1242.48 693.319 1237.72 684.415 1230.73 677.427C1223.74 670.439 1214.83 665.681 1205.14 663.752C1195.44 661.824 1185.39 662.814 1176.26 666.596C1167.13 670.378 1159.32 676.782 1153.83 684.999C1148.34 693.216 1145.4 702.877 1145.4 712.759C1145.4 726.011 1150.67 738.721 1160.04 748.092C1169.42 757.462 1182.13 762.727 1195.39 762.727Z" fill="#00B77E"/>
<path opacity="0.4" d="M1195.39 762.727C1205.27 762.727 1214.93 759.796 1223.15 754.305C1231.37 748.815 1237.78 741.011 1241.56 731.881C1245.34 722.751 1246.33 712.704 1244.41 703.012C1242.48 693.319 1237.72 684.415 1230.73 677.427C1223.74 670.439 1214.83 665.681 1205.14 663.752C1195.44 661.824 1185.39 662.814 1176.26 666.596C1167.13 670.378 1159.32 676.782 1153.83 684.999C1148.34 693.216 1145.4 702.877 1145.4 712.759C1145.4 726.011 1150.67 738.721 1160.04 748.092C1169.42 757.462 1182.13 762.727 1195.39 762.727Z" fill="white"/>
<path d="M1186.06 733.678L1169.16 716.779C1168.94 716.563 1168.77 716.307 1168.65 716.025C1168.54 715.743 1168.48 715.44 1168.48 715.134C1168.48 714.829 1168.54 714.526 1168.65 714.245C1168.77 713.962 1168.94 713.706 1169.16 713.49L1173.54 709.106C1173.76 708.889 1174.02 708.717 1174.3 708.6C1174.58 708.482 1174.88 708.422 1175.19 708.422C1175.49 708.422 1175.8 708.482 1176.08 708.6C1176.36 708.717 1176.62 708.889 1176.83 709.106L1187.71 719.976L1213.84 693.85C1214.06 693.633 1214.31 693.46 1214.59 693.342C1214.88 693.225 1215.18 693.163 1215.49 693.163C1215.79 693.163 1216.09 693.225 1216.38 693.342C1216.66 693.46 1216.91 693.633 1217.13 693.85L1221.52 698.235C1221.73 698.451 1221.9 698.707 1222.02 698.99C1222.14 699.272 1222.2 699.574 1222.2 699.879C1222.2 700.185 1222.14 700.488 1222.02 700.77C1221.9 701.052 1221.73 701.308 1221.52 701.524L1189.35 733.678C1188.9 734.075 1188.31 734.294 1187.71 734.294C1187.1 734.294 1186.52 734.075 1186.06 733.678Z" fill="white"/>
<path d="M1391.56 912.903H1223.89C1222.2 912.903 1220.57 912.229 1219.37 911.03C1218.17 909.831 1217.5 908.205 1217.5 906.508V862.753C1217.5 861.057 1218.17 859.43 1219.37 858.232C1220.57 857.032 1222.2 856.358 1223.89 856.358H1391.65C1393.35 856.358 1394.98 857.032 1396.18 858.232C1397.38 859.43 1398.05 861.057 1398.05 862.753V906.508C1398.02 908.212 1397.33 909.837 1396.11 911.033C1394.9 912.229 1393.27 912.901 1391.56 912.903Z" fill="#00B77E"/>
<path opacity="0.5" d="M1391.56 912.903H1223.89C1222.2 912.903 1220.57 912.229 1219.37 911.03C1218.17 909.831 1217.5 908.205 1217.5 906.508V862.753C1217.5 861.057 1218.17 859.43 1219.37 858.232C1220.57 857.032 1222.2 856.358 1223.89 856.358H1391.65C1393.35 856.358 1394.98 857.032 1396.18 858.232C1397.38 859.43 1398.05 861.057 1398.05 862.753V906.508C1398.02 908.212 1397.33 909.837 1396.11 911.033C1394.9 912.229 1393.27 912.901 1391.56 912.903Z" fill="white"/>
<path d="M1385.26 912.903H1217.5C1215.8 912.903 1214.17 912.229 1212.97 911.03C1211.77 909.831 1211.1 908.205 1211.1 906.508V862.753C1211.1 861.057 1211.77 859.43 1212.97 858.232C1214.17 857.032 1215.8 856.358 1217.5 856.358H1385.26C1386.95 856.358 1388.58 857.032 1389.78 858.232C1390.98 859.43 1391.65 861.057 1391.65 862.753V906.508C1391.65 908.205 1390.98 909.831 1389.78 911.03C1388.58 912.229 1386.95 912.903 1385.26 912.903Z" fill="white"/>
<path d="M1457.44 446.023L1441.45 430.037L1425.46 446.023C1425.21 446.316 1424.87 446.519 1424.49 446.605C1424.11 446.692 1423.72 446.656 1423.36 446.504C1423.01 446.351 1422.71 446.09 1422.51 445.758C1422.32 445.425 1422.23 445.039 1422.27 444.653V401.902H1460.73V444.653C1460.73 445.033 1460.62 445.403 1460.4 445.718C1460.19 446.033 1459.89 446.279 1459.54 446.424C1459.19 446.571 1458.81 446.611 1458.43 446.539C1458.06 446.468 1457.72 446.288 1457.44 446.023Z" fill="#3F4249"/>
<path d="M1505.87 368.286L1470.32 424.191L1528.8 431.408L1505.87 368.286Z" fill="#B2B6BB"/>
<path d="M1434.24 880.11L1414.77 877.643L1470.33 424.192L1489.79 426.567L1434.24 880.11Z" fill="#00B77E"/>
<path d="M1473.16 884.859L1453.7 882.484L1509.16 429.033L1528.8 431.408L1473.16 884.859Z" fill="#00B77E"/>
<path d="M1453.69 882.484L1434.23 880.109L1489.79 426.566L1509.16 429.033L1453.69 882.484Z" fill="#00B77E"/>
<path opacity="0.3" d="M1453.69 882.484L1434.23 880.109L1489.79 426.566L1509.16 429.033L1453.69 882.484Z" fill="black"/>
<path d="M1496.46 383.085L1505.87 368.286L1511.9 385.003L1496.46 383.085Z" fill="#21252B"/>
<path d="M1450.86 536.092C1452.03 536.092 1453.14 536.554 1453.97 537.376C1454.79 538.198 1455.25 539.313 1455.25 540.476V546.414L1469.69 547.875C1470.23 547.938 1470.73 548.193 1471.1 548.596C1471.47 548.999 1471.68 549.521 1471.7 550.068C1471.7 550.619 1471.49 551.151 1471.12 551.557C1470.75 551.963 1470.24 552.214 1469.69 552.26L1455.8 553.174C1455.69 553.187 1455.59 553.243 1455.52 553.328C1455.45 553.414 1455.42 553.522 1455.43 553.63C1455.45 553.732 1455.49 553.826 1455.56 553.906C1455.62 553.986 1455.7 554.049 1455.8 554.087L1469.5 555.001C1470.1 555.063 1470.65 555.346 1471.04 555.793C1471.44 556.241 1471.65 556.821 1471.64 557.418C1471.63 558.015 1471.39 558.586 1470.98 559.018C1470.57 559.45 1470.01 559.711 1469.41 559.751L1455.62 560.207L1469.05 559.751C1469.71 559.759 1470.35 560.019 1470.83 560.48C1471.3 560.939 1471.59 561.563 1471.63 562.226C1471.66 562.888 1471.44 563.54 1471.01 564.047C1470.59 564.554 1469.98 564.88 1469.32 564.957L1455.62 566.236L1465.85 565.323C1466.15 565.3 1466.46 565.34 1466.74 565.44C1467.03 565.54 1467.29 565.697 1467.51 565.903C1467.74 566.108 1467.92 566.358 1468.04 566.636C1468.16 566.912 1468.22 567.212 1468.23 567.515C1468.22 568.036 1468.04 568.54 1467.71 568.94C1467.37 569.34 1466.91 569.612 1466.4 569.708L1457.72 571.443C1456.6 571.661 1455.45 571.581 1454.37 571.212C1453.3 570.843 1452.34 570.198 1451.6 569.342C1448.64 565.952 1446.78 561.741 1446.27 557.27C1445.77 552.798 1446.64 548.278 1448.76 544.313L1450.32 536.64C1450.31 536.567 1450.33 536.494 1450.35 536.427C1450.38 536.359 1450.42 536.298 1450.47 536.247C1450.52 536.195 1450.58 536.155 1450.65 536.128C1450.72 536.102 1450.79 536.089 1450.86 536.092Z" fill="#FC9D9D"/>
<g opacity="0.15">
<path opacity="0.15" d="M1468.07 558.966L1455.37 559.386L1455.41 560.665L1468.11 560.245L1468.07 558.966Z" fill="black"/>
</g>
<g opacity="0.15">
<path opacity="0.15" d="M1466.55 564.567L1456.35 565.416L1456.45 566.686L1466.66 565.836L1466.55 564.567Z" fill="black"/>
</g>
<path opacity="0.2" d="M1455.25 546.323V540.386L1451.78 544.04C1451.61 544.204 1451.5 544.412 1451.46 544.64C1451.41 544.867 1451.43 545.103 1451.52 545.317C1451.61 545.532 1451.76 545.716 1451.95 545.846C1452.14 545.976 1452.37 546.047 1452.6 546.049L1455.25 546.323Z" fill="black"/>
<path d="M1452.97 978.125L1411.67 973.01C1409.4 972.726 1407.34 971.557 1405.94 969.758C1404.54 967.958 1403.9 965.684 1404.17 963.418L1414.77 877.641L1473.16 884.858L1462.56 970.635C1462.42 971.758 1462.06 972.836 1461.51 973.823C1460.95 974.809 1460.21 975.668 1459.31 976.362C1458.42 977.066 1457.4 977.577 1456.31 977.879C1455.23 978.18 1454.09 978.262 1452.97 978.125Z" fill="#3F4249"/>
<path opacity="0.4" d="M1455.25 882.666L1444.65 968.442C1444.36 970.708 1443.2 972.763 1441.4 974.161C1439.6 975.567 1437.32 976.207 1435.06 975.933L1452.97 978.125C1455.23 978.39 1457.5 977.751 1459.3 976.344C1461.09 974.946 1462.26 972.891 1462.56 970.635L1473.16 884.858L1455.25 882.666Z" fill="black"/>
<path d="M1473.17 884.931L1414.76 877.724L1412.86 893.134L1471.27 900.341L1473.17 884.931Z" fill="#B2B6BB"/>
<path d="M828.337 980.135H1847.06C1847.15 980.135 1847.25 980.098 1847.31 980.025C1847.39 979.961 1847.42 979.87 1847.42 979.769C1847.42 979.669 1847.39 979.578 1847.31 979.514C1847.25 979.441 1847.15 979.404 1847.06 979.404H828.337C828.24 979.404 828.147 979.441 828.079 979.514C828.01 979.578 827.971 979.669 827.971 979.769C827.971 979.87 828.01 979.961 828.079 980.025C828.147 980.098 828.24 980.135 828.337 980.135Z" fill="#B1B5BA"/>
<path d="M1222.06 479.547L1212.84 476.167L1212.47 477.081C1201.05 475.331 1189.38 477.587 1179.43 483.465C1169.49 489.342 1161.89 498.479 1157.91 509.325C1153.94 520.17 1153.85 532.055 1157.65 542.962C1161.45 553.869 1168.9 563.125 1178.75 569.16L1178.39 570.073L1187.62 573.453C1200.04 577.871 1213.7 577.209 1225.64 571.61C1237.57 566.012 1246.81 555.929 1251.35 543.554C1255.89 531.179 1255.36 517.513 1249.88 505.527C1244.39 493.542 1234.4 484.205 1222.06 479.547Z" fill="#00B77E"/>
<path d="M1195.66 573.088C1205.54 573.088 1215.21 570.158 1223.43 564.668C1231.65 559.177 1238.05 551.373 1241.84 542.243C1245.62 533.113 1246.61 523.066 1244.68 513.373C1242.75 503.68 1237.99 494.778 1231 487.79C1224.01 480.801 1215.11 476.042 1205.41 474.114C1195.71 472.186 1185.67 473.176 1176.53 476.957C1167.4 480.739 1159.59 487.144 1154.1 495.361C1148.61 503.578 1145.68 513.239 1145.68 523.121C1145.68 536.374 1150.94 549.083 1160.32 558.454C1169.69 567.824 1182.4 573.088 1195.66 573.088Z" fill="#00B77E"/>
<path opacity="0.4" d="M1200.62 572.842C1210.46 571.861 1219.78 567.986 1227.42 561.706C1235.05 555.428 1240.65 547.027 1243.51 537.566C1246.36 528.105 1246.35 518.01 1243.47 508.557C1240.59 499.103 1234.97 490.716 1227.32 484.456C1219.67 478.196 1210.34 474.345 1200.5 473.389C1190.66 472.432 1180.76 474.414 1172.04 479.084C1163.33 483.754 1156.2 490.901 1151.55 499.623C1146.9 508.344 1144.94 518.248 1145.93 528.081C1146.58 534.611 1148.51 540.948 1151.61 546.731C1154.71 552.514 1158.92 557.63 1164 561.787C1169.08 565.943 1174.93 569.058 1181.21 570.955C1187.49 572.853 1194.09 573.493 1200.62 572.842Z" fill="white"/>
<path d="M1182.74 542.789L1168.63 523.542C1168.27 523.042 1168.12 522.425 1168.21 521.818C1168.3 521.211 1168.61 520.66 1169.1 520.281L1174.13 516.572C1174.63 516.214 1175.25 516.062 1175.85 516.147C1176.46 516.233 1177.01 516.548 1177.39 517.029L1186.48 529.37L1216.31 507.565C1216.81 507.206 1217.43 507.054 1218.03 507.141C1218.64 507.227 1219.19 507.547 1219.57 508.031L1223.28 513.065C1223.64 513.562 1223.79 514.178 1223.71 514.785C1223.62 515.391 1223.3 515.94 1222.82 516.317L1186.09 543.237C1185.85 543.44 1185.56 543.589 1185.26 543.677C1184.95 543.765 1184.63 543.789 1184.32 543.747C1184 543.705 1183.7 543.598 1183.43 543.433C1183.16 543.268 1182.92 543.049 1182.74 542.789Z" fill="white"/>
<path d="M951.143 384.181C951.143 384.181 936.158 390.027 939.173 410.032C940.361 417.523 933.051 418.436 929.031 421.634C918.614 429.855 923.548 448.216 929.031 448.581L996.373 484.664C996.373 484.664 1022.69 448.581 1013.83 431.042C1009.9 423.278 1010.9 422.273 1013.55 414.782C1017.66 403.364 1009.9 397.883 1009.9 397.883L1005.78 396.97L990.708 363.171L961.925 382.811L957.539 382.993L951.143 384.181Z" fill="#21252B"/>
<path d="M946.209 931.355C947.076 934.067 947.418 936.92 947.214 939.759L947.305 963.418C947.199 967.538 946.034 971.566 943.925 975.111L943.468 975.933C942.876 976.956 942.024 977.815 940.997 978.408C939.971 979.002 938.806 979.313 937.62 979.313H930.858C929.348 979.322 927.879 978.819 926.685 977.888C925.493 976.965 924.646 975.659 924.279 974.197C923.382 970.708 923.257 967.054 923.914 963.509L929.67 938.115C930.046 935.744 930.753 933.438 931.772 931.264H946.209V931.355Z" fill="#00B77E"/>
<path d="M1038.13 875.724L1042.33 920.941C1042.61 926.239 1043.98 929.528 1045.53 931.72L1061.98 965.154L1057.41 971.457L1039.5 962.505L1023.6 933.73C1023.6 928.797 1023.14 925.874 1022.23 919.297L1014.37 870.517L1038.13 875.724Z" fill="#956363"/>
<path opacity="0.15" d="M1042.79 936.105C1040.96 933.456 1038.68 927.062 1038.13 924.139L1032.65 907.331C1032.56 906.757 1032.29 906.227 1031.88 905.817C1031.47 905.406 1030.94 905.136 1030.37 905.047L1019.49 903.585L1019.31 901.21H1040.51L1042.34 920.941C1042.7 924.321 1043.52 928.797 1045.53 931.72L1061.98 965.154L1059.15 969.813L1042.79 936.105Z" fill="black"/>
<path d="M1071.39 970.909L1061.98 965.245C1058.64 965.784 1055.21 965.446 1052.04 964.259C1048.86 963.08 1046.06 961.089 1043.89 958.485L1023.51 933.82C1019.87 941.686 1018.56 950.447 1019.76 959.033L1022.69 979.495H1025.06L1025.7 958.485C1025.71 958.147 1025.83 957.828 1026.03 957.554C1026.23 957.289 1026.5 957.088 1026.82 956.978C1027.14 956.868 1027.48 956.859 1027.8 956.942C1028.12 957.033 1028.41 957.225 1028.63 957.48L1041.05 972.644C1042.81 974.773 1045.01 976.49 1047.51 977.677C1050 978.856 1052.73 979.477 1055.49 979.495H1074.86C1075.21 979.504 1075.56 979.422 1075.87 979.258C1076.18 979.093 1076.44 978.856 1076.63 978.564C1076.82 978.271 1076.94 977.933 1076.96 977.586C1076.99 977.239 1076.93 976.892 1076.78 976.572C1075.8 974.042 1073.87 972.014 1071.39 970.909Z" fill="#00B77E"/>
<path d="M947.215 920.667C946.194 929.184 945.767 937.76 945.936 946.336L946.119 956.567C946.038 958.723 945.128 960.76 943.578 962.258C942.029 963.756 939.959 964.597 937.804 964.606H936.342C935.147 964.615 933.966 964.359 932.879 963.866C931.79 963.372 930.823 962.651 930.041 961.747C929.26 960.842 928.684 959.783 928.351 958.641C928.019 957.49 927.94 956.284 928.118 955.106L930.494 942.956C931.697 936.792 932.127 930.501 931.773 924.23L929.489 882.941L950.779 883.306L947.215 920.667Z" fill="#956363"/>
<path d="M1026.16 587.43L1029.18 623.878L1031.92 654.388C1033.38 670.648 1034.29 686.908 1034.75 703.259L1041.88 901.302H1018.58L978.648 640.046C978.518 639.199 978.086 638.427 977.431 637.872C976.776 637.319 975.943 637.02 975.085 637.032C974.182 637.018 973.309 637.352 972.646 637.965C971.982 638.577 971.58 639.42 971.521 640.321L950.505 901.21L929.398 901.027L918.89 712.759C916.68 672.617 919.721 632.358 927.936 593.002L929.124 587.43H1026.16Z" fill="#3F4249"/>
<path opacity="0.15" d="M948.949 901.21C948.949 901.21 946.391 927.701 946.208 931.264V931.355C945.934 936.379 945.751 941.312 945.842 946.336L946.025 956.567C945.95 958.659 945.091 960.65 943.618 962.139C942.146 963.628 940.168 964.505 938.076 964.606C942.005 961.591 941.639 956.658 941.731 953.004L942.37 908.153C942.377 907.441 942.134 906.75 941.683 906.199C941.233 905.648 940.602 905.272 939.903 905.138L930.4 903.403L930.309 901.302L948.949 901.21Z" fill="black"/>
<path opacity="0.2" d="M974.902 636.94C973.998 636.95 973.126 637.272 972.435 637.853C972.097 638.152 971.825 638.516 971.636 638.926C971.447 639.335 971.346 639.778 971.338 640.228L950.505 901.209H942.556L958.089 655.209C959.734 638.977 964.668 636.94 974.902 636.94Z" fill="black"/>
<path opacity="0.2" d="M1026.89 596.383L1029.18 623.879L1030.82 642.879C1032.92 666.812 1034.29 690.806 1034.93 714.861L1041.79 901.302H1031.37L1017.94 641.692L1015.56 596.657H1026.07L1026.53 596.566L1026.89 596.383Z" fill="black"/>
<path d="M1027.81 454.244L1056.13 511.062L1118.9 509.144L1117.44 524.856L1054.76 537.188C1051.3 537.815 1047.74 537.444 1044.49 536.117C1041.23 534.791 1038.43 532.564 1036.39 529.697L1014.92 499.735" fill="#00B77E"/>
<path d="M1142.02 502.568L1152.17 501.198L1164.32 504.669C1164.54 504.723 1164.75 504.829 1164.93 504.979C1165.1 505.129 1165.24 505.319 1165.33 505.533C1165.42 505.747 1165.46 505.978 1165.44 506.209C1165.42 506.439 1165.35 506.663 1165.23 506.861C1165.01 507.144 1164.71 507.356 1164.37 507.47C1164.03 507.584 1163.66 507.595 1163.31 507.501L1151.62 505.308L1144.4 507.683L1151.62 505.308L1161.76 508.231C1161.94 508.272 1162.11 508.355 1162.25 508.47C1162.4 508.586 1162.51 508.733 1162.59 508.9C1162.67 509.067 1162.71 509.25 1162.71 509.434C1162.71 509.619 1162.66 509.801 1162.58 509.967C1162.4 510.246 1162.13 510.457 1161.82 510.573C1161.51 510.688 1161.17 510.7 1160.85 510.606L1150.61 508.597L1140.1 511.885L1150.61 508.597L1157.83 511.52C1157.95 511.567 1158.06 511.644 1158.14 511.743C1158.23 511.841 1158.28 511.959 1158.31 512.085C1158.34 512.212 1158.33 512.344 1158.3 512.468C1158.26 512.592 1158.2 512.706 1158.1 512.799C1157.96 512.962 1157.77 513.083 1157.56 513.148C1157.35 513.212 1157.13 513.217 1156.92 513.164L1148.51 511.063L1138.55 513.53L1142.02 502.568Z" fill="#956363"/>
<path opacity="0.15" d="M1142.02 502.568L1152.17 501.198L1164.32 504.669C1164.54 504.723 1164.75 504.829 1164.93 504.979C1165.1 505.129 1165.24 505.319 1165.33 505.533C1165.42 505.747 1165.46 505.978 1165.44 506.209C1165.42 506.439 1165.35 506.663 1165.23 506.861C1165.01 507.144 1164.71 507.356 1164.37 507.47C1164.03 507.584 1163.66 507.595 1163.31 507.501L1151.62 505.308L1144.4 507.683L1151.62 505.308L1161.76 508.231C1161.94 508.272 1162.11 508.355 1162.25 508.47C1162.4 508.586 1162.51 508.733 1162.59 508.9C1162.67 509.067 1162.71 509.25 1162.71 509.434C1162.71 509.619 1162.66 509.801 1162.58 509.967C1162.4 510.246 1162.13 510.457 1161.82 510.573C1161.51 510.688 1161.17 510.7 1160.85 510.606L1150.61 508.597L1140.1 511.885L1150.61 508.597L1157.83 511.52C1157.95 511.567 1158.06 511.644 1158.14 511.743C1158.23 511.841 1158.28 511.959 1158.31 512.085C1158.34 512.212 1158.33 512.344 1158.3 512.468C1158.26 512.592 1158.2 512.706 1158.1 512.799C1157.96 512.962 1157.77 513.083 1157.56 513.148C1157.35 513.212 1157.13 513.217 1156.92 513.164L1148.51 511.063L1138.55 513.53L1142.02 502.568Z" fill="black"/>
<path d="M1142.66 499.371L1127.68 508.049C1126.83 508.582 1125.85 508.867 1124.85 508.871L1119 509.145L1117.54 524.857L1122.38 523.852C1123.19 523.669 1124.03 523.669 1124.85 523.852L1126.12 524.126C1131.11 525.475 1136.42 524.819 1140.93 522.299H1141.02C1141.64 521.951 1142.32 521.733 1143.03 521.66C1145.59 521.386 1151.98 520.746 1151.98 520.746C1152.07 520.749 1152.15 520.734 1152.23 520.702C1152.31 520.671 1152.38 520.625 1152.44 520.564C1152.5 520.505 1152.55 520.433 1152.58 520.354C1152.61 520.276 1152.63 520.192 1152.62 520.107C1152.57 519.253 1152.2 518.449 1151.6 517.843C1150.99 517.238 1150.19 516.874 1149.33 516.818L1144.86 516.179C1142.48 515.813 1141.11 513.621 1142.21 511.794L1146.68 503.938C1146.99 503.438 1147.48 503.078 1148.05 502.933L1163.95 498.823C1164.27 498.773 1164.55 498.601 1164.74 498.345C1164.93 498.088 1165.01 497.767 1164.96 497.452C1164.86 497.06 1164.62 496.72 1164.28 496.5C1163.94 496.278 1163.53 496.195 1163.13 496.265C1159.11 496.813 1146.77 498.549 1143.85 499.005C1143.42 498.984 1143 499.114 1142.66 499.371Z" fill="#956363"/>
<path opacity="0.15" d="M1056.13 510.972L1051.11 511.154C1050.53 511.168 1049.96 510.998 1049.49 510.67C1049.01 510.342 1048.65 509.872 1048.46 509.328L1040.14 478.817L1056.13 510.972Z" fill="black"/>
<path d="M927.021 444.015L954.799 438.351L1000.03 438.808L1016.66 443.284C1026.98 446.572 1032.19 455.616 1032.1 466.486L1030.55 474.342L1034.93 489.232C1037.4 498.823 1034.2 504.396 1027.44 512.16C1025.34 514.627 1024.24 515.631 1023.42 520.29C1023.42 520.29 1019.4 535.545 1018.67 541.848C1016.97 556.215 1016.35 570.689 1016.84 585.147L931.407 584.965C927.478 584.965 925.742 580.763 927.661 577.291C927.661 577.291 933.509 565.69 934.514 555.916C938.078 524.035 928.94 486.126 928.94 486.126L911.031 466.304C910.483 455.981 917.245 446.298 927.021 444.015Z" fill="#00B77E"/>
<path d="M985.408 553.723L995.642 551.713L997.926 553.997L995.276 557.194L985.408 553.723Z" fill="#956363"/>
<path opacity="0.15" d="M1121.37 520.837C1122.55 520.578 1123.79 520.641 1124.93 521.019C1127.95 522.024 1134.71 523.76 1141.11 522.115C1141.02 522.115 1140.92 522.207 1140.83 522.207H1140.74C1138.53 523.5 1136.07 524.329 1133.53 524.643C1130.98 524.957 1128.4 524.75 1125.94 524.034L1124.66 523.76C1123.85 523.577 1123.01 523.577 1122.19 523.76L1098.25 528.51L1121.01 524.034L1121.37 520.837Z" fill="black"/>
<path opacity="0.15" d="M987.235 571.261L972.98 568.246L931.497 564.775L931.04 564.958C929.03 570.712 928.208 572.722 926.654 576.467L932.776 576.65C942.239 576.835 951.702 576.376 961.102 575.28C969.821 574.275 978.631 574.367 987.326 575.554V571.261H987.235Z" fill="black"/>
<path d="M1016.93 594.828L1016.02 585.511L929.855 585.328L927.479 594.828H1016.93Z" fill="#21252B"/>
<path opacity="0.6" d="M977.369 553.541L973.805 552.536L967.683 567.7L971.795 568.065L977.369 553.541Z" fill="black"/>
<path opacity="0.6" d="M957.721 446.662L946.756 439.994L953.152 438.715L998.382 439.171L1002.77 440.359L991.895 446.845C986.724 449.932 980.806 451.547 974.783 451.515C968.76 451.482 962.86 449.804 957.721 446.662Z" fill="black"/>
<path d="M961.104 403.639L958.82 432.962C958.784 434.156 958.366 435.306 957.625 436.245C956.885 437.183 955.862 437.857 954.708 438.168L951.236 439.082L959.186 444.015C963.783 446.878 969.081 448.419 974.498 448.468C979.914 448.516 985.239 447.07 989.887 444.289L998.476 439.173L994.09 437.986C993.017 437.694 992.058 437.084 991.34 436.236C990.622 435.388 990.179 434.341 990.07 433.236L988.608 399.985L961.104 403.639Z" fill="#956363"/>
<path d="M979.836 426.385L978.374 426.202C973.424 425.812 968.829 423.48 965.593 419.714C962.358 415.948 960.744 411.056 961.104 406.105L963.115 379.888C963.236 378.241 964.007 376.71 965.258 375.63C966.509 374.551 968.137 374.013 969.785 374.134L994.273 376.052C996.415 376.217 998.404 377.223 999.806 378.848C1001.21 380.474 1001.91 382.588 1001.77 384.73L999.847 409.12C999.671 411.568 999.013 413.958 997.911 416.152C996.81 418.346 995.286 420.301 993.427 421.905C991.567 423.509 989.41 424.73 987.078 425.499C984.746 426.268 982.285 426.568 979.836 426.385Z" fill="#956363"/>
<path d="M981.297 400.075C981.695 400.075 982.083 399.958 982.414 399.736C982.744 399.516 983.002 399.202 983.155 398.835C983.306 398.468 983.347 398.064 983.269 397.674C983.191 397.284 982.999 396.926 982.719 396.644C982.437 396.364 982.079 396.172 981.689 396.094C981.299 396.017 980.895 396.057 980.528 396.209C980.16 396.361 979.847 396.619 979.626 396.949C979.405 397.28 979.287 397.668 979.287 398.066C979.286 398.33 979.337 398.592 979.438 398.836C979.538 399.081 979.686 399.303 979.873 399.49C980.06 399.676 980.282 399.824 980.527 399.925C980.771 400.025 981.033 400.076 981.297 400.075Z" fill="#21252B"/>
<path d="M982.392 399.071C982.482 399.071 982.571 399.044 982.646 398.995C982.721 398.945 982.78 398.872 982.814 398.789C982.849 398.706 982.858 398.614 982.84 398.525C982.823 398.437 982.779 398.355 982.715 398.291C982.651 398.227 982.57 398.185 982.481 398.166C982.393 398.149 982.3 398.158 982.217 398.193C982.134 398.227 982.063 398.286 982.012 398.361C981.962 398.436 981.935 398.524 981.935 398.615C981.935 398.735 981.983 398.852 982.069 398.937C982.155 399.023 982.271 399.071 982.392 399.071Z" fill="white"/>
<path d="M996.924 401.537C997.321 401.537 997.71 401.419 998.04 401.198C998.371 400.977 998.629 400.664 998.781 400.296C998.933 399.929 998.972 399.525 998.895 399.135C998.817 398.745 998.626 398.387 998.345 398.106C998.064 397.825 997.706 397.634 997.316 397.556C996.926 397.478 996.522 397.519 996.154 397.67C995.787 397.823 995.473 398.08 995.252 398.41C995.031 398.741 994.914 399.129 994.914 399.527C994.912 399.791 994.963 400.053 995.063 400.297C995.164 400.542 995.312 400.764 995.499 400.951C995.687 401.138 995.909 401.286 996.153 401.386C996.398 401.487 996.659 401.538 996.924 401.537Z" fill="#21252B"/>
<path d="M997.837 400.532C997.927 400.532 998.015 400.506 998.091 400.455C998.166 400.405 998.224 400.334 998.259 400.251C998.294 400.167 998.302 400.075 998.284 399.987C998.267 399.898 998.223 399.817 998.159 399.753C998.095 399.689 998.014 399.645 997.925 399.628C997.837 399.61 997.745 399.62 997.661 399.653C997.578 399.688 997.507 399.747 997.457 399.822C997.406 399.897 997.38 399.985 997.38 400.075C997.38 400.197 997.427 400.313 997.513 400.399C997.599 400.485 997.715 400.532 997.837 400.532Z" fill="white"/>
<g opacity="0.3">
<path opacity="0.3" d="M988.24 410.398L985.499 410.306C985.134 410.306 984.951 410.032 984.951 409.667C984.951 409.302 985.225 409.119 985.591 409.119L988.332 409.21C988.494 409.218 988.656 409.193 988.809 409.137C988.961 409.081 989.101 408.996 989.221 408.885C989.34 408.775 989.436 408.641 989.502 408.493C989.57 408.345 989.607 408.185 989.611 408.023C989.626 407.859 989.605 407.695 989.552 407.539C989.498 407.383 989.413 407.241 989.3 407.121C989.189 407.001 989.053 406.905 988.902 406.84C988.75 406.775 988.588 406.742 988.423 406.744C988.058 406.744 987.875 406.47 987.875 406.104C987.875 405.739 988.149 405.556 988.515 405.556C988.834 405.569 989.149 405.646 989.438 405.783C989.727 405.919 989.987 406.113 990.2 406.351C990.412 406.589 990.576 406.869 990.678 407.172C990.782 407.475 990.823 407.795 990.799 408.114C990.741 408.748 990.445 409.336 989.97 409.76C989.495 410.184 988.877 410.412 988.24 410.398Z" fill="black"/>
</g>
<path d="M1009.99 397.882C1007.25 395.507 1008.8 391.67 1008.8 391.67V391.762C1013.83 370.843 1000.49 357.506 988.426 355.04C981.573 353.67 963.207 354.492 957.451 375.411C956.628 378.425 956.354 381.714 951.054 384.18C951.054 384.18 954.253 395.142 955.075 399.161C955.44 400.897 959.278 394.411 960.831 393.771C961.014 393.68 962.111 395.69 962.842 396.969C962.935 397.155 963.078 397.312 963.255 397.422C963.433 397.531 963.637 397.59 963.847 397.59C964.055 397.59 964.26 397.531 964.437 397.422C964.614 397.312 964.758 397.155 964.852 396.969L965.035 396.695C966.326 393.77 967.128 390.653 967.41 387.468C976.273 385.367 976.273 376.415 976.273 376.415C984.132 394.685 1001.58 390.118 1001.58 390.118L1000.67 399.892C1002.14 398.688 1003.46 397.307 1004.6 395.781L1007.43 398.339L1009.99 397.882Z" fill="#21252B"/>
<path d="M962.383 407.291C962.383 407.291 953.428 407.656 951.875 398.796C950.322 389.935 961.287 388.656 962.567 397.608L963.388 407.382L962.383 407.291Z" fill="#956363"/>
<path opacity="0.3" d="M954.798 394.228C955.188 393.943 955.632 393.739 956.103 393.629C956.574 393.519 957.062 393.506 957.539 393.589C958 393.725 958.426 393.959 958.788 394.274C959.151 394.589 959.442 394.979 959.641 395.416C960.229 396.479 960.543 397.672 960.555 398.887V399.892C960.555 400.623 959.367 400.805 959.367 399.983V398.978C959.351 397.961 959.101 396.96 958.636 396.055C958.509 395.758 958.321 395.491 958.086 395.271C957.85 395.05 957.57 394.882 957.265 394.776C956.619 394.683 955.963 394.848 955.438 395.233C955.371 395.275 955.298 395.304 955.22 395.318C955.143 395.332 955.065 395.33 954.988 395.313C954.911 395.296 954.839 395.264 954.775 395.219C954.711 395.174 954.656 395.117 954.615 395.05C954.433 394.685 954.524 394.32 954.798 394.228Z" fill="black"/>
<path d="M998.202 393.68C996.986 393.637 995.775 393.86 994.655 394.333C993.534 394.807 992.53 395.519 991.715 396.421C990.155 395.654 988.376 395.461 986.689 395.872C985.863 394.077 984.407 392.645 982.596 391.851C980.785 391.058 978.746 390.957 976.865 391.567C974.984 392.177 973.393 393.457 972.394 395.163C971.395 396.869 971.057 398.882 971.445 400.821C971.833 402.759 972.919 404.487 974.498 405.679C976.076 406.869 978.037 407.438 980.008 407.278C981.979 407.119 983.823 406.241 985.189 404.813C986.556 403.383 987.349 401.502 987.419 399.526C987.433 398.6 987.31 397.677 987.054 396.786C988.407 396.471 989.827 396.632 991.074 397.243C990.369 398.286 989.915 399.478 989.748 400.725C989.581 401.973 989.705 403.242 990.111 404.434C990.517 405.625 991.193 406.706 992.086 407.592C992.981 408.479 994.067 409.146 995.263 409.543C996.458 409.938 997.729 410.052 998.975 409.874C1000.22 409.697 1001.41 409.233 1002.45 408.52C1003.48 407.806 1004.34 406.862 1004.95 405.761C1005.56 404.66 1005.91 403.433 1005.97 402.175C1006.02 401.107 1005.86 400.038 1005.5 399.03C1005.14 398.023 1004.58 397.097 1003.86 396.307C1003.14 395.517 1002.26 394.879 1001.29 394.427C1000.32 393.976 999.271 393.723 998.202 393.68ZM979.014 406.377C977.612 406.315 976.261 405.839 975.131 405.007C974.001 404.177 973.143 403.03 972.665 401.711C972.187 400.393 972.111 398.963 972.447 397.602C972.782 396.241 973.513 395.008 974.548 394.063C975.584 393.117 976.877 392.5 978.263 392.289C979.65 392.078 981.068 392.283 982.338 392.877C983.609 393.472 984.673 394.429 985.399 395.629C986.124 396.829 986.478 398.217 986.414 399.618C986.376 400.549 986.154 401.463 985.76 402.307C985.366 403.152 984.809 403.91 984.121 404.539C983.433 405.166 982.627 405.653 981.751 405.968C980.874 406.284 979.944 406.423 979.014 406.377ZM997.561 408.935C996.161 408.873 994.81 408.396 993.68 407.565C992.55 406.735 991.692 405.587 991.214 404.269C990.736 402.951 990.66 401.521 990.995 400.159C991.33 398.798 992.062 397.566 993.097 396.621C994.133 395.675 995.426 395.058 996.812 394.847C998.198 394.636 999.616 394.84 1000.89 395.435C1002.16 396.03 1003.22 396.987 1003.95 398.187C1004.67 399.387 1005.03 400.775 1004.96 402.175C1004.92 403.106 1004.7 404.021 1004.31 404.865C1003.91 405.71 1003.36 406.468 1002.67 407.096C1001.98 407.724 1001.18 408.21 1000.3 408.526C999.423 408.842 998.493 408.981 997.561 408.935Z" fill="white"/>
<path d="M960.1 405.83C960.443 405.83 960.779 405.729 961.064 405.538C961.35 405.347 961.572 405.077 961.704 404.76C961.835 404.442 961.869 404.093 961.803 403.757C961.736 403.42 961.571 403.111 961.327 402.868C961.084 402.625 960.776 402.46 960.438 402.393C960.102 402.326 959.753 402.36 959.435 402.492C959.118 402.623 958.848 402.845 958.657 403.131C958.466 403.416 958.364 403.752 958.364 404.095C958.364 404.555 958.547 404.997 958.872 405.322C959.198 405.648 959.64 405.83 960.1 405.83Z" fill="#00B77E"/>
<path opacity="0.15" d="M960.646 405.647C960.392 405.641 960.142 405.585 959.91 405.479C959.679 405.374 959.472 405.222 959.301 405.035C959.13 404.846 958.999 404.625 958.916 404.385C958.833 404.145 958.8 403.891 958.818 403.637C958.843 403.274 958.969 402.926 959.184 402.632C958.934 402.786 958.727 403.001 958.584 403.257C958.44 403.513 958.363 403.801 958.362 404.094C958.352 404.329 958.39 404.563 958.472 404.783C958.554 405.004 958.68 405.205 958.843 405.375C959.005 405.545 959.199 405.681 959.415 405.776C959.631 405.87 959.863 405.919 960.098 405.921C960.452 405.929 960.802 405.834 961.103 405.647C960.92 405.555 960.829 405.647 960.646 405.647Z" fill="black"/>
<path opacity="0.15" d="M960.649 407.2L963.573 407.474L959.735 413.229L960.649 407.2Z" fill="black"/>
<path opacity="0.15" d="M989.704 424.375L989.339 424.558C986.231 425.771 982.876 426.21 979.562 425.836L977.369 425.562C977.095 425.471 976.821 425.471 976.547 425.38H976.364C975.926 425.3 975.498 425.178 975.085 425.014C974.902 424.923 974.719 424.923 974.536 424.832C972.261 424.148 970.127 423.066 968.232 421.634C968.122 421.549 967.984 421.512 967.847 421.528C967.71 421.546 967.585 421.617 967.501 421.726C967.416 421.834 967.377 421.973 967.395 422.11C967.412 422.247 967.482 422.372 967.592 422.457C970.039 424.269 972.841 425.545 975.816 426.202C977.609 427.912 979.762 429.202 982.118 429.975C984.472 430.75 986.97 430.989 989.43 430.678L990.07 430.587L989.704 424.375Z" fill="black"/>
<path d="M989.429 413.686C989.703 413.686 989.795 414.052 989.703 414.234C989.104 415.141 988.268 415.867 987.286 416.334C986.303 416.801 985.212 416.991 984.13 416.883C983.051 416.735 982.034 416.289 981.196 415.595C980.356 414.901 979.726 413.987 979.378 412.955C979.287 412.681 979.47 412.407 979.744 412.499L989.429 413.686Z" fill="white"/>
<path opacity="0.6" d="M1122.74 508.962L1118.9 509.145L1117.44 524.857L1121.01 524.126L1122.74 508.962Z" fill="black"/>
<path opacity="0.15" d="M1025.89 512.615C1032.56 504.851 1033.65 497.177 1031.1 487.586L1028.35 477.629L1026.07 466.85V466.667C1026.09 466.567 1026.13 466.472 1026.19 466.392C1026.26 466.312 1026.34 466.25 1026.44 466.21C1026.5 466.193 1026.57 466.188 1026.64 466.197C1026.71 466.205 1026.77 466.227 1026.83 466.261C1026.89 466.295 1026.94 466.34 1026.98 466.394C1027.03 466.449 1027.06 466.51 1027.08 466.576L1029.91 479.273L1031.28 483.567C1031.28 483.567 1042.15 499.096 1038.77 510.879C1037.49 515.173 1036.76 518.005 1039.41 521.659L1044.16 528.692C1048.46 532.62 1054.85 531.615 1054.85 531.615L1117.63 521.476L1117.26 524.947L1058.69 536.548H1058.78L1054.58 537.279C1051.6 537.825 1048.53 537.628 1045.64 536.704C1042.76 535.779 1040.15 534.157 1038.04 531.981C1037.36 531.312 1036.75 530.578 1036.21 529.789L1024.97 513.711C1025.25 513.346 1025.61 512.981 1025.89 512.615Z" fill="black"/>
<path d="M999.481 393.315C984.039 393.132 978.008 379.247 977.917 379.064C977.826 378.699 977.917 378.334 978.283 378.242C978.358 378.198 978.443 378.174 978.531 378.169C978.619 378.165 978.707 378.181 978.786 378.217C978.866 378.252 978.937 378.306 978.993 378.374C979.047 378.442 979.087 378.522 979.105 378.608C979.196 378.699 984.953 391.853 999.481 392.036C999.651 392.036 999.814 392.103 999.933 392.223C1000.05 392.343 1000.12 392.505 1000.12 392.675C1000.12 392.845 1000.05 393.008 999.933 393.128C999.814 393.247 999.651 393.315 999.481 393.315Z" fill="#21252B"/>
<g opacity="0.3">
<path opacity="0.3" d="M977.458 460.73C955.525 460.786 933.631 458.891 912.034 455.067L913.131 453.149L914.501 451.23C922.085 452.6 972.615 461.279 1027.07 452.692L1029.08 456.711L1028.44 456.894C1011.58 459.502 994.528 460.784 977.458 460.73Z" fill="white"/>
</g>
<g opacity="0.3">
<path opacity="0.3" d="M995.368 524.035C974.376 523.962 953.422 522.282 932.686 519.01L932.23 514.717C932.686 514.808 980.749 522.756 1022.32 518.554L1021.32 522.756C1012.7 523.681 1004.04 524.108 995.368 524.035Z" fill="white"/>
</g>
<g opacity="0.3">
<path opacity="0.3" d="M995.277 551.256C974.625 551.223 954.005 549.604 933.6 546.415L933.692 542.122C934.148 542.213 975.266 550.251 1016.84 546.049L1017.3 550.251C1008.53 551.256 1004.14 551.256 995.277 551.256Z" fill="white"/>
</g>
<g opacity="0.3">
<path opacity="0.3" d="M993.086 576.559C959.826 576.559 929.125 571.443 928.668 571.443L930.313 567.059C930.77 567.15 977.735 575.371 1019.4 571.169L1019.86 575.371C1011 576.193 1001.95 576.559 993.086 576.559Z" fill="white"/>
</g>
<path opacity="0.15" d="M935.428 544.771L971.063 551.714" stroke="black" stroke-width="1.18" stroke-miterlimit="10" stroke-linecap="round"/>
<path opacity="0.15" d="M985.408 553.723L995.642 551.713L997.926 553.997L995.276 557.194L985.408 553.723Z" fill="black"/>
<path d="M910.485 458.811L919.165 459.451C926.109 470.96 930.221 480.095 929.856 493.523L930.495 498.822L913.683 541.298L974.903 552.991L967.684 567.607L894.586 562.4C886.728 561.943 881.154 553.448 884.078 545.592L910.485 458.811Z" fill="#00B77E"/>
<path d="M973.712 589.441L1005.14 535.18C1005.51 534.595 1006.06 534.151 1006.7 533.918C1007.35 533.686 1008.06 533.68 1008.71 533.901L1053.02 548.882C1053.42 549.004 1053.78 549.214 1054.09 549.497C1054.39 549.779 1054.63 550.127 1054.78 550.515C1054.93 550.902 1054.99 551.317 1054.95 551.731C1054.92 552.144 1054.79 552.544 1054.58 552.901L1024.97 604.33C1024.63 604.896 1024.12 605.335 1023.51 605.583C1022.9 605.829 1022.23 605.871 1021.59 605.701L975.448 593.551C975.038 593.432 974.659 593.222 974.34 592.937C974.021 592.653 973.769 592.302 973.603 591.908C973.436 591.515 973.36 591.089 973.379 590.662C973.398 590.235 973.511 589.818 973.712 589.441Z" fill="#3F4249"/>
<path opacity="0.8" d="M973.712 589.441L1005.14 535.18C1005.51 534.595 1006.06 534.151 1006.7 533.918C1007.35 533.686 1008.06 533.68 1008.71 533.901L1053.02 548.882C1053.42 549.004 1053.78 549.214 1054.09 549.497C1054.39 549.779 1054.63 550.127 1054.78 550.515C1054.93 550.902 1054.99 551.317 1054.95 551.731C1054.92 552.144 1054.79 552.544 1054.58 552.901L1024.97 604.33C1024.63 604.896 1024.12 605.335 1023.51 605.583C1022.9 605.829 1022.23 605.871 1021.59 605.701L975.448 593.551C975.038 593.432 974.659 593.222 974.34 592.937C974.021 592.653 973.769 592.302 973.603 591.908C973.436 591.515 973.36 591.089 973.379 590.662C973.398 590.235 973.511 589.818 973.712 589.441Z" fill="black"/>
<path d="M975.266 589.897L1006.7 535.637C1007.06 535.052 1007.61 534.608 1008.26 534.375C1008.9 534.143 1009.61 534.137 1010.26 534.358L1054.58 549.339C1054.97 549.46 1055.34 549.67 1055.64 549.954C1055.95 550.236 1056.18 550.584 1056.33 550.971C1056.48 551.359 1056.54 551.774 1056.51 552.188C1056.47 552.601 1056.34 553.001 1056.13 553.358L1026.53 604.787C1026.19 605.352 1025.68 605.792 1025.07 606.039C1024.46 606.286 1023.78 606.328 1023.15 606.157L977.002 594.008C976.589 593.893 976.208 593.686 975.885 593.402C975.563 593.119 975.309 592.767 975.142 592.371C974.976 591.976 974.9 591.549 974.922 591.12C974.943 590.692 975.061 590.274 975.266 589.897Z" fill="#21252B"/>
<path d="M1021.04 561.67C1021.32 561.426 1021.53 561.109 1021.65 560.755C1021.76 560.4 1021.77 560.021 1021.68 559.66C1022.98 559.193 1024.38 559.13 1025.7 559.478C1027.71 560.208 1028.17 561.944 1026.71 563.497C1025.88 564.273 1024.86 564.824 1023.76 565.095C1022.66 565.368 1021.5 565.352 1020.4 565.05C1019.91 564.92 1019.47 564.639 1019.14 564.246C1018.81 563.853 1018.62 563.367 1018.58 562.857C1019.51 562.749 1020.38 562.33 1021.04 561.67Z" fill="#3F4249"/>
<path opacity="0.4" d="M1050.82 555.623C1051.98 554.992 1052.55 553.796 1052.11 553.037C1051.67 552.279 1050.39 552.124 1049.23 552.745C1048.08 553.366 1047.52 554.572 1047.95 555.339C1048.39 556.107 1049.65 556.262 1050.82 555.623Z" fill="black"/>
<path d="M1051.19 555.804C1052.33 555.165 1052.91 553.977 1052.47 553.21C1052.03 552.443 1050.74 552.297 1049.6 552.927C1048.46 553.557 1047.87 554.754 1048.31 555.512C1048.75 556.27 1050.04 556.435 1051.19 555.804Z" fill="#3F4249"/>
<path opacity="0.5" d="M1050.92 555.331C1051.66 554.92 1052.03 554.153 1051.74 553.623C1051.51 553.355 1051.19 553.183 1050.84 553.143C1050.49 553.105 1050.14 553.201 1049.86 553.413C1049.1 553.833 1048.73 554.591 1049.02 555.121C1049.25 555.392 1049.58 555.565 1049.93 555.604C1050.28 555.643 1050.63 555.545 1050.92 555.331Z" fill="black"/>
<path opacity="0.4" d="M1051.29 554.362C1051.35 554.244 1051.38 554.113 1051.38 553.98C1051.38 553.848 1051.34 553.718 1051.28 553.601C1051.22 553.485 1051.13 553.386 1051.02 553.311C1050.91 553.237 1050.78 553.19 1050.65 553.175H1050.93C1051.66 553.175 1052.11 553.723 1051.84 554.362C1051.67 554.704 1051.41 554.994 1051.08 555.202C1050.76 555.411 1050.39 555.53 1050.01 555.55H1049.74C1050.08 555.509 1050.4 555.378 1050.68 555.169C1050.95 554.959 1051.16 554.681 1051.29 554.362Z" fill="black"/>
<path d="M977.367 553.54L978.646 553.814C978.944 553.894 979.253 553.925 979.56 553.905L994.728 553.631C996.317 553.638 997.893 553.916 999.388 554.453L1016.84 560.848C1017.2 560.984 1017.5 561.241 1017.68 561.577C1017.86 561.911 1017.92 562.301 1017.85 562.675C1017.73 563.071 1017.47 563.406 1017.11 563.611C1016.75 563.816 1016.33 563.873 1015.93 563.771L999.205 559.386L1015.1 568.064C1015.3 568.16 1015.47 568.294 1015.6 568.459C1015.74 568.623 1015.84 568.814 1015.9 569.021C1015.96 569.226 1015.98 569.443 1015.95 569.656C1015.93 569.868 1015.85 570.073 1015.74 570.257C1015.55 570.62 1015.23 570.902 1014.84 571.053C1014.46 571.204 1014.03 571.213 1013.64 571.079L997.469 564.684L1012.09 570.439C1012.28 570.511 1012.46 570.619 1012.61 570.759C1012.76 570.899 1012.88 571.067 1012.97 571.254C1013.05 571.44 1013.1 571.642 1013.1 571.848C1013.11 572.053 1013.08 572.257 1013 572.449C1012.87 572.851 1012.58 573.186 1012.21 573.39C1011.84 573.593 1011.4 573.648 1010.99 573.545L996.099 569.526L1008.89 572.997C1009.05 573.036 1009.21 573.109 1009.34 573.208C1009.48 573.309 1009.59 573.435 1009.68 573.58C1009.76 573.725 1009.82 573.885 1009.84 574.052C1009.86 574.219 1009.85 574.388 1009.8 574.55C1009.77 574.721 1009.71 574.883 1009.61 575.027C1009.52 575.171 1009.39 575.294 1009.25 575.389C1009.1 575.483 1008.94 575.546 1008.77 575.575C1008.59 575.603 1008.42 575.597 1008.25 575.555L974.078 568.338L971.702 568.156L977.367 553.54Z" fill="#956363"/>
<path opacity="0.15" d="M1012.09 570.439L998.475 565.05" stroke="black" stroke-width="1.18" stroke-miterlimit="10" stroke-linecap="round"/>
<path opacity="0.15" d="M996.098 569.435L1008.98 572.907" stroke="black" stroke-width="1.18" stroke-miterlimit="10" stroke-linecap="round"/>
<path opacity="0.15" d="M1009.9 574.459C1009.87 574.629 1009.8 574.791 1009.71 574.936C1009.61 575.08 1009.48 575.202 1009.34 575.296C1009.19 575.39 1009.03 575.454 1008.86 575.483C1008.69 575.512 1008.51 575.505 1008.34 575.464L974.171 568.247L971.795 568.064L972.983 565.05L1009.9 574.459Z" fill="black"/>
<path opacity="0.15" d="M910.028 540.659L913.683 541.39L928.759 503.115L930.038 499.918C928.851 494.437 927.297 487.312 926.384 482.927C926.328 482.709 926.204 482.513 926.029 482.371C925.854 482.227 925.638 482.145 925.412 482.135C925.187 482.124 924.964 482.187 924.776 482.313C924.589 482.439 924.447 482.623 924.373 482.836L907.469 536.457C907.342 536.902 907.309 537.367 907.372 537.824C907.434 538.282 907.59 538.722 907.83 539.117C908.071 539.512 908.389 539.852 908.768 540.117C909.146 540.383 909.575 540.568 910.028 540.659Z" fill="black"/>
<path opacity="0.15" d="M971.062 551.713L957.721 549.155" stroke="black" stroke-width="1.18" stroke-miterlimit="10" stroke-linecap="round"/>
<path opacity="0.15" d="M953.428 548.334L935.428 544.771" stroke="black" stroke-width="1.18" stroke-miterlimit="10" stroke-linecap="round"/>
<path opacity="0.15" d="M985.408 553.723L995.642 551.713L997.926 553.997L995.276 557.194L985.408 553.723Z" fill="black"/>
<path d="M973.712 589.441L1005.14 535.18C1005.51 534.595 1006.06 534.151 1006.7 533.918C1007.35 533.686 1008.06 533.68 1008.71 533.901L1053.02 548.882C1053.42 549.004 1053.78 549.214 1054.09 549.497C1054.39 549.779 1054.63 550.127 1054.78 550.515C1054.93 550.902 1054.99 551.317 1054.95 551.731C1054.92 552.144 1054.79 552.544 1054.58 552.901L1024.97 604.33C1024.63 604.896 1024.12 605.335 1023.51 605.583C1022.9 605.829 1022.23 605.871 1021.59 605.701L975.448 593.551C975.038 593.432 974.659 593.222 974.34 592.937C974.021 592.653 973.769 592.302 973.603 591.908C973.436 591.515 973.36 591.089 973.379 590.662C973.398 590.235 973.511 589.818 973.712 589.441Z" fill="#3F4249"/>
<path opacity="0.8" d="M973.712 589.441L1005.14 535.18C1005.51 534.595 1006.06 534.151 1006.7 533.918C1007.35 533.686 1008.06 533.68 1008.71 533.901L1053.02 548.882C1053.42 549.004 1053.78 549.214 1054.09 549.497C1054.39 549.779 1054.63 550.127 1054.78 550.515C1054.93 550.902 1054.99 551.317 1054.95 551.731C1054.92 552.144 1054.79 552.544 1054.58 552.901L1024.97 604.33C1024.63 604.896 1024.12 605.335 1023.51 605.583C1022.9 605.829 1022.23 605.871 1021.59 605.701L975.448 593.551C975.038 593.432 974.659 593.222 974.34 592.937C974.021 592.653 973.769 592.302 973.603 591.908C973.436 591.515 973.36 591.089 973.379 590.662C973.398 590.235 973.511 589.818 973.712 589.441Z" fill="black"/>
<path d="M975.266 589.897L1006.7 535.637C1007.06 535.052 1007.61 534.608 1008.26 534.375C1008.9 534.143 1009.61 534.137 1010.26 534.358L1054.58 549.339C1054.97 549.46 1055.34 549.67 1055.64 549.954C1055.95 550.236 1056.18 550.584 1056.33 550.971C1056.48 551.359 1056.54 551.774 1056.51 552.188C1056.47 552.601 1056.34 553.001 1056.13 553.358L1026.53 604.787C1026.19 605.352 1025.68 605.792 1025.07 606.039C1024.46 606.286 1023.78 606.328 1023.15 606.157L977.002 594.008C976.589 593.893 976.208 593.686 975.885 593.402C975.563 593.119 975.309 592.767 975.142 592.371C974.976 591.976 974.9 591.549 974.922 591.12C974.943 590.692 975.061 590.274 975.266 589.897Z" fill="#21252B"/>
<path d="M1021.04 561.67C1021.32 561.426 1021.53 561.109 1021.65 560.755C1021.76 560.4 1021.77 560.021 1021.68 559.66C1022.98 559.193 1024.38 559.13 1025.7 559.478C1027.71 560.208 1028.17 561.944 1026.71 563.497C1025.88 564.273 1024.86 564.824 1023.76 565.095C1022.66 565.368 1021.5 565.352 1020.4 565.05C1019.91 564.92 1019.47 564.639 1019.14 564.246C1018.81 563.853 1018.62 563.367 1018.58 562.857C1019.51 562.749 1020.38 562.33 1021.04 561.67Z" fill="#3F4249"/>
<path opacity="0.4" d="M1050.82 555.623C1051.98 554.992 1052.55 553.796 1052.11 553.037C1051.67 552.279 1050.39 552.124 1049.23 552.745C1048.08 553.366 1047.52 554.572 1047.95 555.339C1048.39 556.107 1049.65 556.262 1050.82 555.623Z" fill="black"/>
<path d="M1051.19 555.804C1052.33 555.165 1052.91 553.977 1052.47 553.21C1052.03 552.443 1050.74 552.297 1049.6 552.927C1048.46 553.557 1047.87 554.754 1048.31 555.512C1048.75 556.27 1050.04 556.435 1051.19 555.804Z" fill="#3F4249"/>
<path opacity="0.5" d="M1050.92 555.331C1051.66 554.92 1052.03 554.153 1051.74 553.623C1051.51 553.355 1051.19 553.183 1050.84 553.143C1050.49 553.105 1050.14 553.201 1049.86 553.413C1049.1 553.833 1048.73 554.591 1049.02 555.121C1049.25 555.392 1049.58 555.565 1049.93 555.604C1050.28 555.643 1050.63 555.545 1050.92 555.331Z" fill="black"/>
<path opacity="0.4" d="M1051.29 554.362C1051.35 554.244 1051.38 554.113 1051.38 553.98C1051.38 553.848 1051.34 553.718 1051.28 553.601C1051.22 553.485 1051.13 553.386 1051.02 553.311C1050.91 553.237 1050.78 553.19 1050.65 553.175H1050.93C1051.66 553.175 1052.11 553.723 1051.84 554.362C1051.67 554.704 1051.41 554.994 1051.08 555.202C1050.76 555.411 1050.39 555.53 1050.01 555.55H1049.74C1050.08 555.509 1050.4 555.378 1050.68 555.169C1050.95 554.959 1051.16 554.681 1051.29 554.362Z" fill="black"/>
<path d="M977.367 553.54L978.646 553.814C978.944 553.894 979.253 553.925 979.56 553.905L994.728 553.631C996.317 553.638 997.893 553.916 999.388 554.453L1016.84 560.848C1017.2 560.984 1017.5 561.241 1017.68 561.577C1017.86 561.911 1017.92 562.301 1017.85 562.675C1017.73 563.071 1017.47 563.406 1017.11 563.611C1016.75 563.816 1016.33 563.873 1015.93 563.771L999.205 559.386L1015.1 568.064C1015.3 568.16 1015.47 568.294 1015.6 568.459C1015.74 568.623 1015.84 568.814 1015.9 569.021C1015.96 569.226 1015.98 569.443 1015.95 569.656C1015.93 569.868 1015.85 570.073 1015.74 570.257C1015.55 570.62 1015.23 570.902 1014.84 571.053C1014.46 571.204 1014.03 571.213 1013.64 571.079L997.469 564.684L1012.09 570.439C1012.28 570.511 1012.46 570.619 1012.61 570.759C1012.76 570.899 1012.88 571.067 1012.97 571.254C1013.05 571.44 1013.1 571.642 1013.1 571.848C1013.11 572.053 1013.08 572.257 1013 572.449C1012.87 572.851 1012.58 573.186 1012.21 573.39C1011.84 573.593 1011.4 573.648 1010.99 573.545L996.099 569.526L1008.89 572.997C1009.05 573.036 1009.21 573.109 1009.34 573.208C1009.48 573.309 1009.59 573.435 1009.68 573.58C1009.76 573.725 1009.82 573.885 1009.84 574.052C1009.86 574.219 1009.85 574.388 1009.8 574.55C1009.77 574.721 1009.71 574.883 1009.61 575.027C1009.52 575.171 1009.39 575.294 1009.25 575.389C1009.1 575.483 1008.94 575.546 1008.77 575.575C1008.59 575.603 1008.42 575.597 1008.25 575.555L974.078 568.338L971.702 568.156L977.367 553.54Z" fill="#956363"/>
<path opacity="0.15" d="M1012.09 570.439L998.475 565.05" stroke="black" stroke-width="1.18" stroke-miterlimit="10" stroke-linecap="round"/>
<path opacity="0.15" d="M996.098 569.435L1008.98 572.907" stroke="black" stroke-width="1.18" stroke-miterlimit="10" stroke-linecap="round"/>
<path opacity="0.15" d="M1009.9 574.459C1009.87 574.629 1009.8 574.791 1009.71 574.936C1009.61 575.08 1009.48 575.202 1009.34 575.296C1009.19 575.39 1009.03 575.454 1008.86 575.483C1008.69 575.512 1008.51 575.505 1008.34 575.464L974.171 568.247L971.795 568.064L972.983 565.05L1009.9 574.459Z" fill="black"/>
<path opacity="0.15" d="M930.036 499.827L928.757 503.025L920.899 523.03L915.964 535.544L914.777 538.468L914.137 540.112L913.68 541.299L911.03 540.751L910.025 540.569C909.262 540.431 908.574 540.021 908.087 539.418C907.6 538.814 907.348 538.055 907.375 537.28C907.375 537.006 907.467 536.732 907.467 536.367L912.584 520.289L913.863 516.27L921.904 490.693L923.092 486.765L924.371 482.745C924.446 482.532 924.587 482.349 924.775 482.223C924.962 482.096 925.184 482.034 925.41 482.044C925.635 482.054 925.852 482.137 926.026 482.279C926.202 482.422 926.326 482.617 926.381 482.837C926.929 485.303 927.66 488.592 928.391 491.971L928.574 492.611C929.031 495.169 929.579 497.635 930.036 499.827Z" fill="black"/>
<g opacity="0.3">
<path opacity="0.3" d="M928.483 492.701L926.838 492.336C918.249 489.961 905.274 483.932 903.172 482.927L903.812 480.917L904.451 478.908C906.279 479.821 919.345 486.033 927.569 488.317L928.483 492.701Z" fill="white"/>
</g>
<g opacity="0.3">
<path opacity="0.3" d="M922.361 519.102L920.899 523.03C913.315 520.929 898.97 515.265 893.853 513.256L895.132 509.236C899.884 511.063 914.869 517.001 922.361 519.102Z" fill="white"/>
</g>
<g opacity="0.3">
<path opacity="0.3" d="M915.967 535.637L914.779 538.56L914.14 540.204C913.134 540.387 912.129 540.569 911.033 540.844C901.439 542.945 888.19 546.781 883.438 548.151C883.575 547.282 883.789 546.426 884.078 545.594L884.717 543.31C890.017 541.757 899.429 539.108 907.378 537.281C910.576 536.55 913.591 536.002 915.967 535.637Z" fill="white"/>
</g>
<g opacity="0.3">
<path opacity="0.3" d="M929.121 544.314C926.197 549.429 921.537 558.199 918.431 564.228L913.862 563.862C916.695 558.29 921.446 549.247 924.735 543.492L929.121 544.314Z" fill="white"/>
</g>
<g opacity="0.3">
<path opacity="0.3" d="M957.448 549.704C954.798 554.911 951.508 561.671 949.315 566.421L944.747 566.056C946.848 561.58 950.229 554.637 953.153 548.882C953.245 548.882 953.153 548.882 957.448 549.704Z" fill="white"/>
</g>
<g opacity="0.3">
<path opacity="0.3" d="M1031.74 490.326L1030.73 486.033L1040.69 480.278L1042.79 483.932L1031.74 490.326Z" fill="white"/>
</g>
<g opacity="0.3">
<path opacity="0.3" d="M1055.22 509.145L1035.39 528.328L1032.92 524.857L1053.21 505.217L1055.22 509.145Z" fill="white"/>
</g>
<g opacity="0.3">
<path opacity="0.3" d="M1075.87 510.423V533.077L1071.67 533.899V510.514L1075.87 510.423Z" fill="white"/>
</g>
<g opacity="0.3">
<path opacity="0.3" d="M1103.46 509.603L1100.45 528.146L1096.24 529.06L1099.26 509.694L1103.46 509.603Z" fill="white"/>
</g>
<g opacity="0.3">
<path opacity="0.3" d="M984.767 492.429C965.608 492.369 946.473 491.087 927.477 488.592L926.654 484.39C927.294 484.482 990.615 493.16 1030.27 484.025L1031.19 488.136C1017.3 491.333 1000.67 492.429 984.767 492.429Z" fill="white"/>
</g>
<path d="M1152.53 520.014C1152.53 520.099 1152.52 520.183 1152.49 520.262C1152.46 520.341 1152.41 520.413 1152.35 520.472C1152.29 520.532 1152.22 520.579 1152.14 520.611C1152.06 520.642 1151.98 520.657 1151.89 520.654L1142.94 521.567C1142.53 521.571 1142.12 521.664 1141.75 521.841V513.163C1141.81 513.941 1142.15 514.67 1142.71 515.221C1143.26 515.773 1143.99 516.112 1144.76 516.178L1149.24 516.817C1150.11 516.915 1150.91 517.301 1151.53 517.913C1152.12 518.455 1152.49 519.21 1152.53 520.014Z" fill="#956363"/>
</g>
</svg>
