<svg width="1920" height="1083" viewBox="0 0 1920 1083" fill="none" xmlns="http://www.w3.org/2000/svg">
<rect width="1920" height="1083" fill="white"/>
<mask id="mask0" mask-type="alpha" maskUnits="userSpaceOnUse" x="0" y="1" width="1920" height="1080">
<rect y="1" width="1920" height="1080" fill="white"/>
</mask>
<g mask="url(#mask0)">
<path d="M958.667 952C578.609 951.85 0 811.847 0 811.847V1H1920V811.847C1920 811.847 1339.75 952.15 958.667 952Z" fill="url(#paint0_linear)"/>
</g>
<path d="M1520.18 801.644C1516.58 818.555 1512.43 848.695 1509.85 877.528C1506.72 912.558 1506.09 941.922 1508.85 960.661C1510.67 973.05 1522.19 981.615 1534.58 979.792C1546.97 977.968 1555.54 966.447 1553.71 954.058C1551.62 939.82 1552.19 913.248 1555.02 881.564C1557.45 854.41 1561.36 825.996 1564.53 811.098C1567.14 798.85 1559.33 786.805 1547.08 784.195C1534.84 781.584 1522.79 789.396 1520.18 801.644Z" fill="#F5D0C3"/>
<path d="M1611.88 833.123C1615.01 848.273 1618.11 870.803 1619.86 892.448C1621.88 917.566 1621.98 939.504 1619.88 954.153C1618.11 966.55 1626.73 978.035 1639.12 979.806C1651.52 981.577 1663 972.963 1664.78 960.566C1667.44 941.935 1667.33 916.986 1665.06 888.803C1663.17 865.373 1659.82 841.006 1656.29 823.935C1653.75 811.673 1641.75 803.788 1629.49 806.325C1617.23 808.863 1609.34 820.86 1611.88 833.123Z" fill="#F5D0C3"/>
<path d="M1590.28 802.763L1505 757.415C1505 757.415 1494.51 777.957 1487.01 802.763C1480.96 822.739 1477.42 847.292 1478.46 852.234C1480.78 863.314 1559.62 879.546 1570.96 873.878C1582.29 868.209 1590.28 802.763 1590.28 802.763Z" fill="#232526"/>
<path d="M1589.77 839.351C1639.29 839.351 1679.43 816.279 1679.43 787.819C1679.43 759.359 1639.29 736.287 1589.77 736.287C1540.25 736.287 1500.1 759.359 1500.1 787.819C1500.1 816.279 1540.25 839.351 1589.77 839.351Z" fill="#232526"/>
<path d="M1584.66 800.445L1672.27 752.777C1672.27 752.777 1682.13 780.282 1688.76 807.401C1694.63 831.449 1697.51 855.197 1695.46 859.191C1691.08 867.694 1609.91 881.092 1602.18 873.878C1594.46 866.663 1584.66 800.445 1584.66 800.445Z" fill="#232526"/>
<path d="M1662.41 973.077C1664.88 971.222 1666.27 946.796 1666.27 940.612C1644.63 950.403 1628.4 942.415 1620.67 939.323C1619.38 947.053 1618.86 957.875 1618.86 966.12C1621.44 973.592 1659.32 975.396 1662.41 973.077Z" fill="#EDF0F4"/>
<path d="M1714.2 1001.38C1714.2 977.318 1694.69 957.813 1670.63 957.813H1664.09H1658.49C1658.49 957.813 1659.08 967.527 1640.22 967.527C1621.36 967.527 1618.75 957.813 1618.75 957.813H1616.37C1615.05 957.813 1613.99 958.88 1613.99 960.194V998.652C1613.99 1001.95 1616.65 1004.61 1619.94 1004.61H1710.97C1712.75 1004.61 1714.2 1003.17 1714.2 1001.38Z" fill="#3B3F45"/>
<mask id="mask1" mask-type="alpha" maskUnits="userSpaceOnUse" x="1613" y="957" width="102" height="48">
<path fill-rule="evenodd" clip-rule="evenodd" d="M1714.2 1001.38C1714.2 977.318 1694.69 957.813 1670.63 957.813H1664.09H1651.57H1639.04H1626.51H1613.99V998.652C1613.99 1001.95 1616.65 1004.61 1619.94 1004.61H1710.97C1712.75 1004.61 1714.2 1003.17 1714.2 1001.38Z" fill="white"/>
</mask>
<g mask="url(#mask1)">
<path d="M1702.57 975.081C1710.09 970.835 1707.14 979.25 1713.89 982.822L1728.19 1010.23H1614.41C1611.64 1006.25 1601.59 985.661 1609.59 982.822C1624.27 977.612 1650.16 995.632 1660.88 995.035C1671.6 994.442 1702.29 998.905 1700.49 989.376C1698.4 978.359 1695.72 978.951 1702.57 975.081Z" fill="#555D65"/>
<path d="M1657.23 980.436C1660.79 981.404 1663.65 981.275 1665.28 980.039C1669.46 976.818 1666.78 971.907 1665.64 969.985C1667.69 972.34 1669.72 974.705 1671.31 977.282C1673.81 981.306 1674.87 985.728 1673.18 988.557C1670.16 993.669 1662.89 991.309 1658.25 989.253L1615.26 970.175L1657.23 980.436Z" fill="#7F8389"/>
</g>
<path d="M1674.25 970.263C1673.37 971.68 1674.74 973.424 1676.33 972.904L1689.38 968.627L1684.73 975.244C1684.16 976.052 1684.36 977.166 1685.17 977.734C1685.97 978.301 1687.09 978.107 1687.65 977.299L1695.4 966.282C1696.39 964.875 1695.01 963.021 1693.38 963.556L1679.88 967.979L1684.14 961.132C1685 959.746 1683.7 958.024 1682.13 958.469L1668.02 962.469C1668.56 961.921 1669.23 961.342 1670.06 960.725C1670.62 960.303 1672.61 958.913 1672.97 958.639C1673.76 958.047 1673.92 956.927 1673.33 956.138C1672.73 955.348 1671.61 955.188 1670.82 955.781C1670.52 956.007 1668.54 957.397 1667.91 957.866C1664.71 960.267 1662.96 962.455 1662.96 965.254C1662.96 966.44 1664.1 967.297 1665.24 966.974L1678.66 963.168L1674.25 970.263Z" fill="#7F8389"/>
<path fill-rule="evenodd" clip-rule="evenodd" d="M1678.39 956.646C1676.19 958.111 1673.37 958.992 1671 958.992C1669.88 958.992 1669.05 958.791 1668.45 958.378C1667.9 958 1667.54 957.434 1667.34 956.648C1667.16 955.965 1667.09 955.132 1667.09 953.928C1667.09 953.496 1667.09 953.195 1667.11 952.249L1667.11 952.241L1667.11 952.098C1667.13 951.328 1667.13 950.872 1667.13 950.362C1667.13 945.068 1670.59 941.128 1675.17 941.128C1677.4 941.128 1679.22 942.059 1680.47 943.768C1681.68 945.406 1682.32 947.713 1682.32 950.362C1682.32 952.801 1680.87 955.002 1678.39 956.646ZM1670.68 952.327C1670.67 953.231 1670.66 953.521 1670.66 953.917C1670.66 954.584 1670.69 955.07 1670.74 955.411C1670.82 955.416 1670.9 955.418 1671 955.418C1672.66 955.418 1674.79 954.752 1676.41 953.67C1677.97 952.633 1678.75 951.462 1678.75 950.362C1678.75 948.427 1678.31 946.859 1677.59 945.885C1677.01 945.087 1676.26 944.702 1675.17 944.702C1672.68 944.702 1670.71 946.946 1670.71 950.362C1670.71 950.9 1670.7 951.373 1670.69 952.163L1670.68 952.318L1670.68 952.327Z" fill="#7F8389"/>
<path fill-rule="evenodd" clip-rule="evenodd" d="M1668.01 958.612L1668.32 958.208L1668.36 957.808C1668.36 957.787 1668.36 957.766 1668.37 957.735L1668.37 957.735C1668.4 957.531 1668.39 957.257 1668.35 956.962C1668.26 956.455 1668.06 955.872 1667.71 955.067C1667.58 954.777 1667.49 954.594 1667.19 953.954L1667.17 953.901C1666.94 953.422 1666.78 953.069 1666.61 952.691C1665.03 949.136 1661.5 947.547 1658.4 948.93C1656.89 949.605 1655.93 950.779 1655.59 952.304C1655.26 953.766 1655.51 955.503 1656.3 957.278C1657.03 958.913 1658.67 959.951 1660.85 960.308C1662.78 960.621 1664.95 960.356 1666.56 959.641C1667.28 959.323 1667.72 958.99 1668.01 958.612ZM1659.08 953.087C1659.17 952.659 1659.38 952.407 1659.85 952.194C1661.07 951.654 1662.53 952.315 1663.35 954.144C1663.53 954.55 1663.7 954.924 1663.95 955.462L1663.98 955.51C1664.24 956.081 1664.32 956.254 1664.44 956.51L1664.48 956.6C1663.56 956.861 1662.42 956.943 1661.42 956.781C1660.34 956.603 1659.75 956.23 1659.57 955.826C1659.07 954.708 1658.93 953.738 1659.08 953.087Z" fill="#7F8389"/>
<path d="M1510.94 973.077C1508.47 971.222 1507.08 946.796 1507.08 940.612C1528.72 950.403 1544.95 942.415 1552.68 939.323C1553.97 947.053 1554.49 957.875 1554.49 966.12C1551.91 973.592 1514.03 975.396 1510.94 973.077Z" fill="#EDF0F4"/>
<path d="M1459.15 1001.38C1459.15 977.318 1478.66 957.813 1502.72 957.813H1509.26H1514.85C1514.85 957.813 1514.27 967.527 1533.13 967.527C1551.99 967.527 1554.6 957.813 1554.6 957.813H1556.98C1558.29 957.813 1559.36 958.88 1559.36 960.194V998.652C1559.36 1001.95 1556.69 1004.61 1553.41 1004.61H1462.38C1460.6 1004.61 1459.15 1003.17 1459.15 1001.38Z" fill="#3B3F45"/>
<mask id="mask2" mask-type="alpha" maskUnits="userSpaceOnUse" x="1459" y="957" width="101" height="48">
<path fill-rule="evenodd" clip-rule="evenodd" d="M1459.15 1001.38C1459.15 977.318 1478.66 957.813 1502.72 957.813H1509.26H1521.78H1534.31H1546.84H1559.36V998.652C1559.36 1001.95 1556.69 1004.61 1553.41 1004.61H1462.38C1460.6 1004.61 1459.15 1003.17 1459.15 1001.38Z" fill="white"/>
</mask>
<g mask="url(#mask2)">
<path d="M1470.77 975.081C1463.26 970.835 1466.21 979.25 1459.46 982.822L1445.16 1010.23H1558.93C1561.71 1006.25 1571.76 985.661 1563.76 982.822C1549.07 977.612 1523.19 995.632 1512.47 995.035C1501.75 994.442 1471.06 998.905 1472.86 989.376C1474.94 978.359 1477.62 978.951 1470.77 975.081Z" fill="#555D65"/>
<path d="M1516.12 980.436C1512.56 981.404 1509.7 981.275 1508.07 980.039C1503.89 976.818 1506.57 971.907 1507.7 969.985C1505.66 972.34 1503.63 974.705 1502.04 977.282C1499.54 981.306 1498.48 985.728 1500.17 988.557C1503.19 993.669 1510.46 991.309 1515.09 989.253L1558.09 970.175L1516.12 980.436Z" fill="#7F8389"/>
</g>
<path d="M1499.1 970.263C1499.98 971.68 1498.61 973.424 1497.02 972.904L1483.97 968.627L1488.62 975.244C1489.19 976.052 1488.99 977.166 1488.18 977.734C1487.38 978.301 1486.26 978.107 1485.69 977.299L1477.95 966.282C1476.96 964.875 1478.33 963.021 1479.97 963.556L1493.47 967.979L1489.21 961.132C1488.35 959.746 1489.65 958.024 1491.22 958.469L1505.32 962.469C1504.79 961.921 1504.11 961.342 1503.29 960.725C1502.73 960.303 1500.74 958.913 1500.38 958.639C1499.59 958.047 1499.43 956.927 1500.02 956.138C1500.61 955.348 1501.73 955.188 1502.52 955.781C1502.83 956.007 1504.81 957.397 1505.44 957.866C1508.64 960.267 1510.39 962.455 1510.39 965.254C1510.39 966.44 1509.25 967.297 1508.11 966.974L1494.69 963.168L1499.1 970.263Z" fill="#7F8389"/>
<path fill-rule="evenodd" clip-rule="evenodd" d="M1494.96 956.646C1497.15 958.111 1499.98 958.992 1502.34 958.992C1503.47 958.992 1504.3 958.791 1504.89 958.378C1505.45 958 1505.8 957.434 1506.01 956.648C1506.19 955.965 1506.26 955.132 1506.26 953.928C1506.26 953.496 1506.26 953.195 1506.24 952.249L1506.24 952.241L1506.24 952.098C1506.22 951.328 1506.22 950.872 1506.22 950.362C1506.22 945.068 1502.75 941.128 1498.18 941.128C1495.95 941.128 1494.13 942.059 1492.87 943.768C1491.67 945.406 1491.03 947.713 1491.03 950.362C1491.03 952.801 1492.48 955.002 1494.96 956.646ZM1502.67 952.327C1502.68 953.231 1502.69 953.521 1502.69 953.917C1502.68 954.584 1502.66 955.07 1502.61 955.411C1502.53 955.416 1502.44 955.418 1502.34 955.418C1500.69 955.418 1498.56 954.752 1496.94 953.67C1495.38 952.633 1494.6 951.462 1494.6 950.362C1494.6 948.427 1495.04 946.859 1495.75 945.885C1496.34 945.087 1497.09 944.702 1498.18 944.702C1500.67 944.702 1502.64 946.946 1502.64 950.362C1502.64 950.9 1502.65 951.373 1502.66 952.163L1502.67 952.318L1502.67 952.327Z" fill="#7F8389"/>
<path fill-rule="evenodd" clip-rule="evenodd" d="M1505.34 958.612L1505.03 958.208L1504.99 957.808C1504.99 957.787 1504.98 957.766 1504.98 957.735L1504.98 957.735C1504.95 957.531 1504.95 957.257 1505 956.962C1505.08 956.455 1505.29 955.872 1505.64 955.067C1505.77 954.777 1505.85 954.594 1506.15 953.954L1506.18 953.901C1506.4 953.422 1506.57 953.069 1506.74 952.691C1508.32 949.136 1511.85 947.547 1514.95 948.93C1516.46 949.605 1517.42 950.779 1517.76 952.304C1518.09 953.766 1517.84 955.503 1517.05 957.278C1516.32 958.913 1514.68 959.951 1512.5 960.308C1510.57 960.621 1508.39 960.356 1506.79 959.641C1506.06 959.323 1505.63 958.99 1505.34 958.612ZM1514.27 953.087C1514.18 952.659 1513.97 952.407 1513.49 952.194C1512.28 951.654 1510.81 952.315 1510 954.144C1509.82 954.55 1509.65 954.924 1509.39 955.462L1509.37 955.51C1509.1 956.081 1509.02 956.254 1508.91 956.51L1508.87 956.6C1509.78 956.861 1510.93 956.943 1511.93 956.781C1513.01 956.603 1513.6 956.23 1513.78 955.826C1514.28 954.708 1514.42 953.738 1514.27 953.087Z" fill="#7F8389"/>
<path d="M1495.03 592.326C1487.33 604.097 1475.6 630.34 1467.93 655.289C1462.91 671.647 1459.45 687.615 1457.97 702.767C1456.17 721.28 1457.32 738.258 1462.16 753.396C1466.48 766.953 1480.98 774.435 1494.54 770.109C1508.09 765.782 1515.58 751.285 1511.25 737.729C1506.32 722.27 1508.67 698.185 1517.19 670.419C1520.67 659.116 1524.98 647.803 1529.57 637.523C1533.09 629.647 1536.54 623.003 1538.16 620.526C1545.94 608.616 1542.6 592.648 1530.69 584.861C1518.78 577.073 1502.81 580.415 1495.03 592.326Z" fill="#F5D0C3"/>
<path d="M1652.71 618.98C1653.81 620.65 1658.51 627.449 1659.36 628.707C1662.29 633.028 1664.76 636.919 1667.08 640.969C1679.66 662.896 1684.16 683.099 1678.08 702.171C1673.75 715.728 1681.23 730.225 1694.79 734.552C1708.34 738.878 1722.84 731.396 1727.17 717.839C1733.34 698.484 1733.74 678.769 1729.37 659.158C1725.97 643.922 1719.92 629.524 1711.78 615.333C1708.75 610.048 1705.63 605.118 1702.04 599.816C1700.85 598.056 1696.49 591.764 1695.84 590.78C1688.06 578.869 1672.09 575.527 1660.18 583.315C1648.27 591.102 1644.93 607.07 1652.71 618.98Z" fill="#F5D0C3"/>
<path d="M1541.58 568.292V584.783L1534.63 612.095L1532.57 643.014L1512.21 665.43L1497.52 591.739L1501.39 570.611L1512.21 562.108L1520.97 568.292L1528.19 564.17L1541.58 568.292Z" fill="#4E5051"/>
<path d="M1648 569.838V586.328L1654.95 613.64L1657.02 644.56L1677.37 666.976L1692.06 593.285L1688.19 572.157L1677.37 563.654L1668.61 569.838L1661.4 565.716L1648 569.838Z" fill="#4E5051"/>
<path d="M1520.11 588.846C1522.74 573.413 1536.05 562.175 1551.71 562.035L1600.32 561.601L1645.96 565.476C1660.5 566.711 1672.42 577.48 1674.78 591.886C1679.96 623.494 1688.07 679.239 1688.07 718.157C1688.07 775.308 1699.34 780.774 1681.88 788.263C1664.42 795.751 1524.72 794.697 1505.64 783.087C1486.57 771.478 1498.43 759.382 1498.43 735.678C1498.43 718.276 1512.58 632.978 1520.11 588.846Z" fill="#595B5E"/>
<rect x="1551.99" y="640.961" width="90.1811" height="72.6602" fill="#232426"/>
<path fill-rule="evenodd" clip-rule="evenodd" d="M1637.53 633.746H1556.11C1549.85 633.746 1544.77 638.822 1544.77 645.083V709.498C1544.77 715.76 1549.85 720.835 1556.11 720.835H1637.53C1643.79 720.835 1648.87 715.76 1648.87 709.498V645.083C1648.87 638.822 1643.79 633.746 1637.53 633.746ZM1551.99 645.083C1551.99 642.806 1553.83 640.961 1556.11 640.961H1637.53C1639.81 640.961 1641.65 642.806 1641.65 645.083V709.498C1641.65 711.775 1639.81 713.621 1637.53 713.621H1556.11C1553.83 713.621 1551.99 711.775 1551.99 709.498V645.083Z" fill="#454748"/>
<path d="M1560.3 664.611C1558.85 665.515 1558.41 667.422 1559.32 668.871C1560.22 670.319 1562.13 670.761 1563.58 669.857L1576.91 661.54C1578.86 660.324 1578.84 657.482 1576.89 656.281L1563.55 648.108C1562.1 647.215 1560.2 647.672 1559.3 649.128C1558.41 650.583 1558.87 652.487 1560.32 653.38L1569.39 658.94L1560.3 664.611Z" fill="white"/>
<path d="M1578.94 674.448H1594.88C1596.59 674.448 1597.98 673.064 1597.98 671.356C1597.98 669.649 1596.59 668.264 1594.88 668.264H1578.94C1577.24 668.264 1575.85 669.649 1575.85 671.356C1575.85 673.064 1577.24 674.448 1578.94 674.448Z" fill="white"/>
<path d="M1594.15 615.186C1611.08 615.186 1624.81 600.536 1624.81 582.463C1624.81 564.391 1611.08 549.741 1594.15 549.741C1577.21 549.741 1563.49 564.391 1563.49 582.463C1563.49 600.536 1577.21 615.186 1594.15 615.186Z" fill="#454748"/>
<rect x="1574.84" y="545.626" width="39.6058" height="59.4087" rx="19.8029" fill="#EBBAAA"/>
<rect x="1574.82" y="686.187" width="161.001" height="113.886" rx="34" transform="rotate(-7.5 1574.82 686.187)" fill="#BCC4CF"/>
<rect x="1580.49" y="689.795" width="161.001" height="113.886" rx="29" transform="rotate(-7.5 1580.49 689.795)" fill="#D3D8DF"/>
<path d="M1677.8 730.113C1676.73 722.406 1681.04 721.636 1681.22 721.487C1678.31 718.243 1674.44 718.182 1673.09 718.307C1669.82 718.404 1667.04 720.999 1665.4 721.215C1663.76 721.43 1660.99 719.895 1658.32 720.295C1654.81 720.81 1651.82 723.225 1650.42 726.615C1647.6 733.441 1651.56 742.479 1655.8 747.152C1657.87 749.442 1660.32 751.997 1663.03 751.538C1665.64 751.088 1666.43 749.36 1669.6 748.942C1672.78 748.524 1673.89 750.109 1676.66 749.686C1679.48 749.262 1680.94 746.511 1682.33 743.756C1683.95 740.57 1684.42 737.776 1684.45 737.627C1684.38 737.607 1678.53 735.249 1677.79 730.114L1677.8 730.113Z" fill="white"/>
<path d="M1664.91 719.654C1664.16 713.932 1668.18 708.678 1673.91 707.924C1674.66 713.651 1670.63 718.901 1664.91 719.654Z" fill="white"/>
<path d="M1662.87 746.781C1661.26 759.344 1670.15 770.829 1682.71 772.432C1697.12 774.272 1709.83 768.139 1718.57 756.879C1724.72 748.957 1728.81 738.77 1731.31 726.908C1735.54 706.828 1735.01 681.958 1730.04 661.753C1727.01 649.455 1714.59 641.94 1702.29 644.967C1690 647.994 1682.48 660.417 1685.51 672.715C1688.85 686.29 1689.23 704.184 1686.43 717.451C1685.57 721.524 1684.49 724.746 1683.47 726.849C1673.01 727.821 1664.25 735.928 1662.87 746.781Z" fill="#F5D0C3"/>
<path d="M1518.22 503.82C1534.75 503.82 1548.14 491.112 1548.14 475.436C1548.14 459.76 1534.75 447.052 1518.22 447.052C1501.69 447.052 1488.3 459.76 1488.3 475.436C1488.3 491.112 1501.69 503.82 1518.22 503.82Z" fill="#EBBAAA"/>
<path d="M1673.85 506.021C1690.37 506.021 1703.77 493.313 1703.77 477.637C1703.77 461.961 1690.37 449.253 1673.85 449.253C1657.32 449.253 1643.92 461.961 1643.92 477.637C1643.92 493.313 1657.32 506.021 1673.85 506.021Z" fill="#EBBAAA"/>
<path d="M1507.57 417.561C1508.93 393.816 1526.35 374.078 1549.74 369.771L1582.64 363.713C1594.66 361.499 1607 361.647 1618.97 364.148L1680.98 377.109L1688.71 454.664L1690.34 478.99C1693.94 532.795 1651.27 578.422 1597.35 578.422C1543.95 578.422 1501.47 533.652 1504.27 480.33L1507.57 417.561Z" fill="#F4D4CA"/>
<path d="M1565.94 527.645C1578.61 536.62 1607.8 536.439 1625.3 527.969C1627.22 527.04 1628.03 524.728 1627.1 522.807C1626.17 520.885 1623.86 520.082 1621.94 521.011C1606.77 528.349 1580.54 528.511 1570.4 521.336C1568.66 520.102 1566.25 520.515 1565.02 522.257C1563.78 523.999 1564.2 526.411 1565.94 527.645Z" fill="#C99584"/>
<path d="M1542.46 444.087L1572.15 446.045C1575.56 446.27 1578.5 443.69 1578.73 440.282C1578.95 436.874 1576.37 433.929 1572.96 433.704L1543.28 431.746C1539.87 431.521 1536.93 434.102 1536.7 437.51C1536.48 440.917 1539.06 443.862 1542.46 444.087Z" fill="#272727"/>
<path d="M1618.72 446.252L1647.94 444.083C1651.35 443.831 1653.9 440.865 1653.65 437.459C1653.4 434.053 1650.43 431.497 1647.02 431.75L1617.8 433.918C1614.4 434.171 1611.84 437.137 1612.09 440.543C1612.34 443.949 1615.31 446.505 1618.72 446.252Z" fill="#272727"/>
<path d="M1632.59 382.777C1667.63 393.599 1673.12 395.403 1675.87 409.059C1680.34 431.238 1691.9 425.025 1693.14 400.556C1682.63 329.176 1623.83 323 1610.94 330.215C1595.48 338.872 1590.78 369.868 1632.59 382.777Z" fill="#393838"/>
<path d="M1691.83 412.15C1691.83 406.432 1684.83 403.67 1680.92 407.849L1679.43 409.448C1677.84 411.143 1677.18 413.501 1677.64 415.774L1686.06 456.907C1686.25 457.851 1687.08 458.529 1688.04 458.529C1689.13 458.529 1690.03 457.669 1690.07 456.58L1691.83 412.15Z" fill="#393838"/>
<path d="M1596.47 385.354C1552.72 385.354 1521.53 396.433 1512.77 406.739C1508.3 428.918 1501.65 420.911 1500.62 397.987C1511.44 334.852 1569.19 326.607 1596.47 326.607C1620.73 329.184 1640.21 385.354 1596.47 385.354Z" fill="#272727"/>
<path d="M1564.16 356.27C1569.69 364.355 1577.84 369.034 1572.85 395.022L1602.13 376.473C1591.91 367.25 1558.63 348.186 1564.16 356.27Z" fill="#272727"/>
<path d="M1541.34 363.195C1539.93 381.308 1539.83 401.967 1539.83 401.967L1568.18 382.723C1568.18 382.723 1553.44 379.044 1541.34 363.195Z" fill="#272727"/>
<path d="M1525.37 369.007C1523.96 387.119 1523.85 407.779 1523.85 407.779L1543.44 391.165C1543.44 391.165 1537.47 384.855 1525.37 369.007Z" fill="#272727"/>
<path d="M1565.05 358.557C1563.64 376.67 1563.53 397.329 1563.53 397.329L1591.89 378.085C1591.89 378.085 1577.15 374.406 1565.05 358.557Z" fill="#272727"/>
<path d="M1500.85 401.952C1500.72 398.801 1503.24 396.175 1506.4 396.175C1509.67 396.175 1512.23 398.991 1511.92 402.248L1506.7 457.422C1506.61 458.342 1505.84 459.044 1504.91 459.044C1503.95 459.044 1503.16 458.286 1503.12 457.326L1500.85 401.952Z" fill="#272727"/>
<path d="M1582.53 467.031L1606.23 467.547L1606.38 460.849L1582.67 460.334L1582.53 467.031Z" fill="#101013"/>
<path fill-rule="evenodd" clip-rule="evenodd" d="M1522.15 452.162C1517.61 452.654 1514.29 456.656 1514.59 461.267L1516.24 486.487C1516.44 489.494 1518.14 492.033 1520.75 493.094C1529.03 496.472 1539.6 498.724 1552.2 498.724C1564.27 498.724 1573.65 497.296 1580.55 495.1C1583.1 494.286 1584.9 491.99 1585.31 489.106L1588.81 464.841C1589.41 460.72 1587.03 456.846 1583.15 455.666C1572.47 452.415 1561.65 450.284 1552.2 450.284C1543.17 450.284 1532.71 451.017 1522.15 452.162ZM1578.48 488.728C1578.48 488.727 1578.49 488.726 1578.49 488.724L1578.5 488.721C1578.49 488.723 1578.49 488.725 1578.48 488.728ZM1578.49 488.713C1578.48 488.724 1578.47 488.728 1578.48 488.728C1572.25 490.706 1563.56 492.025 1552.2 492.025C1540.5 492.025 1530.79 489.954 1523.28 486.89C1523.24 486.874 1523.19 486.833 1523.13 486.748C1523.03 486.594 1522.95 486.361 1522.93 486.05L1521.28 460.83C1521.21 459.779 1521.92 458.926 1522.87 458.823C1533.21 457.701 1543.45 456.983 1552.2 456.983C1560.86 456.983 1571.1 458.999 1581.2 462.075C1581.87 462.278 1582.31 462.993 1582.18 463.885L1578.68 488.15C1578.64 488.427 1578.57 488.61 1578.49 488.713Z" fill="#101013"/>
<path fill-rule="evenodd" clip-rule="evenodd" d="M1636.19 450.284C1645.22 450.284 1655.68 451.017 1666.24 452.162C1670.78 452.654 1674.1 456.656 1673.8 461.267L1672.15 486.487C1671.95 489.493 1670.25 492.032 1667.64 493.094C1659.36 496.472 1648.79 498.724 1636.19 498.724C1624.12 498.724 1614.74 497.296 1607.84 495.1C1605.29 494.286 1603.49 491.99 1603.08 489.106L1599.58 464.841C1598.98 460.72 1601.36 456.846 1605.24 455.666C1615.92 452.415 1626.74 450.284 1636.19 450.284ZM1609.91 488.728C1609.91 488.728 1609.9 488.726 1609.9 488.724L1609.89 488.722C1609.9 488.724 1609.9 488.726 1609.91 488.728ZM1609.9 488.713C1609.91 488.725 1609.92 488.728 1609.91 488.728C1616.14 490.706 1624.83 492.025 1636.19 492.025C1647.88 492.025 1657.6 489.954 1665.11 486.89C1665.15 486.874 1665.2 486.833 1665.26 486.748C1665.36 486.593 1665.44 486.361 1665.46 486.05L1667.11 460.83C1667.18 459.779 1666.47 458.926 1665.52 458.822C1655.18 457.701 1644.94 456.983 1636.19 456.983C1627.53 456.983 1617.29 458.999 1607.19 462.075C1606.52 462.278 1606.08 462.993 1606.21 463.885L1609.71 488.15C1609.75 488.427 1609.82 488.61 1609.9 488.713Z" fill="#101013"/>
<path d="M1589.16 474.16C1589.04 474.422 1588.35 475.833 1588.14 476.274C1587.65 477.301 1587.22 478.218 1586.81 479.157C1585.58 481.987 1584.66 484.616 1584.11 487.181C1581.68 498.404 1587.09 506.196 1601.15 506.196V497.436C1596.5 497.436 1594.04 496.471 1593.04 495.033C1592.23 493.865 1592.06 491.845 1592.67 489.033C1593.09 487.113 1593.82 484.998 1594.84 482.655C1595.21 481.828 1595.59 481.005 1596.04 480.068C1596.23 479.66 1596.92 478.24 1597.07 477.94L1589.16 474.16Z" fill="#EBBAAA"/>
<path d="M1548.07 479.142C1554.19 479.142 1557.25 479.383 1560.73 480.427C1564 481.409 1567.44 479.552 1568.43 476.281C1569.41 473.01 1567.55 469.563 1564.28 468.581C1559.29 467.086 1555.35 466.774 1548.07 466.774C1544.66 466.774 1541.89 469.543 1541.89 472.958C1541.89 476.374 1544.66 479.142 1548.07 479.142Z" fill="black"/>
<path d="M1641.3 465.744C1634.02 465.744 1630.08 466.055 1625.09 467.551C1621.82 468.532 1619.96 471.979 1620.95 475.251C1621.93 478.522 1625.37 480.378 1628.65 479.397C1632.13 478.352 1635.18 478.112 1641.3 478.112C1644.71 478.112 1647.48 475.343 1647.48 471.928C1647.48 468.512 1644.71 465.744 1641.3 465.744Z" fill="black"/>
<path d="M1300.89 908.404V985.702C1300.89 993.386 1307.12 999.616 1314.81 999.616C1322.49 999.616 1328.72 993.386 1328.72 985.702V908.404C1328.72 900.72 1322.49 894.49 1314.81 894.49C1307.12 894.49 1300.89 900.72 1300.89 908.404Z" fill="#EBBAAA"/>
<path d="M1247.3 908.404V985.702C1247.3 993.386 1253.53 999.616 1261.21 999.616C1268.9 999.616 1275.13 993.386 1275.13 985.702V908.404C1275.13 900.72 1268.9 894.49 1261.21 894.49C1253.53 894.49 1247.3 900.72 1247.3 908.404Z" fill="#EBBAAA"/>
<path d="M1194.22 936.489L1219.84 715.674H1248.53C1256.73 779.649 1249.96 944.332 1239.31 946.806C1228.65 949.284 1197.64 941.993 1194.22 936.489Z" fill="#482625"/>
<path d="M1381.8 936.489L1356.18 715.674H1327.49C1319.29 779.649 1326.05 944.332 1336.71 946.806C1347.37 949.284 1378.38 941.993 1381.8 936.489Z" fill="#482625"/>
<path d="M1227.7 958.158C1234.36 963.317 1286.66 968.82 1290.08 963.317V856.006L1281.49 728.572H1238.9C1230.7 792.547 1221.04 953 1227.7 958.158Z" fill="#653B3A"/>
<path d="M1284.4 957.638C1297.2 961.766 1313.6 961.25 1349.47 957.638C1349.47 957.638 1342.76 905.534 1339.73 846.715C1336.7 787.902 1333.07 716.19 1333.07 716.19L1279.78 723.412C1284.4 794.61 1287.47 854.971 1284.4 957.638Z" fill="#522F2E"/>
<path d="M1186.83 1006.84C1186.73 995.148 1188.33 988.031 1198.54 983.254C1208.75 978.477 1218.37 969.289 1236.03 961.41C1236.03 961.41 1238.36 960.972 1242.14 963.013C1245.37 964.749 1249.52 969.016 1255.77 968.959C1262.56 968.903 1268.61 967.47 1272.36 965.507C1273.99 961.08 1277.59 961.049 1277.59 961.049C1277.59 961.049 1282.66 970.66 1282.74 980.312C1282.83 989.969 1282.82 1006.01 1282.82 1006.01L1186.83 1006.84Z" fill="#DCE1E6"/>
<path d="M1225.16 965.41C1224.08 964.937 1222.94 965.926 1223.25 967.059L1224.78 972.57L1218.65 970.6C1217.75 970.31 1216.83 970.982 1216.83 971.927L1216.83 977.593L1212.24 975.116C1211.31 974.615 1210.18 975.288 1210.18 976.344V983.239C1210.18 984.009 1210.81 984.634 1211.58 984.634C1212.35 984.634 1212.97 984.009 1212.97 983.239V978.681L1217.56 981.158C1218.49 981.659 1219.62 980.986 1219.62 979.931L1219.62 973.841L1226.39 976.018C1227.44 976.357 1228.46 975.387 1228.16 974.317L1226.73 969.145L1233.46 972.102C1234.38 972.507 1235.41 971.832 1235.41 970.825L1235.41 970.3L1235.41 969.738C1235.38 968.114 1235.3 967.014 1235.06 965.721C1234.86 964.666 1234.58 963.695 1234.18 962.81C1233.87 962.107 1233.05 961.791 1232.34 962.104C1231.64 962.418 1231.32 963.243 1231.64 963.947C1231.94 964.616 1232.16 965.379 1232.32 966.229C1232.45 966.942 1232.53 967.601 1232.57 968.376L1232.59 968.672L1225.16 965.41Z" fill="white"/>
<path d="M1279.73 966.135C1277.76 968.8 1270.65 970.397 1267.98 970.784C1265.3 971.175 1262.44 970.835 1263.58 975.241C1264.39 978.354 1272.19 977.096 1275.23 977.07C1277.71 977.045 1281.19 984.501 1282.48 981.971C1282.48 973.309 1280.84 968.619 1279.73 966.135Z" fill="#3F3232" fill-opacity="0.5"/>
<path d="M1190.7 984.151C1193.83 983.022 1197.15 982.162 1203.51 980.729L1200.8 988.475L1200.88 997.302L1182.78 997.462C1182.04 997.467 1180.72 996.488 1181.35 992.51C1182.14 987.537 1186.25 985.759 1190.7 984.151Z" fill="#EAF4FB"/>
<path d="M1212.77 986.695L1221.2 1002.7L1229.1 998.54L1220.67 982.534L1212.77 986.695Z" fill="#3F3232"/>
<path d="M1224.39 980.626L1234.49 999.857L1242.39 995.705L1232.29 976.473L1224.39 980.626Z" fill="#3F3232"/>
<path d="M1235.75 973.906L1249.72 1001.01L1257.66 996.916L1243.68 969.815L1235.75 973.906Z" fill="#3F3232"/>
<path d="M1283.12 1004.47L1282.6 995.21L1201.43 996.472L1181.19 994.993L1180.58 1002.06C1180.36 1004.55 1182.23 1006.73 1184.72 1006.9L1201.53 1008.06L1280.93 1006.83C1282.2 1006.81 1283.19 1005.74 1283.12 1004.47Z" fill="#C7CBCF"/>
<path d="M1389.19 1006.97C1389.29 995.277 1387.69 988.165 1377.48 983.383C1367.27 978.606 1357.65 969.418 1339.99 961.539C1339.99 961.539 1337.66 961.106 1333.88 963.141C1330.65 964.883 1326.5 969.145 1320.25 969.093C1313.46 969.032 1307.42 967.599 1303.66 965.636C1302.03 961.209 1298.43 961.178 1298.43 961.178C1298.43 961.178 1293.36 970.789 1293.28 980.446C1293.19 990.098 1293.2 1006.13 1293.2 1006.13L1389.19 1006.97Z" fill="#DCE1E6"/>
<path d="M1347.86 974.446C1347.56 975.516 1348.57 976.486 1349.63 976.147L1356.4 973.974L1356.4 980.06C1356.4 981.115 1357.53 981.788 1358.45 981.287L1363.05 978.81V983.373C1363.05 984.143 1363.67 984.768 1364.44 984.768C1365.21 984.768 1365.84 984.143 1365.84 983.373V976.473C1365.84 975.417 1364.71 974.744 1363.78 975.245L1359.19 977.722L1359.19 972.062C1359.19 971.116 1358.27 970.445 1357.37 970.734L1351.24 972.701L1352.76 967.193C1353.08 966.06 1351.93 965.071 1350.86 965.544L1343.43 968.806C1343.47 967.901 1343.55 967.168 1343.7 966.367C1343.86 965.512 1344.08 964.747 1344.38 964.076C1344.7 963.372 1344.38 962.547 1343.68 962.233C1342.97 961.92 1342.15 962.236 1341.83 962.939C1341.44 963.827 1341.15 964.801 1340.96 965.861C1340.67 967.421 1340.6 968.7 1340.6 970.959C1340.6 971.966 1341.64 972.641 1342.56 972.236L1349.29 969.28L1347.86 974.446Z" fill="white"/>
<path d="M1296.29 966.264C1298.26 968.928 1305.37 970.526 1308.04 970.918C1310.72 971.309 1313.58 970.964 1312.44 975.37C1311.63 978.483 1303.83 977.225 1300.78 977.199C1298.31 977.179 1294.83 984.63 1293.54 982.1C1293.54 973.438 1295.18 968.748 1296.29 966.264Z" fill="#3F3232" fill-opacity="0.5"/>
<path d="M1385.32 984.28C1382.19 983.151 1378.87 982.296 1372.51 980.858L1375.21 988.609L1375.14 997.436L1393.24 997.591C1393.98 997.601 1395.3 996.617 1394.67 992.638C1393.88 987.666 1389.77 985.888 1385.32 984.28Z" fill="#EAF4FB"/>
<path d="M1355.35 982.663L1346.92 998.669L1354.82 1002.83L1363.25 986.824L1355.35 982.663Z" fill="#3F3232"/>
<path d="M1343.73 976.607L1333.62 995.839L1341.53 999.992L1351.63 980.76L1343.73 976.607Z" fill="#3F3232"/>
<path d="M1332.33 969.944L1318.36 997.05L1326.3 1001.14L1340.27 974.035L1332.33 969.944Z" fill="#3F3232"/>
<path d="M1292.9 1004.6L1293.42 995.344L1374.59 996.601L1394.83 995.122L1395.44 1002.19C1395.66 1004.68 1393.79 1006.86 1391.3 1007.03L1374.49 1008.19L1295.09 1006.96C1293.82 1006.94 1292.83 1005.87 1292.9 1004.6Z" fill="#C7CBCF"/>
<path fill-rule="evenodd" clip-rule="evenodd" d="M1373.55 492.025C1373.55 492.025 1353.97 553.542 1373.55 607.457H1202.47V492.025H1373.55Z" fill="#3F3232"/>
<path d="M1336.19 621.559C1345.77 638.542 1353.51 664.822 1357.55 692.518C1361.1 716.93 1361.06 739.006 1358.29 747.052L1358.21 747.292C1354.61 757.188 1359.72 768.128 1369.61 771.727C1379.51 775.326 1390.45 770.22 1394.05 760.324C1399.62 744.997 1399.71 717.467 1395.28 687.026C1390.63 655.058 1381.62 624.472 1369.4 602.824C1364.23 593.652 1352.6 590.411 1343.43 595.585C1334.26 600.758 1331.02 612.388 1336.19 621.559Z" fill="#EBBAAA"/>
<path d="M1327.69 637.861C1310.17 684.24 1204.01 705.883 1160.72 619.309" stroke="#96CCE0" stroke-width="100" stroke-linecap="round" stroke-linejoin="bevel"/>
<path d="M1149.03 574.971L1142.92 559.523C1141.35 555.554 1136.86 553.608 1132.89 555.178C1128.92 556.749 1126.97 561.24 1128.54 565.209L1142.2 599.736L1156.66 599.5L1169.03 564.973C1170.47 560.954 1168.38 556.529 1164.36 555.089C1160.34 553.65 1155.92 555.741 1154.48 559.76L1149.03 574.971Z" fill="#F6DDD6"/>
<path d="M1151.71 614.671C1162.38 614.671 1171.03 607.75 1171.03 599.212C1171.03 590.674 1162.38 583.752 1151.71 583.752C1141.03 583.752 1132.38 590.674 1132.38 599.212C1132.38 607.75 1141.03 614.671 1151.71 614.671Z" fill="#F6DDD6"/>
<rect x="1289.04" y="589.936" width="87.6045" height="164.903" rx="43.8022" transform="rotate(-15 1289.04 589.936)" fill="#96CCE0"/>
<path d="M1381.54 661.566L1344.18 672.903L1384.89 669.038L1381.54 661.566Z" fill="#7EBFD7"/>
<path d="M1374.58 678.056L1345.72 676.51L1370.72 684.497L1374.58 678.056Z" fill="#7EBFD7"/>
<rect x="1202.98" y="567.262" width="87.6045" height="121.1" rx="43.8022" transform="rotate(15 1202.98 567.262)" fill="#96CCE0"/>
<path d="M1230.5 625.295L1192.39 616.817L1229.74 633.449L1230.5 625.295Z" fill="#7EBFD7"/>
<path d="M1216.34 636.24L1191.96 620.718L1209.81 639.952L1216.34 636.24Z" fill="#7EBFD7"/>
<path d="M1405.5 745.047C1408.8 735.565 1409.62 702.276 1405.5 686.816L1346.76 684.24C1353.04 703.822 1354.07 729.588 1358.71 754.838L1358.79 754.842C1369.69 755.361 1401.39 756.871 1405.5 745.047Z" fill="#96CCE0"/>
<path d="M1214.41 602.318C1212.36 588.301 1222.02 575.263 1236.02 573.128L1288.01 565.201L1340 573.128C1354 575.263 1363.66 588.301 1361.61 602.318L1355 647.652L1363.28 717.991C1364.36 727.181 1357.18 735.256 1347.92 735.256H1228.1C1218.84 735.256 1211.66 727.181 1212.74 717.991L1221.02 647.652L1214.41 602.318Z" fill="#BEE1EE"/>
<path d="M1268.94 568.247C1268.94 557.457 1277.73 548.71 1288.52 548.71C1299.31 548.71 1308.11 557.457 1308.11 568.247V605.487C1308.11 609.454 1306.9 613.328 1304.64 616.592L1288.52 639.922L1272.41 616.592C1270.15 613.328 1268.94 609.454 1268.94 605.487V568.247Z" fill="#EBBAAA"/>
<path d="M1288.01 620.855C1307.93 620.855 1324.08 604.705 1324.08 584.783C1324.08 564.86 1307.93 548.71 1288.01 548.71C1268.09 548.71 1251.94 564.86 1251.94 584.783C1251.94 604.705 1268.09 620.855 1288.01 620.855Z" fill="#BEE1EE"/>
<rect x="1267.91" y="505.423" width="39.1644" height="99.9722" rx="19.5822" fill="#EBBAAA"/>
<path d="M1365.31 495.632C1379.54 495.632 1391.07 484.096 1391.07 469.866C1391.07 455.636 1379.54 444.1 1365.31 444.1C1351.08 444.1 1339.54 455.636 1339.54 469.866C1339.54 484.096 1351.08 495.632 1365.31 495.632Z" fill="#E4C1C1"/>
<rect x="1208.13" y="340.006" width="159.749" height="226.741" rx="79.8747" fill="#F6DDD6"/>
<path d="M1292.75 324.854C1311.27 316.288 1358.56 345.51 1375.64 380.576C1387.48 404.899 1396.85 433.876 1382.39 450.552C1382.39 450.552 1373.24 448.584 1367.88 445.389C1348.82 434.026 1352.87 415.242 1333.28 398.752C1313.7 382.261 1297.01 377.51 1291.89 373.877C1286.78 370.239 1286.17 338.871 1292.75 324.854Z" fill="#271E1E"/>
<path d="M1236.48 506.454C1245.02 506.454 1251.94 499.533 1251.94 490.994C1251.94 482.456 1245.02 475.535 1236.48 475.535C1227.94 475.535 1221.02 482.456 1221.02 490.994C1221.02 499.533 1227.94 506.454 1236.48 506.454Z" fill="#F2CACA"/>
<path d="M1235.63 432.547C1241.97 404.529 1273.53 377.717 1288.47 372.873C1294.63 370.878 1298.76 323 1288.47 323C1262.44 323 1221.14 349.333 1206.4 372.873C1182.2 411.532 1173.64 454.871 1186.52 552.416C1189.67 576.285 1181.98 586.664 1176.63 592.368C1191.4 607.627 1246.79 613.125 1246.79 613.125C1246.79 613.125 1256.11 601.469 1249.77 578.357C1238.3 536.621 1229.3 460.57 1235.63 432.547Z" fill="#3F3232"/>
<path d="M1211.72 380.239L1211.5 380.626L1211.28 381.041L1211.08 381.407C1210.98 381.598 1210.87 381.802 1210.76 382.018L1210.45 382.602L1210.14 383.213C1209.56 384.357 1208.95 385.635 1208.29 387.043C1205.76 392.511 1203.23 398.831 1200.87 405.93C1193.23 428.882 1189.09 454.456 1190.28 481.819C1190.34 483.099 1191.42 484.091 1192.7 484.035C1193.98 483.98 1194.97 482.897 1194.92 481.618C1193.75 454.856 1197.8 429.838 1205.27 407.394C1207.57 400.466 1210.04 394.307 1212.5 388.994L1212.84 388.266C1213.57 386.716 1214.25 385.347 1214.87 384.165L1215.17 383.593L1215.44 383.094L1215.74 382.558C1216.38 381.448 1216 380.03 1214.89 379.39C1213.78 378.749 1212.36 379.13 1211.72 380.239Z" fill="#615252"/>
<path d="M1200.73 446.861L1200.68 447.413L1200.59 448.483L1200.54 448.977C1200.42 450.565 1200.29 452.38 1200.16 454.403L1200.14 454.839C1198.88 476.218 1199.4 499.742 1202.95 521.951C1203.28 524.009 1203.64 526.038 1204.02 528.038C1204.26 529.296 1205.47 530.123 1206.73 529.884C1207.99 529.645 1208.81 528.431 1208.57 527.173C1208.2 525.218 1207.85 523.232 1207.53 521.218C1204.04 499.393 1203.53 476.183 1204.77 455.111L1204.85 453.841L1204.93 452.499C1204.99 451.628 1205.05 450.805 1205.11 450.034L1205.21 448.873L1205.35 447.327C1205.47 446.052 1204.55 444.915 1203.27 444.787C1202 444.658 1200.86 445.586 1200.73 446.861Z" fill="#615252"/>
<path d="M1244.21 457.499H1259.67C1261.09 457.499 1262.24 456.345 1262.24 454.922C1262.24 453.499 1261.09 452.346 1259.67 452.346H1244.21C1242.78 452.346 1241.63 453.499 1241.63 454.922C1241.63 456.345 1242.78 457.499 1244.21 457.499Z" fill="black"/>
<path d="M1316.35 457.499H1331.81C1333.23 457.499 1334.39 456.345 1334.39 454.922C1334.39 453.499 1333.23 452.346 1331.81 452.346H1316.35C1314.93 452.346 1313.78 453.499 1313.78 454.922C1313.78 456.345 1314.93 457.499 1316.35 457.499Z" fill="black"/>
<path d="M1312.23 454.407V469.351C1312.23 472.766 1315 475.535 1318.41 475.535C1321.83 475.535 1324.6 472.766 1324.6 469.351V454.407C1324.6 450.991 1321.83 448.223 1318.41 448.223C1315 448.223 1312.23 450.991 1312.23 454.407Z" fill="black"/>
<path d="M1251.42 454.407V469.351C1251.42 472.766 1254.19 475.535 1257.61 475.535C1261.02 475.535 1263.79 472.766 1263.79 469.351V454.407C1263.79 450.991 1261.02 448.223 1257.61 448.223C1254.19 448.223 1251.42 450.991 1251.42 454.407Z" fill="black"/>
<path d="M1307.43 435.336L1336.8 436.881C1338.51 436.971 1339.96 435.662 1340.05 433.956C1340.14 432.251 1338.83 430.796 1337.13 430.706L1307.75 429.16C1306.05 429.07 1304.59 430.38 1304.5 432.085C1304.41 433.791 1305.72 435.246 1307.43 435.336Z" fill="#271E1E"/>
<path d="M1268.26 429.16L1238.89 430.706C1237.19 430.796 1235.88 432.251 1235.97 433.956C1236.06 435.662 1237.51 436.971 1239.22 436.881L1268.59 435.336C1270.29 435.246 1271.6 433.791 1271.51 432.085C1271.42 430.38 1269.97 429.07 1268.26 429.16Z" fill="#271E1E"/>
<path d="M1339.54 506.454C1348.08 506.454 1355 499.533 1355 490.994C1355 482.456 1348.08 475.535 1339.54 475.535C1331 475.535 1324.08 482.456 1324.08 490.994C1324.08 499.533 1331 506.454 1339.54 506.454Z" fill="#F2CACA"/>
<path d="M1284.36 464.86C1280.99 469.928 1278.48 477.145 1278.48 483.071C1278.48 491.664 1283.61 497.436 1293.16 497.436V488.675C1288.69 488.675 1287.24 487.04 1287.24 483.071C1287.24 479.013 1289.18 473.435 1291.65 469.719L1284.36 464.86Z" fill="#EBBAAA"/>
<path fill-rule="evenodd" clip-rule="evenodd" d="M1259.67 502.344V512.547C1259.67 528.254 1272.36 540.983 1288.01 540.983C1303.66 540.983 1316.35 528.254 1316.35 512.547V502.344H1259.67Z" fill="#393939"/>
<mask id="mask3" mask-type="alpha" maskUnits="userSpaceOnUse" x="1259" y="502" width="58" height="39">
<path fill-rule="evenodd" clip-rule="evenodd" d="M1259.71 502.332C1259.68 502.858 1259.67 503.388 1259.67 503.919V513.858C1259.67 528.84 1272.36 540.981 1288.01 540.981C1303.66 540.981 1316.35 528.84 1316.35 513.858V503.919C1316.35 503.388 1316.33 502.858 1316.3 502.332H1259.71Z" fill="white"/>
</mask>
<g mask="url(#mask3)">
<path d="M1288.01 550.098C1297.45 550.098 1305.1 545.919 1305.1 540.764C1305.1 535.609 1297.45 531.43 1288.01 531.43C1278.57 531.43 1270.92 535.609 1270.92 540.764C1270.92 545.919 1278.57 550.098 1288.01 550.098Z" fill="#FF6C6C"/>
</g>
<rect x="1259.67" y="502.344" width="56.6853" height="11.7218" fill="white"/>
<defs>
<linearGradient id="paint0_linear" x1="1446.67" y1="-63.1317" x2="740.804" y2="1017.3" gradientUnits="userSpaceOnUse">
<stop stop-color="#FFBE00"/>
<stop offset="1" stop-color="#F8B900"/>
</linearGradient>
</defs>
</svg>
