<?xml version="1.0" encoding="utf-8"?>
<!-- Generator: Adobe Illustrator 25.0.0, SVG Export Plug-In . SVG Version: 6.00 Build 0)  -->
<svg version="1.1" id="Слой_1" xmlns="http://www.w3.org/2000/svg" xmlns:xlink="http://www.w3.org/1999/xlink" x="0px" y="0px"
	 viewBox="0 0 3200 2000" style="enable-background:new 0 0 3200 2000;" xml:space="preserve">
<style type="text/css">
	.st0{fill:#EBF3FA;}
	.st1{fill:#233862;}
	.st2{fill:#2A4E96;}
	.st3{fill:#AEC3FF;}
	.st4{fill:#FFB27D;}
	.st5{fill:#ED7D2B;}
	.st6{fill:#F99746;}
	.st7{fill:#FFFFFF;}
	.st8{fill:#E2915A;}
	.st9{fill:#DB6516;}
	.st10{fill:#9DB0F4;}
	.st11{fill:#163560;}
	.st12{fill:#ED975D;}
	.st13{fill:#2B478B;}
	.st14{fill:#6BB7BF;}
	.st15{fill:#86D1CD;}
	.st16{fill:#F1A34F;}
	.st17{fill:#DB7714;}
	.st18{fill:#5685D8;}
	.st19{fill:#739AF0;}
	.st20{fill:#A9453D;}
	.st21{fill:#2E3552;}
</style>
<g>
	<g>
		<path class="st0" d="M386.3,1808.1l852.2-4.5l227.2-0.1l75.3,0l227.6-0.1l1039.8-0.3c0,0,237.8-307.8-16.2-600.1
			c-263.4-303.1-391.5-56.3-472.4-482.9c-203.8-1073.9-2218.7-448.9-1690.2,465C819.7,1514.2,254.8,1339.3,386.3,1808.1z"/>
		<g>
			<path class="st1" d="M1372,1756.3c0,0,3.2,37.5-4.7,41.3l-101.3-0.2c0,0,0-11.7,16.3-14.3c16.3-2.6,44.9-12.1,49.7-33.3
				C1336.9,1728.6,1372,1756.3,1372,1756.3z"/>
			<path class="st1" d="M1662.8,1741.8c0,0,3,51.9-4.9,55.8l-101.3-0.2c0,0,0-11.7,16.3-14.3c16.3-2.6,44.9-12.1,49.7-33.3
				C1627.4,1728.6,1662.8,1741.8,1662.8,1741.8z"/>
			<path class="st2" d="M1666.2,1748.2c0,0-20.1,10.4-28.7,12.2c-9.6,2.1-27.5,0.8-27.5,0.8c-34.5-92.4-141.3-467.9-141.3-467.9
				c-4.6,103.8-23.4,207.4-42.9,290.7c-0.5,2.2-1,4.4-1.6,6.6v0c-0.5,2-1,4-1.4,6c0,0.1,0,0.2-0.1,0.3
				c-23.6,98.2-47.3,165.1-47.3,165.1s-6.1,7.7-23.2,4.2c-19.5-4.1-26-12.6-26-12.6c12.6-400.1,19.7-625.8,19.7-625.8
				s169.1-91.4,215.1-13.3C1606.9,1192.6,1666.2,1748.2,1666.2,1748.2z"/>
			<path class="st3" d="M1598,1168.5c-21.9-78.4-25.5-152.8-25.4-214.5c0.2-87.7,8.1-149.5-18.3-159.9c0,0-81.6-23.7-137.7-34.2
				c-8.9-4.9-18.9-10.1-26.4-13.1c-17.7-7.2-86.8-107.7-98.5-131.7c-11.7-24.1-31.1-128.8-31.1-128.8l-26.9,8.6
				c0,0-8.1,117.6-4.2,148.3c3.9,30.7,89.4,162.5,96.5,174l0,0c30.5,111.3,0,292.5,13.9,332.9c7.2,20.8,140,58.9,212.7,54.1
				c3.6-0.2,7.1-0.6,10.4-1c0,0,0,0,0,0c17.2-2.4,29.7-7.9,34.3-17.5C1599.6,1180.9,1599.9,1175.3,1598,1168.5z"/>
			<path class="st4" d="M1260.6,486.3c0,0,15.2-44.2,4.1-45.5c-11.1-1.3-39.1-1.1-42.5,6.3c-3.4,7.5,11.5,47.8,11.5,47.8
				L1260.6,486.3z"/>
			<g>
				<g>
					<g>
						<path class="st5" d="M970.9,596.4l-89.8-54.3c4-6.6,10.3-10.9,17.2-12.7c6.9-1.7,14.5-0.8,21.1,3.2c5.8,3.5,13.4,1.6,16.9-4.2
							l24.3-40.2l21,12.7l-24.3,40.2c-1.8,2.9-2.2,6.2-1.4,9.3c0.8,3.1,2.7,5.8,5.6,7.6c6.6,4,10.9,10.3,12.7,17.2
							C975.9,582.2,974.9,589.8,970.9,596.4z"/>
						<path class="st6" d="M970.9,596.4l-59.7-36.1c-13.8-11.5-7.1-21.4-0.1-23.1c6.9-1.7,14.5-0.8,21.1,3.2
							c5.8,3.5,13.4,1.6,16.9-4.2l24.3-40.2l8.3,5l-24.3,40.2c-1.8,2.9-2.2,6.2-1.4,9.3c0.8,3.1,2.7,5.8,5.6,7.6
							c6.6,4,10.9,10.3,12.7,17.2C975.9,582.2,974.9,589.8,970.9,596.4z"/>
						<path class="st6" d="M1233.7,334.5l-72.7,91.6c-25.3,41.8-69,61.8-110.8,63.5c0,0,0,0,0,0c-14.3,0.6-28.3-1-41.3-4.5
							c-10.8-2.9-23.2,2.9-30,14.1l-1.4,2.4c-4.2,7-7.8,12.8-7.8,12.8l-15.3-9.3c0,0,3.6-5.9,7.8-12.9c7.5-12.4,7.1-27.5-1.1-36.6
							c-35-39.1-48.1-103.9-14.7-159.2l49.2-105.8L1233.7,334.5z"/>
						<g>
							<path class="st5" d="M929.6,370.8c5.9-34.3-10.7-53-28.2-72.8c-14.1-15.8-28.6-32.2-31.7-56.6c-3.5-27,9.1-54.6,31.3-68.7
								c16.9-10.7,35.5-11,51.2-1c22.2,14.3,30.5,41.9,23.9,80c-4.7,27.2-15.3,50.2-15.8,51.2l-14-6.5c0.4-0.8,38.8-85.2-2.5-111.7
								c-14.3-9.2-27.8-3.3-34.7,1c-17,10.7-27,32.8-24.3,53.7c2.5,19.7,14.9,33.6,28,48.3c18.3,20.6,39.1,44,31.9,85.7L929.6,370.8
								z"/>
						</g>
						<g>
							<path class="st6" d="M1102.9,475.6c27.6-21.2,51.9-15.2,77.6-8.8c20.6,5.1,41.8,10.4,64.8,1.8c25.6-9.5,44.1-33.4,46.3-59.6
								c1.6-19.9-6.8-36.6-22.9-45.8c-23-13.1-51.3-7.5-81.9,16c-21.9,16.8-37.4,36.9-38,37.7l12.2,9.4
								c0.6-0.7,57.4-73.9,100.1-49.7c14.7,8.4,15.8,23.1,15.2,31.2c-1.6,20-16.5,39.1-36.3,46.4c-18.6,6.9-36.7,2.4-55.8-2.3
								c-26.8-6.6-57.2-14.2-90.7,11.5L1102.9,475.6z"/>
						</g>
						<path class="st5" d="M1050.1,489.7c-14.3,0.6-28.3-1-41.3-4.5c-10.8-2.9-23.2,2.9-30,14.1l-1.4,2.4
							c-5.4,2.8-9.4,6.2-11.3,10.7l-11.8-7.1c0,0,3.6-5.9,7.8-12.9c7.5-12.4,7.1-27.5-1.1-36.6c-35-39.1-48.1-103.9-14.7-159.2
							l49.2-105.8l39.4,23.8C1034.9,214.4,875.1,430.9,1050.1,489.7z"/>
						<path class="st6" d="M979.3,523.7L940.1,500c-5.3-3.2-7-10.2-3.8-15.5l0,0c3.2-5.3,10.2-7,15.5-3.8l39.2,23.7
							c5.3,3.2,7,10.2,3.8,15.5l0,0C991.6,525.2,984.6,527,979.3,523.7z"/>
					</g>
					<g>
						<path class="st7" d="M991.3,392l4.2-7c19.9,10.8,22.5,9.5,30.7-4l41.2-68.1c5.8-9.6,2.9-12.4-4.3-18l-5.1-4.4l3.8-6.2
							c15.5,7.1,34,13.1,47.4,15.8l-58,95.9c-8.4,13.9-8.3,16.3,10.3,28.8l-4.2,7L991.3,392z"/>
					</g>
				</g>
			</g>
			<path class="st4" d="M1222.2,447.1c0,0-1.4,15.2,3.4,18.1c4.9,2.9,6.6-18.1,6.6-18.1s0.3,17.2,4,18.4c3.7,1.2,6-19.8,6-19.8
				s0.4,16.7,2.9,16.1c2.5-0.6,4.3-16.1,4.3-16.1s1.1,12.1,4.6,9.9c3.4-2.2,6.7-15.1,6.7-15.1L1222.2,447.1z"/>
			<path class="st4" d="M1260.6,486.3c0,0,10.4-8.2,12.7-15.6c2.3-7.5,9-20,5.5-21.5c-3.6-1.5-14.1,14.6-14.1,14.6L1260.6,486.3z"/>
			<path class="st4" d="M1441,747.9l-1.3,6.8c0,0-6.1,20.9,19.5,29.2c25.6,8.3,47.1,12.1,49.6-4.4c0.2-13.2-0.2-33.7,1.7-44.3
				c0.7-3.9,1.8-8,3.4-12.5l-50.5-11l-15.4-0.5L1441,747.9z"/>
			<path class="st8" d="M1448.1,711.1l-4.7,24.8c48,12.7,69-8.7,70.6-13.2l-50.5-11L1448.1,711.1z"/>
			<path class="st4" d="M1521.4,712.4c-14.9,30.2-55.8,17.6-73,10.6c-4.9-2-7.8-3.5-7.8-3.5c-5.2-3.1-5.9-12.9-4.1-24.9
				c3.6-23.9,16.7-56.7,23.1-64.2c9.5-11.4,24.5-22.4,63.1-0.6C1561.3,651.6,1540.5,673.6,1521.4,712.4z"/>
			<path class="st1" d="M1455.4,596.4c0,0,18.6,3.7,42.8,0.4c19.6-2.7,39.3,11.9,45.4,17.6c0.1-1.2,0.1-2.9-0.5-4.8
				c0,0,2.6,3.2,2.2,6.5c0.3,0.3,0.4,0.5,0.3,0.6c0,0,3.8,0.4,5.9,2.1c0,0-1.6-0.7-2.5,0.2c-0.1,0.1-0.2,0.2-0.3,0.2
				c23.6,20.8,14,64.6,2.4,72.1c-13.9,9-37.8,33.9-37.8,33.9s0.8-9.1,5.7-19.1c4.9-10-4.2-12.6-14.4-20.6c-10.2-8,3.2-18.8-4.6-29.7
				c-7.8-11-46.1-16.5-43.8-22.6C1443.7,624.3,1455,597.8,1455.4,596.4z"/>
			<path class="st7" d="M1461.5,701.2c0,0-2.5,3.7-12.5-0.7c0,0-8.4-3.7-6.4-8.1C1442.6,692.4,1452.1,692.3,1461.5,701.2z"/>
			<path class="st5" d="M1450.3,803.5c0,0-23,152.9-195.3,259l-16.1,46.7h62.2c0,0,154.3-129.4,164.7-301.3L1450.3,803.5z"/>
			<polygon class="st9" points="1450.3,803.5 1450.3,780.3 1478.7,788.4 1465.7,807.9 			"/>
			<path class="st10" d="M1441,747.9l-16.6,14.2c0,0-4.6,19.8,6.6,41.4l33.5-19.2C1464.5,784.3,1444.7,774.8,1441,747.9z"/>
			<path class="st10" d="M1464.5,784.3c0,0,3.3,18,12,26.9c0,0,37.7-6.6,48.2-24.7l-15.8-24.7C1509,761.8,1505.2,778.7,1464.5,784.3
				z"/>
			<path class="st4" d="M1690.6,1180.6c0,0,0.1,34.2-3.1,41s-17.3,29-23.8,33.7c-6.5,4.7,1.4-27.4-0.6-33.3
				c-2-5.9-4.5,11.6-7.6,12.3c-3,0.7-3.8-14.7-4.5-20.3s12.8-20.9,16.9-33.3C1671.9,1168.3,1690.6,1180.6,1690.6,1180.6z"/>
			<path class="st3" d="M1553.9,794.1c0,0,33.2,9,55.7,58.5c23.6,51.9,86.7,167.2,89,183.1c2.3,15.9-4.2,164.5-4.2,164.5
				s-27.6,1.1-36.2-12c0,0-9.6-130.4-13.9-137.5c-4.3-7.1-113-136.7-103.8-169.6C1549.7,848.1,1553.9,794.1,1553.9,794.1z"/>
			<path class="st10" d="M1597.3,1185.6c-8.2,7.1-19.3,13.2-34.3,17.5c0,0,0,0,0,0c-3.7,1.1-7.1,1.4-10.4,1
				c-60.7-6.3-51.4-242.3-22-259.7c31-18.4,42,9.5,42,9.5c-0.2,61.6,3.4,136.1,25.4,214.5
				C1599.9,1175.3,1599.6,1180.9,1597.3,1185.6z"/>
			<path class="st1" d="M1422.8,1596.6c0.4-1.8,0.9-3.8,1.4-6C1423.7,1592.6,1423.2,1594.6,1422.8,1596.6z"/>
			<path class="st1" d="M1425.8,1584c18.6-88-1.4-323.7,7.5-328.2c9.2-4.6,35.4,37.5,35.4,37.5
				C1464,1397.2,1445.2,1500.7,1425.8,1584z"/>
		</g>
		<g>
			<polygon class="st4" points="971.3,1763.6 965.9,1725.1 988.4,1706.2 995.5,1757.3 			"/>
			<path class="st1" d="M1046,1798.1h-91.7c0,0-2.2-14,2.6-24.6c4.6-10.2,11.7-16.5,12.4-24.3c5.8,6,13,9.9,26.3,8.1
				c1.6,2.6,10.5,16.7,15.9,20.6C1017.4,1782.3,1044.2,1780.7,1046,1798.1z"/>
			<path class="st6" d="M1027.6,1242.6c-6,48.3-10.9,93.8-14.9,136.2c-21.4,226-17.2,364.1-17.2,364.1s-1.5,4.1-14.8,4.1
				c-7.5,0-14.8-1.6-14.8-1.6s-47.8-147.6-44.1-231.5c0.4-10.1,1.6-19.3,3.7-27.2c11.5-43-42.4-207.3,16.2-268.4
				C1000.3,1157.1,1030.3,1220.5,1027.6,1242.6z"/>
			<path class="st5" d="M1027.6,1242.6c-6,48.3-10.9,93.8-14.9,136.2l-90.9,135.1c0.4-10.1,1.6-19.3,3.7-27.2
				c11.5-43-42.4-207.3,16.2-268.4C1000.3,1157.1,1030.3,1220.5,1027.6,1242.6z"/>
			<path class="st4" d="M1099.8,782.2c0,0-2.2-11-4.7-19.4c-1.1-3.7,6.6-28.2,11.9-31.2c5.3-3,19.2,13.5,15.2,26.1
				c-2,6.5-5.3,27.6-5.3,27.6L1099.8,782.2z"/>
			<path class="st4" d="M1099.8,782.2c0,0-2.9-6.4-5.5-7.4c-2.6-1-5.4-11.5-7.3-15.6c0,0,1.8-2.7,5.1,0.8c2,2.1,6.4,8.4,6.4,8.4
				L1099.8,782.2z"/>
			<path class="st4" d="M721.1,819.3c-0.6,1.2-1.3,3.2-2,5.2c0-0.5,0-1.1,0-1.6c0-3.9-14.5-25-20.5-26.3c-6-1.3-14.4,18.5-6.9,29.4
				c3.8,5.6,13.2,24.9,13.2,24.9l15.5-8c0,0,0.9-7,3.1-8.7c2.2-1.8,1.8-12.6,2.4-17.1C725.7,817.1,723.1,815,721.1,819.3z"/>
			<path class="st4" d="M817.4,1752.1c-1.3-12.4-1.6-44.9-1.6-44.9s33.2-10.6,31.9-3.3c-6,35.8-4.4,53.5-4.4,53.5l-13.4,8
				L817.4,1752.1z"/>
			<path class="st6" d="M999.9,1240.3c0,0-128.1,351.1-153.3,503.4c0,0-5.8,4-16.7,2.7c-12.4-1.5-15.7-10.1-15.7-10.1
				S791,1553.8,837,1490.4c31.6-43.5-13.6-234.8,60-250.1C970.5,1225,999.9,1240.3,999.9,1240.3z"/>
			<path class="st11" d="M977.1,902.6C977.1,902.5,977.1,902.5,977.1,902.6c0-0.2-0.1-0.3-0.1-0.5c-0.7-3.1-1.6-6.1-2.4-9.2
				c0,0,0,0,0,0c-2.7-9.2-5.9-18-9.3-25.8c-2-4.4-4-8.6-6.1-12.2c-0.3-0.6-0.6-1.1-0.9-1.6l0,0c-4.9-8.3-10-14.1-14.6-15.8
				c-8.4-3.2-17.7-2.3-24.1-1c1.4-2,4.6-3.1,4.6-3.1c-4.1,0-12.5,5.3-12.5,5.3c-59-13.2-55.5,70.3-51.5,89.2
				c4,18.9-15,28.1-41.8,47.5c-51.1,36.9-50.3,76.1-50.3,76.1c0.5,0.2,1,0.4,1.5,0.7c2.1-5.1,6.4-14.7,11-16.7
				c-0.1,0.5-3.8,12.9-4.9,19.8c7.8,4.3,18.6,10.9,30.3,18.4c0,0,0,0,0,0c15.7,10,32.9,21.6,46.8,30.9c-0.7-3.8-1.3-9.2-0.3-12.3
				l4.4,13.7l0.6,1.8c8.8,6,15.8,10.8,19.4,13.2c0.4,0.2,0.7,0.5,1,0.7c1,0.7,1.6,1.1,1.6,1.1c-1.2-4.8,4-17.4,12.6-33.3
				c0.6-1.1,1.2-2.2,1.9-3.4c2.8-5,5.9-10.3,9.3-15.8c1.2-2,2.4-3.9,3.7-5.9c0,0,0,0,0,0c1-1.6,2-3.2,3.1-4.9l0,0
				c2.5-3.9,5.1-7.8,7.8-11.7c6.9-10.1,14.1-20.2,21.3-29.4c10.4-13.4,20.6-25.1,29.2-32.7c0.3-0.6,0.5-1.2,0.8-1.8
				c1.3-3.1,2.4-6.6,3.2-10.1c0.2-1.1,0.5-2.1,0.7-3.2c2.1-11.2,2.2-22.4,2.1-25c0.7,10.8,0.4,19-0.3,25.2c-0.2,1.4-0.3,2.6-0.5,3.8
				l0,0c-0.5,2.6-1,4.8-1.5,6.6c1.4-1.7,2.6-3.6,3.7-5.7c0.7-1.4,1.4-2.8,1.9-4.3C985,953.5,983.1,927.2,977.1,902.6z"/>
			<path class="st4" d="M966.1,987.1c0.2,0.1-16.5,12.2-30.7,10.5c-13.3-1.6-24.2-17-24-17c5.3-1.9,5.7-9.6,0.8-41.6l2.5,0.1l42.5,2
				c0,0,1,13.1,2.8,25.4C961.5,976.7,963.5,986.4,966.1,987.1z"/>
			<path class="st12" d="M957.2,941.1c0,0,1,13.1,2.8,25.4c-23.2,2.8-38.5-16.5-45.3-27.4L957.2,941.1z"/>
			<path class="st11" d="M909.8,935.2c0,0-14.9-17.3-20.3-33.2c-3.8-11.4-4.3-55.5,40.1-55.7c0,0,12.8-0.6,25.9,5.6
				c10.4,5,26.1,16.7,16.4,56.7l-2.1,13.3L909.8,935.2z"/>
			<path class="st7" d="M1032.9,1233.6c0,0-55.3,32.8-124.6,16c-0.8-0.2-57.1-9.2-57.1-9.2c1-2.6,8.2-46.2,9.2-48.6
				c12.3-31.8,34.8-204.2,53.6-212.7c4.8,5.2,18.5,8.8,30.3,7.8c13.5-1.2,18-7,16.9-13.3c15,7.1,26.5,13.6,26.5,13.6
				C1001.3,1007.7,1032.9,1233.6,1032.9,1233.6z"/>
			<path class="st4" d="M966.6,951.5c0,0-54.5,9-59.6-25c-5.1-34-15.6-55.8,19-63c34.6-7.2,43.3,4.8,47.8,15.7
				C978.3,890.2,980.7,948.3,966.6,951.5z"/>
			<path class="st11" d="M950.8,859c0,0-9,42.1-31.1,51.5c-22.1,9.3-32.9,4.6-32.9,4.6s15.5-16.6,15.5-41.6
				C902.3,873.6,936.7,841.7,950.8,859z"/>
			<path class="st11" d="M947.6,862.8c0,0,12.5,7.2,16.5,15.5c4,8.3,7.9,25.9,13,24.5c0,0,7.2-28.8-7.7-42.3
				C953.5,846.3,947.6,862.8,947.6,862.8z"/>
			<path class="st13" d="M1117.3,783c-2.2-0.8-5.5-2.6-9.7-3c-3.8-0.3-8.6,0.9-8.6,0.9s-15.4,95.6-16.5,100.6
				c-1.1,5.1-65.9,78-83.4,77.8c-15.8-0.3-34.5,11.9-37.9,14.3c0,0,36.7,77.7,38.6,92.3c2,15.9,21,260.4,21,260.4
				s-1.1,11.4,20.1,5.3c21.3-6.1,26.6-11.2,26.6-11.2s-19.5-192.5-23.6-252.3c-0.5-8-1.9-15.5-3.7-22.3c-1.8-6.6-0.4-13.7,3.7-19.2
				c26.9-36.9,69.3-96.6,71.7-109.3C1118.8,898.3,1117.3,783,1117.3,783z"/>
			<path class="st1" d="M893.9,1798.1h-91.7c0,0-2.2-14,2.6-24.6c4.6-10.2,11.7-16.5,12.4-24.3c5.8,6,13,9.9,26.3,8.1
				c1.6,2.6,10.5,16.7,15.9,20.6C865.3,1782.3,892,1780.7,893.9,1798.1z"/>
			<path class="st13" d="M956.9,1073.3c-3.1-19-42.6-95.4-42.6-95.4s-25-7.5-41.4-1.5c-16.4,6-101.4-42-104.1-46.5
				c-2.7-4.4-48.2-89.2-48.2-89.2s-3.8-2.2-9.8,1c-6,3.1-6,9.2-6,9.2s35.1,106.8,44.5,123.3c5.6,10,53,44.6,89.8,70.6
				c7,5,10.7,13.4,9.5,21.9c-4.9,36.5-6.2,57.1-11.9,119.7c-4.7,52-6.5,152.6-6.5,152.6s41.1,14.2,69.5,16.1
				c28.4,1.9,34.6-28,34.6-28S960.1,1092.9,956.9,1073.3z"/>
			<path class="st7" d="M948.8,934.7c0,0,6.6,3.9,14.4,2.7c5.4-0.8,6.6-7.2,6.6-7.2s-3.7-1.2-9.7,0
				C954.2,931.5,948.8,934.7,948.8,934.7z"/>
		</g>
		<g>
			<path class="st11" d="M2010.1,927.6c0,0,16.9,27.9-14.9,45.5c0,0,24.5,8.8,33,5.5c0,0-2.1,2.2-3.7,3c0,0,23,7.3,34.4,3.3
				c11.5-4,36.1-115.3-31.7-121.2c0,0-53.5-19.2-64.8,40.6s-31.9,53.9-31.9,53.9s5,4.2,7.8,5c0,0,4.4-0.3,5.8-2.1c0,0-1.7,3-3,3.8
				c0,0,21.7,8.2,35,3.6S2009.9,940.5,2010.1,927.6z"/>
			<path class="st1" d="M1941.9,1806.2h86.6c0,0,2.1-13.2-2.4-23.2c-4.3-9.6-11.1-15.5-11.7-22.9c-5.5,5.7-12.3,9.3-24.8,7.6
				c-1.5,2.5-9.9,15.8-15,19.5C1968.9,1791.3,1943.7,1789.9,1941.9,1806.2z"/>
			<path class="st13" d="M2013.5,1773.2c0,0-7.4,2.4-15.1,3.1c-13.6,1.2-15.6-2.8-15.6-2.8s-13.5-120.6-57.4-351.2
				c-6.3-33.3-8.8-51.7-11.1-81.3c-0.7-8.9-1.4-18.7-2.1-30.3c-2-31.1,2.7-83.4,26-97.1c10.6-6.3,25-4.5,44.5,10.8
				c1.5,1.2,3.1,2.5,4.7,3.9c56.8,49.2,33.5,190.3,35.8,256.7c0.4,11,1.5,20,3.7,26.1c2.9,7.9,9.2,18.9,10.7,29.3
				C2049.5,1626.3,2013.5,1773.2,2013.5,1773.2z"/>
			<path class="st1" d="M2023.2,1484.9l-108.9-144c-0.7-8.9-1.4-18.7-2.1-30.3c-2-31.1,2.7-83.4,26-97.1l44.5,10.8
				c1.5,1.2,3.1,2.5,4.7,3.9C2044.2,1277.3,2020.9,1418.5,2023.2,1484.9z"/>
			<path class="st1" d="M2331.1,1624.1l-36-78.7c0,0-12.9,3.6-20.1,11.9c-6.9,7.9-11.9,6.5-27.7-4.4c5.9,9.2,6.7,14.6,10.4,26.7
				c2.9,0.4,19.4,16.3,36.3,20.7C2300.8,1602,2315.5,1629.3,2331.1,1624.1z"/>
			<path class="st13" d="M1953.4,1248.1c0,0,77.6,269.6,106,287c28.4,17.4,177.8,41.2,208.2,54.2c0,0,3.7-5.3,1.5-16.6
				c-0.5-2.5-4.8-11.6-4.8-11.6s-92.8-69.8-153.9-76.8c-15.2-1.7,30.9-233.2-71.6-242.5C1945.4,1233.4,1953.4,1248.1,1953.4,1248.1z
				"/>
			<path class="st4" d="M1842.8,805.7c0,0,2.1-10.4,4.4-18.3c1-3.5-6.2-26.6-11.2-29.4c-5-2.8-18.1,12.7-14.4,24.6
				c1.9,6.1,5,26.1,5,26.1L1842.8,805.7z"/>
			<path class="st4" d="M1842.8,805.7c0,0,2.7-6,5.2-7c2.5-1,5.1-10.8,6.9-14.8c0,0-1.7-2.6-4.8,0.7c-1.9,2-6,7.9-6,7.9
				L1842.8,805.7z"/>
			<path class="st4" d="M2200.1,840.7c0.5,1.1,1.3,3.1,1.9,4.9c0-0.5,0-1,0-1.5c0-3.7,13.7-23.6,19.3-24.9
				c5.6-1.2,13.6,17.4,6.5,27.8c-3.6,5.3-12.4,23.5-12.4,23.5l-14.6-7.5c0,0-0.8-6.6-2.9-8.2c-2.1-1.7-1.7-11.9-2.3-16.1
				C2195.7,838.6,2198.1,836.6,2200.1,840.7z"/>
			<path class="st4" d="M1968.9,999c-0.2,0.1,15.6,11.5,29,9.9c12.6-1.5,22.8-16,22.7-16.1c-5-1.8-5.4-9-0.8-39.3l-2.4,0.1
				l-40.1,1.9c0,0-0.9,12.4-2.6,23.9C1973.2,989.2,1971.3,998.3,1968.9,999z"/>
			<path class="st12" d="M1977.3,955.5c0,0-0.9,12.4-2.6,23.9c21.9,2.6,36.3-15.5,42.7-25.8L1977.3,955.5z"/>
			<path class="st11" d="M2022,950c0,0,14.1-16.3,19.1-31.3c3.6-10.7,4.1-52.4-37.8-52.6c0,0-12.1-0.6-24.4,5.3
				c-9.8,4.7-24.6,15.8-15.5,53.5l1.9,12.6L2022,950z"/>
			<path class="st4" d="M1918.7,1237.7c0,0,39.3,24.8,104.8,8.9c0.8-0.2,37.2-6,37.2-6c-0.9-2.5-39.2-65.8-40.1-68.1
				c-11.6-30,15.3-173.1-2.5-181.1c-4.5,4.9-17.5,8.3-28.5,7.3c-12.8-1.1-17-6.6-16-12.6c-14.1,6.7-25,12.9-25,12.9
				C1935.7,1018.4,1918.7,1237.7,1918.7,1237.7z"/>
			<path class="st4" d="M1968.4,965.4c0,0,51.4,8.5,56.2-23.6c4.8-32.1,14.7-52.6-17.9-59.4c-32.6-6.8-40.8,4.5-45.1,14.8
				C1957.4,907.5,1955.1,962.3,1968.4,965.4z"/>
			<path class="st11" d="M1983.3,878.1c0,0,8.5,39.8,29.3,48.5c20.8,8.8,31.1,4.4,31.1,4.4s-14.6-15.7-14.7-39.2
				C2029.1,891.9,1996.6,861.8,1983.3,878.1z"/>
			<path class="st11" d="M1986.4,881.7c0,0-11.8,6.8-15.6,14.6c-3.8,7.8-7.4,24.4-12.3,23.1c0,0-6.8-27.2,7.3-39.9
				C1980.8,866.1,1986.4,881.7,1986.4,881.7z"/>
			<path class="st6" d="M2212.1,870.4c0,0-33.1,100.8-42,116.3c-5.3,9.4-65,46.6-99.7,71.1c-0.4,0.3-0.8,0.8-1.3,1.6c0,0,0,0,0,0
				c-8.7,13.4-35.5,96.2-29.1,111c27,62.5,45.6,86.6,52.3,104.1c3.4,8.7-1.1,18.5-10,21.7c-11.1,4-27.5,8.9-46.8,12.2
				c-3.7,0.6-7.5,1.2-11.4,1.7c-53.3,6.8-89.3-5.7-107.7-15c-8.7-4.4-13.9-13.5-13.3-23.1c1.1-19.8,11-39.3,15.4-86.8
				c3.4-36.1-27.7-90.9-26.4-110.1c0.5-7.6,6.5-16.7,9.7-22.6c0,0,0,0,0,0c5.7-10.4,8.9-19.8,5.1-25.1
				c-25.4-34.8-80.1-82.8-82.3-94.8c-3.3-17.6-1.8-126.4-1.8-126.4c2.1-0.7,5.2-2.5,9.2-2.8c3.6-0.3,8.1,0.8,8.1,0.8
				s14.5,90.2,15.6,94.9c1.1,4.8,62.2,73.6,78.7,73.4c14.9-0.3,35.9,11.2,39.1,13.5c0,0-13.4,23.7-16.7,55.6
				c-2.3,22.4,12.6,12.4,22-2.9c12.7-20.7,38.3-50.3,38.3-50.3s20.8-5.4,36.3,0.2c15.5,5.6,95.7-39.7,98.2-43.8
				c2.6-4.2,45.5-84.2,45.5-84.2s3.6-2.1,9.3,0.9C2212.1,864.7,2212.1,870.4,2212.1,870.4z"/>
			<path class="st7" d="M1983.3,948c0,0-2.2,4.4-5.2,4.5c-3,0.1-10.5-0.6-11-1.4c-0.5-0.8-1.8-5.4-1.8-5.4S1977.8,945.2,1983.3,948z
				"/>
			<path class="st5" d="M2082.4,1296.4c-11.1,4-27.5,8.9-46.8,12.2c-18.4-25.3-49.5-57.2-41.5-115.9c8.3-60.6,67.9-124.4,75-133.2
				c-8.7,13.4-35.5,96.2-29.1,111c27,62.5,45.6,86.6,52.3,104.1C2095.7,1283.4,2091.2,1293.2,2082.4,1296.4z"/>
			<path class="st5" d="M1902,1052.6c5.7-10.4,8.9-19.8,5.1-25.1c-25.4-34.8-80.1-82.8-82.3-94.8c5.4,13,71.7,51.9,90.4,68.6
				C1933.5,1018,1902.7,1051.8,1902,1052.6z"/>
		</g>
		<g>
			<path class="st14" d="M789.2,572.8c0,0,12.4,17,11.1,36.4c-1,14.4-13.8,29-14.7,29.6l20.3,10.8c0,0,15-26.7,10-49
				c-1.6-6.8-8.7-17.8-14-22.6C796,572.6,789.2,572.8,789.2,572.8z"/>
			<path class="st15" d="M747.8,574.6L735,546.2c0,0,59.9,2,79.8,50.8C814.7,597.1,772.8,567.2,747.8,574.6z"/>
		</g>
		<g>
			<path class="st14" d="M521.5,1296.6c0,0-14.3-10.8-18-26.9c-2.7-12,4.1-27,4.7-27.6l-19.1-3.8c0,0-5.7,25.4,3.9,42.3
				c2.9,5.2,11.5,12.3,17,15C516,1298.4,521.5,1296.6,521.5,1296.6z"/>
			<path class="st15" d="M554.8,1284.9l17.4,19.9c0,0-49.2,13.1-77.3-21.7C494.8,1283.1,536.3,1297.1,554.8,1284.9z"/>
		</g>
		<g>
			<path class="st16" d="M2711.3,1389.3c0,0-1.2-18.7,33.9-27.8c15.7-4.1,50.8,3.2,28.6,37.6c-23.1,35.9-43.7,22.9-43.7,22.9
				s48.2-37.7,28.9-55c-21.3-19-29.5,18.7-29.5,18.7S2720.9,1385.4,2711.3,1389.3z"/>
			<path class="st17" d="M2723.7,1424.3c0,0-13.1-7.1-7.9-22.9l18.9,3.3c0,0-7.3,17.1,10.5,19.2
				C2745.2,1423.8,2728.1,1427.9,2723.7,1424.3z"/>
		</g>
		<g>
			<path class="st18" d="M1491.8,420.6c0,0,19.6-28.3,49.7-8.2l18.3-17.5c0,0-17.1-13-56.6,10.3
				C1477.4,420.4,1491.8,420.6,1491.8,420.6z"/>
			<path class="st19" d="M1472.4,448.3c0,0-3.9-32.4,50.4-52.7c0,0-19.6,9.5-25.7,41.9L1472.4,448.3z"/>
		</g>
		<path class="st6" d="M1690.6,276.3c0,0,16.1-10.1,17.7-22.4c0,0,15.6,0.8,19,5.9c0,0-7.2,20.3-15.6,24.1
			C1711.8,283.9,1692.8,285.1,1690.6,276.3z"/>
		<path class="st6" d="M1174.1,1432.9c0,0-17.1-10.8-18.9-23.9c0,0-16.7,0.9-20.3,6.3c0,0,7.7,21.6,16.7,25.7
			C1151.6,1441,1171.9,1442.4,1174.1,1432.9z"/>
		<path class="st15" d="M1877,595.6c0,0,17.2-10.9,19-24c0,0,16.7,0.9,20.4,6.3c0,0-7.7,21.7-16.7,25.8
			C1899.6,603.8,1879.2,605.1,1877,595.6z"/>
		<g>
			<path class="st4" d="M2211.7,1093.6c0,0-9.9-12.1-15.3-13.8c-5.3-1.7-15.7-9.7-17-6.4c-1.3,3.3,7,8.4,6.5,12.2
				c-0.4,3.8-26.4,9.8-26.2,13.8c0.2,4,6.1,13.6,16,12.5c9.9-1.1,35-7.1,40.2-4.5C2221,1110.1,2211.7,1093.6,2211.7,1093.6z"/>
			<path class="st3" d="M2479.4,1034.9c-14.7,19.7-31.8,35.2-49.5,47.5c-56.1,39-116.9,44.8-116.9,44.8
				c-14.6-4.7-59.3-9.5-85.8-13.8h0c-11.5-1.9-19.6-3.6-20.1-5.1l0.7-23c0,0,97.1-5.1,113.2-12.6c25.4-21.8,47.8-50.2,62.3-72.4
				c12.3-18.7,26.1-32.5,48.9-40.6C2465.1,947.9,2525,973.8,2479.4,1034.9z"/>
			<path class="st10" d="M2434.9,1067.9l-4.9,14.5c-56.1,39-116.9,44.8-116.9,44.8c-11.7,0-59.3-9.5-85.8-13.8c1,0.1,72,5.6,87.7,4
				c15.8-1.6,89.4-65.4,89.4-65.4L2434.9,1067.9z"/>
			<path class="st1" d="M2371.6,1798.1h107.3c7.7-5.2-2.1-56.2-2.1-56.2s-29.3-11.1-34.3,11.5c-5.1,22.6-37.3,29.8-54.4,32.5
				C2376.4,1787.8,2372.7,1794.2,2371.6,1798.1z"/>
			<path class="st1" d="M2530.7,1798.1H2638c7.7-5.2-2.1-56.2-2.1-56.2s-29.3-11.1-34.3,11.5c-5.1,22.6-37.3,29.8-54.4,32.5
				C2535.5,1787.8,2531.8,1794.2,2530.7,1798.1z"/>
			<path class="st13" d="M2400.4,1278.1c0,0,4.8,60.2,10.5,132.5c7.7,98.2,28.5,341.8,28.5,341.8s13.6,11.6,43.8,5.3
				c0,0,25.7-84,33.4-180c0.1-1.6,0.2-3.2,0.4-4.7c7.1-97.6,18.3-303.3,18.3-303.3L2400.4,1278.1z"/>
			<path class="st1" d="M2398.8,1257.3c0,0,6.5,81,12.1,153.3l105.6,167.2c0.1-1.6,0.2-3.2,0.4-4.7c7.1-97.6,18.3-303.3,18.3-303.3
				L2398.8,1257.3z"/>
			<path class="st13" d="M2429.6,1257.3c0,0,76.6,190.7,101.1,263c17.4,51.5,66.7,232.2,66.7,232.2s21.4,6.5,39.4-6.1
				c0,0,18.3-184.6-18.7-236.6c-19.6-27.6-4.9-287-84.4-289.2C2454.1,1218.4,2429.6,1257.3,2429.6,1257.3z"/>
			<path class="st4" d="M2463.8,976.2c11.7,6.2,23.1,6.5,33,4.4c9.1-1.9,16.8-5.9,22.4-9.4c5.7-3.6,9-6.8,9-6.8s-0.4-0.6-1.1-1.7
				c-3.5-5.9-13.9-27.2-9.3-61.3c0.1-0.4-3.3,0.2-8.4,1.4c-15.2,3.6-45.8,12.3-47.1,12.7c0,0-0.1,0-0.1,0s-0.4,7.2-1.6,20.1
				c-0.1,1.1-0.2,2.3-0.3,3.5c-0.2,1.5-0.3,3.1-0.5,4.8C2458.4,957.2,2463.8,976.2,2463.8,976.2z"/>
			<path class="st12" d="M2460.6,935.5c22.7,5.2,56.6-28.3,56.6-28.3c-2.5-1.8-5.1-3.3-7.8-4.4c-15.2,3.6-45.8,12.3-47.1,12.7
				c0,0-0.1,0-0.1,0S2461.9,922.6,2460.6,935.5z"/>
			<path class="st4" d="M2452.9,913.6c0,0,9.3,3.3,21.2,4.9c17.4,2.3,40.3,1,47.5-20.1c12.1-35.4,27.6-56.7-8.1-71.2
				c-19.1-7.7-31.3-8.2-39.6-5.2c-7.2,2.6-11.4,7.6-14.7,12.7C2452.4,845.7,2438.5,907.4,2452.9,913.6z"/>
			<path class="st20" d="M2431.3,837.6c20.6,14.8,49.2,0.3,58,4.2c8.9,3.9,10.5,18.8,10.6,23.5c0.2,4.7,0.8,8.7,12.8,5.9
				c2-0.5,3.4-0.3,4.4,0.3c5,3-1.4,17.3-3.3,20.4c0,0-2.8,10.3,3.4,15.3c0.7,0.6,12.8,5.9,41.9-38.6c4.6-7,8.9-22.7,1.9-37.9
				c-7.1-15.2-36.5-29.8-61.5-37.6c-9.4-2.9-16.3-2.8-21.7-0.8c-9.1,3.3-13.9,11.9-18.7,20.5C2451,827.2,2431.3,837.6,2431.3,837.6z
				"/>
			<path class="st3" d="M2564,1270.7c0,0-10,2.2-22.6,4.3c-12.3,2.1-27.2,4.1-37.8,4c-53.8-0.4-98.8-16.3-98.8-16.3
				c-10.1,0-14.7-15.7-16.4-37.5c-1.1-14.8-0.9-32.4-0.1-50c0.3-5.7,0.6-11.4,0.9-16.9c0.7-11.1,1.5-21.7,2.3-31
				c0.7-8.8,1.4-16.5,1.7-22.5c0,0-1.4-41.9-0.9-78.7c0.4-26.4,15.2-50.5,19-54.4c10.8-11.4,42-18.6,48.2-19.6
				c0.5-0.1,0.7-0.1,0.7-0.1c25.7,14.4,60.2-5.1,60.2-5.1c0.8,0.1,1.5,0.3,2.3,0.5c2.5-0.5,28.5,3.3,34.5,6.6
				c14.9,8.1,23.6,98.4,23.6,98.4c2.5,61.3-0.6,159.4,4.2,196.9C2586.8,1261.5,2574.8,1268.2,2564,1270.7z"/>
			<path class="st10" d="M2522.7,947.4c0,0-38.2,39.4-65.6,31.4c0,0-3.6-5.3,8.7-7C2478.1,970,2491.4,970.7,2522.7,947.4z"/>
			<path class="st7" d="M2452.6,890.8c0,0-0.7,4.6,9.9,8.2c0,0,9,3.1,10.6-1.6C2473.1,897.4,2466,890.6,2452.6,890.8z"/>
			<path class="st10" d="M2543.7,1096.5c0,0-55.5,92.9-87,109.2c-21.3,11.1-51.1,16.9-68.2,19.5c-1.1-14.8-0.9-32.4-0.1-50
				c22.6-2.7,56.9-7.1,56.9-7.1L2543.7,1096.5z"/>
			<path class="st10" d="M2470.5,1049.9l-29.6,106.8c0,0-34.8,2.2-51.6,1.6c0.7-11.1,0.7-11.4,1.5-20.8
				C2390.8,1137.5,2430.8,1116.6,2470.5,1049.9z"/>
			<path class="st4" d="M2292.3,1164.6c0,0-9.9-12.1-15.3-13.8c-5.3-1.7-15.7-9.7-17-6.4c-1.3,3.3,7,8.4,6.5,12.2
				c-0.4,3.8-26.4,9.8-26.2,13.8c0.2,4,6.1,13.6,16,12.5c9.9-1.1,35-7.1,40.2-4.5C2301.6,1181,2292.3,1164.6,2292.3,1164.6z"/>
			<path class="st3" d="M2584.1,1016.4c0,0,1.7,56.6-127.2,170.1l-25.9-46.4c-4.8-2.8,83.3-192.2,108.6-190.7
				C2588.6,952.3,2584.1,1016.4,2584.1,1016.4z"/>
			<path class="st3" d="M2446.4,1134.6c0,0-146.7,16.8-152.1,19.7c-5.4,2.9-17.1,14.3-13.2,28.5c0,0,75.9,9.5,117.7,9.4
				c36-0.2,59.3-5.9,59.3-5.9L2446.4,1134.6z"/>
		</g>
		<path class="st21" d="M2973.8,1806.2H218.5c-1.9,0-3.4-1.5-3.4-3.4v-1.8c0-1.9,1.5-3.4,3.4-3.4h2755.3c1.9,0,3.4,1.5,3.4,3.4v1.8
			C2977.2,1804.7,2975.7,1806.2,2973.8,1806.2z"/>
	</g>
</g>
</svg>
