<svg width="1920" height="1080" viewBox="0 0 1920 1080" fill="none" xmlns="http://www.w3.org/2000/svg">
<rect width="1920" height="1080" transform="matrix(-1 0 0 1 1920 0)" fill="white"/>
<g style="mix-blend-mode:multiply">
<path d="M816.59 891.99L1143.09 890.264L1230.13 890.226H1258.98L1346.18 890.188L1744.55 890.073C1744.55 890.073 1835.65 772.075 1738.34 660.019C1637.43 543.822 1588.35 638.435 1557.35 474.894C1479.27 63.2042 707.324 302.804 909.804 653.156C982.635 779.32 766.21 712.271 816.59 891.99Z" fill="#EBF3FA"/>
<path d="M1194.23 872.132C1194.23 872.132 1195.46 886.508 1192.43 887.964L1153.62 887.888C1153.62 887.888 1153.62 883.402 1159.87 882.406C1166.11 881.409 1177.07 877.767 1178.91 869.64C1180.79 861.512 1194.23 872.132 1194.23 872.132Z" fill="#233862"/>
<path d="M1305.64 866.573C1305.64 866.573 1306.79 886.469 1303.77 887.964L1264.96 887.888C1264.96 887.888 1264.96 883.402 1271.2 882.406C1277.45 881.409 1288.4 877.767 1290.24 869.64C1292.08 861.512 1305.64 866.573 1305.64 866.573Z" fill="#233862"/>
<path d="M1306.95 869.026C1306.95 869.026 1299.25 873.013 1295.95 873.703C1292.27 874.508 1285.42 874.01 1285.42 874.01C1272.2 838.587 1231.28 694.636 1231.28 694.636C1229.52 734.429 1222.32 774.145 1214.84 806.079C1214.65 806.922 1214.46 807.765 1214.23 808.609C1214.04 809.375 1213.85 810.142 1213.7 810.909C1213.7 810.947 1213.7 810.986 1213.66 811.024C1204.62 848.67 1195.54 874.317 1195.54 874.317C1195.54 874.317 1193.2 877.268 1186.65 875.927C1179.18 874.355 1176.69 871.096 1176.69 871.096C1181.51 717.714 1184.23 631.19 1184.23 631.19C1184.23 631.19 1249.02 596.151 1266.64 626.091C1284.23 656.032 1306.95 869.026 1306.95 869.026Z" fill="#2A4E96"/>
<path d="M1280.82 646.793C1272.43 616.737 1271.05 588.215 1271.09 564.562C1271.16 530.941 1274.19 507.25 1264.08 503.263C1264.08 503.263 1232.81 494.177 1211.32 490.152C1207.91 488.274 1204.08 486.28 1201.21 485.13C1194.42 482.37 1167.95 443.842 1163.47 434.641C1158.99 425.403 1151.55 385.265 1151.55 385.265L1141.25 388.562C1141.25 388.562 1138.14 433.645 1139.64 445.414C1141.13 457.183 1173.89 507.71 1176.61 512.118C1188.29 554.786 1176.61 624.251 1181.93 639.739C1184.69 647.713 1235.57 662.319 1263.42 660.479C1264.8 660.402 1266.14 660.249 1267.41 660.095C1274 659.175 1278.79 657.067 1280.55 653.387C1281.43 651.546 1281.55 649.4 1280.82 646.793Z" fill="#AEC3FF"/>
<path d="M1151.55 385.265C1151.55 385.265 1157.38 368.32 1153.12 367.822C1148.87 367.324 1138.14 367.4 1136.84 370.237C1135.54 373.112 1141.25 388.562 1141.25 388.562L1151.55 385.265Z" fill="#FFB27D"/>
<path d="M1040.56 427.473L1006.16 406.656C1007.69 404.126 1010.1 402.478 1012.75 401.788C1015.39 401.136 1018.3 401.481 1020.83 403.014C1023.05 404.356 1025.97 403.628 1027.31 401.404L1036.62 385.993L1044.66 390.862L1035.35 406.273C1034.66 407.385 1034.51 408.65 1034.82 409.838C1035.12 411.027 1035.85 412.062 1036.96 412.752C1039.49 414.285 1041.14 416.7 1041.83 419.345C1042.48 422.029 1042.1 424.943 1040.56 427.473Z" fill="#ED7D2B"/>
<path d="M1040.56 427.473L1017.69 413.633C1012.4 409.225 1014.97 405.429 1017.65 404.778C1020.3 404.126 1023.21 404.471 1025.74 406.004C1027.96 407.346 1030.87 406.618 1032.21 404.394L1041.52 388.983L1044.7 390.9L1035.39 406.311C1034.7 407.423 1034.55 408.688 1034.85 409.876C1035.16 411.065 1035.89 412.1 1037 412.79C1039.53 414.323 1041.18 416.739 1041.87 419.384C1042.48 422.029 1042.1 424.942 1040.56 427.473Z" fill="#F99746"/>
<path d="M1141.25 327.071L1113.39 362.186C1103.7 378.211 1086.96 385.878 1070.94 386.53C1065.47 386.76 1060.1 386.146 1055.12 384.805C1050.98 383.693 1046.23 385.916 1043.63 390.21L1043.09 391.13C1041.48 393.814 1040.1 396.037 1040.1 396.037L1034.24 392.472C1034.24 392.472 1035.62 390.21 1037.23 387.527C1040.1 382.773 1039.95 376.984 1036.81 373.496C1023.4 358.506 1018.38 333.665 1031.18 312.465L1050.03 271.905L1141.25 327.071Z" fill="#F99746"/>
<path d="M1024.74 340.987C1027 327.837 1020.64 320.669 1013.94 313.078C1008.53 307.021 1002.98 300.734 1001.79 291.38C1000.45 281.029 1005.28 270.449 1013.78 265.043C1020.26 260.941 1027.38 260.826 1033.4 264.66C1041.9 270.142 1045.08 280.723 1042.56 295.329C1040.75 305.756 1036.69 314.573 1036.5 314.957L1031.14 312.465C1031.29 312.158 1046 279.803 1030.18 269.643C1024.7 266.117 1019.53 268.378 1016.89 270.027C1010.37 274.129 1006.54 282.601 1007.58 290.613C1008.53 298.165 1013.28 303.494 1018.3 309.13C1025.31 317.027 1033.28 325.997 1030.53 341.983L1024.74 340.987Z" fill="#ED7D2B"/>
<path d="M1091.13 381.163C1101.71 373.036 1111.02 375.336 1120.86 377.789C1128.76 379.744 1136.88 381.776 1145.69 378.479C1155.5 374.837 1162.59 365.675 1163.43 355.631C1164.04 348.002 1160.82 341.6 1154.66 338.073C1145.84 333.051 1135 335.198 1123.28 344.207C1114.89 350.647 1108.95 358.353 1108.72 358.66L1113.39 362.263C1113.62 361.995 1135.39 333.933 1151.74 343.21C1157.38 346.43 1157.8 352.066 1157.57 355.171C1156.95 362.838 1151.25 370.16 1143.66 372.959C1136.53 375.604 1129.6 373.879 1122.28 372.077C1112.01 369.547 1100.37 366.633 1087.53 376.486L1091.13 381.163Z" fill="#F99746"/>
<path d="M1070.91 386.568C1065.43 386.798 1060.06 386.185 1055.08 384.843C1050.95 383.731 1046.19 385.955 1043.59 390.248L1043.05 391.168C1040.98 392.242 1039.45 393.545 1038.72 395.27L1034.2 392.549C1034.2 392.549 1035.58 390.287 1037.19 387.603C1040.06 382.85 1039.91 377.061 1036.77 373.572C1023.36 358.583 1018.34 333.741 1031.14 312.541L1049.99 271.982L1065.08 281.106C1065.08 281.029 1003.86 364.027 1070.91 386.568Z" fill="#ED7D2B"/>
<path d="M1043.78 399.602L1028.76 390.517C1026.73 389.29 1026.08 386.607 1027.31 384.575C1028.53 382.543 1031.21 381.891 1033.25 383.118L1048.26 392.204C1050.29 393.43 1050.95 396.114 1049.72 398.146C1048.49 400.177 1045.81 400.867 1043.78 399.602Z" fill="#F99746"/>
<path d="M1048.38 349.114L1049.99 346.43C1057.61 350.571 1058.61 350.072 1061.75 344.897L1077.53 318.79C1079.76 315.11 1078.65 314.037 1075.89 311.89L1073.93 310.203L1075.39 307.826C1081.33 310.548 1088.41 312.848 1093.55 313.883L1071.33 350.647C1068.11 355.976 1068.15 356.896 1075.27 361.688L1073.66 364.372L1048.38 349.114Z" fill="white"/>
<path d="M1136.84 370.237C1136.84 370.237 1136.3 376.064 1138.14 377.176C1140.02 378.288 1140.67 370.237 1140.67 370.237C1140.67 370.237 1140.79 376.831 1142.2 377.291C1143.62 377.751 1144.5 369.7 1144.5 369.7C1144.5 369.7 1144.66 376.102 1145.61 375.872C1146.57 375.642 1147.26 369.7 1147.26 369.7C1147.26 369.7 1147.68 374.339 1149.02 373.496C1150.33 372.652 1151.59 367.707 1151.59 367.707L1136.84 370.237Z" fill="#FFB27D"/>
<path d="M1151.55 385.265C1151.55 385.265 1155.54 382.121 1156.42 379.284C1157.3 376.409 1159.87 371.617 1158.53 371.042C1157.15 370.467 1153.12 376.639 1153.12 376.639L1151.55 385.265Z" fill="#FFB27D"/>
<path d="M1220.67 485.552L1220.17 488.158C1220.17 488.158 1217.83 496.171 1227.64 499.353C1237.45 502.534 1245.69 503.991 1246.64 497.666C1246.72 492.605 1246.57 484.747 1247.29 480.683C1247.56 479.188 1247.98 477.616 1248.6 475.891L1229.25 471.674L1223.35 471.482L1220.67 485.552Z" fill="#FFB27D"/>
<path d="M1223.39 471.444L1221.59 480.951C1239.98 485.82 1248.02 477.616 1248.64 475.891L1229.29 471.674L1223.39 471.444Z" fill="#E2915A"/>
<path d="M1251.47 471.942C1245.76 483.52 1230.09 478.689 1223.5 476.006C1221.63 475.239 1220.51 474.664 1220.51 474.664C1218.52 473.476 1218.25 469.719 1218.94 465.119C1220.32 455.956 1225.34 443.382 1227.79 440.507C1231.43 436.137 1237.18 431.92 1251.97 440.277C1266.76 448.634 1258.79 457.068 1251.47 471.942Z" fill="#FFB27D"/>
<path d="M1226.18 427.473C1226.18 427.473 1233.31 428.891 1242.58 427.626C1250.09 426.591 1257.64 432.188 1259.98 434.373C1260.01 433.913 1260.01 433.261 1259.78 432.533C1259.78 432.533 1260.78 433.76 1260.63 435.025C1260.74 435.14 1260.78 435.216 1260.74 435.255C1260.74 435.255 1262.2 435.408 1263 436.06C1263 436.06 1262.39 435.792 1262.05 436.137C1262.01 436.175 1261.97 436.213 1261.93 436.213C1270.97 444.187 1267.29 460.978 1262.85 463.853C1257.52 467.304 1248.37 476.849 1248.37 476.849C1248.37 476.849 1248.67 473.361 1250.55 469.527C1252.43 465.694 1248.94 464.697 1245.03 461.63C1241.13 458.563 1246.26 454.423 1243.27 450.244C1240.28 446.027 1225.61 443.919 1226.49 441.58C1221.7 438.168 1226.03 428.009 1226.18 427.473Z" fill="#233862"/>
<path d="M1228.52 467.649C1228.52 467.649 1227.56 469.067 1223.73 467.38C1223.73 467.38 1220.51 465.962 1221.28 464.275C1221.28 464.275 1224.92 464.237 1228.52 467.649Z" fill="white"/>
<path d="M1224.23 506.866C1224.23 506.866 1215.42 565.482 1149.41 606.157L1143.24 624.059H1167.07C1167.07 624.059 1226.18 574.453 1230.17 508.553L1224.23 506.866Z" fill="#ED7D2B"/>
<path d="M1224.23 506.866V497.972L1235.11 501.078L1230.13 508.553L1224.23 506.866Z" fill="#DB6516"/>
<path d="M1220.67 485.552L1214.31 490.995C1214.31 490.995 1212.55 498.586 1216.84 506.866L1229.67 499.506C1229.67 499.506 1222.09 495.864 1220.67 485.552Z" fill="#9DB0F4"/>
<path d="M1229.67 499.506C1229.67 499.506 1230.94 506.406 1234.27 509.818C1234.27 509.818 1248.71 507.288 1252.74 500.349L1246.68 490.88C1246.72 490.88 1245.26 497.359 1229.67 499.506Z" fill="#9DB0F4"/>
<path d="M1316.29 651.431C1316.29 651.431 1316.33 664.542 1315.11 667.149C1313.88 669.756 1308.48 678.267 1305.99 680.068C1303.5 681.87 1306.53 669.564 1305.76 667.302C1304.99 665.041 1304.04 671.749 1302.85 672.018C1301.7 672.286 1301.39 666.382 1301.12 664.236C1300.86 662.089 1306.03 656.223 1307.6 651.47C1309.13 646.716 1316.29 651.431 1316.29 651.431Z" fill="#FFB27D"/>
<path d="M1263.92 503.263C1263.92 503.263 1276.64 506.713 1285.26 525.689C1294.3 545.586 1318.48 589.787 1319.36 595.882C1320.24 601.978 1317.75 658.945 1317.75 658.945C1317.75 658.945 1307.18 659.367 1303.88 654.345C1303.88 654.345 1300.2 604.355 1298.56 601.633C1296.91 598.911 1255.26 549.228 1258.79 536.615C1262.31 523.964 1263.92 503.263 1263.92 503.263Z" fill="#AEC3FF"/>
<path d="M1280.55 653.348C1277.41 656.07 1273.16 658.408 1267.41 660.057C1265.99 660.479 1264.69 660.594 1263.42 660.44C1240.17 658.025 1243.73 567.552 1255 560.882C1266.87 553.828 1271.09 564.524 1271.09 564.524C1271.01 588.139 1272.39 616.699 1280.82 646.754C1281.55 649.4 1281.43 651.546 1280.55 653.348Z" fill="#9DB0F4"/>
<path d="M1213.7 810.909C1213.85 810.219 1214.04 809.452 1214.23 808.609C1214.04 809.376 1213.85 810.142 1213.7 810.909Z" fill="#233862"/>
<path d="M1214.84 806.079C1221.97 772.343 1214.31 681.985 1217.72 680.26C1221.24 678.497 1231.28 694.636 1231.28 694.636C1229.48 734.467 1222.28 774.145 1214.84 806.079Z" fill="#233862"/>
<path d="M1040.72 874.93L1038.65 860.171L1047.27 852.925L1049.99 872.515L1040.72 874.93Z" fill="#FFB27D"/>
<path d="M1069.34 888.156H1034.2C1034.2 888.156 1033.36 882.789 1035.2 878.725C1036.96 874.815 1039.68 872.4 1039.95 869.41C1042.17 871.71 1044.93 873.205 1050.03 872.515C1050.64 873.512 1054.05 878.917 1056.12 880.412C1058.38 882.099 1068.65 881.485 1069.34 888.156Z" fill="#233862"/>
<path d="M1062.29 675.2C1059.99 693.716 1058.11 711.159 1056.58 727.413C1048.38 814.052 1049.99 866.994 1049.99 866.994C1049.99 866.994 1049.41 868.566 1044.32 868.566C1041.44 868.566 1038.65 867.953 1038.65 867.953C1038.65 867.953 1020.33 811.369 1021.75 779.205C1021.9 775.333 1022.36 771.806 1023.17 768.778C1027.57 752.293 1006.92 689.307 1029.38 665.884C1051.83 642.422 1063.32 666.727 1062.29 675.2Z" fill="#F99746"/>
<path d="M1062.29 675.2C1059.99 693.716 1058.11 711.159 1056.58 727.413L1021.75 779.205C1021.9 775.333 1022.36 771.806 1023.17 768.778C1027.57 752.293 1006.92 689.307 1029.38 665.884C1051.83 642.422 1063.32 666.727 1062.29 675.2Z" fill="#ED7D2B"/>
<path d="M1089.95 498.701C1089.95 498.701 1089.1 494.484 1088.15 491.264C1087.72 489.845 1090.67 480.453 1092.71 479.303C1094.74 478.153 1100.06 484.478 1098.53 489.309C1097.76 491.8 1096.5 499.889 1096.5 499.889L1089.95 498.701Z" fill="#FFB27D"/>
<path d="M1089.95 498.701C1089.95 498.701 1088.84 496.247 1087.84 495.864C1086.84 495.481 1085.77 491.455 1085.04 489.884C1085.04 489.884 1085.73 488.849 1087 490.19C1087.76 490.995 1089.45 493.411 1089.45 493.411L1089.95 498.701Z" fill="#FFB27D"/>
<path d="M944.859 512.923C944.629 513.384 944.361 514.15 944.093 514.917C944.093 514.725 944.093 514.495 944.093 514.304C944.093 512.808 938.538 504.72 936.239 504.221C933.94 503.723 930.722 511.313 933.595 515.492C935.051 517.639 938.653 525.038 938.653 525.038L944.591 521.971C944.591 521.971 944.936 519.287 945.779 518.636C946.622 517.946 946.468 513.805 946.698 512.08C946.622 512.08 945.625 511.275 944.859 512.923Z" fill="#FFB27D"/>
<path d="M981.754 870.521C981.256 865.768 981.141 853.308 981.141 853.308C981.141 853.308 993.86 849.245 993.362 852.043C991.064 865.768 991.677 872.553 991.677 872.553L986.543 875.62L981.754 870.521Z" fill="#FFB27D"/>
<path d="M1051.67 674.318C1051.67 674.318 1002.6 808.915 992.941 867.301C992.941 867.301 990.719 868.835 986.543 868.336C981.792 867.761 980.528 864.464 980.528 864.464C980.528 864.464 971.639 794.501 989.263 770.196C1001.37 753.52 984.052 680.183 1012.25 674.318C1040.41 668.452 1051.67 674.318 1051.67 674.318Z" fill="#F99746"/>
<path d="M1042.94 544.857C1042.94 544.819 1042.94 544.819 1042.94 544.857C1042.94 544.781 1042.9 544.742 1042.9 544.666C1042.63 543.477 1042.29 542.327 1041.98 541.139C1040.95 537.612 1039.72 534.238 1038.42 531.248C1037.65 529.561 1036.88 527.951 1036.08 526.571C1035.97 526.341 1035.85 526.149 1035.74 525.958C1033.86 522.776 1031.9 520.552 1030.14 519.901C1026.92 518.674 1023.36 519.019 1020.91 519.517C1021.45 518.751 1022.67 518.329 1022.67 518.329C1021.1 518.329 1017.88 520.361 1017.88 520.361C995.278 515.3 996.619 547.311 998.151 554.556C999.684 561.802 992.404 565.329 982.137 572.766C962.559 586.912 962.866 601.94 962.866 601.94C963.057 602.016 963.249 602.093 963.441 602.208C964.245 600.253 965.893 596.573 967.655 595.806C967.617 595.997 966.199 600.751 965.778 603.396C968.766 605.045 972.904 607.575 977.386 610.45C983.401 614.284 989.991 618.731 995.316 622.296C995.048 620.839 994.818 618.769 995.201 617.581L996.887 622.833L997.117 623.523C1000.49 625.823 1003.17 627.663 1004.55 628.583C1004.7 628.66 1004.82 628.775 1004.93 628.851C1005.32 629.12 1005.55 629.273 1005.55 629.273C1005.09 627.433 1007.08 622.603 1010.37 616.507C1010.6 616.086 1010.83 615.664 1011.1 615.204C1012.17 613.287 1013.36 611.255 1014.66 609.147C1015.12 608.38 1015.58 607.652 1016.08 606.885C1016.46 606.272 1016.85 605.658 1017.27 605.006C1018.23 603.511 1019.22 602.016 1020.26 600.521C1022.9 596.649 1025.66 592.777 1028.42 589.25C1032.4 584.113 1036.31 579.628 1039.6 576.715C1039.72 576.485 1039.8 576.254 1039.91 576.024C1040.41 574.836 1040.83 573.494 1041.14 572.153C1041.21 571.731 1041.33 571.347 1041.41 570.926C1042.21 566.632 1042.25 562.339 1042.21 561.342C1042.48 565.482 1042.36 568.626 1042.1 571.002C1042.02 571.539 1041.98 571.999 1041.9 572.459C1041.71 573.456 1041.52 574.299 1041.33 574.989C1041.87 574.338 1042.33 573.609 1042.75 572.804C1043.01 572.268 1043.28 571.731 1043.47 571.156C1045.96 564.37 1045.24 554.288 1042.94 544.857Z" fill="#163560"/>
<path d="M1038.72 577.251C1038.8 577.29 1032.4 581.928 1026.96 581.277C1021.87 580.663 1017.69 574.759 1017.77 574.759C1019.8 574.031 1019.95 571.079 1018.07 558.812L1019.03 558.85L1035.31 559.617C1035.31 559.617 1035.7 564.639 1036.39 569.354C1036.96 573.264 1037.73 576.983 1038.72 577.251Z" fill="#FFB27D"/>
<path d="M1035.31 559.617C1035.31 559.617 1035.7 564.639 1036.39 569.354C1027.5 570.427 1021.64 563.029 1019.03 558.85L1035.31 559.617Z" fill="#ED975D"/>
<path d="M1017.15 557.355C1017.15 557.355 1011.45 550.723 1009.38 544.627C1007.92 540.257 1007.73 523.351 1024.74 523.274C1024.74 523.274 1029.64 523.044 1034.66 525.421C1038.65 527.338 1044.66 531.823 1040.95 547.158L1040.14 552.256L1017.15 557.355Z" fill="#163560"/>
<path d="M1064.32 671.749C1064.32 671.749 1043.13 684.324 1016.58 677.883C1016.27 677.806 994.703 674.356 994.703 674.356C995.086 673.36 997.845 656.645 998.228 655.725C1002.94 643.534 1011.56 577.443 1018.76 574.184C1020.6 576.178 1025.85 577.558 1030.37 577.175C1035.54 576.715 1037.27 574.491 1036.85 572.076C1042.59 574.798 1047 577.29 1047 577.29C1052.21 585.148 1064.32 671.749 1064.32 671.749Z" fill="white"/>
<path d="M1038.92 563.604C1038.92 563.604 1018.04 567.054 1016.08 554.02C1014.13 540.985 1010.1 532.628 1023.36 529.868C1036.62 527.108 1039.95 531.708 1041.67 535.887C1043.4 540.104 1044.32 562.377 1038.92 563.604Z" fill="#FFB27D"/>
<path d="M1032.86 528.143C1032.86 528.143 1029.41 544.282 1020.95 547.886C1012.48 551.451 1008.34 549.649 1008.34 549.649C1008.34 549.649 1014.28 543.286 1014.28 533.702C1014.28 533.74 1027.46 521.511 1032.86 528.143Z" fill="#163560"/>
<path d="M1031.64 529.6C1031.64 529.6 1036.43 532.36 1037.96 535.542C1039.49 538.724 1040.98 545.471 1042.94 544.934C1042.94 544.934 1045.7 533.893 1039.99 528.718C1033.9 523.274 1031.64 529.6 1031.64 529.6Z" fill="#163560"/>
<path d="M1096.65 499.008C1095.81 498.701 1094.54 498.011 1092.94 497.857C1091.48 497.742 1089.64 498.202 1089.64 498.202C1089.64 498.202 1083.74 534.852 1083.32 536.768C1082.9 538.724 1058.07 566.67 1051.37 566.594C1045.31 566.479 1038.15 571.156 1036.85 572.076C1036.85 572.076 1050.91 601.863 1051.63 607.46C1052.4 613.555 1059.68 707.287 1059.68 707.287C1059.68 707.287 1059.26 711.657 1067.38 709.319C1075.54 706.98 1077.57 705.025 1077.57 705.025C1077.57 705.025 1070.1 631.228 1068.53 608.303C1068.34 605.236 1067.8 602.361 1067.11 599.754C1066.42 597.224 1066.96 594.502 1068.53 592.394C1078.84 578.248 1095.08 555.361 1096 550.493C1097.23 543.209 1096.65 499.008 1096.65 499.008Z" fill="#2B478B"/>
<path d="M1011.06 888.156H975.93C975.93 888.156 975.087 882.789 976.926 878.725C978.689 874.815 981.409 872.4 981.677 869.41C983.899 871.71 986.658 873.205 991.753 872.515C992.366 873.512 995.776 878.917 997.845 880.412C1000.11 882.099 1010.33 881.485 1011.06 888.156Z" fill="#233862"/>
<path d="M1035.2 610.297C1034.01 603.013 1018.88 573.724 1018.88 573.724C1018.88 573.724 1009.3 570.849 1003.02 573.149C996.734 575.449 964.168 557.048 963.134 555.323C962.1 553.636 944.668 521.127 944.668 521.127C944.668 521.127 943.212 520.284 940.913 521.511C938.614 522.699 938.614 525.038 938.614 525.038C938.614 525.038 952.062 565.98 955.663 572.306C957.809 576.14 975.969 589.404 990.067 599.371C992.749 601.288 994.167 604.508 993.707 607.767C991.83 621.759 991.332 629.657 989.148 653.655C987.347 673.59 986.658 712.156 986.658 712.156C986.658 712.156 1002.4 717.599 1013.28 718.328C1024.17 719.056 1026.54 707.594 1026.54 707.594C1026.54 707.594 1036.43 617.811 1035.2 610.297Z" fill="#2B478B"/>
<path d="M1032.1 557.163C1032.1 557.163 1034.62 558.658 1037.61 558.198C1039.68 557.892 1040.14 555.438 1040.14 555.438C1040.14 555.438 1038.72 554.978 1036.43 555.438C1034.16 555.936 1032.1 557.163 1032.1 557.163Z" fill="white"/>
<path d="M1438.7 554.441C1438.7 554.441 1445.18 565.137 1432.99 571.884C1432.99 571.884 1442.38 575.258 1445.64 573.993C1445.64 573.993 1444.83 574.836 1444.22 575.143C1444.22 575.143 1453.03 577.941 1457.4 576.408C1461.8 574.874 1471.23 532.206 1445.25 529.945C1445.25 529.945 1424.76 522.584 1420.43 545.509C1416.1 568.434 1408.21 566.172 1408.21 566.172C1408.21 566.172 1410.12 567.782 1411.19 568.089C1411.19 568.089 1412.88 567.974 1413.42 567.284C1413.42 567.284 1412.76 568.434 1412.27 568.741C1412.27 568.741 1420.58 571.884 1425.68 570.121C1430.77 568.357 1438.63 559.387 1438.7 554.441Z" fill="#163560"/>
<path d="M1412.57 891.261H1445.75C1445.75 891.261 1446.56 886.201 1444.83 882.367C1443.18 878.687 1440.58 876.425 1440.35 873.588C1438.24 875.773 1435.64 877.153 1430.85 876.502C1430.27 877.46 1427.06 882.559 1425.1 883.977C1422.92 885.549 1413.26 885.012 1412.57 891.261Z" fill="#233862"/>
<path d="M1440 878.61C1440 878.61 1437.17 879.53 1434.22 879.799C1429.01 880.259 1428.24 878.725 1428.24 878.725C1428.24 878.725 1423.07 832.492 1406.25 744.089C1403.84 731.324 1402.88 724.27 1402 712.922C1401.73 709.51 1401.46 705.753 1401.19 701.306C1400.43 689.384 1402.23 669.334 1411.16 664.082C1415.22 661.667 1420.73 662.357 1428.2 668.223C1428.78 668.683 1429.39 669.181 1430.01 669.718C1451.77 688.579 1442.84 742.671 1443.72 768.126C1443.87 772.343 1444.3 775.793 1445.14 778.132C1446.25 781.16 1448.66 785.377 1449.24 789.364C1453.8 822.295 1440 878.61 1440 878.61Z" fill="#2B478B"/>
<path d="M1443.72 768.088L1402 712.884C1401.73 709.472 1401.46 705.715 1401.19 701.268C1400.43 689.346 1402.23 669.296 1411.16 664.044L1428.2 668.184C1428.78 668.644 1429.39 669.143 1430.01 669.679C1451.77 688.502 1442.84 742.633 1443.72 768.088Z" fill="#233862"/>
<path d="M1561.68 821.451L1547.89 791.281C1547.89 791.281 1542.95 792.661 1540.19 795.843C1537.55 798.871 1535.63 798.335 1529.58 794.156C1531.84 797.683 1532.15 799.753 1533.56 804.392C1534.67 804.545 1541 810.641 1547.47 812.327C1550.08 812.979 1555.71 823.445 1561.68 821.451Z" fill="#233862"/>
<path d="M1416.98 677.308C1416.98 677.308 1446.71 780.662 1457.59 787.332C1468.47 794.003 1525.71 803.127 1537.36 808.11C1537.36 808.11 1538.77 806.079 1537.93 801.747C1537.74 800.788 1536.09 797.3 1536.09 797.3C1536.09 797.3 1500.54 770.541 1477.13 767.858C1471.31 767.206 1488.97 678.458 1449.7 674.893C1413.91 671.673 1416.98 677.308 1416.98 677.308Z" fill="#2B478B"/>
<path d="M1374.61 507.71C1374.61 507.71 1375.41 503.723 1376.29 500.694C1376.67 499.353 1373.92 490.497 1372 489.424C1370.09 488.35 1365.07 494.292 1366.48 498.854C1367.21 501.193 1368.4 508.86 1368.4 508.86L1374.61 507.71Z" fill="#FFB27D"/>
<path d="M1374.61 507.71C1374.61 507.71 1375.64 505.41 1376.6 505.026C1377.56 504.643 1378.55 500.886 1379.24 499.353C1379.24 499.353 1378.59 498.356 1377.4 499.621C1376.67 500.388 1375.1 502.649 1375.1 502.649L1374.61 507.71Z" fill="#FFB27D"/>
<path d="M1511.5 521.127C1511.69 521.549 1511.99 522.316 1512.22 523.006C1512.22 522.814 1512.22 522.623 1512.22 522.431C1512.22 521.012 1517.47 513.384 1519.62 512.885C1521.76 512.425 1524.83 519.556 1522.11 523.543C1520.73 525.574 1517.36 532.552 1517.36 532.552L1511.76 529.676C1511.76 529.676 1511.46 527.146 1510.65 526.533C1509.85 525.881 1510 521.971 1509.77 520.361C1509.81 520.322 1510.73 519.556 1511.5 521.127Z" fill="#FFB27D"/>
<path d="M1422.92 581.813C1422.84 581.852 1428.89 586.222 1434.03 585.608C1438.86 585.033 1442.76 579.475 1442.72 579.436C1440.81 578.746 1440.66 575.986 1442.42 564.37L1441.5 564.409L1426.14 565.137C1426.14 565.137 1425.79 569.891 1425.14 574.299C1424.56 578.056 1423.84 581.545 1422.92 581.813Z" fill="#FFB27D"/>
<path d="M1426.14 565.137C1426.14 565.137 1425.79 569.891 1425.14 574.299C1433.53 575.296 1439.05 568.357 1441.5 564.409L1426.14 565.137Z" fill="#ED975D"/>
<path d="M1443.26 563.029C1443.26 563.029 1448.66 556.78 1450.58 551.029C1451.96 546.927 1452.15 530.941 1436.1 530.865C1436.1 530.865 1431.46 530.635 1426.75 532.897C1422.99 534.698 1417.32 538.954 1420.81 553.406L1421.54 558.237L1443.26 563.029Z" fill="#163560"/>
<path d="M1403.68 673.321C1403.68 673.321 1418.74 682.828 1443.84 676.733C1444.14 676.656 1458.09 674.433 1458.09 674.433C1457.74 673.475 1443.07 649.208 1442.72 648.326C1438.28 636.825 1448.59 581.967 1441.77 578.9C1440.04 580.778 1435.06 582.082 1430.85 581.698C1425.94 581.277 1424.34 579.168 1424.72 576.868C1419.32 579.436 1415.14 581.813 1415.14 581.813C1410.2 589.25 1403.68 673.321 1403.68 673.321Z" fill="#FFB27D"/>
<path d="M1422.73 568.932C1422.73 568.932 1442.42 572.191 1444.26 559.885C1446.1 547.579 1449.89 539.72 1437.4 537.113C1424.91 534.507 1421.77 538.839 1420.12 542.787C1418.51 546.736 1417.63 567.744 1422.73 568.932Z" fill="#FFB27D"/>
<path d="M1428.43 535.465C1428.43 535.465 1431.69 550.723 1439.66 554.058C1447.63 557.432 1451.57 555.745 1451.57 555.745C1451.57 555.745 1445.98 549.726 1445.94 540.717C1445.98 540.755 1433.53 529.216 1428.43 535.465Z" fill="#163560"/>
<path d="M1429.62 536.845C1429.62 536.845 1425.1 539.452 1423.65 542.442C1422.19 545.432 1420.81 551.796 1418.93 551.298C1418.93 551.298 1416.33 540.87 1421.73 536.002C1427.48 530.865 1429.62 536.845 1429.62 536.845Z" fill="#163560"/>
<path d="M1516.09 532.513C1516.09 532.513 1503.41 571.156 1500 577.098C1497.97 580.701 1475.1 594.962 1461.8 604.355C1461.65 604.47 1461.5 604.661 1461.31 604.968C1457.97 610.105 1447.71 641.847 1450.16 647.521C1460.5 671.481 1467.63 680.72 1470.19 687.429C1471.5 690.764 1469.77 694.521 1466.36 695.748C1462.11 697.281 1455.83 699.16 1448.43 700.425C1447.02 700.655 1445.56 700.885 1444.07 701.076C1423.65 703.683 1409.85 698.891 1402.8 695.326C1399.47 693.639 1397.48 690.151 1397.71 686.47C1398.13 678.88 1401.92 671.404 1403.61 653.195C1404.91 639.355 1393 618.347 1393.49 610.987C1393.69 608.073 1395.98 604.585 1397.21 602.323C1399.39 598.336 1400.62 594.732 1399.16 592.701C1389.43 579.36 1368.48 560.958 1367.63 556.358C1366.37 549.611 1366.94 507.901 1366.94 507.901C1367.75 507.633 1368.94 506.943 1370.47 506.828C1371.85 506.713 1373.57 507.135 1373.57 507.135C1373.57 507.135 1379.13 541.714 1379.55 543.516C1379.97 545.356 1403.38 571.731 1409.7 571.654C1415.41 571.539 1423.45 575.948 1424.68 576.83C1424.68 576.83 1419.55 585.915 1418.28 598.144C1417.4 606.732 1423.11 602.898 1426.71 597.033C1431.58 589.097 1441.38 577.75 1441.38 577.75C1441.38 577.75 1449.35 575.679 1455.29 577.826C1461.23 579.973 1491.96 562.607 1492.91 561.035C1493.91 559.425 1510.35 528.756 1510.35 528.756C1510.35 528.756 1511.72 527.951 1513.91 529.101C1516.09 530.328 1516.09 532.513 1516.09 532.513Z" fill="#F99746"/>
<path d="M1428.43 562.262C1428.43 562.262 1427.59 563.949 1426.44 563.987C1425.29 564.025 1422.42 563.757 1422.23 563.45C1422.04 563.144 1421.54 561.38 1421.54 561.38C1421.54 561.38 1426.33 561.188 1428.43 562.262Z" fill="white"/>
<path d="M1466.4 695.824C1462.15 697.358 1455.87 699.236 1448.47 700.501C1441.42 690.802 1429.51 678.573 1432.57 656.07C1435.75 632.838 1458.59 608.38 1461.31 605.006C1457.97 610.143 1447.71 641.886 1450.16 647.559C1460.5 671.519 1467.63 680.758 1470.19 687.467C1471.5 690.841 1469.77 694.598 1466.4 695.824Z" fill="#ED7D2B"/>
<path d="M1397.29 602.361C1399.47 598.374 1400.7 594.771 1399.24 592.739C1389.51 579.398 1368.55 560.997 1367.71 556.396C1369.78 561.38 1395.18 576.293 1402.34 582.695C1409.36 589.097 1397.55 602.055 1397.29 602.361Z" fill="#ED7D2B"/>
<path d="M970.95 418.425C970.95 418.425 975.7 424.942 975.202 432.38C974.819 437.9 969.915 443.497 969.57 443.727L977.348 447.867C977.348 447.867 983.095 437.632 981.179 429.083C980.566 426.476 977.846 422.259 975.815 420.419C973.555 418.349 970.95 418.425 970.95 418.425Z" fill="#6BB7BF"/>
<path d="M955.089 419.115L950.185 408.228C950.185 408.228 973.134 408.995 980.758 427.703C980.719 427.741 964.667 416.279 955.089 419.115Z" fill="#86D1CD"/>
<path d="M868.388 695.901C868.388 695.901 862.91 691.761 861.492 685.589C860.458 680.988 863.063 675.238 863.293 675.008L855.975 673.551C855.975 673.551 853.791 683.289 857.469 689.767C858.58 691.761 861.875 694.483 863.982 695.518C866.281 696.591 868.388 695.901 868.388 695.901Z" fill="#6BB7BF"/>
<path d="M881.146 691.416L887.813 699.045C887.813 699.045 868.963 704.067 858.197 690.726C858.159 690.726 874.058 696.093 881.146 691.416Z" fill="#86D1CD"/>
<path d="M1707.35 731.439C1707.35 731.439 1706.89 724.27 1720.33 720.781C1726.35 719.209 1739.8 722.008 1731.29 735.195C1722.44 748.958 1714.55 743.974 1714.55 743.974C1714.55 743.974 1733.02 729.522 1725.62 722.89C1717.46 715.606 1714.32 730.058 1714.32 730.058C1714.32 730.058 1711.02 729.943 1707.35 731.439Z" fill="#F1A34F"/>
<path d="M1712.1 744.856C1712.1 744.856 1707.08 742.134 1709.07 736.077L1716.31 737.342C1716.31 737.342 1713.51 743.898 1720.33 744.703C1720.33 744.664 1713.78 746.236 1712.1 744.856Z" fill="#DB7714"/>
<path d="M1240.13 360.078C1240.13 360.078 1247.64 349.229 1259.17 356.934L1266.18 350.226C1266.18 350.226 1259.63 345.242 1244.5 354.174C1234.61 360.001 1240.13 360.078 1240.13 360.078Z" fill="#5685D8"/>
<path d="M1232.7 370.697C1232.7 370.697 1231.2 358.276 1252.01 350.494C1252.01 350.494 1244.5 354.136 1242.16 366.557L1232.7 370.697Z" fill="#739AF0"/>
<path d="M1316.29 304.759C1316.29 304.759 1322.46 300.887 1323.08 296.172C1323.08 296.172 1329.05 296.479 1330.36 298.434C1330.36 298.434 1327.6 306.216 1324.38 307.673C1324.42 307.673 1317.14 308.133 1316.29 304.759Z" fill="#F99746"/>
<path d="M1118.41 748.153C1118.41 748.153 1111.86 744.013 1111.17 738.991C1111.17 738.991 1104.77 739.336 1103.39 741.406C1103.39 741.406 1106.34 749.686 1109.79 751.258C1109.79 751.258 1117.57 751.795 1118.41 748.153Z" fill="#F99746"/>
<path d="M1387.71 427.166C1387.71 427.166 1394.3 422.987 1394.99 417.965C1394.99 417.965 1401.39 418.31 1402.8 420.38C1402.8 420.38 1399.85 428.699 1396.41 430.271C1396.37 430.309 1388.55 430.808 1387.71 427.166Z" fill="#86D1CD"/>
<path d="M1515.94 618.079C1515.94 618.079 1512.15 613.44 1510.08 612.789C1508.05 612.137 1504.06 609.07 1503.56 610.335C1503.07 611.6 1506.25 613.555 1506.05 615.012C1505.9 616.469 1495.94 618.769 1496.02 620.303C1496.09 621.836 1498.35 625.516 1502.15 625.095C1505.94 624.673 1515.56 622.373 1517.55 623.369C1519.5 624.405 1515.94 618.079 1515.94 618.079Z" fill="#FFB27D"/>
<path d="M1618.5 595.576C1612.87 603.128 1606.32 609.07 1599.54 613.785C1578.04 628.736 1554.75 630.96 1554.75 630.96C1549.16 629.158 1532.03 627.318 1521.88 625.67C1517.47 624.941 1514.37 624.289 1514.18 623.714L1514.45 614.897C1514.45 614.897 1551.65 612.942 1557.81 610.067C1567.55 601.71 1576.13 590.822 1581.68 582.312C1586.4 575.143 1591.68 569.852 1600.42 566.747C1613.02 562.224 1635.97 572.153 1618.5 595.576Z" fill="#AEC3FF"/>
<path d="M1601.45 608.227L1599.57 613.785C1578.08 628.736 1554.79 630.96 1554.79 630.96C1550.31 630.96 1532.07 627.318 1521.92 625.67C1522.3 625.708 1549.5 627.816 1555.52 627.203C1561.57 626.59 1589.77 602.131 1589.77 602.131L1601.45 608.227Z" fill="#9DB0F4"/>
<path d="M1577.2 888.156H1618.31C1621.26 886.162 1617.5 866.611 1617.5 866.611C1617.5 866.611 1606.28 862.356 1604.36 871.02C1602.41 879.684 1590.07 882.444 1583.52 883.479C1579.04 884.207 1577.62 886.661 1577.2 888.156Z" fill="#233862"/>
<path d="M1638.15 888.156H1679.26C1682.21 886.162 1678.46 866.611 1678.46 866.611C1678.46 866.611 1667.23 862.356 1665.32 871.02C1663.36 879.684 1651.03 882.444 1644.48 883.479C1639.99 884.207 1638.58 886.661 1638.15 888.156Z" fill="#233862"/>
<path d="M1588.23 688.809C1588.23 688.809 1590.07 711.887 1592.26 739.604C1595.21 777.25 1603.18 870.636 1603.18 870.636C1603.18 870.636 1608.39 875.083 1619.96 872.668C1619.96 872.668 1629.8 840.466 1632.75 803.663C1632.79 803.05 1632.83 802.437 1632.91 801.862C1635.63 764.446 1639.92 685.589 1639.92 685.589L1588.23 688.809Z" fill="#2B478B"/>
<path d="M1587.62 680.835C1587.62 680.835 1590.11 711.887 1592.26 739.604L1632.71 803.702C1632.75 803.088 1632.79 802.475 1632.87 801.9C1635.59 764.484 1639.88 685.627 1639.88 685.627L1587.62 680.835Z" fill="#233862"/>
<path d="M1599.42 680.835C1599.42 680.835 1628.77 753.942 1638.15 781.659C1644.82 801.402 1663.71 870.675 1663.71 870.675C1663.71 870.675 1671.91 873.167 1678.8 868.336C1678.8 868.336 1685.82 797.568 1671.64 777.633C1664.13 767.053 1669.76 667.609 1639.3 666.766C1608.81 665.922 1599.42 680.835 1599.42 680.835Z" fill="#2B478B"/>
<path d="M1612.52 573.073C1617.01 575.449 1621.37 575.564 1625.17 574.759C1628.65 574.031 1631.6 572.498 1633.75 571.156C1635.93 569.776 1637.2 568.549 1637.2 568.549C1637.2 568.549 1637.04 568.319 1636.78 567.897C1635.43 565.635 1631.45 557.47 1633.21 544.397C1633.25 544.244 1631.95 544.474 1629.99 544.934C1624.17 546.314 1612.45 549.649 1611.95 549.803H1611.91C1611.91 549.803 1611.76 552.563 1611.3 557.508C1611.26 557.93 1611.22 558.39 1611.18 558.85C1611.11 559.425 1611.07 560.038 1610.99 560.69C1610.46 565.789 1612.52 573.073 1612.52 573.073Z" fill="#FFB27D"/>
<path d="M1611.3 557.47C1619.99 559.463 1632.98 546.621 1632.98 546.621C1632.02 545.931 1631.03 545.356 1629.99 544.934C1624.17 546.314 1612.45 549.649 1611.95 549.803H1611.91C1611.91 549.803 1611.8 552.525 1611.3 557.47Z" fill="#ED975D"/>
<path d="M1608.35 549.074C1608.35 549.074 1611.91 550.339 1616.47 550.953C1623.14 551.834 1631.91 551.336 1634.67 543.247C1639.3 529.676 1645.24 521.511 1631.57 515.952C1624.25 513 1619.57 512.808 1616.39 513.959C1613.64 514.955 1612.03 516.872 1610.76 518.827C1608.16 523.044 1602.83 546.697 1608.35 549.074Z" fill="#FFB27D"/>
<path d="M1600.07 519.939C1607.96 525.613 1618.92 520.054 1622.29 521.549C1625.7 523.044 1626.32 528.756 1626.35 530.558C1626.43 532.36 1626.66 533.893 1631.26 532.82C1632.02 532.628 1632.56 532.705 1632.94 532.935C1634.86 534.085 1632.41 539.567 1631.68 540.755C1631.68 540.755 1630.61 544.704 1632.98 546.621C1633.25 546.851 1637.89 548.883 1649.04 531.823C1650.8 529.14 1652.45 523.121 1649.76 517.294C1647.04 511.467 1635.78 505.87 1626.2 502.879C1622.6 501.768 1619.96 501.806 1617.89 502.573C1614.4 503.838 1612.56 507.135 1610.72 510.432C1607.62 515.952 1600.07 519.939 1600.07 519.939Z" fill="#A9453D"/>
<path d="M1650.91 685.972C1650.91 685.972 1647.08 686.815 1642.25 687.62C1637.54 688.425 1631.83 689.192 1627.77 689.154C1607.16 689.001 1589.92 682.905 1589.92 682.905C1586.05 682.905 1584.29 676.886 1583.64 668.529C1583.22 662.855 1583.29 656.108 1583.6 649.361C1583.71 647.176 1583.83 644.991 1583.94 642.882C1584.21 638.627 1584.52 634.563 1584.82 630.998C1585.09 627.625 1585.36 624.673 1585.48 622.373C1585.48 622.373 1584.94 606.31 1585.13 592.202C1585.28 582.082 1590.95 572.843 1592.41 571.347C1596.55 566.977 1608.5 564.217 1610.88 563.834C1611.07 563.795 1611.14 563.795 1611.14 563.795C1620.99 569.316 1634.21 561.84 1634.21 561.84C1634.52 561.879 1634.78 561.955 1635.09 562.032C1636.05 561.84 1646.01 563.297 1648.31 564.562C1654.02 567.667 1657.35 602.285 1657.35 602.285C1658.31 625.785 1657.12 663.392 1658.96 677.768C1659.65 682.445 1655.05 685.014 1650.91 685.972Z" fill="#AEC3FF"/>
<path d="M1635.09 562.032C1635.09 562.032 1620.45 577.136 1609.96 574.069C1609.96 574.069 1608.58 572.038 1613.29 571.386C1618 570.696 1623.1 570.964 1635.09 562.032Z" fill="#9DB0F4"/>
<path d="M1608.23 540.334C1608.23 540.334 1607.96 542.097 1612.03 543.477C1612.03 543.477 1615.47 544.666 1616.09 542.864C1616.09 542.864 1613.37 540.257 1608.23 540.334Z" fill="white"/>
<path d="M1643.14 619.191C1643.14 619.191 1621.87 654.805 1609.8 661.054C1601.64 665.309 1590.23 667.532 1583.68 668.529C1583.25 662.855 1583.33 656.108 1583.64 649.361C1592.3 648.326 1605.44 646.639 1605.44 646.639L1643.14 619.191Z" fill="#9DB0F4"/>
<path d="M1615.09 601.326L1603.75 642.269C1603.75 642.269 1590.42 643.112 1583.98 642.882C1584.25 638.627 1584.25 638.512 1584.56 634.908C1584.56 634.908 1599.88 626.896 1615.09 601.326Z" fill="#9DB0F4"/>
<path d="M1546.82 645.298C1546.82 645.298 1543.03 640.659 1540.96 640.007C1538.93 639.355 1534.94 636.289 1534.44 637.554C1533.95 638.819 1537.13 640.774 1536.93 642.231C1536.78 643.687 1526.82 645.988 1526.9 647.521C1526.97 649.055 1529.23 652.735 1533.03 652.313C1536.82 651.891 1546.44 649.591 1548.43 650.588C1550.38 651.585 1546.82 645.298 1546.82 645.298Z" fill="#FFB27D"/>
<path d="M1658.61 588.484C1658.61 588.484 1659.26 610.182 1609.88 653.693L1599.96 635.905C1598.12 634.832 1631.87 562.224 1641.56 562.799C1660.34 563.91 1658.61 588.484 1658.61 588.484Z" fill="#AEC3FF"/>
<path d="M1605.86 633.797C1605.86 633.797 1549.65 640.237 1547.59 641.349C1545.52 642.461 1541.03 646.831 1542.53 652.275C1542.53 652.275 1571.61 655.917 1587.62 655.878C1601.41 655.802 1610.34 653.616 1610.34 653.616L1605.86 633.797Z" fill="#AEC3FF"/>
<path d="M1807.92 891.261H752.303C751.575 891.261 751 890.686 751 889.958V889.268C751 888.539 751.575 887.964 752.303 887.964H1807.92C1808.64 887.964 1809.22 888.539 1809.22 889.268V889.958C1809.22 890.686 1808.64 891.261 1807.92 891.261Z" fill="#2E3552"/>
</g>
</svg>
