<?xml version="1.0" encoding="utf-8"?>
<!-- Generator: Adobe Illustrator 25.0.0, SVG Export Plug-In . SVG Version: 6.00 Build 0)  -->
<svg version="1.1" xmlns="http://www.w3.org/2000/svg" xmlns:xlink="http://www.w3.org/1999/xlink" x="0px" y="0px"
	 viewBox="0 0 500 500" style="enable-background:new 0 0 500 500;" xml:space="preserve">
<style type="text/css">
	.st0{fill:#FFFFFF;}
	.st1{opacity:0.2;fill:url(#SVGID_1_);}
	.st2{opacity:0.2;fill:url(#SVGID_2_);}
	.st3{opacity:0.2;fill:url(#SVGID_3_);}
	.st4{fill:#0D2A38;}
	.st5{fill:#FF5252;}
	.st6{fill:#B33939;}
	.st7{fill:#FF5A71;}
	.st8{fill:#FF808C;}
	.st9{fill:#E69C83;}
	.st10{fill:#814458;}
	.st11{fill:#FFAD91;}
	.st12{fill:#AC5A75;}
	.st13{fill:#E3E6EC;}
	.st14{fill:#4E4864;}
	.st15{fill:#3B364B;}
	.st16{fill:#5F5470;}
	.st17{fill:#4D352C;}
	.st18{fill:#FCFEFE;}
	.st19{fill:#C1C1CC;}
	.st20{fill:#FFCD5E;}
	.st21{fill:#D9DAE4;}
	.st22{fill:#ADA4B1;}
	.st23{fill:#8BD368;}
	.st24{fill:#FE768A;}
	.st25{fill:#34ACE0;}
	.st26{fill:#F7F1E3;}
	.st27{fill:#CFDDF0;}
	.st28{fill:#0A202A;}
	.st29{fill:#11384A;}
	.st30{fill:#FFB142;}
	.st31{fill:#D7E4F6;}
	.st32{fill:#AAA69D;}
	.st33{opacity:0.2;fill:url(#SVGID_4_);}
	.st34{fill:#968BFF;}
	.st35{fill:url(#SVGID_5_);}
	.st36{fill:url(#SVGID_6_);}
	.st37{fill:none;stroke:#CC8E35;stroke-width:0.3665;stroke-linecap:round;stroke-linejoin:round;stroke-miterlimit:10;}
	.st38{fill:#8F81FF;}
	.st39{fill:#9D96FF;}
	.st40{fill:#FDFCF9;}
	.st41{fill:#84817A;}
	.st42{fill:none;stroke:#C1C1CC;stroke-width:1.5;stroke-linecap:round;stroke-linejoin:round;stroke-miterlimit:10;}
</style>
<g id="Background">
	<rect class="st0" width="500" height="500"/>
</g>
<g id="Objects">
	<g>
		<linearGradient id="SVGID_1_" gradientUnits="userSpaceOnUse" x1="160.0921" y1="330.3555" x2="341.4229" y2="431.3982">
			<stop  offset="0" style="stop-color:#000000"/>
			<stop  offset="1" style="stop-color:#000000;stop-opacity:0"/>
		</linearGradient>
		<polygon class="st1" points="340.7,455.1 177.7,361 211.2,335.9 221.3,340.4 379.6,432.6 		"/>
		<linearGradient id="SVGID_2_" gradientUnits="userSpaceOnUse" x1="279.9664" y1="265.6979" x2="461.2977" y2="366.7409">
			<stop  offset="0" style="stop-color:#000000"/>
			<stop  offset="1" style="stop-color:#000000;stop-opacity:0"/>
		</linearGradient>
		<polygon class="st2" points="460.6,390.4 297.6,296.3 331.1,271.2 341.1,275.7 499.5,367.9 		"/>
		<linearGradient id="SVGID_3_" gradientUnits="userSpaceOnUse" x1="186.075" y1="231.0871" x2="317.1734" y2="366.2318">
			<stop  offset="0" style="stop-color:#000000"/>
			<stop  offset="1" style="stop-color:#000000;stop-opacity:0.5"/>
		</linearGradient>
		<polygon class="st3" points="282.7,185.8 405.2,258.8 356.1,287.2 376.7,299.1 293.3,346.8 250.4,371.6 202.1,371.6 167,391.9 
			127.9,369.3 101.5,297.9 220,218.3 		"/>
		<g>
			<path class="st4" d="M170.6,182v-49.7c0-2.3-1.2-4.4-3.2-5.5l0,0l-6.3,3.6v57.5l0,0c1.7,1,3.7,1,5.4,0l1-0.6
				C169.5,186.2,170.6,184.1,170.6,182z"/>
			<g>
				<path class="st5" d="M194.9,112.2l-6.9-4c-0.2-0.2-0.5-0.3-0.7-0.4l0,0l0,0c-1.2-0.5-2.6-0.5-3.9,0.2l-24.7,14.3
					c-3.9,2.3-6.3,6.4-6.3,10.9v7.8c0,1.9,1.1,3.3,2.6,3.9l0,0l6.4,3.7l10.8-11.7l11.3-6.5c3.9-2.3,6.3-6.4,6.3-10.9v-1.7
					L194.9,112.2z"/>
				<path class="st6" d="M165.9,148.9l24.7-14.3c3.9-2.3,6.3-6.4,6.3-10.9v-7.8c0-3.3-3.5-5.3-6.4-3.7l-24.7,14.3
					c-3.9,2.3-6.3,6.4-6.3,10.9v7.8C159.6,148.5,163.1,150.5,165.9,148.9z"/>
			</g>
			<path class="st7" d="M198.9,98.1c0,0,4.4,3.7,6.8,13.9c2.4,10.2,6,24.9,6,24.9l-8.8,2.9L198.9,98.1z"/>
			<path class="st8" d="M166.2,185.5c0,0-0.5-29.8-1.1-39.4c-0.7-9.6-2.7-28.8,0-34.6c2.7-5.7,10.1-8.9,15.6-11.7
				c5.5-2.7,16-7.1,18.3-1.8c2.3,5.3,8.5,63.7,8.5,63.7L166.2,185.5z"/>
			<path class="st0" d="M188.9,111.5c0,0,0.2,4.4-3.4,4.7c-3.7,0.3-7.2-2.3-9.3-5.9c-2.1-3.6-3-6.4-3-6.4l3-3.6l15.7,2.7
				c0,0,4.4,3.9,3.2,8.6C194,115,188.9,111.5,188.9,111.5z"/>
			<path class="st9" d="M178.3,86.3l-2.6,16.1l0,0c2.6,3.9,6.4,6.8,10.8,8.3l2.4,0.8l0,0c1.9-3.2,2.9-6.8,2.9-10.4v-4.5L178.3,86.3z
				"/>
			<path class="st7" d="M190.5,160l-12.9-7.5c0,0-2.6-33.4-5.8-37.7c-3.3-4.3-7.1-4.1-8.1,2.1c-1,6.2,1.9,41.4,3.4,44
				c1.5,2.6,19.4,10.8,19.4,10.8L190.5,160z"/>
			<path class="st10" d="M183.7,63.7c0,0-3-4-8-2.4c-4.5,1.5-4.4,6.2-5.1,12.7c-0.7,6.5-0.2,8.3-2.1,9.7c-1.9,1.3-4.9-0.4-4.9-0.4
				s1.9,6.8,7,7.4c5.1,0.6,7.6-0.8,9.7-7C182.5,77.4,183.7,63.7,183.7,63.7z"/>
			<path class="st11" d="M199.8,76.9c0,0,0,15.8,0,17.5c0,1.7-2.2,7.4-5.7,9.4c-3.4,2.1-9.2-2.1-11.8-4.9c-2.6-2.8-5.3-8.9-5.3-8.9
				s-3,0.2-4-3c-0.9-3.2,0.1-4.5,1.5-4.8c1.4-0.3,12.5-5.4,12.5-5.4S200.2,76.7,199.8,76.9z"/>
			<path class="st12" d="M202.9,80.5c0,0,1.5-8.7-3.1-11.8c-5-3.4-4.8-5.8-12.8-6.2c-8.1-0.3-12.4,5.8-13.3,10.5
				c-0.9,4.6-0.4,10.1-0.4,10.1s1.5-0.4,2.5,0.6c0.9,1,1.4,2,1.4,2l2.7,1.6l0.9-6.5l3-2.3c0,0,1.4,4.9,3.3,5.2
				C188.8,84,202.9,80.5,202.9,80.5z"/>
		</g>
		<polygon class="st13" points="293.3,346.8 293.3,204.9 77.6,80.3 77.6,222.2 		"/>
		<g>
			<path class="st14" d="M64.7,238v-49.7c0-2.3-1.2-4.4-3.2-5.5l0,0l-6.3,3.6v57.5l0,0c1.7,1,3.7,1,5.4,0l1-0.6
				C63.5,242.2,64.7,240.2,64.7,238z"/>
			<g>
				<path class="st5" d="M89,168.3l-6.9-4c-0.2-0.2-0.5-0.3-0.7-0.4l0,0l0,0c-1.2-0.5-2.6-0.5-3.9,0.2l-24.7,14.3
					c-3.9,2.3-6.3,6.4-6.3,10.9v7.8c0,1.9,1.1,3.3,2.6,3.9h0l6.4,3.7l10.8-11.7l11.3-6.5c3.9-2.3,6.3-6.4,6.3-10.9v-1.7L89,168.3z"
					/>
				<path class="st6" d="M60,205l24.7-14.3c3.9-2.3,6.3-6.4,6.3-10.9v-7.8c0-3.3-3.5-5.3-6.4-3.7l-24.7,14.3
					c-3.9,2.3-6.3,6.4-6.3,10.9v7.8C53.6,204.5,57.2,206.6,60,205z"/>
			</g>
			<path class="st15" d="M93,154.1c0,0,4.4,3.7,6.8,13.9c2.4,10.2,6,24.9,6,24.9l-8.8,2.9L93,154.1z"/>
			<path class="st16" d="M60.3,241.6c0,0-0.5-29.8-1.1-39.4c-0.7-9.6-2.7-28.8,0-34.6c2.7-5.7,10.1-8.9,15.6-11.7
				c5.5-2.7,16-7.1,18.3-1.8c2.3,5.3,8.5,63.7,8.5,63.7L60.3,241.6z"/>
			<path class="st0" d="M69.8,158.4c0,0,5.4,5.8,7.1,9.6c1.7,3.7,10.4,24.7,10.4,24.7s1.5-23.5,1.1-27.1c-0.3-3.7-1.9-10.4-1.9-10.4
				L69.8,158.4z"/>
			<polygon class="st9" points="69.8,140.9 69.8,158.4 75.7,163.3 82.9,164.4 85.8,159.1 85.8,152.7 			"/>
			<path class="st13" d="M86.3,165.8l1.3-5.8c-0.5-2.6-1.1-4.9-1.1-4.9l-3.5,9.3L86.3,165.8z"/>
			<path class="st13" d="M81,168l1.9-3.6l-13.2-6c0,0,3.8,4.2,6.1,7.7L81,168z"/>
			<path class="st11" d="M93.8,129.6c0,0,0,15.8,0,17.5c0,1.7-2.2,7.4-5.7,9.4c-3.4,2.1-10.5-0.8-13.2-3.6
				c-2.6-2.8-3.9-10.2-3.9-10.2s-3,0.2-4-3c-0.9-3.2,0.1-4.5,1.5-4.8c1.4-0.3,12.5-5.4,12.5-5.4S94.2,129.4,93.8,129.6z"/>
			<path class="st17" d="M67.9,135.4c0,0,2.3-1,2.7,0.8c0.3,1.5,0.5,5.7,0.5,5.7l2.1,1.5v-5.9c0,0,1.9-0.3,3.3-1.7
				c1.5-1.4,1.9-4.5,1.9-4.5s3.9,0.4,8.7,0c4.7-0.4,7.5-0.9,8.4-3.4c0.9-2.6-3.5-12.9-12.8-12.6c-9.3,0.3-14.9,6.2-16,10.1
				c-1.1,3.9,0.3,10.7,0.3,10.7L67.9,135.4z"/>
			<polygon class="st6" points="81,168 82.9,170.5 81.5,178.9 87.5,193.9 88.1,177.7 85.2,170.1 86.3,165.8 82.9,164.4 			"/>
		</g>
		<polygon class="st18" points="38.6,236.3 140.8,177.1 179.8,199.6 77.6,258.8 		"/>
		<path class="st15" d="M84.6,216.1l-12.9-7.5c0,0-2.6-33.4-5.8-37.7c-3.3-4.3-7.1-4.1-8.1,2.1c-1,6.2,1.9,41.4,3.4,44
			c1.5,2.6,19.4,10.8,19.4,10.8L84.6,216.1z"/>
		<polygon class="st19" points="88.9,346.8 88.9,204.9 304.7,80.3 304.7,222.2 		"/>
		<polygon class="st20" points="225.1,149.3 235.1,143.5 235.1,157.7 225.1,163.5 		"/>
		<polygon class="st19" points="230.1,237.5 343.7,171.9 343.7,162.7 230.1,228.2 		"/>
		<polygon class="st18" points="230.1,228.2 191.1,205.7 304.7,140.2 343.7,162.7 		"/>
		<g>
			<path class="st21" d="M293.9,170.9c0,0,1.8,2.2,4.1,3c2.3,0.7,6.3,1.5,7.7-0.8c1.4-2.3,0.3-4.4-2.3-6c-2.6-1.6-8-0.6-9.5,1
				C292.9,169.2,293.9,170.9,293.9,170.9z"/>
			<path class="st22" d="M298.6,173c-2.3-0.7-4.1-3-4.1-3s-0.6-1-0.4-2c0,0-0.1,0.1-0.1,0.1c-1,1.1,0,2.8,0,2.8s1.8,2.2,4.1,3
				c2.3,0.7,6.3,1.5,7.7-0.8c0.1-0.2,0.2-0.4,0.3-0.6C304.5,174.4,300.8,173.7,298.6,173z"/>
		</g>
		<g>
			<path class="st22" d="M293.5,178.1l-4.6-2.6c-0.9-0.5-2.1-0.5-3.1,0l-21.3,12.3l-4.1,1.4v1.5l0,0c0,0.3,0.2,0.6,0.4,0.7l5.2,3
				c0.9,0.5,2.1,0.5,3.1,0l25-14.4c0.3-0.2,0.4-0.5,0.4-0.8v-1.5L293.5,178.1z"/>
			<path class="st21" d="M260.9,188.4l25-14.4c0.9-0.5,2.1-0.5,3.1,0l5.2,3c0.6,0.3,0.6,1.2,0,1.5l-25,14.4c-0.9,0.5-2.1,0.5-3.1,0
				l-5.2-3C260.3,189.6,260.3,188.7,260.9,188.4z"/>
		</g>
		<g>
			<path class="st22" d="M290.9,112l-3.1-1.8l0,0c-0.8-0.5-1.9-0.7-2.8-0.1l-44.3,25.6c-1.5,0.8-2.4,2.4-2.4,4.1v35.7
				c0,1,0.5,1.8,1.2,2.2l0,0l3.2,1.9l2.5-3.5l41.5-23.9c1.5-0.8,2.4-2.4,2.4-4.1v-33.5L290.9,112z"/>
			<g>
				<path class="st22" d="M258.2,163.5v11.2c0,1.1,0.6,2.1,1.6,2.7l3.9,2.2c0.9,0.5,2,0.5,2.9,0l9.8-6.2v1.3c0,1.1-0.6,2.1-1.5,2.6
					l-7.6,4.4c-1.3,0.7-2.8,0.7-4.1,0l-4-2.3c-1.8-1.1-3-3-3-5.2v-12.3L258.2,163.5z"/>
				<path class="st19" d="M275.8,172.5l-3.8-2.2c-1-0.6-1.6-1.6-1.6-2.7v-11.2l-12.2,7v11.2c0,1.1,0.6,2.1,1.6,2.7l3.9,2.2
					c0.9,0.5,2,0.5,2.9,0l9.3-5.3C276.4,173.8,276.4,172.9,275.8,172.5z"/>
			</g>
			<path class="st14" d="M241.2,141.5v33.1l50.7-29.3v-31.2c0-2.1-2.2-3.4-4-2.3l-44.3,25.6C242.1,138.3,241.2,139.9,241.2,141.5z"
				/>
			<polygon class="st20" points="243.8,141.7 243.8,168.2 288.5,142.7 288.5,115.9 			"/>
			<path class="st21" d="M241.2,177.3c0,2.1,2.2,3.4,4,2.3l44.3-25.6c1.5-0.8,2.4-2.4,2.4-4.1V144l-50.7,29.3V177.3z"/>
			<g>
				<polygon class="st23" points="253.7,157.9 249.4,160.4 249.4,149.1 253.7,146.6 				"/>
				<polygon class="st24" points="260.6,153.9 256.4,156.4 256.4,148.3 260.6,145.9 				"/>
				<polygon class="st25" points="267.7,149.8 263.4,152.3 263.4,138.6 267.7,136.1 				"/>
			</g>
			<g>
				<g>
					<polygon class="st26" points="285.5,133.4 273.1,140.6 273.1,139.6 285.5,132.5 					"/>
				</g>
			</g>
			<g>
				<g>
					<polygon class="st26" points="283.2,126.1 273.1,131.9 273.1,129.6 283.2,123.7 					"/>
				</g>
			</g>
			<g>
				<g>
					<polygon class="st26" points="285.5,127.8 273.1,135 273.1,134.1 285.5,126.9 					"/>
				</g>
			</g>
			<g>
				<g>
					<polygon class="st26" points="285.5,130.6 273.1,137.8 273.1,136.8 285.5,129.6 					"/>
				</g>
			</g>
			<g>
				<g>
					<polygon class="st26" points="285.5,136.2 273.1,143.3 273.1,142.4 285.5,135.2 					"/>
				</g>
			</g>
			<g>
				<g>
					<polygon class="st26" points="285.5,138.8 273.1,146 273.1,145.1 285.5,137.9 					"/>
				</g>
			</g>
			<g>
				<g>
					<polygon class="st26" points="285.5,141.6 273.1,148.8 273.1,147.8 285.5,140.7 					"/>
				</g>
			</g>
		</g>
		<g>
			<path class="st27" d="M310.6,160.6l-18.4-12c0,0-3.5,2.4-4.6,6c-1,3.6-0.6,6-0.6,6l17.6,11.5L310.6,160.6z"/>
			<path class="st11" d="M292.2,148.5c0,0-1.3-3.5-4.2-4.6c-2.9-1.1-5-0.4-6.9,0.7c-1.8,1.2-2.6,1.6-2.6,1.6s-5.3-3.1-6.3-2.3
				c-1,0.7,0.4,2.5,2.2,4.1c1.8,1.6,5.1,4.4,5.1,4.4s-3.3,0.1-3.4,2c-0.1,1.8,8.7,3.1,12.7,2.1C293,155.5,292.2,148.5,292.2,148.5z"
				/>
			<path class="st11" d="M299,130.5c0,0-1.5,16,0.8,19.7c2.3,3.8,7.4,4.6,7.4,4.6l0.9,6.6l14.6-4.9c0,0-3.3-22.2-10.6-26
				C304.7,126.7,299,130.5,299,130.5z"/>
			<path class="st17" d="M304.7,144.7l-1.3-0.7c0,0,0.2-8.5-0.6-10.4c-0.8-1.8-4.2-1.6-4.9-4.8c-0.7-3.1-0.6-11.7,0.8-12.9
				c1.4-1.2,2.4,0,2.4,0s1.4-2.7,3-2.7c1.6,0,1.6,1.5,1.6,1.5s1.9-1.4,3.2-1.5c1.4-0.1,2.3,1.5,2.3,1.5s1.9-2.2,3.3-1.5
				c1.4,0.7,0.5,2.7,0.5,2.7s8.9,1.3,13.5,10.1c4.6,8.8-0.6,24.7-3.2,28c-2.6,3.3-10.2,3.9-12.8,1.8c-2.6-2.1-5.4-8.4-5.4-8.4
				s2.6,0.6,2.6-3.6c0-4.2-2.1-6.8-3.6-6.5C304.5,137.8,304.7,144.7,304.7,144.7z"/>
			<g>
				<path class="st28" d="M301.6,285.4L301.6,285.4c-0.6-0.3-1.4-0.2-2.2,0.2c-2,1.1-3.6,4.2-3.6,6.9c0,1.5,0.5,2.5,1.4,2.9l0,0
					l5.6,3.3l4.7-10L301.6,285.4z"/>
				<path class="st14" d="M308.7,291.7c0,2.7-1.6,5.7-3.6,6.9c-2,1.1-3.6-0.1-3.6-2.7c0-2.7,1.6-5.7,3.6-6.9
					C307,287.9,308.7,289.1,308.7,291.7z"/>
				<path class="st15" d="M306.4,293c0,1-0.6,2.2-1.4,2.6c-0.8,0.4-1.4,0-1.4-1c0-1,0.6-2.2,1.4-2.6
					C305.8,291.5,306.4,292,306.4,293z"/>
			</g>
			<g>
				<path class="st15" d="M340.8,285.4L340.8,285.4c0.6-0.3,1.4-0.2,2.2,0.2c2,1.1,3.6,4.2,3.6,6.9c0,1.5-0.5,2.5-1.4,2.9l0,0
					l-5.6,3.3l-4.7-10L340.8,285.4z"/>
				<path class="st14" d="M333.8,291.7c0,2.7,1.6,5.7,3.6,6.9c2,1.1,3.6-0.1,3.6-2.7c0-2.7-1.6-5.7-3.6-6.9
					C335.4,287.9,333.8,289.1,333.8,291.7z"/>
				<path class="st15" d="M336,293c0,1,0.6,2.2,1.4,2.6c0.8,0.4,1.4,0,1.4-1c0-1-0.6-2.2-1.4-2.6C336.7,291.5,336,292,336,293z"/>
			</g>
			<g>
				<path class="st15" d="M308,265.9L308,265.9c0.6-0.2,1.2-0.2,2,0.2c1.8,1,3.2,3.8,3.2,6.1c0,1.3-0.5,2.3-1.2,2.6l0,0l-5,2.9
					l-4.2-8.9L308,265.9z"/>
				<path class="st14" d="M301.7,271.5c0,2.4,1.4,5.1,3.2,6.1c1.8,1,3.2-0.1,3.2-2.4s-1.4-5.1-3.2-6.1
					C303.2,268,301.7,269.1,301.7,271.5z"/>
				<path class="st15" d="M303.7,272.6c0,0.9,0.5,1.9,1.2,2.3c0.7,0.4,1.2,0,1.2-0.9c0-0.9-0.5-1.9-1.2-2.3
					C304.2,271.3,303.7,271.7,303.7,272.6z"/>
			</g>
			<g>
				<path class="st15" d="M335.5,265.9L335.5,265.9c-0.6-0.2-1.2-0.2-2,0.2c-1.8,1-3.2,3.8-3.2,6.1c0,1.3,0.5,2.3,1.2,2.6l0,0l5,2.9
					l4.2-8.9L335.5,265.9z"/>
				<path class="st14" d="M341.8,271.5c0,2.4-1.4,5.1-3.2,6.1c-1.8,1-3.2-0.1-3.2-2.4s1.4-5.1,3.2-6.1
					C340.3,268,341.8,269.1,341.8,271.5z"/>
				<path class="st15" d="M339.8,272.6c0,0.9-0.5,1.9-1.2,2.3c-0.7,0.4-1.2,0-1.2-0.9c0-0.9,0.5-1.9,1.2-2.3
					C339.2,271.3,339.8,271.7,339.8,272.6z"/>
			</g>
			<polygon class="st15" points="301.8,265.9 302.5,268.9 314.3,276.5 316,272.9 			"/>
			<polygon class="st14" points="321.6,271.8 318.3,267.1 305,263 301.8,265.9 316.1,273.2 			"/>
			<polygon class="st15" points="341.4,265.9 340.7,268.9 328.9,276.5 327.2,272.9 			"/>
			<polygon class="st14" points="321.6,271.8 324.8,267.1 338.2,263 341.4,265.9 327.1,273.2 			"/>
			<polygon class="st15" points="296.3,287.2 297.8,290.4 302.2,293.6 321.6,280.9 321.6,274.9 			"/>
			<polygon class="st14" points="316.7,271.8 296.3,287.2 301.4,290.9 321.6,277.2 321.6,271.8 			"/>
			<polygon class="st15" points="346.8,287.2 345.3,290.4 340.9,293.6 321.6,280.9 321.6,274.9 			"/>
			<polygon class="st14" points="326.5,271.8 346.8,287.2 341.7,290.9 321.6,277.2 321.6,271.8 			"/>
			<path class="st14" d="M321.6,278.7L321.6,278.7c-3.1,0-5.6-2.5-5.6-5.6v-26h11.1v26C327.1,276.3,324.6,278.7,321.6,278.7z"/>
			<path class="st29" d="M296.1,264c0,0,3.5,3.2,2.3,8c-1.2,4.8-4.9,4.3-9.1,6.4c-4.2,2.1-12.4,9-16.2,7.9c-3.8-1.1-0.1-6.9,4-11.1
				c4.1-4.2,7.1-7.2,7.1-7.2L296.1,264z"/>
			<g>
				<path class="st6" d="M344.3,230.6l-19.2-11.1c-2.3-1.3-5.1-1.3-7.4,0l-17.2,9.9l-8.3-0.2v7.7l0,0c0,1.6,0.8,3.1,2.3,4l25.9,15
					c2.3,1.3,5.1,1.3,7.4,0l23.2-13.4c1.5-0.9,2.3-2.5,2.3-4v-7.7L344.3,230.6z"/>
				<path class="st5" d="M294.5,225.2l23.2-13.4c2.3-1.3,5.1-1.3,7.4,0l25.9,15c3.1,1.8,3.1,6.2,0,8l-23.2,13.4
					c-2.3,1.3-5.1,1.3-7.4,0l-25.9-15C291.4,231.5,291.4,227,294.5,225.2z"/>
			</g>
			<path class="st15" d="M315.6,204.1l5.9,9.2c0,0-20.2-3.8-28.6-6.6c-7.8-2.6-2.9,16.4-1.7,21c1.1,4.6,17.4,10.8,28.3,12.6
				c10.9,1.8,20-2.5,24.6-5.7c4.6-3.2,6.2-12.8,3.7-17.5C345.1,212.4,315.6,204.1,315.6,204.1z"/>
			<path class="st15" d="M297.4,233.1l-8-4.8L297,265c0,0-1.2,5.5-7.6,6.8c-3,0.6-6.9-2-6.9-2s-12.5-54.4-10.1-60.6
				c2.4-6.2,14.2-5.6,23-1.3c8.8,4.3,20.7,8.6,20.7,8.6L297.4,233.1z"/>
			<path class="st30" d="M287,187.8c0,0-2.2-4.2-3.6-4c-1.4,0.2-0.7,2-0.7,2s-2.8-2.1-4-2.4c-1.3-0.3-4.7,0.8-6.1,3.5
				c-1.4,2.7,1.9,5.5,4.6,7c2.7,1.5,5.1,1.4,5.1,1.4L287,187.8z"/>
			<path class="st31" d="M298.7,167.8l8.2-7.1l18.3-5.8c0,0,10.1,2.5,14,12c3.9,9.6,8.5,50.2,8.5,50.2s-10.9,9.5-24.5,10
				c-11,0.4-14.9-7.3-14.2-13C309.6,208.3,301.6,173.1,298.7,167.8z"/>
			<path class="st27" d="M296.7,189.8c0,0-1.6-17.8,1.1-21c4-4.7,10.7-0.1,10.3,11.3c-0.2,6.1,0.1,22.6-4.4,23.1
				c-4.4,0.6-22.1-6.8-22.5-7.8c-0.3-1,1.7-7.8,5.8-7.7C291.2,187.7,296.7,189.8,296.7,189.8z"/>
			<g>
				<path class="st5" d="M358,180.6l-6.9-4c-0.2-0.2-0.5-0.3-0.7-0.4l0,0l0,0c-1.2-0.5-2.6-0.5-3.9,0.2l-24.7,14.3
					c-3.9,2.3-6.3,6.4-6.3,10.9v7.8c0,1.9,1.1,3.3,2.6,3.9l0,0l6.4,3.7l10.8-11.7l11.3-6.5c3.9-2.3,6.3-6.4,6.3-10.9v-1.7L358,180.6
					z"/>
				<path class="st6" d="M329,217.3l24.7-14.3c3.9-2.3,6.3-6.4,6.3-10.9v-7.8c0-3.3-3.5-5.3-6.4-3.7L329,194.9
					c-3.9,2.3-6.3,6.4-6.3,10.9v7.8C322.6,216.9,326.2,218.9,329,217.3z"/>
			</g>
			<path class="st14" d="M349.7,242.8v-49.7c0-2.3-1.2-4.4-3.2-5.5l0,0l-6.3,3.6v57.5l0,0c1.7,1,3.7,1,5.4,0l1-0.6
				C348.6,247.1,349.7,245,349.7,242.8z"/>
			<polygon class="st27" points="326.9,155.4 325.8,153.2 306.1,157.6 304.7,162.6 			"/>
		</g>
		<polygon class="st18" points="77.6,80.3 88.9,74.2 304.7,198.7 293.3,204.9 		"/>
		<polygon class="st32" points="293.3,346.8 304.7,340.7 304.7,198.7 293.3,204.9 		"/>
		<polygon class="st19" points="293.3,346.8 304.7,340.7 304.7,198.7 293.3,204.9 		"/>
		<polygon class="st18" points="304.7,80.3 293.3,74.2 77.6,198.7 88.9,204.9 		"/>
		<polygon class="st13" points="191.1,145.8 191.1,287.8 293.3,346.8 293.3,204.9 		"/>
		<linearGradient id="SVGID_4_" gradientUnits="userSpaceOnUse" x1="213.162" y1="382.225" x2="265.2367" y2="265.2662">
			<stop  offset="0" style="stop-color:#000000"/>
			<stop  offset="1" style="stop-color:#000000;stop-opacity:0.1"/>
		</linearGradient>
		<polygon class="st33" points="230.1,228.2 293.1,312.7 293.1,346.8 191.1,287.8 		"/>
		<polygon class="st21" points="88.9,264.9 88.9,204.9 77.6,198.7 77.6,258.8 38.6,236.3 38.6,318.2 77.6,340.7 77.6,340.7 
			88.9,346.8 127.9,369.3 127.9,287.4 		"/>
		<polygon class="st19" points="127.9,287.4 230.1,228.2 230.1,237.5 161.4,277.4 161.4,350 127.9,369.3 		"/>
		<polygon class="st18" points="88.9,264.9 191.1,205.7 230.1,228.2 127.9,287.4 		"/>
		<g>
			<path class="st21" d="M176.2,237.4c0,0,1.8,2.2,4.1,3c2.3,0.7,6.3,1.5,7.7-0.8c1.4-2.3,0.3-4.4-2.3-6c-2.6-1.6-8-0.6-9.5,1
				C175.2,235.8,176.2,237.4,176.2,237.4z"/>
			<path class="st22" d="M180.8,239.6c-2.3-0.7-4.1-3-4.1-3s-0.6-1-0.4-2c0,0-0.1,0.1-0.1,0.1c-1,1.1,0,2.8,0,2.8s1.8,2.2,4.1,3
				c2.3,0.7,6.3,1.5,7.7-0.8c0.1-0.2,0.2-0.4,0.3-0.6C186.8,241,183.1,240.3,180.8,239.6z"/>
		</g>
		<g>
			<path class="st22" d="M175.8,244.7l-4.6-2.6c-0.9-0.5-2.1-0.5-3.1,0l-21.3,12.3l-4.1,1.4v1.5l0,0c0,0.3,0.2,0.6,0.4,0.7l5.2,3
				c0.9,0.5,2.1,0.5,3.1,0l25-14.4c0.3-0.2,0.4-0.5,0.4-0.8v-1.5L175.8,244.7z"/>
			<path class="st21" d="M143.2,255l25-14.4c0.9-0.5,2.1-0.5,3.1,0l5.2,3c0.6,0.3,0.6,1.2,0,1.5l-25,14.4c-0.9,0.5-2.1,0.5-3.1,0
				l-5.2-3C142.6,256.2,142.6,255.3,143.2,255z"/>
		</g>
		<polygon class="st21" points="132.6,297.5 157.3,283.3 157.3,300.2 132.6,314.5 		"/>
		<polygon class="st19" points="149.2,294.7 141.8,298.9 141.8,295.5 149.2,291.2 		"/>
		<polygon class="st21" points="132.6,320.4 157.3,306.1 157.3,323.1 132.6,337.3 		"/>
		<polygon class="st19" points="149.2,317.7 141.8,321.9 141.8,318.5 149.2,314.2 		"/>
		<polygon class="st21" points="132.6,343.6 157.4,329.3 157.4,346.3 132.6,360.6 		"/>
		<polygon class="st19" points="149.2,340.7 141.8,345 141.8,341.5 149.2,337.2 		"/>
		<g>
			<path class="st22" d="M173.1,178.6l-3.1-1.8l0,0c-0.8-0.5-1.9-0.7-2.8-0.1l-44.3,25.6c-1.5,0.8-2.4,2.4-2.4,4.1v35.7
				c0,1,0.5,1.8,1.2,2.2l0,0l3.2,1.9l2.5-3.5l41.5-23.9c1.5-0.8,2.4-2.4,2.4-4.1v-33.5L173.1,178.6z"/>
			<g>
				<path class="st22" d="M140.5,230.1v11.2c0,1.1,0.6,2.1,1.6,2.7l3.9,2.2c0.9,0.5,2,0.5,2.9,0l9.8-6.2v1.3c0,1.1-0.6,2.1-1.5,2.6
					l-7.6,4.4c-1.3,0.7-2.8,0.7-4.1,0l-4-2.3c-1.8-1.1-3-3-3-5.2v-12.3L140.5,230.1z"/>
				<path class="st19" d="M158.1,239.1l-3.8-2.2c-1-0.6-1.6-1.6-1.6-2.7V223l-12.2,7v11.2c0,1.1,0.6,2.1,1.6,2.7l3.9,2.2
					c0.9,0.5,2,0.5,2.9,0l9.3-5.3C158.7,240.4,158.7,239.5,158.1,239.1z"/>
			</g>
			<path class="st14" d="M123.5,208.1v33.1l50.7-29.3v-31.2c0-2.1-2.2-3.4-4-2.3L125.8,204C124.4,204.9,123.5,206.4,123.5,208.1z"/>
			<polygon class="st34" points="126.1,208.3 126.1,234.8 170.8,209.2 170.8,182.5 			"/>
			<path class="st21" d="M123.5,243.8c0,2.1,2.2,3.4,4,2.3l44.3-25.6c1.5-0.8,2.4-2.4,2.4-4.1v-5.9l-50.7,29.3V243.8z"/>
			<g>
				
					<linearGradient id="SVGID_5_" gradientUnits="userSpaceOnUse" x1="125.368" y1="148.9836" x2="125.368" y2="139.6562" gradientTransform="matrix(0.866 -0.5 0 1.1547 31.7131 109.5337)">
					<stop  offset="0" style="stop-color:#FE768A;stop-opacity:0"/>
					<stop  offset="1" style="stop-color:#FE768A"/>
				</linearGradient>
				<path class="st35" d="M151.9,203.2c0,0-2.9,8.2-6.8,9.7c-1.9,0.8-4.9-1.4-7.4,0.3c-2.8,1.9-3.7,4.7-5.6,6.3
					c-2.5,2.2-3.6,0.7-3.6,0.7v7.1l23.3-13.4V203.2z"/>
				
					<linearGradient id="SVGID_6_" gradientUnits="userSpaceOnUse" x1="125.368" y1="152.5364" x2="125.368" y2="141.0784" gradientTransform="matrix(0.866 -0.5 0 1.1547 31.7131 109.5337)">
					<stop  offset="0" style="stop-color:#FFCD5E;stop-opacity:0"/>
					<stop  offset="1" style="stop-color:#FFCD5E"/>
				</linearGradient>
				<path class="st36" d="M151.9,208.7c-3.2,1.4-4.6-7.2-6.7-3.8s-3.6,12.8-6.9,14.9c-3.3,2.1-4.8-3.6-6-4.3
					c-1.2-0.7-3.7,1.6-3.7,1.6v10.3l23.3-13.4V208.7z"/>
				<path class="st37" d="M128.6,217.2c0,0,2.5-2.4,3.7-1.6c1.2,0.7,2.7,6.3,6,4.3c3.3-2,4.8-11.5,6.9-14.9s3.5,5.2,6.7,3.8"/>
				<g>
					<path class="st26" d="M151.9,216.1c-0.1,0-0.2-0.1-0.2-0.2v-16.7c0-0.1,0.1-0.2,0.2-0.2c0.1,0,0.2,0.1,0.2,0.2v16.7
						C152.1,216,152,216.1,151.9,216.1z"/>
				</g>
				<g>
					<path class="st26" d="M128.6,229.6c-0.1,0-0.2-0.1-0.2-0.2v-16.7c0-0.1,0.1-0.2,0.2-0.2c0.1,0,0.2,0.1,0.2,0.2v16.7
						C128.9,229.5,128.8,229.6,128.6,229.6z"/>
				</g>
				<g>
					<path class="st26" d="M129.7,221c-0.1,0-0.2,0-0.2,0c-0.7-0.1-1-0.5-1-0.6c-0.1-0.1,0-0.2,0.1-0.3c0.1-0.1,0.2,0,0.3,0.1
						c0,0,0.2,0.3,0.7,0.4c0.5,0.1,1.3-0.1,2.5-1.1c0.8-0.7,1.4-1.6,2.1-2.5c0.9-1.3,1.9-2.7,3.5-3.8c1.5-1.1,3.2-0.7,4.7-0.4
						c1,0.2,2,0.4,2.7,0.1c3.7-1.5,6.6-9.5,6.6-9.6c0-0.1,0.2-0.2,0.3-0.1c0.1,0,0.2,0.2,0.1,0.3c-0.1,0.3-3,8.3-6.9,9.9
						c-0.8,0.3-1.8,0.1-2.9-0.1c-1.5-0.3-3-0.6-4.4,0.4c-1.6,1.1-2.5,2.4-3.4,3.7c-0.7,1-1.3,1.9-2.1,2.6
						C131.4,220.6,130.5,221,129.7,221z"/>
				</g>
				<g>
					<g>
						<path class="st26" d="M135.2,225.8c-0.1,0-0.2-0.1-0.2-0.2v-16.7c0-0.1,0.1-0.2,0.2-0.2s0.2,0.1,0.2,0.2v16.7
							C135.4,225.7,135.3,225.8,135.2,225.8z"/>
					</g>
					<g>
						<path class="st26" d="M145.4,219.9c-0.1,0-0.2-0.1-0.2-0.2V203c0-0.1,0.1-0.2,0.2-0.2c0.1,0,0.2,0.1,0.2,0.2v16.7
							C145.6,219.8,145.5,219.9,145.4,219.9z"/>
					</g>
				</g>
				<g>
					<g>
						<g>
							<polygon class="st26" points="132.6,212.2 131.2,213.1 131.2,211.8 132.6,211 							"/>
						</g>
					</g>
					<g>
						<g>
							<polygon class="st26" points="133.9,212.8 131.2,214.4 131.2,213.9 133.9,212.3 							"/>
						</g>
					</g>
				</g>
				<g>
					<g>
						<g>
							<polygon class="st26" points="141,209.5 139.5,210.4 139.5,209.1 141,208.3 							"/>
						</g>
					</g>
					<g>
						<g>
							<polygon class="st26" points="142.2,210.1 139.5,211.6 139.5,211.1 142.2,209.6 							"/>
						</g>
					</g>
				</g>
				<g>
					<g>
						<g>
							<polygon class="st26" points="149.2,200.8 147.7,201.6 147.7,200.4 149.2,199.5 							"/>
						</g>
					</g>
					<g>
						<g>
							<polygon class="st26" points="150.4,201.3 147.7,202.9 147.7,202.4 150.4,200.8 							"/>
						</g>
					</g>
				</g>
				<g>
					<g>
						<polygon class="st26" points="165.9,191.9 155.8,197.7 155.8,195.4 165.9,189.6 						"/>
					</g>
				</g>
				<g>
					<g>
						<polygon class="st26" points="168.2,193.6 155.8,200.8 155.8,199.9 168.2,192.7 						"/>
					</g>
				</g>
				<g>
					<g>
						<polygon class="st26" points="168.2,196.4 155.8,203.6 155.8,202.6 168.2,195.5 						"/>
					</g>
				</g>
				<g>
					<g>
						<polygon class="st26" points="168.2,199.2 155.8,206.4 155.8,205.5 168.2,198.3 						"/>
					</g>
				</g>
				<g>
					<g>
						<polygon class="st26" points="168.2,202 155.8,209.2 155.8,208.2 168.2,201.1 						"/>
					</g>
				</g>
				<g>
					<g>
						<polygon class="st26" points="168.2,204.7 155.8,211.8 155.8,210.9 168.2,203.7 						"/>
					</g>
				</g>
				<g>
					<g>
						<polygon class="st26" points="168.2,207.4 155.8,214.6 155.8,213.7 168.2,206.5 						"/>
					</g>
				</g>
			</g>
		</g>
		<g>
			<path class="st11" d="M192.4,238c0,0-1.9-4.1-5.5-5.1c-3.6-1-8.3-0.5-8.5,0.3c-0.2,0.8,1.3,1.4,2.6,1.6c1.2,0.1,2.6,0.4,3,1.3
				c0.4,0.9-2.9,0.6-3.4,1.2c-0.5,0.5-0.5,1,1.3,1.8c1.9,0.8,5,2.5,6.5,2.4C189.8,241.4,192.4,238,192.4,238z"/>
			<path class="st38" d="M204.4,239.2c0,0,11.6-22.2,15.6-20.9c4,1.3,6.4,7.2,4.2,12.8c-2.2,5.7-11.2,19.7-15.6,20.2
				c-4.4,0.6-21.3-6.3-21.6-7.3c-0.3-1,1.7-7.8,5.8-7.7C196.8,236.4,204.4,239.2,204.4,239.2z"/>
			<path class="st13" d="M195.7,322.4c0,0,3.1,1.6,3.2,5.1c0.1,3.6-2.6,4-5.1,6.3c-2.5,2.3-6.9,8.7-9.7,8.7c-2.9,0-1.4-4.8,0.6-8.6
				c2-3.8,3.5-6.4,3.5-6.4L195.7,322.4z"/>
			<g>
				<path class="st15" d="M182.2,350.9L182.2,350.9c-0.6-0.3-1.4-0.2-2.2,0.2c-2,1.1-3.6,4.2-3.6,6.9c0,1.5,0.5,2.5,1.4,2.9l0,0
					l5.6,3.3l4.7-10L182.2,350.9z"/>
				<path class="st14" d="M189.3,357.2c0,2.7-1.6,5.7-3.6,6.9c-2,1.1-3.6-0.1-3.6-2.7c0-2.7,1.6-5.7,3.6-6.9
					C187.6,353.3,189.3,354.6,189.3,357.2z"/>
				<path class="st15" d="M187,358.5c0,1-0.6,2.2-1.4,2.6c-0.8,0.4-1.4,0-1.4-1c0-1,0.6-2.2,1.4-2.6C186.4,357,187,357.5,187,358.5z
					"/>
			</g>
			<g>
				<path class="st15" d="M221.4,350.9L221.4,350.9c0.6-0.3,1.4-0.2,2.2,0.2c2,1.1,3.6,4.2,3.6,6.9c0,1.5-0.5,2.5-1.4,2.9l0,0
					l-5.6,3.3l-4.7-10L221.4,350.9z"/>
				<path class="st14" d="M214.4,357.2c0,2.7,1.6,5.7,3.6,6.9c2,1.1,3.6-0.1,3.6-2.7c0-2.7-1.6-5.7-3.6-6.9
					C216,353.3,214.4,354.6,214.4,357.2z"/>
				<path class="st15" d="M216.6,358.5c0,1,0.6,2.2,1.4,2.6c0.8,0.4,1.4,0,1.4-1c0-1-0.6-2.2-1.4-2.6
					C217.2,357,216.6,357.5,216.6,358.5z"/>
			</g>
			<g>
				<path class="st15" d="M188.6,331.3L188.6,331.3c0.6-0.2,1.2-0.2,2,0.2c1.8,1,3.2,3.8,3.2,6.1c0,1.3-0.5,2.3-1.2,2.6l0,0l-5,2.9
					l-4.2-8.9L188.6,331.3z"/>
				<path class="st14" d="M182.3,336.9c0,2.4,1.4,5.1,3.2,6.1c1.8,1,3.2-0.1,3.2-2.4c0-2.4-1.4-5.1-3.2-6.1
					C183.7,333.5,182.3,334.6,182.3,336.9z"/>
				<path class="st15" d="M184.3,338.1c0,0.9,0.5,1.9,1.2,2.3c0.7,0.4,1.2,0,1.2-0.9c0-0.9-0.5-1.9-1.2-2.3
					C184.8,336.8,184.3,337.2,184.3,338.1z"/>
			</g>
			<g>
				<path class="st15" d="M216.1,331.3L216.1,331.3c-0.6-0.2-1.2-0.2-2,0.2c-1.8,1-3.2,3.8-3.2,6.1c0,1.3,0.5,2.3,1.2,2.6l0,0l5,2.9
					l4.2-8.9L216.1,331.3z"/>
				<path class="st14" d="M222.3,336.9c0,2.4-1.4,5.1-3.2,6.1c-1.8,1-3.2-0.1-3.2-2.4c0-2.4,1.4-5.1,3.2-6.1
					C220.9,333.5,222.3,334.6,222.3,336.9z"/>
				<path class="st15" d="M220.4,338.1c0,0.9-0.5,1.9-1.2,2.3c-0.7,0.4-1.2,0-1.2-0.9c0-0.9,0.5-1.9,1.2-2.3
					C219.8,336.8,220.4,337.2,220.4,338.1z"/>
			</g>
			<polygon class="st15" points="182.4,331.4 183.1,334.3 194.9,342 196.6,338.3 			"/>
			<polygon class="st14" points="202.2,337.3 198.9,332.6 185.6,328.4 182.4,331.4 196.6,338.7 			"/>
			<polygon class="st15" points="222,331.4 221.3,334.3 209.4,342 207.7,338.3 			"/>
			<polygon class="st14" points="202.1,337.3 205.4,332.6 218.8,328.4 222,331.4 207.7,338.7 			"/>
			<polygon class="st15" points="176.9,352.7 178.4,355.9 182.8,359.1 202.1,346.4 202.1,340.4 			"/>
			<polygon class="st14" points="197.3,337.3 176.9,352.7 182,356.4 202.1,342.6 202.1,337.3 			"/>
			<polygon class="st15" points="227.4,352.7 225.9,355.9 221.5,359.1 202.1,346.4 202.1,340.4 			"/>
			<polygon class="st14" points="207,337.3 227.4,352.7 222.3,356.4 202.1,342.6 202.1,337.3 			"/>
			<path class="st14" d="M202.1,344.2L202.1,344.2c-3.1,0-5.6-2.5-5.6-5.6v-26h11.1v26C207.7,341.7,205.2,344.2,202.1,344.2z"/>
			<path class="st9" d="M188.4,268.2c0,0-5.7-1.7-11,0c-5.3,1.7-5.6,7.5-3.7,14.7c1.9,7.2,14.7,45.4,14.7,45.4s5.3-0.5,7.1-2.7
				c1.8-2.2-3.1-13.9-3.6-20.2C191.4,299,188.4,268.2,188.4,268.2z"/>
			<path class="st13" d="M187.4,329c0,0,3.1,1.6,3.2,5.1c0.1,3.6-2.6,4-5.1,6.3c-2.5,2.3-6.9,8.7-9.7,8.7s-1.4-4.8,0.6-8.6
				c2-3.8,3.5-6.4,3.5-6.4L187.4,329z"/>
			<path class="st11" d="M179.9,274.1c0,0-5.7-1.7-11,0c-5.3,1.7-5.6,7.5-3.7,14.7c1.9,7.2,14.7,45.4,14.7,45.4s5.3-0.5,7.1-2.7
				c1.8-2.2-3.1-13.9-3.6-20.2C182.9,304.9,179.9,274.1,179.9,274.1z"/>
			<g>
				<path class="st6" d="M224.9,296.1L205.7,285c-2.3-1.3-5.1-1.3-7.4,0l-17.2,9.9l-8.3-0.2v7.7l0,0c0,1.6,0.8,3.1,2.3,4l25.9,15
					c2.3,1.3,5.1,1.3,7.4,0l23.2-13.4c1.5-0.9,2.3-2.5,2.3-4v-7.7L224.9,296.1z"/>
				<path class="st5" d="M175.1,290.7l23.2-13.4c2.3-1.3,5.1-1.3,7.4,0l25.9,15c3.1,1.8,3.1,6.2,0,8l-23.2,13.4
					c-2.3,1.3-5.1,1.3-7.4,0l-25.9-15C172,297,172,292.5,175.1,290.7z"/>
			</g>
			<path class="st38" d="M196.1,269.6l-7.6-1.5c0,0-3.1,1.8-10.3,5.9c-7.1,4.1-7.8,14.5-6.7,19.1c1.1,4.6,17.4,10.8,28.3,12.6
				c10.9,1.8,20-2.5,24.6-5.7c4.6-3.2,6.2-12.8,3.7-17.5C225.7,277.9,196.1,269.6,196.1,269.6z"/>
			<path class="st39" d="M221.9,222.6c0,0,7.2,4.5,6.9,9.8c-0.3,5.4,0,23.4,0,30.6c0,7.2,1.4,21.7-1.6,24.4
				c-3,2.7-18.1,8.7-28.2,3.9c-10.1-4.8-10.2-10.8-9.9-15c0.3-4.2,5.3-4.4,5.7-11.1c0.3-6.6-3-8.5-2.6-15.1
				c0.4-6.6-2.4-11.1,2.6-16.2C199.9,228.9,221.9,222.6,221.9,222.6z"/>
			<path class="st11" d="M167.6,253.3c0,0-2.2-4.2-3.6-4c-1.4,0.2-0.7,2-0.7,2s-2.8-2.1-4-2.4c-1.3-0.3-4.7,0.8-6.1,3.5
				c-1.4,2.7,1.9,5.5,4.6,7c2.7,1.5,5.1,1.4,5.1,1.4L167.6,253.3z"/>
			<path class="st38" d="M179.3,255.9c0,0,11.6-22.2,15.6-20.9c4,1.3,6.4,7.2,4.2,12.8c-2.2,5.7-11.2,19.7-15.6,20.2
				c-4.4,0.6-21.3-6.3-21.6-7.3c-0.3-1,1.7-7.8,5.8-7.7C171.8,253.2,179.3,255.9,179.3,255.9z"/>
			<path class="st11" d="M193.4,198.4c0,0-2,17.7,1.5,20.4c3.5,2.8,6.6,3.8,6.6,3.8S199.7,198.4,193.4,198.4z"/>
			<path class="st17" d="M197.5,184c0,0,2.5-4.1,9.6-2.7c7.1,1.4,15.8,8,17.2,17.2c1.4,9.2-1.4,16.1,1.3,23.5
				c2.7,7.4,5.1,9.6,2.3,16.8c-2.7,7.2-15.5,14.2-20.6,11.3c-5.2-2.9-7.2-7-8.6-14.2c-1.4-7.2,0.3-18.8-0.3-23
				c-0.7-4.2-3.5-12-3.5-12s-4.9,0.2-4.8-6.5C190.3,187.6,193.9,184.2,197.5,184z"/>
			<g>
				<path class="st5" d="M238.6,246.1l-6.9-4c-0.2-0.2-0.5-0.3-0.7-0.4l0,0v0c-1.2-0.5-2.6-0.5-3.9,0.2l-24.7,14.3
					c-3.9,2.3-6.3,6.4-6.3,10.9v7.8c0,1.9,1.1,3.3,2.6,3.9l0,0l6.4,3.7l10.8-11.7l11.3-6.5c3.9-2.3,6.3-6.4,6.3-10.9v-1.7
					L238.6,246.1z"/>
				<path class="st6" d="M209.6,282.8l24.7-14.3c3.9-2.3,6.3-6.4,6.3-10.9v-7.8c0-3.3-3.5-5.3-6.4-3.7l-24.7,14.3
					c-3.9,2.3-6.3,6.4-6.3,10.9v7.8C203.2,282.3,206.8,284.4,209.6,282.8z"/>
			</g>
			<path class="st14" d="M230.3,308.3v-49.7c0-2.3-1.2-4.4-3.2-5.5l0,0l-6.3,3.6v57.5v0c1.7,1,3.7,1,5.4,0l1-0.6
				C229.2,312.5,230.3,310.5,230.3,308.3z"/>
		</g>
		<polygon class="st20" points="97,216.1 107,210.4 107,224.5 97,230.3 		"/>
		<polygon class="st34" points="104.2,228.8 114.2,223 114.2,237.2 104.2,243 		"/>
		<polygon class="st24" points="177.1,182.4 187.1,176.6 187.1,190.8 177.1,196.6 		"/>
		<g>
			<polygon class="st40" points="107,263.4 124.2,253.5 145.2,265.6 128,275.5 			"/>
			<g>
				<polygon class="st41" points="112,263.2 124.3,256.1 125.3,256.7 113,263.8 				"/>
				<polygon class="st41" points="114.7,264.9 125,259 126,259.6 115.7,265.5 				"/>
				<polygon class="st41" points="117.3,266.3 127.6,260.4 128.6,261 118.3,266.9 				"/>
				<polygon class="st41" points="119.9,267.8 130.2,261.9 131.2,262.5 120.9,268.4 				"/>
				<polygon class="st41" points="122.5,269.3 132.8,263.4 133.8,264 123.5,269.9 				"/>
				<polygon class="st41" points="125.1,270.8 135.4,264.9 136.3,265.5 126.1,271.4 				"/>
				<polygon class="st41" points="127.6,272.3 137.9,266.4 138.9,267 128.6,272.9 				"/>
			</g>
		</g>
		<polyline class="st42" points="247.4,275.2 256,275.2 256,359.3 265.6,359.3 		"/>
	</g>
</g>
<g id="Designed_By_Freepik">
</g>
</svg>
