<svg width="1920" height="1080" viewBox="0 0 1920 1080" fill="none" xmlns="http://www.w3.org/2000/svg">
<rect width="1920" height="1080" fill="#FFBE00"/>
<path opacity="0.2" d="M1573.01 1080L1216.84 891.169L1290.04 840.8L1312.11 849.83L1658.01 1034.85L1573.01 1080Z" fill="url(#paint0_linear)"/>
<path opacity="0.2" d="M1835 950.166L1478.83 761.335L1552.03 710.966L1573.88 719.996L1920 905.015L1835 950.166Z" fill="url(#paint1_linear)"/>
<path opacity="0.2" d="M1446.27 539.593L1713.95 686.083L1606.66 743.074L1651.67 766.953L1469.43 862.673L1375.69 912.44H1270.15L1193.46 953.176L1108.02 907.824L1050.33 764.545L1309.27 604.811L1446.27 539.593Z" fill="url(#paint2_linear)"/>
<path d="M1201.32 531.968V432.234C1201.32 427.619 1198.7 423.405 1194.33 421.197L1180.56 428.422V543.807C1184.28 545.814 1188.65 545.814 1192.36 543.807L1194.55 542.603C1198.92 540.396 1201.32 536.182 1201.32 531.968Z" fill="#0D2A38"/>
<path d="M1254.42 391.9L1239.34 383.873C1238.91 383.471 1238.25 383.271 1237.81 383.07C1235.19 382.067 1232.13 382.067 1229.29 383.471L1175.32 412.167C1166.8 416.783 1161.55 425.01 1161.55 434.04V449.693C1161.55 453.506 1163.96 456.315 1167.24 457.519L1181.22 464.944L1204.82 441.465L1229.51 428.422C1238.03 423.806 1243.28 415.579 1243.28 406.549V403.137L1254.42 391.9Z" fill="#FF5252"/>
<path d="M1191.05 465.546L1245.03 436.85C1253.55 432.234 1258.79 424.007 1258.79 414.977V399.324C1258.79 392.702 1251.14 388.689 1244.81 391.9L1190.83 420.595C1182.31 425.211 1177.07 433.438 1177.07 442.469V458.121C1177.29 464.743 1184.94 468.756 1191.05 465.546Z" fill="#B33939"/>
<path d="M1263.16 363.605C1263.16 363.605 1272.78 371.03 1278.02 391.498C1283.26 411.967 1291.13 441.465 1291.13 441.465L1271.9 447.285L1263.16 363.605Z" fill="#FF5A71"/>
<path d="M1191.71 538.991C1191.71 538.991 1190.62 479.191 1189.31 459.927C1187.78 440.663 1183.41 402.134 1189.31 390.495C1195.21 379.057 1211.37 372.635 1223.39 367.016C1235.41 361.598 1258.35 352.769 1263.38 363.404C1268.41 374.04 1281.95 491.232 1281.95 491.232L1191.71 538.991Z" fill="#FF808C"/>
<path d="M1241.31 390.495C1241.31 390.495 1241.75 399.324 1233.88 399.926C1225.8 400.528 1218.15 395.311 1213.56 388.087C1208.97 380.863 1207 375.244 1207 375.244L1213.56 368.02L1247.87 373.438C1247.87 373.438 1257.48 381.264 1254.86 390.696C1252.45 397.518 1241.31 390.495 1241.31 390.495Z" fill="white"/>
<path d="M1218.15 339.926L1212.47 372.234C1218.15 380.06 1226.45 385.879 1236.07 388.889L1241.31 390.495C1245.46 384.073 1247.65 376.849 1247.65 369.625V360.595L1218.15 339.926Z" fill="#E69C83"/>
<path d="M1244.81 487.82L1216.62 472.77C1216.62 472.77 1210.94 405.746 1203.95 397.117C1196.73 388.488 1188.43 388.889 1186.25 401.331C1184.06 413.773 1190.4 484.409 1193.68 489.626C1196.95 494.844 1236.07 511.299 1236.07 511.299L1244.81 487.82Z" fill="#FF5A71"/>
<path d="M1229.95 294.574C1229.95 294.574 1223.39 286.547 1212.47 289.758C1202.63 292.768 1202.85 302.2 1201.32 315.243C1199.79 328.287 1200.89 331.899 1196.73 334.708C1192.58 337.317 1186.03 333.906 1186.03 333.906C1186.03 333.906 1190.18 347.551 1201.32 348.755C1212.47 349.959 1217.93 347.15 1222.52 334.708C1227.33 322.066 1229.95 294.574 1229.95 294.574Z" fill="#814458"/>
<path d="M1265.13 321.063C1265.13 321.063 1265.13 352.769 1265.13 356.18C1265.13 359.592 1260.32 371.03 1252.67 375.043C1245.24 379.257 1232.57 370.829 1226.89 365.21C1221.21 359.592 1215.31 347.351 1215.31 347.351C1215.31 347.351 1208.75 347.752 1206.57 341.33C1204.6 334.909 1206.79 332.3 1209.85 331.698C1212.9 331.096 1237.16 320.862 1237.16 320.862C1237.16 320.862 1266 320.661 1265.13 321.063Z" fill="#FFAD91"/>
<path d="M1271.9 328.287C1271.9 328.287 1275.18 310.828 1265.13 304.608C1254.2 297.785 1254.64 292.969 1237.16 292.166C1219.46 291.564 1210.06 303.805 1208.1 313.237C1206.13 322.467 1207.22 333.504 1207.22 333.504C1207.22 333.504 1210.5 332.702 1212.69 334.708C1214.65 336.715 1215.74 338.722 1215.74 338.722L1221.64 341.932L1223.61 328.889L1230.17 324.273C1230.17 324.273 1233.23 334.106 1237.38 334.708C1241.09 335.31 1271.9 328.287 1271.9 328.287Z" fill="#AC5A75"/>
<path d="M1469.43 862.673V577.921L998.11 327.886V612.638L1469.43 862.673Z" fill="#E3E6EC"/>
<path d="M969.922 644.344V544.61C969.922 539.995 967.3 535.781 962.93 533.573L949.164 540.797V656.183C952.878 658.19 957.249 658.19 960.963 656.183L963.148 654.979C967.3 652.772 969.922 648.758 969.922 644.344Z" fill="#4E4864"/>
<path d="M1023.02 504.476L1007.94 496.449C1007.51 496.048 1006.85 495.847 1006.41 495.646C1003.79 494.643 1000.73 494.643 997.891 496.048L943.92 524.744C935.398 529.359 930.153 537.587 930.153 546.617V562.269C930.153 566.082 932.557 568.891 935.835 570.095L949.819 577.52L973.418 554.042L998.11 540.998C1006.63 536.383 1011.88 528.155 1011.88 519.125V515.713L1023.02 504.476Z" fill="#FF5252"/>
<path d="M959.652 578.122L1013.62 549.426C1022.15 544.811 1027.39 536.583 1027.39 527.553V511.901C1027.39 505.279 1019.74 501.265 1013.41 504.476L959.434 533.172C950.912 537.787 945.668 546.015 945.668 555.045V570.697C945.668 577.119 953.534 581.333 959.652 578.122Z" fill="#B33939"/>
<path d="M1031.76 475.981C1031.76 475.981 1041.37 483.405 1046.62 503.874C1051.86 524.342 1059.73 553.841 1059.73 553.841L1040.5 559.66L1031.76 475.981Z" fill="#3B364B"/>
<path d="M960.308 651.568C960.308 651.568 959.215 591.768 957.904 572.503C956.375 553.239 952.004 514.71 957.904 503.071C963.804 491.633 979.974 485.211 991.992 479.593C1004.01 474.175 1026.95 465.345 1031.98 475.981C1037 486.616 1050.55 603.808 1050.55 603.808L960.308 651.568Z" fill="#5F5470"/>
<path d="M981.066 484.609C981.066 484.609 992.866 496.248 996.58 503.874C1000.29 511.299 1019.31 553.44 1019.31 553.44C1019.31 553.44 1022.58 506.282 1021.71 499.058C1021.05 491.633 1017.56 478.188 1017.56 478.188L981.066 484.609Z" fill="white"/>
<path d="M981.066 449.492V484.609L993.958 494.442L1009.69 496.65L1016.03 486.014V473.171L981.066 449.492Z" fill="#E69C83"/>
<path d="M1017.12 499.459L1019.96 487.82C1018.87 482.603 1017.56 477.987 1017.56 477.987L1009.91 496.65L1017.12 499.459Z" fill="#E3E6EC"/>
<path d="M1005.54 503.874L1009.69 496.65L980.848 484.609C980.848 484.609 989.151 493.038 994.177 500.061L1005.54 503.874Z" fill="#E3E6EC"/>
<path d="M1033.51 426.816C1033.51 426.816 1033.51 458.522 1033.51 461.934C1033.51 465.345 1028.7 476.783 1021.05 480.797C1013.62 485.011 998.11 479.191 992.21 473.573C986.529 467.954 983.688 453.104 983.688 453.104C983.688 453.104 977.133 453.506 974.948 447.084C972.981 440.663 975.166 438.054 978.225 437.452C981.285 436.85 1005.54 426.616 1005.54 426.616C1005.54 426.616 1034.38 426.415 1033.51 426.816Z" fill="#FFAD91"/>
<path d="M976.914 438.455C976.914 438.455 981.94 436.448 982.814 440.061C983.47 443.071 983.907 451.499 983.907 451.499L988.495 454.509V442.669C988.495 442.669 992.647 442.067 995.706 439.258C998.984 436.448 999.858 430.228 999.858 430.228C999.858 430.228 1008.38 431.03 1018.87 430.228C1029.14 429.425 1035.26 428.422 1037.22 423.405C1039.19 418.187 1029.58 397.518 1009.25 398.12C988.932 398.722 976.696 410.562 974.292 418.388C971.889 426.214 974.948 439.86 974.948 439.86L976.914 438.455Z" fill="#4D352C"/>
<path d="M1005.54 503.874L1009.69 508.891L1006.63 525.747L1019.74 555.848L1021.05 523.339L1014.72 508.088L1017.12 499.459L1009.69 496.65L1005.54 503.874Z" fill="#B33939"/>
<path d="M912.891 640.932L1136.21 522.135L1221.43 567.286L998.11 686.083L912.891 640.932Z" fill="#FCFEFE"/>
<path d="M1013.41 600.397L985.218 585.346C985.218 585.346 979.537 518.322 972.544 509.693C965.333 501.064 957.03 501.466 954.845 513.907C952.66 526.349 958.997 596.985 962.274 602.203C965.552 607.42 1004.67 623.875 1004.67 623.875L1013.41 600.397Z" fill="#3B364B"/>
<path d="M1022.8 862.673V577.921L1494.34 327.886V612.638L1022.8 862.673Z" fill="#C1C1CC"/>
<path d="M1320.41 466.348L1342.26 454.71V483.205L1320.41 494.844V466.348Z" fill="#FFCD5E"/>
<path d="M1331.34 643.34L1579.56 511.7V493.238L1331.34 624.678V643.34Z" fill="#C1C1CC"/>
<path d="M1331.34 624.678L1246.12 579.527L1494.34 448.087L1579.56 493.238L1331.34 624.678Z" fill="#FCFEFE"/>
<path d="M1470.75 509.693C1470.75 509.693 1474.68 514.108 1479.7 515.713C1484.73 517.118 1493.47 518.724 1496.53 514.108C1499.59 509.493 1497.18 505.279 1491.5 502.068C1485.82 498.857 1474.02 500.864 1470.75 504.075C1468.56 506.282 1470.75 509.693 1470.75 509.693Z" fill="#D9DAE4"/>
<path d="M1481.02 513.907C1475.99 512.503 1472.06 507.887 1472.06 507.887C1472.06 507.887 1470.75 505.881 1471.18 503.874L1470.96 504.075C1468.78 506.282 1470.96 509.693 1470.96 509.693C1470.96 509.693 1474.9 514.108 1479.92 515.713C1484.95 517.118 1493.69 518.724 1496.75 514.108C1496.97 513.707 1497.18 513.305 1497.4 512.904C1493.91 516.717 1485.82 515.312 1481.02 513.907Z" fill="#ADA4B1"/>
<path d="M1469.87 524.142L1459.82 518.924C1457.85 517.921 1455.23 517.921 1453.05 518.924L1406.5 543.607L1397.54 546.416V549.426C1397.54 550.028 1397.98 550.63 1398.42 550.831L1409.78 556.851C1411.75 557.854 1414.37 557.854 1416.55 556.851L1471.18 527.954C1471.84 527.553 1472.06 526.951 1472.06 526.349V523.339L1469.87 524.142Z" fill="#ADA4B1"/>
<path d="M1398.64 544.811L1453.26 515.914C1455.23 514.911 1457.85 514.911 1460.04 515.914L1471.4 521.934C1472.71 522.536 1472.71 524.342 1471.4 524.944L1416.77 553.841C1414.81 554.844 1412.18 554.844 1410 553.841L1398.64 547.821C1397.32 547.219 1397.32 545.413 1398.64 544.811Z" fill="#D9DAE4"/>
<path d="M1464.19 391.498L1457.42 387.886C1455.67 386.883 1453.26 386.481 1451.3 387.685L1354.5 439.057C1351.22 440.663 1349.25 443.873 1349.25 447.285V518.924C1349.25 520.931 1350.35 522.536 1351.88 523.339L1358.87 527.152L1364.33 520.128L1455.01 472.168C1458.29 470.563 1460.26 467.352 1460.26 463.94V396.716L1464.19 391.498Z" fill="#ADA4B1"/>
<path d="M1392.74 494.844V517.319C1392.74 519.526 1394.05 521.533 1396.23 522.737L1404.76 527.152C1406.72 528.155 1409.13 528.155 1411.09 527.152L1432.51 514.71V517.319C1432.51 519.526 1431.2 521.533 1429.23 522.536L1412.62 531.366C1409.78 532.771 1406.5 532.771 1403.66 531.366L1394.92 526.75C1390.99 524.543 1388.37 520.73 1388.37 516.316V491.633L1392.74 494.844Z" fill="#ADA4B1"/>
<path d="M1431.2 512.904L1422.89 508.489C1420.71 507.285 1419.4 505.279 1419.4 503.071V480.596L1392.74 494.643V517.118C1392.74 519.326 1394.05 521.332 1396.23 522.536L1404.76 526.951C1406.72 527.954 1409.13 527.954 1411.09 526.951L1431.41 516.315C1432.51 515.513 1432.51 513.707 1431.2 512.904Z" fill="#C1C1CC"/>
<path d="M1355.59 450.696V517.118L1466.37 458.322V395.712C1466.37 391.498 1461.57 388.889 1457.63 391.097L1360.84 442.469C1357.56 444.275 1355.59 447.485 1355.59 450.696Z" fill="#4E4864"/>
<path d="M1361.27 451.097V504.275L1458.95 453.104V399.324L1361.27 451.097Z" fill="#FFCD5E"/>
<path d="M1355.59 522.536C1355.59 526.75 1360.4 529.359 1364.33 527.152L1461.13 475.78C1464.41 474.175 1466.37 470.964 1466.37 467.552V455.713L1355.59 514.509V522.536Z" fill="#D9DAE4"/>
<path d="M1382.9 483.606L1373.51 488.623V465.947L1382.9 460.93V483.606Z" fill="#8BD368"/>
<path d="M1397.98 475.579L1388.8 480.596V464.342L1397.98 459.526V475.579Z" fill="#FE768A"/>
<path d="M1413.5 467.352L1404.1 472.369V444.877L1413.5 439.86V467.352Z" fill="#34ACE0"/>
<path d="M1452.39 434.442L1425.3 448.89V446.883L1452.39 432.636V434.442Z" fill="#F7F1E3"/>
<path d="M1447.36 419.793L1425.3 431.432V426.816L1447.36 414.977V419.793Z" fill="#F7F1E3"/>
<path d="M1452.39 423.204L1425.3 437.653V435.846L1452.39 421.398V423.204Z" fill="#F7F1E3"/>
<path d="M1452.39 428.823L1425.3 443.271V441.265L1452.39 426.816V428.823Z" fill="#F7F1E3"/>
<path d="M1452.39 440.061L1425.3 454.308V452.502L1452.39 438.054V440.061Z" fill="#F7F1E3"/>
<path d="M1452.39 445.278L1425.3 459.726V457.92L1452.39 443.472V445.278Z" fill="#F7F1E3"/>
<path d="M1452.39 450.897L1425.3 465.345V463.338L1452.39 449.091V450.897Z" fill="#F7F1E3"/>
<path d="M1507.24 489.024L1467.03 464.944C1467.03 464.944 1459.38 469.76 1456.98 476.984C1454.79 484.208 1455.67 489.024 1455.67 489.024L1494.13 512.101L1507.24 489.024Z" fill="#CFDDF0"/>
<path d="M1467.03 464.743C1467.03 464.743 1464.19 457.72 1457.85 455.512C1451.52 453.305 1446.93 454.71 1442.78 456.917C1438.84 459.325 1437.09 460.128 1437.09 460.128C1437.09 460.128 1425.51 453.907 1423.33 455.512C1421.14 456.917 1424.2 460.529 1428.14 463.74C1432.07 466.95 1439.28 472.569 1439.28 472.569C1439.28 472.569 1432.07 472.77 1431.85 476.583C1431.63 480.195 1450.86 482.803 1459.6 480.797C1468.78 478.79 1467.03 464.743 1467.03 464.743Z" fill="#FFAD91"/>
<path d="M1481.89 428.622C1481.89 428.622 1478.61 460.73 1483.64 468.154C1488.66 475.78 1499.81 477.385 1499.81 477.385L1501.77 490.63L1533.68 480.797C1533.68 480.797 1526.47 436.248 1510.51 428.622C1494.34 420.997 1481.89 428.622 1481.89 428.622Z" fill="#FFAD91"/>
<path d="M1494.34 457.118L1491.5 455.713C1491.5 455.713 1491.94 438.656 1490.19 434.843C1488.44 431.231 1481.02 431.632 1479.49 425.211C1477.96 418.99 1478.17 401.732 1481.23 399.324C1484.29 396.916 1486.48 399.324 1486.48 399.324C1486.48 399.324 1489.54 393.906 1493.03 393.906C1496.53 393.906 1496.53 396.916 1496.53 396.916C1496.53 396.916 1500.68 394.107 1503.52 393.906C1506.58 393.706 1508.55 396.916 1508.55 396.916C1508.55 396.916 1512.7 392.502 1515.76 393.906C1518.82 395.311 1516.85 399.324 1516.85 399.324C1516.85 399.324 1536.3 401.933 1546.35 419.592C1556.4 437.251 1545.04 469.158 1539.36 475.78C1533.68 482.402 1517.07 483.606 1511.39 479.392C1505.71 475.178 1499.59 462.536 1499.59 462.536C1499.59 462.536 1505.27 463.74 1505.27 455.312C1505.27 446.883 1500.68 441.666 1497.4 442.268C1493.91 443.271 1494.34 457.118 1494.34 457.118Z" fill="#4D352C"/>
<path d="M1487.57 739.461C1486.26 738.859 1484.51 739.06 1482.76 739.863C1478.39 742.07 1474.9 748.291 1474.9 753.709C1474.9 756.719 1475.99 758.726 1477.96 759.529L1490.19 766.151L1500.46 746.084L1487.57 739.461Z" fill="#0A202A"/>
<path d="M1503.08 752.104C1503.08 757.522 1499.59 763.542 1495.22 765.95C1490.85 768.157 1487.35 765.749 1487.35 760.532C1487.35 755.114 1490.85 749.094 1495.22 746.686C1499.37 744.478 1503.08 746.886 1503.08 752.104Z" fill="#4E4864"/>
<path d="M1498.06 754.712C1498.06 756.719 1496.75 759.127 1495 759.93C1493.25 760.733 1491.94 759.93 1491.94 757.923C1491.94 755.917 1493.25 753.508 1495 752.706C1496.75 751.702 1498.06 752.706 1498.06 754.712Z" fill="#3B364B"/>
<path d="M1573.23 739.461C1574.54 738.859 1576.28 739.06 1578.03 739.863C1582.4 742.07 1585.9 748.291 1585.9 753.709C1585.9 756.719 1584.81 758.726 1582.84 759.529L1570.6 766.151L1560.33 746.084L1573.23 739.461Z" fill="#3B364B"/>
<path d="M1557.93 752.104C1557.93 757.522 1561.43 763.542 1565.8 765.95C1570.17 768.157 1573.66 765.749 1573.66 760.532C1573.66 755.114 1570.17 749.094 1565.8 746.686C1561.43 744.478 1557.93 746.886 1557.93 752.104Z" fill="#4E4864"/>
<path d="M1562.74 754.712C1562.74 756.719 1564.05 759.127 1565.8 759.93C1567.54 760.733 1568.86 759.93 1568.86 757.923C1568.86 755.917 1567.54 753.508 1565.8 752.706C1564.27 751.702 1562.74 752.706 1562.74 754.712Z" fill="#3B364B"/>
<path d="M1501.55 700.331C1502.87 699.929 1504.18 699.929 1505.93 700.732C1509.86 702.739 1512.92 708.358 1512.92 712.973C1512.92 715.582 1511.82 717.588 1510.3 718.19L1499.37 724.01L1490.19 706.15L1501.55 700.331Z" fill="#3B364B"/>
<path d="M1487.79 711.568C1487.79 716.384 1490.85 721.802 1494.78 723.809C1498.71 725.816 1501.77 723.609 1501.77 718.993C1501.77 714.378 1498.71 708.759 1494.78 706.752C1491.07 704.545 1487.79 706.752 1487.79 711.568Z" fill="#4E4864"/>
<path d="M1492.16 713.776C1492.16 715.582 1493.25 717.588 1494.78 718.391C1496.31 719.194 1497.4 718.391 1497.4 716.585C1497.4 714.779 1496.31 712.772 1494.78 711.97C1493.25 711.167 1492.16 711.97 1492.16 713.776Z" fill="#3B364B"/>
<path d="M1561.64 700.331C1560.33 699.929 1559.02 699.929 1557.27 700.732C1553.34 702.739 1550.28 708.358 1550.28 712.973C1550.28 715.582 1551.37 717.588 1552.9 718.19L1563.83 724.01L1573.01 706.15L1561.64 700.331Z" fill="#3B364B"/>
<path d="M1575.41 711.568C1575.41 716.384 1572.35 721.802 1568.42 723.809C1564.49 725.816 1561.43 723.609 1561.43 718.993C1561.43 714.378 1564.49 708.759 1568.42 706.752C1572.13 704.545 1575.41 706.752 1575.41 711.568Z" fill="#4E4864"/>
<path d="M1571.04 713.776C1571.04 715.582 1569.95 717.588 1568.42 718.391C1566.89 719.194 1565.8 718.391 1565.8 716.585C1565.8 714.779 1566.89 712.772 1568.42 711.97C1569.73 711.167 1571.04 711.97 1571.04 713.776Z" fill="#3B364B"/>
<path d="M1488.01 700.331L1489.54 706.351L1515.32 721.602L1519.04 714.378L1488.01 700.331Z" fill="#3B364B"/>
<path d="M1531.27 712.17L1524.06 702.739L1495 694.511L1488.01 700.331L1519.25 714.98L1531.27 712.17Z" fill="#4E4864"/>
<path d="M1574.54 700.331L1573.01 706.351L1547.22 721.602L1543.51 714.378L1574.54 700.331Z" fill="#3B364B"/>
<path d="M1531.27 712.17L1538.26 702.739L1567.54 694.511L1574.54 700.331L1543.29 714.98L1531.27 712.17Z" fill="#4E4864"/>
<path d="M1475.99 743.074L1479.27 749.495L1488.88 755.917L1531.27 730.431V718.391L1475.99 743.074Z" fill="#3B364B"/>
<path d="M1520.57 712.17L1475.99 743.074L1487.13 750.498L1531.27 723.007V712.17H1520.57Z" fill="#4E4864"/>
<path d="M1586.34 743.074L1583.06 749.495L1573.44 755.917L1531.27 730.431V718.391L1586.34 743.074Z" fill="#3B364B"/>
<path d="M1541.98 712.17L1586.34 743.074L1575.19 750.498L1531.27 723.007V712.17H1541.98Z" fill="#4E4864"/>
<path d="M1531.27 726.017C1524.5 726.017 1519.04 721 1519.04 714.779V662.605H1543.29V714.779C1543.29 721.2 1537.83 726.017 1531.27 726.017Z" fill="#4E4864"/>
<path d="M1475.55 696.518C1475.55 696.518 1483.2 702.939 1480.58 712.572C1477.96 722.204 1469.87 721.2 1460.69 725.415C1451.52 729.629 1433.6 743.475 1425.3 741.268C1416.99 739.06 1425.08 727.421 1434.04 718.993C1442.99 710.565 1449.55 704.545 1449.55 704.545L1475.55 696.518Z" fill="#11384A"/>
<path d="M1580.87 629.494L1538.92 607.219C1533.89 604.611 1527.78 604.611 1522.75 607.219L1485.17 627.086L1467.03 626.684V642.136C1467.03 645.347 1468.78 648.357 1472.06 650.163L1528.65 680.264C1533.68 682.872 1539.79 682.872 1544.82 680.264L1595.51 653.374C1598.79 651.568 1600.54 648.357 1600.54 645.347V629.895L1580.87 629.494Z" fill="#B33939"/>
<path d="M1472.06 618.658L1522.75 591.768C1527.78 589.159 1533.89 589.159 1538.92 591.768L1595.51 621.868C1602.29 625.48 1602.29 634.31 1595.51 637.922L1544.82 664.812C1539.79 667.421 1533.68 667.421 1528.65 664.812L1472.06 634.711C1465.28 631.3 1465.28 622.27 1472.06 618.658Z" fill="#FF5252"/>
<path d="M1518.16 576.316L1531.05 594.778C1531.05 594.778 1486.91 587.152 1468.56 581.534C1451.52 576.316 1462.22 614.444 1464.85 623.674C1467.25 632.905 1502.87 645.347 1526.68 648.959C1550.5 652.571 1570.39 643.942 1580.44 637.521C1590.49 631.099 1593.98 611.835 1588.52 602.403C1582.62 592.972 1518.16 576.316 1518.16 576.316Z" fill="#3B364B"/>
<path d="M1478.39 634.511L1460.91 624.878L1477.52 698.525C1477.52 698.525 1474.9 709.562 1460.91 712.17C1454.36 713.374 1445.84 708.157 1445.84 708.157C1445.84 708.157 1418.52 598.992 1423.77 586.55C1429.01 574.109 1454.79 575.313 1474.02 583.942C1493.25 592.57 1519.25 601.199 1519.25 601.199L1478.39 634.511Z" fill="#3B364B"/>
<path d="M1455.67 543.607C1455.67 543.607 1450.86 535.179 1447.8 535.58C1444.74 535.981 1446.27 539.593 1446.27 539.593C1446.27 539.593 1440.15 535.379 1437.53 534.777C1434.69 534.175 1427.26 536.383 1424.2 541.801C1421.14 547.219 1428.35 552.838 1434.25 555.848C1440.15 558.858 1445.4 558.657 1445.4 558.657L1455.67 543.607Z" fill="#FFB142"/>
<path d="M1481.23 503.473L1499.15 489.225L1539.14 477.586C1539.14 477.586 1561.21 482.603 1569.73 501.667C1578.25 520.931 1588.3 602.403 1588.3 602.403C1588.3 602.403 1564.49 621.467 1534.77 622.47C1510.73 623.273 1502.21 607.821 1503.74 596.383C1505.05 584.744 1487.57 514.108 1481.23 503.473Z" fill="#D7E4F6"/>
<path d="M1476.86 547.62C1476.86 547.62 1473.37 511.901 1479.27 505.479C1488.01 496.048 1502.65 505.279 1501.77 528.155C1501.34 540.396 1501.99 573.507 1492.16 574.51C1482.54 575.714 1443.87 560.864 1442.99 558.858C1442.34 556.851 1446.71 543.205 1455.67 543.406C1464.85 543.406 1476.86 547.62 1476.86 547.62Z" fill="#CFDDF0"/>
<path d="M1610.81 529.158L1595.73 521.132C1595.3 520.73 1594.64 520.53 1594.2 520.329C1591.58 519.326 1588.52 519.326 1585.68 520.73L1531.71 549.426C1523.19 554.042 1517.94 562.269 1517.94 571.299V586.952C1517.94 590.764 1520.35 593.574 1523.62 594.778L1537.61 602.203L1561.21 578.724L1585.9 565.681C1594.42 561.065 1599.67 552.838 1599.67 543.807V540.396L1610.81 529.158Z" fill="#FF5252"/>
<path d="M1547.44 602.805L1601.41 574.109C1609.94 569.493 1615.18 561.266 1615.18 552.236V536.583C1615.18 529.961 1607.53 525.948 1601.2 529.158L1547.44 557.854C1538.92 562.47 1533.68 570.697 1533.68 579.727V595.38C1533.46 602.002 1541.32 606.015 1547.44 602.805Z" fill="#B33939"/>
<path d="M1592.67 653.976V554.242C1592.67 549.627 1590.05 545.413 1585.68 543.205L1571.91 550.43V665.815C1575.63 667.822 1580 667.822 1583.71 665.815L1585.9 664.611C1590.27 662.605 1592.67 658.39 1592.67 653.976Z" fill="#4E4864"/>
<path d="M1542.85 478.589L1540.45 474.175L1497.4 483.004L1494.34 493.038L1542.85 478.589Z" fill="#CFDDF0"/>
<path d="M998.11 327.886L1022.8 315.645L1494.34 565.48L1469.43 577.921L998.11 327.886Z" fill="#FCFEFE"/>
<path d="M1469.43 862.673L1494.34 850.433V565.48L1469.43 577.921V862.673Z" fill="#AAA69D"/>
<path d="M1469.43 862.673L1494.34 850.433V565.48L1469.43 577.921V862.673Z" fill="#C1C1CC"/>
<path d="M1494.34 327.886L1469.43 315.645L998.11 565.48L1022.8 577.921L1494.34 327.886Z" fill="#FCFEFE"/>
<path d="M1246.12 459.325V744.278L1469.43 862.673V577.921L1246.12 459.325Z" fill="#E3E6EC"/>
<path opacity="0.2" d="M1331.34 624.678L1469 794.245V862.673L1246.12 744.278L1331.34 624.678Z" fill="url(#paint3_linear)"/>
<path d="M1022.8 698.324V577.921L998.11 565.48V686.083L912.891 640.932V805.282L998.11 850.433L1022.8 862.673L1108.02 907.824V743.475L1022.8 698.324Z" fill="#D9DAE4"/>
<path d="M1108.02 743.475L1331.34 624.678V643.34L1181.22 723.408V869.095L1108.02 907.824V743.475Z" fill="#C1C1CC"/>
<path d="M1022.8 698.324L1246.12 579.527L1331.34 624.678L1108.02 743.475L1022.8 698.324Z" fill="#FCFEFE"/>
<path d="M1213.56 643.139C1213.56 643.139 1217.49 647.554 1222.52 649.16C1227.54 650.564 1236.28 652.17 1239.34 647.554C1242.4 642.939 1240 638.725 1234.32 635.514C1228.64 632.303 1216.84 634.31 1213.56 637.521C1211.37 639.929 1213.56 643.139 1213.56 643.139Z" fill="#D9DAE4"/>
<path d="M1223.61 647.554C1218.59 646.15 1214.65 641.534 1214.65 641.534C1214.65 641.534 1213.34 639.527 1213.78 637.521L1213.56 637.721C1211.37 639.929 1213.56 643.34 1213.56 643.34C1213.56 643.34 1217.49 647.755 1222.52 649.36C1227.54 650.765 1236.28 652.37 1239.34 647.755C1239.56 647.354 1239.78 646.952 1240 646.551C1236.72 650.364 1228.64 648.959 1223.61 647.554Z" fill="#ADA4B1"/>
<path d="M1212.69 657.788L1202.63 652.571C1200.67 651.568 1198.05 651.568 1195.86 652.571L1149.32 677.254L1140.36 680.063V683.073C1140.36 683.675 1140.8 684.277 1141.23 684.478L1152.6 690.498C1154.56 691.501 1157.18 691.501 1159.37 690.498L1214 661.601C1214.65 661.2 1214.87 660.598 1214.87 659.996V656.986L1212.69 657.788Z" fill="#ADA4B1"/>
<path d="M1141.45 678.458L1196.08 649.561C1198.04 648.558 1200.67 648.558 1202.85 649.561L1214.21 655.581C1215.52 656.183 1215.52 657.989 1214.21 658.591L1159.59 687.488C1157.62 688.491 1155 688.491 1152.81 687.488L1141.45 681.468C1140.14 680.866 1140.14 679.06 1141.45 678.458Z" fill="#D9DAE4"/>
<path d="M1118.29 763.743L1172.26 735.247V769.161L1118.29 797.857V763.743Z" fill="#D9DAE4"/>
<path d="M1154.56 758.124L1138.39 766.552V759.729L1154.56 751.1V758.124Z" fill="#C1C1CC"/>
<path d="M1118.29 809.696L1172.26 781V815.114L1118.29 843.61V809.696Z" fill="#D9DAE4"/>
<path d="M1154.56 804.278L1138.39 812.706V805.884L1154.56 797.255V804.278Z" fill="#C1C1CC"/>
<path d="M1118.29 856.252L1172.48 827.556V861.67L1118.29 890.366V856.252Z" fill="#D9DAE4"/>
<path d="M1154.56 850.433L1138.39 859.061V852.038L1154.56 843.409V850.433Z" fill="#C1C1CC"/>
<path d="M1206.79 525.145L1200.01 521.533C1198.26 520.53 1195.86 520.128 1193.89 521.332L1097.09 572.704C1093.82 574.309 1091.85 577.52 1091.85 580.932V652.571C1091.85 654.578 1092.94 656.183 1094.47 656.986L1101.46 660.799L1106.93 653.775L1197.61 605.815C1200.89 604.209 1202.85 600.999 1202.85 597.587V530.362L1206.79 525.145Z" fill="#ADA4B1"/>
<path d="M1135.55 628.491V650.966C1135.55 653.173 1136.86 655.18 1139.05 656.384L1147.57 660.799C1149.54 661.802 1151.94 661.802 1153.91 660.799L1175.32 648.357V650.966C1175.32 653.173 1174.01 655.18 1172.04 656.183L1155.44 665.013C1152.6 666.417 1149.32 666.417 1146.48 665.013L1137.74 660.397C1133.8 658.19 1131.18 654.377 1131.18 649.962V625.28L1135.55 628.491Z" fill="#ADA4B1"/>
<path d="M1174.01 646.551L1165.71 642.136C1163.52 640.932 1162.21 638.925 1162.21 636.718V614.243L1135.55 628.29V650.765C1135.55 652.972 1136.86 654.979 1139.05 656.183L1147.57 660.598C1149.54 661.601 1151.94 661.601 1153.91 660.598L1174.23 649.962C1175.32 649.16 1175.32 647.354 1174.01 646.551Z" fill="#C1C1CC"/>
<path d="M1098.41 584.343V650.765L1209.19 591.968V529.359C1209.19 525.145 1204.38 522.536 1200.45 524.744L1103.43 576.115C1100.37 577.921 1098.41 580.932 1098.41 584.343Z" fill="#4E4864"/>
<path d="M1104.09 584.744V637.922L1201.76 586.55V532.971L1104.09 584.744Z" fill="#968BFF"/>
<path d="M1098.41 655.982C1098.41 660.197 1103.21 662.805 1107.15 660.598L1203.95 609.226C1207.22 607.621 1209.19 604.41 1209.19 600.999V589.159L1098.41 647.956V655.982V655.982Z" fill="#D9DAE4"/>
<path d="M1160.46 574.51C1160.46 574.51 1154.13 590.965 1145.6 593.975C1141.45 595.58 1134.9 591.166 1129.43 594.577C1123.32 598.39 1121.35 604.009 1117.2 607.219C1111.73 611.634 1109.33 608.624 1109.33 608.624V622.872L1160.24 595.982V574.51H1160.46Z" fill="url(#paint4_linear)"/>
<path d="M1160.46 585.547C1153.47 588.356 1150.41 571.099 1145.82 577.921C1141.23 584.744 1137.96 603.607 1130.74 607.821C1123.53 612.036 1120.26 600.597 1117.63 599.193C1115.01 597.788 1109.55 602.403 1109.55 602.403V623.072L1160.46 596.183V585.547V585.547Z" fill="url(#paint5_linear)"/>
<path d="M1109.55 602.604C1109.55 602.604 1115.01 597.788 1117.63 599.393C1120.26 600.798 1123.53 612.035 1130.74 608.022C1137.96 604.009 1141.23 584.945 1145.82 578.122C1150.41 571.299 1153.47 588.557 1160.46 585.748" stroke="#CC8E35" stroke-width="0.3665" stroke-miterlimit="10" stroke-linecap="round" stroke-linejoin="round"/>
<path d="M1160.46 600.397C1160.24 600.397 1160.03 600.196 1160.03 599.995V566.483C1160.03 566.283 1160.24 566.082 1160.46 566.082C1160.68 566.082 1160.9 566.283 1160.9 566.483V599.995C1160.9 600.196 1160.68 600.397 1160.46 600.397Z" fill="#F7F1E3"/>
<path d="M1109.55 627.487C1109.33 627.487 1109.11 627.286 1109.11 627.086V593.574C1109.11 593.373 1109.33 593.172 1109.55 593.172C1109.77 593.172 1109.99 593.373 1109.99 593.574V627.086C1110.21 627.286 1109.99 627.487 1109.55 627.487Z" fill="#F7F1E3"/>
<path d="M1111.95 610.229C1111.73 610.229 1111.52 610.229 1111.52 610.229C1109.99 610.029 1109.33 609.226 1109.33 609.025C1109.11 608.825 1109.33 608.624 1109.55 608.423C1109.77 608.223 1109.99 608.423 1110.21 608.624C1110.21 608.624 1110.64 609.226 1111.73 609.427C1112.83 609.627 1114.58 609.226 1117.2 607.219C1118.95 605.815 1120.26 604.009 1121.79 602.203C1123.75 599.594 1125.94 596.785 1129.43 594.577C1132.71 592.37 1136.43 593.172 1139.7 593.774C1141.89 594.176 1144.07 594.577 1145.6 593.975C1153.69 590.965 1160.03 574.911 1160.03 574.711C1160.03 574.51 1160.46 574.309 1160.68 574.51C1160.9 574.51 1161.12 574.911 1160.9 575.112C1160.68 575.714 1154.34 591.768 1145.82 594.978C1144.07 595.58 1141.89 595.179 1139.49 594.778C1136.21 594.176 1132.93 593.574 1129.87 595.58C1126.37 597.788 1124.41 600.397 1122.44 603.005C1120.91 605.012 1119.6 606.818 1117.85 608.223C1115.67 609.427 1113.7 610.229 1111.95 610.229Z" fill="#F7F1E3"/>
<path d="M1123.97 619.862C1123.75 619.862 1123.53 619.661 1123.53 619.46V585.948C1123.53 585.748 1123.75 585.547 1123.97 585.547C1124.19 585.547 1124.41 585.748 1124.41 585.948V619.46C1124.41 619.661 1124.19 619.862 1123.97 619.862Z" fill="#F7F1E3"/>
<path d="M1146.26 608.022C1146.04 608.022 1145.82 607.821 1145.82 607.621V574.109C1145.82 573.908 1146.04 573.707 1146.26 573.707C1146.48 573.707 1146.7 573.908 1146.7 574.109V607.621C1146.7 607.821 1146.48 608.022 1146.26 608.022Z" fill="#F7F1E3"/>
<path d="M1118.29 592.57L1115.23 594.376V591.768L1118.29 590.162V592.57Z" fill="#F7F1E3"/>
<path d="M1121.13 593.774L1115.23 596.985V595.982L1121.13 592.771V593.774Z" fill="#F7F1E3"/>
<path d="M1136.64 587.152L1133.37 588.958V586.35L1136.64 584.744V587.152Z" fill="#F7F1E3"/>
<path d="M1139.27 588.356L1133.37 591.366V590.363L1139.27 587.353V588.356Z" fill="#F7F1E3"/>
<path d="M1154.56 569.694L1151.28 571.299V568.891L1154.56 567.085V569.694Z" fill="#F7F1E3"/>
<path d="M1157.18 570.697L1151.28 573.908V572.905L1157.18 569.694V570.697Z" fill="#F7F1E3"/>
<path d="M1191.05 551.834L1168.98 563.473V558.858L1191.05 547.219V551.834Z" fill="#F7F1E3"/>
<path d="M1196.08 555.246L1168.98 569.694V567.888L1196.08 553.44V555.246Z" fill="#F7F1E3"/>
<path d="M1196.08 560.864L1168.98 575.313V573.306L1196.08 559.058V560.864Z" fill="#F7F1E3"/>
<path d="M1196.08 566.483L1168.98 580.932V579.125L1196.08 564.677V566.483Z" fill="#F7F1E3"/>
<path d="M1196.08 572.102L1168.98 586.55V584.544L1196.08 570.296V572.102Z" fill="#F7F1E3"/>
<path d="M1196.08 577.52L1168.98 591.768V589.962L1196.08 575.513V577.52Z" fill="#F7F1E3"/>
<path d="M1196.08 582.938L1168.98 597.387V595.58L1196.08 581.132V582.938Z" fill="#F7F1E3"/>
<path d="M1248.96 644.344C1248.96 644.344 1244.81 636.116 1236.94 634.109C1229.07 632.103 1218.8 633.106 1218.37 634.711C1217.93 636.317 1221.21 637.521 1224.05 637.922C1226.67 638.123 1229.73 638.725 1230.6 640.531C1231.48 642.337 1224.27 641.735 1223.17 642.939C1222.08 643.942 1222.08 644.946 1226.01 646.551C1230.17 648.156 1236.94 651.568 1240.22 651.367C1243.28 651.166 1248.96 644.344 1248.96 644.344Z" fill="#FFAD91"/>
<path d="M1275.18 646.752C1275.18 646.752 1300.53 602.203 1309.27 604.811C1318.01 607.42 1323.25 619.26 1318.44 630.497C1313.64 641.935 1293.97 670.029 1284.36 671.033C1274.74 672.237 1237.81 658.39 1237.16 656.384C1236.5 654.377 1240.87 640.731 1249.83 640.932C1258.57 641.133 1275.18 646.752 1275.18 646.752Z" fill="#8F81FF"/>
<path d="M1256.17 813.71C1256.17 813.71 1262.94 816.92 1263.16 823.944C1263.38 831.168 1257.48 831.971 1252.02 836.586C1246.55 841.202 1236.94 854.045 1230.82 854.045C1224.49 854.045 1227.76 844.412 1232.13 836.787C1236.5 829.161 1239.78 823.944 1239.78 823.944L1256.17 813.71Z" fill="#E3E6EC"/>
<path d="M1226.67 870.901C1225.36 870.299 1223.61 870.5 1221.86 871.302C1217.49 873.51 1214 879.73 1214 885.149C1214 888.159 1215.09 890.165 1217.06 890.968L1229.29 897.59L1239.56 877.523L1226.67 870.901Z" fill="#3B364B"/>
<path d="M1242.18 883.543C1242.18 888.961 1238.69 894.981 1234.32 897.389C1229.95 899.597 1226.45 897.189 1226.45 891.971C1226.45 886.553 1229.95 880.533 1234.32 878.125C1238.47 875.717 1242.18 878.326 1242.18 883.543Z" fill="#4E4864"/>
<path d="M1237.16 886.152C1237.16 888.159 1235.85 890.567 1234.1 891.369C1232.35 892.172 1231.04 891.369 1231.04 889.363C1231.04 887.356 1232.35 884.948 1234.1 884.145C1235.85 883.142 1237.16 884.145 1237.16 886.152Z" fill="#3B364B"/>
<path d="M1312.33 870.901C1313.64 870.299 1315.39 870.5 1317.13 871.302C1321.5 873.51 1325 879.73 1325 885.149C1325 888.159 1323.91 890.165 1321.94 890.968L1309.7 897.59L1299.43 877.523L1312.33 870.901Z" fill="#3B364B"/>
<path d="M1297.03 883.543C1297.03 888.961 1300.53 894.981 1304.9 897.389C1309.27 899.597 1312.76 897.189 1312.76 891.971C1312.76 886.553 1309.27 880.533 1304.9 878.125C1300.53 875.717 1297.03 878.326 1297.03 883.543Z" fill="#4E4864"/>
<path d="M1301.84 886.152C1301.84 888.159 1303.15 890.567 1304.9 891.369C1306.64 892.172 1307.96 891.369 1307.96 889.363C1307.96 887.356 1306.64 884.948 1304.9 884.145C1303.15 883.142 1301.84 884.145 1301.84 886.152Z" fill="#3B364B"/>
<path d="M1240.65 831.569C1241.97 831.168 1243.28 831.168 1245.03 831.971C1248.96 833.978 1252.02 839.596 1252.02 844.212C1252.02 846.82 1250.92 848.827 1249.4 849.429L1238.47 855.249L1229.29 837.389L1240.65 831.569Z" fill="#3B364B"/>
<path d="M1226.89 842.807C1226.89 847.623 1229.95 853.041 1233.88 855.048C1237.81 857.055 1240.87 854.847 1240.87 850.232C1240.87 845.416 1237.81 839.998 1233.88 837.991C1229.95 835.984 1226.89 838.192 1226.89 842.807Z" fill="#4E4864"/>
<path d="M1231.26 845.215C1231.26 847.021 1232.35 849.028 1233.88 849.83C1235.41 850.633 1236.5 849.83 1236.5 848.024C1236.5 846.218 1235.41 844.212 1233.88 843.409C1232.35 842.606 1231.26 843.409 1231.26 845.215Z" fill="#3B364B"/>
<path d="M1300.75 831.569C1299.43 831.168 1298.12 831.168 1296.37 831.971C1292.44 833.977 1289.38 839.596 1289.38 844.212C1289.38 846.82 1290.48 848.827 1292 849.429L1302.93 855.249L1312.11 837.389L1300.75 831.569Z" fill="#3B364B"/>
<path d="M1314.29 842.807C1314.29 847.623 1311.23 853.041 1307.3 855.048C1303.37 857.055 1300.31 854.847 1300.31 850.232C1300.31 845.416 1303.37 839.998 1307.3 837.991C1311.23 835.984 1314.29 838.192 1314.29 842.807Z" fill="#4E4864"/>
<path d="M1310.14 845.215C1310.14 847.021 1309.05 849.028 1307.52 849.83C1305.99 850.633 1304.9 849.83 1304.9 848.024C1304.9 846.218 1305.99 844.212 1307.52 843.409C1308.83 842.606 1310.14 843.409 1310.14 845.215Z" fill="#3B364B"/>
<path d="M1227.11 831.77L1228.64 837.589L1254.42 853.041L1258.14 845.616L1227.11 831.77Z" fill="#3B364B"/>
<path d="M1270.37 843.61L1263.16 834.178L1234.1 825.75L1227.11 831.77L1258.14 846.419L1270.37 843.61Z" fill="#4E4864"/>
<path d="M1313.64 831.77L1312.11 837.589L1286.1 853.041L1282.39 845.616L1313.64 831.77Z" fill="#3B364B"/>
<path d="M1270.15 843.61L1277.36 834.178L1306.64 825.75L1313.64 831.77L1282.39 846.419L1270.15 843.61Z" fill="#4E4864"/>
<path d="M1215.09 874.513L1218.37 880.934L1227.98 887.356L1270.15 861.871V849.83L1215.09 874.513Z" fill="#3B364B"/>
<path d="M1259.67 843.61L1215.09 874.513L1226.23 881.938L1270.15 854.245V843.61H1259.67Z" fill="#4E4864"/>
<path d="M1325.44 874.513L1322.16 880.934L1312.54 887.356L1270.15 861.871V849.83L1325.44 874.513Z" fill="#3B364B"/>
<path d="M1280.86 843.61L1325.44 874.513L1314.29 881.938L1270.15 854.245V843.61H1280.86Z" fill="#4E4864"/>
<path d="M1270.15 857.456C1263.38 857.456 1257.92 852.439 1257.92 846.218V794.044H1282.17V846.218C1282.39 852.439 1276.93 857.456 1270.15 857.456Z" fill="#4E4864"/>
<path d="M1240.22 704.946C1240.22 704.946 1227.76 701.535 1216.18 704.946C1204.6 708.358 1203.95 719.996 1208.1 734.445C1212.25 748.893 1240.22 825.549 1240.22 825.549C1240.22 825.549 1251.8 824.546 1255.73 820.131C1259.67 815.716 1248.96 792.238 1247.87 779.596C1246.77 766.753 1240.22 704.946 1240.22 704.946Z" fill="#E69C83"/>
<path d="M1238.03 826.954C1238.03 826.954 1244.81 830.165 1245.03 837.188C1245.24 844.412 1239.34 845.215 1233.88 849.83C1228.42 854.446 1218.8 867.289 1212.69 867.289C1206.57 867.289 1209.63 857.657 1214 850.031C1218.37 842.406 1221.64 837.188 1221.64 837.188L1238.03 826.954Z" fill="#E3E6EC"/>
<path d="M1221.64 716.786C1221.64 716.786 1209.19 713.374 1197.61 716.786C1186.03 720.197 1185.37 731.836 1189.52 746.284C1193.68 760.733 1221.64 837.389 1221.64 837.389C1221.64 837.389 1233.23 836.386 1237.16 831.971C1241.09 827.556 1230.39 804.077 1229.29 791.435C1228.2 778.592 1221.64 716.786 1221.64 716.786Z" fill="#FFAD91"/>
<path d="M1319.97 760.933L1278.02 738.659C1272.99 736.05 1266.88 736.05 1261.85 738.659L1224.27 758.525L1206.13 758.124V773.576C1206.13 776.786 1207.88 779.796 1211.16 781.602L1267.75 811.703C1272.78 814.312 1278.89 814.312 1283.92 811.703L1334.61 784.813C1337.89 783.007 1339.64 779.796 1339.64 776.786V761.335L1319.97 760.933Z" fill="#B33939"/>
<path d="M1211.16 750.097L1261.85 723.207C1266.88 720.598 1272.99 720.598 1278.02 723.207L1334.61 753.308C1341.39 756.92 1341.39 765.749 1334.61 769.361L1283.92 796.251C1278.89 798.86 1272.78 798.86 1267.75 796.251L1211.16 766.151C1204.38 762.739 1204.38 753.709 1211.16 750.097Z" fill="#FF5252"/>
<path d="M1257.04 707.756L1240.44 704.745C1240.44 704.745 1233.66 708.358 1217.93 716.585C1202.42 724.813 1200.89 745.682 1203.29 754.913C1205.69 764.144 1241.31 776.586 1265.13 780.198C1288.95 783.81 1308.83 775.181 1318.88 768.759C1328.93 762.338 1332.43 743.074 1326.97 733.642C1321.72 724.411 1257.04 707.756 1257.04 707.756Z" fill="#8F81FF"/>
<path d="M1313.42 613.44C1313.42 613.44 1329.15 622.47 1328.5 633.106C1327.84 643.942 1328.5 680.063 1328.5 694.511C1328.5 708.96 1331.55 738.057 1325 743.475C1318.44 748.893 1285.45 760.933 1263.38 751.301C1241.31 741.669 1241.09 729.629 1241.75 721.2C1242.4 712.772 1253.33 712.371 1254.2 698.926C1254.86 685.682 1247.65 681.869 1248.52 668.625C1249.4 655.38 1243.28 646.35 1254.2 636.116C1265.35 626.082 1313.42 613.44 1313.42 613.44Z" fill="#9D96FF"/>
<path d="M1194.77 675.046C1194.77 675.046 1189.96 666.618 1186.9 667.019C1183.84 667.421 1185.37 671.033 1185.37 671.033C1185.37 671.033 1179.25 666.819 1176.63 666.217C1173.79 665.615 1166.36 667.822 1163.3 673.24C1160.24 678.658 1167.45 684.277 1173.35 687.287C1179.25 690.297 1184.5 690.096 1184.5 690.096L1194.77 675.046Z" fill="#FFAD91"/>
<path d="M1220.33 680.264C1220.33 680.264 1245.68 635.715 1254.42 638.323C1263.16 640.932 1268.41 652.772 1263.6 664.009C1258.79 675.447 1239.13 703.541 1229.51 704.545C1219.9 705.749 1182.97 691.903 1182.31 689.896C1181.66 687.889 1186.03 674.243 1194.99 674.444C1203.95 674.845 1220.33 680.264 1220.33 680.264Z" fill="#8F81FF"/>
<path d="M1251.14 564.878C1251.14 564.878 1246.77 600.397 1254.42 605.815C1262.07 611.433 1268.84 613.44 1268.84 613.44C1268.84 613.44 1264.91 564.878 1251.14 564.878Z" fill="#FFAD91"/>
<path d="M1260.1 535.981C1260.1 535.981 1265.57 527.754 1281.08 530.563C1296.59 533.373 1315.6 546.617 1318.66 565.079C1321.72 583.54 1315.6 597.387 1321.5 612.236C1327.4 627.086 1332.65 631.501 1326.53 645.949C1320.63 660.397 1292.66 674.444 1281.52 668.625C1270.15 662.805 1265.78 654.578 1262.72 640.129C1259.67 625.681 1263.38 602.403 1262.07 593.975C1260.54 585.547 1254.42 569.895 1254.42 569.895C1254.42 569.895 1243.71 570.296 1243.93 556.851C1244.37 543.205 1252.24 536.383 1260.1 535.981Z" fill="#4D352C"/>
<path d="M1349.91 660.598L1334.83 652.571C1334.4 652.17 1333.74 651.969 1333.3 651.768C1330.68 650.765 1327.62 650.765 1324.78 652.17L1270.81 680.866C1262.29 685.481 1257.04 693.709 1257.04 702.739V718.391C1257.04 722.204 1259.45 725.013 1262.72 726.217L1276.71 733.642L1300.31 710.164L1325 697.12C1333.52 692.505 1338.77 684.277 1338.77 675.247V671.835L1349.91 660.598Z" fill="#FF5252"/>
<path d="M1286.54 734.244L1340.51 705.548C1349.04 700.933 1354.28 692.705 1354.28 683.675V668.023C1354.28 661.401 1346.63 657.387 1340.3 660.598L1286.32 689.294C1277.8 693.909 1272.56 702.137 1272.56 711.167V726.819C1272.56 733.241 1280.42 737.455 1286.54 734.244Z" fill="#B33939"/>
<path d="M1331.77 785.415V685.682C1331.77 681.066 1329.15 676.852 1324.78 674.645L1311.02 681.869V797.255C1314.73 799.261 1319.1 799.261 1322.81 797.255L1325 796.051C1329.37 793.843 1331.77 789.83 1331.77 785.415Z" fill="#4E4864"/>
<path d="M1040.5 600.397L1062.35 588.958V617.253L1040.5 628.892V600.397Z" fill="#FFCD5E"/>
<path d="M1056.23 625.882L1078.08 614.243V642.738L1056.23 654.377V625.882Z" fill="#968BFF"/>
<path d="M1215.53 532.771L1237.38 521.132V549.627L1215.53 561.266V532.771Z" fill="#FE768A"/>
<path d="M1062.35 695.314L1099.94 675.448L1145.82 699.729L1108.24 719.595L1062.35 695.314Z" fill="#FDFCF9"/>
<path d="M1073.28 694.913L1100.15 680.665L1102.34 681.869L1075.46 696.117L1073.28 694.913Z" fill="#84817A"/>
<path d="M1079.18 698.324L1101.68 686.484L1103.87 687.688L1081.36 699.528L1079.18 698.324Z" fill="#84817A"/>
<path d="M1084.86 701.133L1107.36 689.294L1109.55 690.498L1087.04 702.337L1084.86 701.133Z" fill="#84817A"/>
<path d="M1090.54 704.143L1113.05 692.304L1115.23 693.508L1092.72 705.347L1090.54 704.143Z" fill="#84817A"/>
<path d="M1096.22 707.153L1118.73 695.314L1120.91 696.518L1098.41 708.358L1096.22 707.153Z" fill="#84817A"/>
<path d="M1101.9 710.164L1124.41 698.324L1126.37 699.528L1104.09 711.368L1101.9 710.164Z" fill="#84817A"/>
<path d="M1107.36 713.174L1129.87 701.334L1132.06 702.538L1109.55 714.378L1107.36 713.174Z" fill="#84817A"/>
<path d="M1369.14 718.993H1387.93V887.757H1408.91" stroke="#C1C1CC" stroke-width="1.5" stroke-miterlimit="10" stroke-linecap="round" stroke-linejoin="round"/>
<defs>
<linearGradient id="paint0_linear" x1="1178.36" y1="829.674" x2="1557.89" y2="1059.96" gradientUnits="userSpaceOnUse">
<stop/>
<stop offset="1" stop-opacity="0"/>
</linearGradient>
<linearGradient id="paint1_linear" x1="1440.3" y1="699.925" x2="1819.83" y2="930.208" gradientUnits="userSpaceOnUse">
<stop/>
<stop offset="1" stop-opacity="0"/>
</linearGradient>
<linearGradient id="paint2_linear" x1="1235.14" y1="630.471" x2="1496.59" y2="923.95" gradientUnits="userSpaceOnUse">
<stop/>
<stop offset="1" stop-opacity="0.5"/>
</linearGradient>
<linearGradient id="paint3_linear" x1="1294.33" y1="933.761" x2="1392.85" y2="692.816" gradientUnits="userSpaceOnUse">
<stop/>
<stop offset="1" stop-opacity="0.1"/>
</linearGradient>
<linearGradient id="paint4_linear" x1="1135.08" y1="605.977" x2="1126.13" y2="589.107" gradientUnits="userSpaceOnUse">
<stop stop-color="#FE768A" stop-opacity="0"/>
<stop offset="1" stop-color="#FE768A"/>
</linearGradient>
<linearGradient id="paint5_linear" x1="1135.08" y1="614.21" x2="1124.09" y2="593.486" gradientUnits="userSpaceOnUse">
<stop stop-color="#FFCD5E" stop-opacity="0"/>
<stop offset="1" stop-color="#FFCD5E"/>
</linearGradient>
</defs>
</svg>
