<svg width="1920" height="1080" viewBox="0 0 1920 1080" fill="none" xmlns="http://www.w3.org/2000/svg">
<rect width="1920" height="1080" fill="white"/>
<path d="M771 0H1920V1080H1190.99C1100.82 1080 1022.29 1018.49 1000.69 930.951L771 0Z" fill="#FFBE00"/>
<g style="mix-blend-mode:multiply">
<path d="M1261.57 360.035V604.291L981.564 600.086L1047.84 360.035H1261.57Z" fill="#EAEAEA"/>
<path d="M1354.42 678.476H1642.5C1647.8 678.476 1652.09 674.186 1652.09 668.887V501.34H1354.42C1349.12 501.34 1344.84 505.63 1344.84 510.929V668.887C1344.84 674.186 1349.12 678.476 1354.42 678.476Z" fill="#B2B6BB"/>
<path d="M1643.68 678.476H1687.58C1692.88 678.476 1697.17 674.186 1697.17 668.888V510.845C1697.17 505.546 1692.88 501.256 1687.58 501.256H1643.68C1638.38 501.256 1634.09 505.546 1634.09 510.845V668.888C1634.09 674.186 1638.38 678.476 1643.68 678.476Z" fill="#868A91"/>
<path d="M1350.64 913.479H1209V645.589C1209 640.29 1213.29 636 1218.59 636H1341.05C1346.35 636 1350.64 640.29 1350.64 645.589V913.479Z" fill="#868A91"/>
<path d="M1240.62 913.479H1177.54V645.589C1177.54 640.29 1181.83 636 1187.13 636H1231.03C1236.33 636 1240.62 640.29 1240.62 645.589V913.479Z" fill="#B2B6BB"/>
<path d="M1240.09 791.459V728.376H1558.78V791.459H1240.09Z" fill="#B2B6BB"/>
<path opacity="0.2" d="M1543.7 791.429V728.347H1552.61V791.429H1543.7Z" fill="black"/>
<path d="M1203.28 872.266L1200.25 876.976C1196.3 883.2 1190.24 887.91 1183.26 890.181L1144.99 903.723C1141.54 904.816 1141.96 909.863 1145.58 909.863H1150.37C1150.96 910.704 1151.97 911.208 1153.06 911.208C1154.07 911.208 1155.25 910.704 1156.01 910.031C1156.09 909.947 1156.18 909.947 1156.26 909.863H1156.93C1157.02 909.947 1157.19 909.947 1157.27 910.115C1157.86 910.788 1158.78 911.293 1159.79 911.293C1160.72 911.293 1161.81 910.872 1162.57 910.283C1162.91 909.947 1163.49 910.031 1163.75 910.367C1164.25 910.956 1164.92 911.293 1165.76 911.293C1166.52 911.293 1167.45 910.956 1168.12 910.452C1168.46 910.199 1168.96 910.283 1169.21 910.536C1169.72 910.956 1170.31 911.293 1171.06 911.293C1172.07 911.293 1172.91 910.704 1173.33 909.947H1173.67L1221.03 909.19C1225.57 909.106 1228.93 907.676 1230.87 904.143L1240.62 886.648L1203.28 872.266Z" fill="#FC9D9D"/>
<path opacity="0.15" d="M1240.62 886.564L1203.45 872.181L1225.4 886.817C1226.74 887.742 1227.17 889.508 1226.41 890.854L1221.19 900.442C1219.43 903.554 1216.57 905.068 1212.7 905.405C1211.86 905.489 1211.02 905.405 1210.26 905.237C1205.04 904.059 1199.66 903.554 1194.28 903.807C1186.12 898.171 1180.99 890.938 1180.99 890.938L1174.01 892.704L1165.76 908.096L1173.84 908.181L1168.46 910.115C1168.71 910.031 1169.05 910.115 1169.3 910.367C1169.8 910.788 1170.39 911.124 1171.15 911.124C1172.16 911.124 1173 910.536 1173.42 909.779H1173.76L1221.11 909.022C1225.65 908.938 1229.02 907.508 1230.95 903.975L1240.62 886.564Z" fill="black"/>
<path d="M1411.2 665.439L1428.02 549.535C1429.79 537.592 1438.62 527.919 1450.31 525.143L1495.31 514.462L1540.64 514.882L1582.53 524.891C1597.42 528.424 1607.09 542.807 1604.82 557.946L1599.94 590.076L1591.7 607.908C1591.28 608.917 1591.03 609.926 1590.77 610.936L1583.12 652.738C1581.77 660.14 1575.3 665.439 1567.81 665.439H1411.2Z" fill="#00B77E"/>
<path d="M1437.27 548.778C1437.86 548.778 1438.45 548.358 1438.53 547.685L1439.12 543.648C1439.21 542.975 1438.79 542.302 1438.03 542.218C1437.36 542.134 1436.68 542.554 1436.6 543.311L1436.01 547.348C1435.93 548.021 1436.35 548.694 1437.1 548.778C1437.1 548.778 1437.19 548.778 1437.27 548.778Z" fill="white"/>
<path d="M1485.97 594.871C1486.64 594.871 1487.15 594.366 1487.23 593.693L1487.65 589.572C1487.74 588.899 1487.23 588.226 1486.48 588.226C1485.8 588.142 1485.13 588.647 1485.13 589.404L1484.71 593.525C1484.63 594.198 1485.13 594.871 1485.89 594.871H1485.97Z" fill="white"/>
<path d="M1553.85 547.601C1554.52 547.601 1555.03 547.096 1555.11 546.423L1555.53 542.302C1555.62 541.629 1555.11 540.956 1554.35 540.956C1553.68 540.872 1553.01 541.377 1553.01 542.134L1552.59 546.255C1552.5 546.928 1553.01 547.601 1553.76 547.601C1553.76 547.517 1553.85 547.601 1553.85 547.601Z" fill="white"/>
<path d="M1590.94 539.19C1591.45 538.853 1591.61 538.096 1591.36 537.508L1589.34 533.891C1589.01 533.302 1588.25 533.05 1587.66 533.386C1587.07 533.723 1586.82 534.48 1587.16 535.068L1589.17 538.685C1589.51 539.274 1590.27 539.526 1590.86 539.19C1590.94 539.274 1590.94 539.274 1590.94 539.19Z" fill="white"/>
<path d="M1525.34 604.123C1525.59 604.123 1525.92 604.039 1526.09 603.87C1526.6 603.45 1526.68 602.609 1526.26 602.104L1523.65 598.908C1523.23 598.403 1522.39 598.319 1521.89 598.74C1521.38 599.16 1521.3 600.001 1521.72 600.506L1524.33 603.702C1524.66 603.955 1525 604.123 1525.34 604.123Z" fill="white"/>
<path d="M1466.79 530.863C1467.05 530.863 1467.38 530.779 1467.64 530.526C1468.14 530.106 1468.22 529.265 1467.8 528.76L1465.36 525.816C1464.94 525.312 1464.1 525.228 1463.6 525.648C1463.09 526.069 1463.01 526.91 1463.43 527.414L1465.87 530.358C1466.12 530.695 1466.46 530.863 1466.79 530.863Z" fill="white"/>
<path d="M1524.83 566.441C1525.25 566.441 1525.67 566.189 1525.92 565.853L1527.94 562.572C1528.28 561.984 1528.11 561.227 1527.52 560.806C1526.93 560.47 1526.18 560.638 1525.76 561.227L1523.74 564.507C1523.4 565.096 1523.57 565.853 1524.16 566.273C1524.41 566.357 1524.66 566.441 1524.83 566.441Z" fill="white"/>
<path d="M1570.59 573.002C1570.67 573.002 1570.75 573.002 1570.84 573.002L1574.54 572.077C1575.21 571.909 1575.63 571.236 1575.46 570.563C1575.3 569.89 1574.62 569.469 1573.95 569.638L1570.25 570.563C1569.58 570.731 1569.16 571.404 1569.32 572.077C1569.49 572.666 1570.08 573.002 1570.59 573.002Z" fill="white"/>
<path d="M1458.89 617.244C1459.14 617.244 1459.48 617.16 1459.73 616.908C1460.23 616.487 1460.32 615.646 1459.9 615.141L1457.46 612.197C1457.04 611.693 1456.2 611.609 1455.69 612.029C1455.19 612.45 1455.1 613.291 1455.52 613.795L1457.96 616.739C1458.13 617.16 1458.55 617.244 1458.89 617.244Z" fill="white"/>
<path d="M1466.79 568.292C1466.88 568.292 1467.05 568.292 1467.13 568.208L1471.25 566.946C1471.93 566.778 1472.26 566.021 1472.09 565.348C1471.93 564.675 1471.17 564.339 1470.5 564.507L1466.37 565.769C1465.7 565.937 1465.36 566.694 1465.53 567.367C1465.7 567.955 1466.21 568.292 1466.79 568.292Z" fill="white"/>
<path d="M1435 598.235C1435.09 598.151 1435.17 598.067 1435.25 597.983L1437.69 594.366C1438.11 593.777 1437.95 593.02 1437.36 592.6C1436.77 592.179 1436.01 592.347 1435.59 592.936L1433.15 596.553C1432.73 597.142 1432.9 597.899 1433.49 598.319C1433.99 598.656 1434.58 598.572 1435 598.235Z" fill="white"/>
<path d="M1241.13 800.688C1241.38 800.688 1241.63 800.52 1241.63 800.267V687.308C1241.63 687.055 1241.38 686.887 1241.13 686.887C1240.88 686.887 1240.62 687.055 1240.62 687.308V800.267C1240.62 800.52 1240.88 800.688 1241.13 800.688Z" fill="#868A91"/>
<path d="M1493.79 545.498C1493.88 545.498 1494.05 545.498 1494.13 545.414L1498.25 544.152C1498.92 543.984 1499.26 543.227 1499.09 542.554C1498.92 541.881 1498.17 541.545 1497.49 541.713L1493.37 542.975C1492.7 543.143 1492.36 543.9 1492.53 544.573C1492.78 545.162 1493.29 545.498 1493.79 545.498Z" fill="white"/>
<path d="M1497.33 629.188C1497.41 629.188 1497.58 629.188 1497.66 629.103L1501.78 627.842C1502.46 627.674 1502.79 626.917 1502.63 626.244C1502.46 625.571 1501.7 625.234 1501.03 625.403L1496.91 626.664C1496.23 626.832 1495.9 627.589 1496.07 628.262C1496.32 628.851 1496.82 629.188 1497.33 629.188Z" fill="white"/>
<path opacity="0.2" d="M1551.24 626.244L1557.89 560.89C1557.97 560.049 1556.79 559.797 1556.54 560.638L1535.85 628.515L1551.24 626.244Z" fill="black"/>
<path opacity="0.2" d="M1457.96 652.486L1457.88 652.402L1457.71 652.57L1457.96 652.486Z" fill="black"/>
<path d="M1427.68 656.439C1428.52 657.449 1430.04 657.701 1431.13 656.86L1446.02 645.925L1427.09 654.589C1427.01 655.262 1427.26 655.935 1427.68 656.439Z" fill="#868A91"/>
<path d="M1203.36 872.266L1240.62 886.648L1330.12 728.353H1486.31V665.439H1306.82C1295.72 665.439 1285.71 672.168 1281.5 682.429L1203.36 872.266Z" fill="#3F4249"/>
<path opacity="0.2" d="M1222.62 879.667L1240.62 886.648L1330.12 728.353H1486.31V665.439H1337.77C1326.67 665.439 1316.66 672.168 1312.45 682.429L1222.62 879.667Z" fill="black"/>
<path d="M1297.4 872.266L1334.74 886.648L1424.15 728.353H1580.34V665.439H1400.85C1389.75 665.439 1379.74 672.168 1375.54 682.429L1297.4 872.266Z" fill="#3F4249"/>
<path opacity="0.2" d="M1400.01 714.98C1406.32 702.7 1413.3 699.083 1427.09 699.083H1534.34L1530.72 665.439H1552.67V728.353H1543.76H1424.24L1334.74 886.648L1318 880.172L1400.01 714.98Z" fill="black"/>
<path d="M1297.4 872.266L1294.37 876.976C1290.42 883.2 1284.36 887.91 1277.38 890.181L1239.11 903.723C1235.66 904.816 1236.08 909.863 1239.7 909.863H1244.49C1245.08 910.704 1246.09 911.208 1247.18 911.208C1248.19 911.208 1249.37 910.704 1250.13 910.031C1250.21 909.947 1250.3 909.947 1250.38 909.863H1251.05C1251.14 909.947 1251.3 909.947 1251.39 910.115C1251.98 910.788 1252.9 911.293 1253.91 911.293C1254.84 911.293 1255.93 910.872 1256.69 910.283C1257.02 909.947 1257.61 910.031 1257.87 910.367C1258.37 910.956 1259.04 911.293 1259.88 911.293C1260.64 911.293 1261.57 910.956 1262.24 910.452C1262.58 910.199 1263.08 910.283 1263.33 910.536C1263.84 910.956 1264.43 911.293 1265.18 911.293C1266.19 911.293 1267.03 910.704 1267.45 909.947H1267.79L1315.14 909.19C1319.69 909.106 1323.05 907.676 1324.99 904.143L1334.74 886.648L1297.4 872.266Z" fill="#FC9D9D"/>
<path opacity="0.15" d="M1322.55 881.938L1297.4 872.266L1317.84 890.433L1313.8 897.667C1311.86 901.199 1308.5 902.629 1303.96 902.713L1256.6 903.47H1256.27C1255.85 904.312 1254.92 904.816 1254 904.816C1253.32 904.816 1252.65 904.564 1252.15 904.059C1251.81 903.807 1251.39 903.723 1251.05 903.975C1250.38 904.48 1249.45 904.816 1248.7 904.816C1247.86 904.816 1247.18 904.48 1246.68 903.891C1246.34 903.555 1245.84 903.554 1245.5 903.807C1244.74 904.48 1243.65 904.816 1242.73 904.816C1241.72 904.816 1240.79 904.396 1240.2 903.639C1240.12 903.554 1240.03 903.47 1239.87 903.386H1239.78L1239.02 903.639C1238.77 903.723 1238.6 903.807 1238.44 903.891C1238.35 903.975 1238.18 904.059 1238.1 904.143C1235.74 905.825 1236.42 909.863 1239.61 909.863H1244.41C1245 910.704 1246.01 911.208 1247.1 911.208C1248.11 911.208 1249.29 910.704 1250.04 910.031C1250.13 909.947 1250.21 909.947 1250.3 909.863H1250.97C1251.05 909.947 1251.22 909.947 1251.3 910.115C1251.89 910.788 1252.82 911.293 1253.83 911.293C1254.75 911.293 1255.85 910.872 1256.6 910.283C1256.94 909.947 1257.53 910.031 1257.78 910.367C1258.29 910.956 1258.96 911.293 1259.8 911.293C1260.56 911.293 1261.48 910.956 1262.15 910.452C1262.49 910.199 1263 910.283 1263.25 910.536C1263.75 910.956 1264.34 911.293 1265.1 911.293C1266.11 911.293 1266.95 910.704 1267.37 909.947H1267.71L1315.06 909.19C1319.6 909.106 1322.97 907.676 1324.9 904.143L1334.66 886.648L1322.55 881.938Z" fill="black"/>
<path opacity="0.15" d="M1275.02 891.022C1275.02 891.022 1282.43 904.059 1296.3 908.769H1282.26L1275.02 891.022Z" fill="black"/>
<path d="M1728.38 913.479H1596.32C1591.03 913.479 1586.74 909.19 1586.74 903.891V645.589C1586.74 640.29 1591.03 636 1596.32 636H1718.79C1724.09 636 1728.38 640.29 1728.38 645.589V913.479Z" fill="#868A91"/>
<path opacity="0.4" d="M1798.61 497.387H1808.95V537.928V908.096H1806.01V501.509H1798.61V497.387Z" fill="black"/>
<path d="M1824.43 497.387H1783.22C1779.43 497.387 1776.32 494.275 1776.32 490.49V469.042H1831.24V490.49C1831.24 494.275 1828.22 497.387 1824.43 497.387Z" fill="#61656D"/>
<path d="M1808.99 908.046H1798.65V497.335H1808.99V908.046Z" fill="#61656D"/>
<path d="M1798.61 497.387H1808.95V898.508H1806.09V501.256H1798.61V497.387Z" fill="#21252B"/>
<path d="M1824.35 490.49V485.023H1831.24V490.49C1831.24 494.275 1828.13 497.387 1824.35 497.387H1817.45C1821.32 497.387 1824.35 494.275 1824.35 490.49Z" fill="#21252B"/>
<path d="M1859.17 913.059C1861.1 913.059 1861.78 910.367 1860.01 909.526C1843.69 901.62 1824.43 896.994 1803.82 896.994C1783.22 896.994 1763.96 901.536 1747.64 909.526C1745.87 910.367 1746.46 913.059 1748.48 913.059H1859.17Z" fill="#61656D"/>
<path d="M1797.43 897.162C1799.53 897.078 1801.64 896.994 1803.74 896.994C1824.35 896.994 1843.61 901.536 1859.93 909.526C1861.69 910.367 1861.1 913.059 1859.08 913.059H1840.33C1835.36 906.33 1817.03 898.424 1797.43 897.162Z" fill="#21252B"/>
<path d="M987.031 913.9H1897.27C1897.52 913.9 1897.69 913.732 1897.69 913.479C1897.69 913.227 1897.52 913.059 1897.27 913.059H987.031C986.779 913.059 986.611 913.227 986.611 913.479C986.611 913.732 986.779 913.9 987.031 913.9Z" fill="#B2B6BB"/>
<path d="M1760.17 628.935C1760.42 628.935 1760.59 628.767 1760.59 628.515V485.528C1760.59 485.275 1760.42 485.107 1760.17 485.107C1759.92 485.107 1759.75 485.275 1759.75 485.528V628.515C1759.75 628.767 1760 628.935 1760.17 628.935Z" fill="#21252B"/>
<path d="M1598.68 637.094H1693.22C1693.47 637.094 1693.64 636.842 1693.64 636.505C1693.64 636.169 1693.47 635.916 1693.22 635.916H1598.6C1598.34 635.916 1598.17 636.169 1598.17 636.505C1598.17 636.842 1598.43 637.094 1598.68 637.094Z" fill="#B2B6BB"/>
<path opacity="0.2" d="M1192.51 365.334L1101 598.992H1072.15L1165.26 365.334H1192.51Z" fill="white"/>
<path opacity="0.2" d="M1152.31 365.334L1060.71 598.992H1051.12L1144.23 365.334H1152.31Z" fill="white"/>
<path d="M981.9 598.992H1114.96V365.334H1046.41L1049.36 354.737H1266.95V609.59H979.041L981.9 598.992ZM1256.27 365.334H1125.56V598.992H1256.27V365.334Z" fill="white"/>
<path d="M1631.23 636.085H1652.93C1656.29 636.085 1658.99 633.393 1658.99 630.029V594.366H1625.09V630.029C1625.17 633.393 1627.87 636.085 1631.23 636.085Z" fill="#21252B"/>
<path d="M1619.88 623.889H1625.17V621.281H1619.88C1618.53 621.281 1617.44 620.188 1617.44 618.842V604.291C1617.44 602.945 1618.53 601.852 1619.88 601.852H1625.17V599.244H1619.88C1617.1 599.244 1614.91 601.515 1614.91 604.207V618.758C1614.83 621.618 1617.1 623.889 1619.88 623.889Z" fill="#21252B"/>
<path opacity="0.6" d="M1622.82 601.852V599.244H1625.17V594.282H1632.58V629.356C1632.58 632.384 1635.01 634.823 1638.04 634.823H1656.8C1655.79 635.664 1654.44 636.169 1653.01 636.169H1631.31C1627.95 636.169 1625.26 633.477 1625.26 630.113V623.973H1622.9V621.365H1625.26V601.936H1622.82V601.852Z" fill="black"/>
<path d="M1647.46 591.759C1647.72 591.759 1647.88 591.59 1647.88 591.338C1647.88 588.142 1650.49 585.45 1653.77 585.45H1656.63C1659.15 585.45 1661.17 583.432 1661.17 580.908C1661.17 578.385 1659.15 576.366 1656.63 576.366H1640.48C1638.46 576.366 1636.78 574.684 1636.78 572.666C1636.78 570.647 1638.46 568.965 1640.48 568.965H1644.35C1646.96 568.965 1648.98 566.862 1648.98 564.339C1648.98 564.086 1648.81 563.918 1648.56 563.918C1648.3 563.918 1648.14 564.086 1648.14 564.339C1648.14 566.441 1646.45 568.124 1644.35 568.124H1640.48C1637.96 568.124 1635.94 570.142 1635.94 572.666C1635.94 575.189 1637.96 577.208 1640.48 577.208H1656.63C1658.65 577.208 1660.33 578.89 1660.33 580.908C1660.33 582.927 1658.65 584.609 1656.63 584.609H1653.77C1650.07 584.609 1647.04 587.637 1647.04 591.338C1647.04 591.59 1647.21 591.759 1647.46 591.759Z" fill="white"/>
<path d="M1638.13 594.366C1638.38 594.366 1638.55 594.198 1638.55 593.945V592.936C1638.55 592.179 1639.14 591.59 1639.89 591.59C1641.15 591.59 1642.08 590.581 1642.08 589.404V587.637C1642.08 586.376 1641.07 585.45 1639.89 585.45H1637.2C1633.58 585.45 1630.56 582.507 1630.56 578.806V575.525C1630.56 575.273 1630.39 575.105 1630.14 575.105C1629.88 575.105 1629.72 575.273 1629.72 575.525V578.722C1629.72 582.843 1633.08 586.207 1637.2 586.207H1639.89C1640.65 586.207 1641.24 586.796 1641.24 587.553V589.319C1641.24 590.076 1640.65 590.665 1639.89 590.665C1638.63 590.665 1637.71 591.674 1637.71 592.852V593.861C1637.71 594.114 1637.87 594.366 1638.13 594.366Z" fill="white"/>
<path opacity="0.6" d="M1502.29 608.497C1501.36 608.497 1500.61 607.744 1500.61 606.814C1500.61 605.886 1501.36 605.132 1502.29 605.132C1503.22 605.132 1503.97 605.886 1503.97 606.814C1503.97 607.744 1503.22 608.497 1502.29 608.497Z" fill="black"/>
<path opacity="0.6" d="M1432.14 578.301C1431.21 578.301 1430.46 577.548 1430.46 576.619C1430.46 575.69 1431.21 574.937 1432.14 574.937C1433.07 574.937 1433.82 575.69 1433.82 576.619C1433.82 577.548 1433.07 578.301 1432.14 578.301Z" fill="black"/>
<path opacity="0.6" d="M1464.61 546.087C1463.68 546.087 1462.93 545.334 1462.93 544.405C1462.93 543.475 1463.68 542.722 1464.61 542.722C1465.54 542.722 1466.29 543.475 1466.29 544.405C1466.29 545.334 1465.54 546.087 1464.61 546.087Z" fill="black"/>
<path opacity="0.6" d="M1500.1 569.133C1499.17 569.133 1498.42 568.38 1498.42 567.451C1498.42 566.522 1499.17 565.769 1500.1 565.769C1501.03 565.769 1501.78 566.522 1501.78 567.451C1501.78 568.38 1501.03 569.133 1500.1 569.133Z" fill="black"/>
<path opacity="0.6" d="M1457.63 630.197C1456.7 630.197 1455.94 629.444 1455.94 628.515C1455.94 627.585 1456.7 626.832 1457.63 626.832C1458.56 626.832 1459.31 627.585 1459.31 628.515C1459.31 629.444 1458.56 630.197 1457.63 630.197Z" fill="black"/>
<path opacity="0.6" d="M1463.85 592.768C1462.92 592.768 1462.17 592.015 1462.17 591.086C1462.17 590.156 1462.92 589.404 1463.85 589.404C1464.78 589.404 1465.53 590.156 1465.53 591.086C1465.53 592.015 1464.78 592.768 1463.85 592.768Z" fill="black"/>
<path opacity="0.6" d="M1529.79 536.414C1528.86 536.414 1528.11 535.661 1528.11 534.732C1528.11 533.803 1528.86 533.05 1529.79 533.05C1530.72 533.05 1531.48 533.803 1531.48 534.732C1531.48 535.661 1530.72 536.414 1529.79 536.414Z" fill="black"/>
<path opacity="0.6" d="M1569.83 531.452C1568.9 531.452 1568.15 530.699 1568.15 529.769C1568.15 528.841 1568.9 528.087 1569.83 528.087C1570.76 528.087 1571.51 528.841 1571.51 529.769C1571.51 530.699 1570.76 531.452 1569.83 531.452Z" fill="black"/>
<path opacity="0.6" d="M1539.05 579.226C1538.12 579.226 1537.36 578.473 1537.36 577.544C1537.36 576.615 1538.12 575.862 1539.05 575.862C1539.97 575.862 1540.73 576.615 1540.73 577.544C1540.73 578.473 1539.97 579.226 1539.05 579.226Z" fill="black"/>
<path opacity="0.6" d="M1537.36 624.057C1536.43 624.057 1535.68 623.304 1535.68 622.375C1535.68 621.446 1536.43 620.692 1537.36 620.692C1538.29 620.692 1539.05 621.446 1539.05 622.375C1539.05 623.304 1538.29 624.057 1537.36 624.057Z" fill="black"/>
<path opacity="0.6" d="M1592.79 561.479C1591.86 561.479 1591.11 560.726 1591.11 559.797C1591.11 558.868 1591.86 558.115 1592.79 558.115C1593.72 558.115 1594.47 558.868 1594.47 559.797C1594.47 560.726 1593.72 561.479 1592.79 561.479Z" fill="black"/>
<path d="M1143.31 913.479H1230.11C1231.37 913.479 1232.46 912.47 1232.46 911.124C1232.46 909.863 1231.45 908.769 1230.11 908.769H1141.04V911.124C1141.04 912.386 1142.05 913.479 1143.31 913.479Z" fill="#00B77E"/>
<path d="M1141.04 908.769C1141.2 903.807 1144.4 899.517 1149.11 897.835L1177.88 887.826C1179.14 887.405 1180.4 888.078 1180.74 889.34C1182 893.545 1185.11 902.545 1191.25 908.769H1230.11C1231.37 908.769 1232.46 909.779 1232.46 911.124C1232.46 912.47 1231.45 913.479 1230.11 913.479H1143.31C1142.05 913.479 1141.04 912.47 1141.04 911.208V908.769Z" fill="#00B77E"/>
<path d="M1141.04 908.769C1141.2 903.807 1144.4 899.517 1149.11 897.835L1177.88 887.826C1179.14 887.405 1180.4 888.078 1180.74 889.34C1182 893.545 1185.11 902.545 1191.25 908.769H1230.11C1231.37 908.769 1232.46 909.779 1232.46 911.124C1232.46 912.47 1231.45 913.479 1230.11 913.479H1143.31C1142.05 913.479 1141.04 912.47 1141.04 911.208V908.769Z" fill="#21252B"/>
<path opacity="0.4" d="M1141.04 908.769C1141.2 904.816 1143.22 901.284 1146.42 899.181C1142.3 902.125 1143.06 905.068 1148.94 904.816C1179.31 903.386 1183.26 903.386 1186.79 903.05C1186.71 902.966 1186.71 902.882 1186.71 902.798C1188.05 904.9 1189.57 907.003 1191.33 908.769H1230.19C1231.45 908.769 1232.55 909.779 1232.55 911.124C1232.55 912.47 1231.54 913.479 1230.19 913.479H1143.39C1142.13 913.479 1141.12 912.47 1141.12 911.209V908.769H1141.04Z" fill="black"/>
<path opacity="0.4" d="M1141.12 908.012H1190.58L1191.33 908.769H1141.12V908.012Z" fill="black"/>
<path d="M1237.09 913.479H1323.89C1325.15 913.479 1326.25 912.47 1326.25 911.124C1326.25 909.863 1325.24 908.769 1323.89 908.769H1234.82V911.124C1234.82 912.386 1235.83 913.479 1237.09 913.479Z" fill="#00B77E"/>
<path d="M1234.82 908.769C1234.99 903.807 1238.18 899.517 1242.89 897.835L1271.66 887.826C1272.92 887.405 1274.18 888.078 1274.52 889.34C1275.78 893.545 1278.89 902.545 1285.03 908.769H1323.89C1325.15 908.769 1326.25 909.779 1326.25 911.124C1326.25 912.47 1325.24 913.479 1323.89 913.479H1237.09C1235.83 913.479 1234.82 912.47 1234.82 911.208V908.769Z" fill="#00B77E"/>
<path d="M1234.82 908.769C1234.99 903.807 1238.18 899.517 1242.89 897.835L1271.66 887.826C1272.92 887.405 1274.18 888.078 1274.52 889.34C1275.78 893.545 1278.89 902.545 1285.03 908.769H1323.89C1325.15 908.769 1326.25 909.779 1326.25 911.124C1326.25 912.47 1325.24 913.479 1323.89 913.479H1237.09C1235.83 913.479 1234.82 912.47 1234.82 911.208V908.769Z" fill="#21252B"/>
<path opacity="0.4" d="M1234.82 908.769C1234.99 904.816 1237.01 901.284 1240.2 899.181C1236.08 902.125 1236.84 905.068 1242.73 904.816C1273.09 903.386 1277.04 903.386 1280.58 903.05C1280.49 902.966 1280.49 902.882 1280.49 902.798C1281.84 904.9 1283.35 907.003 1285.12 908.769H1323.89C1325.15 908.769 1326.25 909.779 1326.25 911.124C1326.25 912.47 1325.24 913.479 1323.89 913.479H1237.09C1235.83 913.479 1234.82 912.47 1234.82 911.209V908.769Z" fill="black"/>
<path opacity="0.4" d="M1234.82 908.012H1284.36L1285.03 908.769H1234.82V908.012Z" fill="black"/>
<path d="M1539.63 322.102C1539.63 302.504 1554.44 286.355 1573.53 284.252V284H1577.74C1598.76 284 1615.84 301.074 1615.84 322.102C1615.84 343.129 1598.76 360.204 1577.74 360.204H1573.53V359.951C1554.44 357.849 1539.63 341.699 1539.63 322.102Z" fill="#B2B6BB"/>
<path d="M1573.53 360.204C1552.49 360.204 1535.43 343.145 1535.43 322.102C1535.43 301.059 1552.49 284 1573.53 284C1594.57 284 1611.63 301.059 1611.63 322.102C1611.63 343.145 1594.57 360.204 1573.53 360.204Z" fill="#868A91"/>
<path d="M1573.53 355.998C1554.81 355.998 1539.63 340.822 1539.63 322.102C1539.63 303.381 1554.81 288.205 1573.53 288.205C1592.25 288.205 1607.43 303.381 1607.43 322.102C1607.43 340.822 1592.25 355.998 1573.53 355.998Z" fill="white"/>
<path d="M1573.53 355.998C1554.81 355.998 1539.63 340.822 1539.63 322.102C1539.63 303.381 1554.81 288.205 1573.53 288.205C1592.25 288.205 1607.43 303.381 1607.43 322.102C1607.43 340.822 1592.25 355.998 1573.53 355.998Z" fill="#868A91"/>
<path opacity="0.9" d="M1573.53 355.998C1554.81 355.998 1539.63 340.822 1539.63 322.102C1539.63 303.381 1554.81 288.205 1573.53 288.205C1592.25 288.205 1607.43 303.381 1607.43 322.102C1607.43 340.822 1592.25 355.998 1573.53 355.998Z" fill="white"/>
<path d="M1573.53 288.205C1574.12 288.205 1574.71 288.205 1575.38 288.29C1557.55 289.215 1543.33 304.018 1543.33 322.102C1543.33 340.186 1557.55 354.989 1575.38 355.914C1574.79 355.914 1574.2 355.998 1573.53 355.998C1554.77 355.998 1539.63 340.858 1539.63 322.102C1539.63 303.345 1554.77 288.205 1573.53 288.205Z" fill="#B2B6BB"/>
<path d="M1573.19 324.709L1584.46 302.336C1584.89 301.495 1584.55 300.401 1583.71 299.981C1582.87 299.56 1581.77 299.897 1581.35 300.738L1571.68 319.999L1558.81 313.691C1557.97 313.27 1556.88 313.607 1556.46 314.532C1556.04 315.373 1556.37 316.466 1557.3 316.887L1573.19 324.709Z" fill="#00B77E"/>
<path d="M1043.3 796.651L1081.91 838.537L1081.65 761.493H1082.66L1082.75 798.837L1115.38 765.614L1116.06 766.287L1082.75 800.267L1083 870.079H1081.99L1081.91 839.967L1042.63 797.323L1043.3 796.651Z" fill="#21252B"/>
<path d="M1111.6 838.453L1112.27 839.126L1095.28 855.107L1092.59 870.163L1091.66 869.994L1102.35 809.772L1103.36 809.94L1095.53 853.509L1111.6 838.453Z" fill="#21252B"/>
<path d="M1099.07 913.479H1075.09C1070.64 913.479 1066.94 909.863 1066.94 905.321V873.611H1107.22V905.321C1107.22 909.779 1103.61 913.479 1099.07 913.479Z" fill="#61656D"/>
<path d="M1082.16 761.577C1068.32 761.577 1057.09 750.355 1057.09 736.512C1057.09 722.669 1068.32 711.447 1082.16 711.447C1096 711.447 1107.22 722.669 1107.22 736.512C1107.22 750.355 1096 761.577 1082.16 761.577Z" fill="#00B77E"/>
<path d="M1104.62 812.295C1094.73 812.295 1086.7 804.274 1086.7 794.38C1086.7 784.486 1094.73 776.464 1104.62 776.464C1114.51 776.464 1122.53 784.486 1122.53 794.38C1122.53 804.274 1114.51 812.295 1104.62 812.295Z" fill="#00B77E"/>
<g opacity="0.3">
<path opacity="0.3" d="M1104.62 812.295C1094.73 812.295 1086.7 804.274 1086.7 794.38C1086.7 784.486 1094.73 776.464 1104.62 776.464C1114.51 776.464 1122.53 784.486 1122.53 794.38C1122.53 804.274 1114.51 812.295 1104.62 812.295Z" fill="white"/>
</g>
<g opacity="0.3">
<path opacity="0.3" d="M1082.16 761.577C1068.32 761.577 1057.09 750.355 1057.09 736.512C1057.09 722.669 1068.32 711.447 1082.16 711.447C1096 711.447 1107.22 722.669 1107.22 736.512C1107.22 750.355 1096 761.577 1082.16 761.577Z" fill="white"/>
</g>
<path d="M1120.6 771.754C1114.7 771.754 1109.92 766.972 1109.92 761.072C1109.92 755.173 1114.7 750.39 1120.6 750.39C1126.49 750.39 1131.28 755.173 1131.28 761.072C1131.28 766.972 1126.49 771.754 1120.6 771.754Z" fill="#00B77E"/>
<path d="M1120.85 843.163C1113.84 843.163 1108.15 837.477 1108.15 830.463C1108.15 823.448 1113.84 817.762 1120.85 817.762C1127.86 817.762 1133.55 823.448 1133.55 830.463C1133.55 837.477 1127.86 843.163 1120.85 843.163Z" fill="#00B77E"/>
<path d="M1052.89 824.155C1043.92 824.155 1036.66 816.887 1036.66 807.921C1036.66 798.956 1043.92 791.688 1052.89 791.688C1061.86 791.688 1069.12 798.956 1069.12 807.921C1069.12 816.887 1061.86 824.155 1052.89 824.155Z" fill="#00B77E"/>
<path d="M1066.09 869.322H1108.07C1109.24 869.322 1110.17 870.247 1110.17 871.424C1110.17 872.602 1109.24 873.527 1108.07 873.527H1066.09C1064.92 873.527 1063.99 872.602 1063.99 871.424C1063.99 870.247 1064.92 869.322 1066.09 869.322Z" fill="#61656D"/>
<path d="M1107.22 736.512C1107.22 722.634 1095.95 711.447 1082.16 711.447V761.661C1096.04 761.577 1107.22 750.39 1107.22 736.512Z" fill="#00B77E"/>
<path d="M1102.01 812.127C1111.68 813.557 1120.68 806.996 1122.36 797.324C1123.96 787.819 1117.74 778.735 1108.32 776.801L1102.01 812.127Z" fill="#00B77E"/>
<path opacity="0.3" d="M1128.17 768.642C1132.37 764.521 1132.46 757.708 1128.25 753.502C1128.25 753.502 1128.17 753.418 1128.08 753.418L1113.11 768.726C1117.23 772.763 1123.96 772.763 1128.17 768.642Z" fill="black"/>
<path opacity="0.3" d="M1111.85 839.378C1116.81 844.425 1124.89 844.425 1129.85 839.463C1134.81 834.584 1134.9 826.594 1130.1 821.631L1111.6 839.042C1111.6 839.21 1111.68 839.294 1111.85 839.378Z" fill="black"/>
<path d="M1067.02 873.611H1103.69C1104.87 873.611 1105.79 872.686 1105.79 871.509C1105.79 870.331 1104.87 869.406 1103.69 869.406H1108.15C1109.33 869.406 1110.25 870.331 1110.25 871.509C1110.25 872.686 1109.33 873.611 1108.15 873.611H1107.31V874.284V905.321C1107.31 909.779 1103.69 913.479 1099.15 913.479H1086.37C1086.2 913.479 1086.11 913.479 1086.11 913.479C1091.83 913.479 1096.71 909.442 1097.8 903.891L1103.61 874.284H1067.1V873.611H1067.02Z" fill="#3F4249"/>
<path opacity="0.3" d="M1041.87 795.978C1041.95 795.894 1042.04 795.894 1042.04 795.81L1063.91 819.781L1063.82 819.865C1057.26 825.921 1046.92 825.5 1040.86 818.94C1034.89 812.295 1035.31 802.034 1041.87 795.978Z" fill="black"/>
<path d="M1044.56 372.147H1256.27V368.278H1045.57L1044.56 372.147Z" fill="white"/>
<path d="M1042.63 378.96H1256.27V375.091H1043.72L1042.63 378.96Z" fill="white"/>
<path d="M1040.78 385.773H1256.27V381.904H1041.87L1040.78 385.773Z" fill="white"/>
<path d="M1038.84 392.586H1256.27V388.717H1039.94L1038.84 392.586Z" fill="white"/>
<path d="M1036.99 399.399H1256.27V395.53H1038.09L1036.99 399.399Z" fill="white"/>
<path d="M1035.14 406.212H1256.27V402.259H1036.24L1035.14 406.212Z" fill="white"/>
<path d="M1251.3 473.92H1251.47V365.419H1252.4V473.92H1252.57C1253.32 473.92 1254 474.509 1254 475.35V490.49C1254 491.247 1253.41 491.92 1252.57 491.92H1251.3C1250.55 491.92 1249.87 491.331 1249.87 490.49V475.35C1249.87 474.509 1250.46 473.92 1251.3 473.92Z" fill="white"/>
<path opacity="0.2" d="M1454.01 560.554L1446.02 639.365L1439.04 646.262L1432.65 642.056L1446.61 566.357C1448.04 560.133 1454.01 559.629 1454.01 560.554Z" fill="black"/>
<path opacity="0.2" d="M1254.16 368.278H1256.27V372.147H1254.16V368.278Z" fill="black"/>
<path opacity="0.2" d="M1254.16 375.091H1256.27V378.96H1254.16V375.091Z" fill="black"/>
<path opacity="0.2" d="M1254.16 381.904H1256.27V385.773H1254.16V381.904Z" fill="black"/>
<path opacity="0.2" d="M1254.16 388.717H1256.27V392.586H1254.16V388.717Z" fill="black"/>
<path opacity="0.2" d="M1254.16 395.446H1256.27V399.315H1254.16V395.446Z" fill="black"/>
<path opacity="0.2" d="M1254.16 402.259H1256.27V406.128H1254.16V402.259Z" fill="black"/>
<path opacity="0.2" d="M1114.96 372.147H1125.56V373.83H1114.96V372.147Z" fill="black"/>
<path opacity="0.2" d="M1114.96 378.96H1125.56V380.642H1114.96V378.96Z" fill="black"/>
<path opacity="0.2" d="M1114.96 385.773H1125.56V387.455H1114.96V385.773Z" fill="black"/>
<path opacity="0.2" d="M1114.96 392.586H1125.56V394.268H1114.96V392.586Z" fill="black"/>
<path opacity="0.2" d="M1114.96 399.399H1125.56V401.081H1114.96V399.399Z" fill="black"/>
<path opacity="0.2" d="M1114.96 406.212H1125.56V407.894H1114.96V406.212Z" fill="black"/>
<path d="M1839.07 369.624H1767.74L1728.04 482.92H1879.61L1839.07 369.624Z" fill="#00B77E"/>
<path d="M1839.07 369.624H1816.52L1832.08 482.92H1879.61L1839.07 369.624Z" fill="#00B77E"/>
<path d="M1839.12 369.65H1767.71V364.519H1839.12V369.65Z" fill="#00B77E"/>
<path d="M1879.56 487.994H1728V482.863H1879.56V487.994Z" fill="#00B77E"/>
<path opacity="0.4" d="M1839.07 369.624H1767.74L1728.04 482.92H1879.61L1839.07 369.624Z" fill="white"/>
<path opacity="0.4" d="M1821.4 369.624H1767.74L1728.04 482.92H1838.48L1821.4 369.624Z" fill="white"/>
<path opacity="0.6" d="M1540.73 514.882C1540.73 514.882 1541.57 518.331 1538.88 520.013C1535.85 521.779 1524.16 529.601 1507.67 524.639C1507.67 524.639 1502.46 523.209 1497.49 519.592C1496.4 518.751 1495.56 517.574 1495.39 516.144C1495.39 515.975 1495.39 515.891 1495.39 515.723V514.546C1495.39 514.546 1495.39 514.546 1490.77 515.639C1490.77 517.069 1491.19 519.76 1493.54 522.116C1494.89 523.461 1514.82 538.853 1540.22 524.639C1540.22 524.639 1545.77 522.452 1545.19 515.975C1540.73 514.882 1540.73 514.882 1540.73 514.882Z" fill="black"/>
<path opacity="0.5" d="M1544.51 339.513C1541.4 334.382 1539.63 328.41 1539.63 322.018C1539.63 303.261 1554.77 288.121 1573.53 288.121C1574.46 288.121 1575.38 288.205 1576.31 288.205L1544.51 339.513Z" fill="white"/>
<path opacity="0.5" d="M1581.44 289.131C1583.12 289.551 1584.72 290.056 1586.23 290.645L1551.16 347.503C1549.81 346.326 1548.55 344.981 1547.37 343.551L1581.44 289.131Z" fill="white"/>
<path d="M1476.97 637.094L1465.03 638.692L1439.54 636.421C1436.85 636.673 1435.67 637.178 1433.66 638.944L1417.93 652.991C1416.92 653.916 1416.83 655.43 1417.67 656.439C1418.52 657.449 1420.03 657.701 1421.12 656.86L1436.01 645.925L1426.34 657.364C1425.24 658.626 1425.75 660.645 1427.35 661.234C1428.27 661.57 1429.2 661.318 1429.87 660.729L1442.82 648.028L1432.98 657.701C1431.8 658.878 1432.23 660.813 1433.74 661.402C1434.5 661.738 1435.34 661.57 1435.93 661.149L1449.72 651.056L1440.38 657.953C1439.29 658.71 1439.29 660.392 1440.38 661.149C1440.97 661.57 1441.73 661.654 1442.32 661.402L1454.85 656.187C1456.03 655.682 1457.46 655.682 1458.64 656.271L1463.43 658.626C1467.3 660.561 1471.67 661.57 1475.96 661.57H1483.78C1494.97 661.57 1476.97 637.094 1476.97 637.094Z" fill="#FC9D9D"/>
<path opacity="0.15" d="M1551.16 627.589L1555.36 627.253C1556.62 627.169 1557.3 625.823 1556.79 624.73L1552.33 615.73L1551.16 627.589Z" fill="black"/>
<path opacity="0.15" d="M1440.38 658.374C1440.47 658.374 1440.55 658.374 1440.64 658.29L1449.22 651.981C1449.38 651.813 1449.47 651.561 1449.3 651.393C1449.13 651.224 1448.88 651.14 1448.71 651.308L1440.13 657.617C1439.96 657.785 1439.88 658.037 1440.05 658.206C1440.13 658.29 1440.3 658.374 1440.38 658.374Z" fill="black"/>
<path opacity="0.15" d="M1433.07 658.121C1433.15 658.121 1433.32 658.121 1433.32 658.037L1442.57 648.953C1442.74 648.785 1442.74 648.533 1442.57 648.365C1442.4 648.196 1442.15 648.196 1441.98 648.365L1432.73 657.449C1432.56 657.617 1432.56 657.869 1432.73 658.037C1432.81 658.121 1432.98 658.121 1433.07 658.121Z" fill="black"/>
<path opacity="0.15" d="M1452.08 654.673C1449.22 656.103 1444.42 658.542 1442.74 659.467C1440.38 660.813 1439.71 659.047 1439.71 659.047C1439.54 659.804 1439.8 660.645 1440.47 661.149C1441.06 661.57 1441.81 661.654 1442.4 661.402L1454.94 656.187C1456.11 655.682 1457.54 655.682 1458.72 656.271L1456.28 654.841C1454.94 654.084 1453.42 654.084 1452.08 654.673Z" fill="black"/>
<path d="M1478.91 638.103L1551.16 627.505L1555.87 581.75L1600.95 584.02L1591.78 642.477C1590.02 653.495 1580.6 661.57 1569.49 661.57H1487.32L1478.91 638.103Z" fill="#00B77E"/>
<path d="M1469.07 638.103L1551.16 627.589L1555.87 581.834L1600.95 584.105L1591.78 642.561C1590.02 653.579 1580.6 661.654 1569.49 661.654H1477.22L1469.07 638.103Z" fill="#00B77E"/>
<path d="M1443.75 648.617L1447.03 646.262L1443.75 648.617Z" fill="#9A73EF"/>
<path opacity="0.6" d="M1573.95 594.45C1573.02 594.45 1572.27 593.697 1572.27 592.768C1572.27 591.839 1573.02 591.086 1573.95 591.086C1574.88 591.086 1575.63 591.839 1575.63 592.768C1575.63 593.697 1574.88 594.45 1573.95 594.45Z" fill="black"/>
<path opacity="0.6" d="M1477.22 637.094L1469.07 638.103L1477.14 661.57H1487.23L1477.22 637.094Z" fill="black"/>
<g opacity="0.2">
<path opacity="0.2" d="M1476.38 636.505C1476.47 636.842 1476.72 637.01 1476.97 637.01H1477.06L1551.24 626.244L1551.41 624.898L1476.89 635.748C1476.55 635.832 1476.3 636.169 1476.38 636.505Z" fill="black"/>
</g>
<path d="M1558.05 606.31C1558.73 606.31 1559.23 605.805 1559.32 605.132L1559.74 601.011C1559.82 600.338 1559.32 599.665 1558.56 599.665C1557.89 599.581 1557.21 600.085 1557.21 600.842L1556.79 604.964C1556.71 605.637 1557.21 606.31 1557.97 606.31C1557.97 606.31 1557.97 606.31 1558.05 606.31Z" fill="white"/>
<path d="M1589.43 620.02C1589.68 620.02 1590.02 619.935 1590.27 619.683C1590.77 619.263 1590.86 618.421 1590.44 617.917L1588 614.973C1587.58 614.468 1586.74 614.384 1586.23 614.805C1585.73 615.225 1585.64 616.066 1586.06 616.571L1588.5 619.515C1588.75 619.851 1589.09 620.02 1589.43 620.02Z" fill="white"/>
<path d="M1552 647.86C1552.08 647.86 1552.25 647.86 1552.33 647.776L1556.46 646.514C1557.13 646.346 1557.47 645.589 1557.3 644.916C1557.13 644.243 1556.37 643.907 1555.7 644.075L1551.58 645.337C1550.9 645.505 1550.57 646.262 1550.74 646.935C1550.9 647.524 1551.41 647.86 1552 647.86Z" fill="white"/>
<path d="M1516.08 649.122C1516.34 649.122 1516.67 649.038 1516.84 648.869C1517.34 648.449 1517.43 647.608 1517.01 647.103L1514.4 643.907C1513.98 643.402 1513.14 643.318 1512.63 643.739C1512.13 644.159 1512.05 645 1512.47 645.505L1515.07 648.701C1515.41 648.953 1515.75 649.122 1516.08 649.122Z" fill="white"/>
<path opacity="0.6" d="M1532.82 639.785C1531.89 639.785 1531.14 639.033 1531.14 638.103C1531.14 637.175 1531.89 636.421 1532.82 636.421C1533.75 636.421 1534.5 637.175 1534.5 638.103C1534.5 639.033 1533.75 639.785 1532.82 639.785Z" fill="black"/>
<path opacity="0.6" d="M1502.29 658.29C1501.36 658.29 1500.61 657.537 1500.61 656.607C1500.61 655.679 1501.36 654.925 1502.29 654.925C1503.22 654.925 1503.97 655.679 1503.97 656.607C1503.97 657.537 1503.22 658.29 1502.29 658.29Z" fill="black"/>
<path opacity="0.6" d="M1568.57 625.739C1567.64 625.739 1566.89 624.986 1566.89 624.057C1566.89 623.128 1567.64 622.375 1568.57 622.375C1569.5 622.375 1570.25 623.128 1570.25 624.057C1570.25 624.986 1569.5 625.739 1568.57 625.739Z" fill="black"/>
<path opacity="0.15" d="M1475.79 657.364L1477.14 661.486H1569.41C1580.51 661.486 1590.02 653.411 1591.7 642.393L1604.9 557.862C1607.17 542.722 1597.5 528.34 1582.61 524.807L1574.79 522.957C1586.74 528.256 1593.97 540.956 1591.95 554.246L1579.75 632.131C1577.99 643.15 1568.57 651.224 1557.47 651.224L1475.79 657.364Z" fill="black"/>
<path opacity="0.15" d="M1467.64 657.449C1469.57 657.449 1471.08 655.682 1470.92 653.748L1469.07 638.103L1477.22 661.57H1476.05C1471.67 661.57 1467.38 660.561 1463.51 658.626L1457.79 655.935C1459.14 656.103 1462.67 657.449 1467.64 657.449Z" fill="black"/>
<path d="M1488.41 660.897H1405.48C1404.81 660.897 1404.22 661.486 1404.22 662.159V664.261C1404.22 664.934 1404.81 665.523 1405.48 665.523H1488.41C1489.08 665.523 1489.67 664.934 1489.67 664.261V662.159C1489.67 661.486 1489.17 660.897 1488.41 660.897Z" fill="#21252B"/>
<path opacity="0.6" d="M1488.41 660.897H1405.48C1404.81 660.897 1404.22 661.486 1404.22 662.159V664.261C1404.22 664.934 1404.81 665.523 1405.48 665.523H1488.41C1489.08 665.523 1489.67 664.934 1489.67 664.261V662.159C1489.67 661.486 1489.17 660.897 1488.41 660.897Z" fill="black"/>
<path d="M1432.48 660.897H1287.89C1287.22 660.897 1286.63 661.486 1286.63 662.159V664.261C1286.63 664.934 1287.22 665.523 1287.89 665.523H1432.48C1433.15 665.523 1433.74 664.934 1433.74 664.261V662.159C1433.66 661.486 1433.15 660.897 1432.48 660.897Z" fill="#21252B"/>
<g opacity="0.6">
<path opacity="0.6" d="M1289.74 661.738H1436.94C1437.19 661.738 1437.36 661.57 1437.36 661.318C1437.36 661.065 1437.19 660.897 1436.94 660.897H1289.74C1289.49 660.897 1289.32 661.065 1289.32 661.318C1289.32 661.57 1289.57 661.738 1289.74 661.738Z" fill="black"/>
</g>
<path d="M1432.81 660.897H1411.03C1409.35 660.897 1407.92 659.719 1407.58 658.037L1389.33 562.068C1388.91 559.881 1390.59 557.946 1392.78 557.946H1414.56C1416.24 557.946 1417.67 559.124 1418.01 560.806L1436.26 656.776C1436.6 658.963 1435 660.897 1432.81 660.897Z" fill="#21252B"/>
<path opacity="0.6" d="M1432.81 660.897H1411.03C1409.35 660.897 1407.92 659.719 1407.58 658.037L1389.33 562.068C1388.91 559.881 1390.59 557.946 1392.78 557.946H1414.56C1416.24 557.946 1417.67 559.124 1418.01 560.806L1436.26 656.776C1436.6 658.963 1435 660.897 1432.81 660.897Z" fill="black"/>
<path d="M1429.7 660.897H1289.83C1288.15 660.897 1286.72 659.719 1286.38 658.037L1268.13 562.068C1267.71 559.881 1269.39 557.946 1271.58 557.946H1411.37C1413.05 557.946 1414.48 559.124 1414.81 560.806L1433.07 656.776C1433.49 658.963 1431.89 660.897 1429.7 660.897Z" fill="#21252B"/>
<path opacity="0.6" d="M1349.8 606.73C1350.64 608.665 1349.71 610.347 1347.78 610.347C1347.69 610.347 1347.53 610.347 1347.44 610.347C1349.71 612.87 1353.16 614.637 1356.19 614.552C1360.31 614.468 1362.25 611.104 1360.4 606.982C1358.63 602.861 1353.75 599.665 1349.63 599.749C1347.02 599.833 1345.26 601.179 1344.84 603.282C1346.77 603.366 1348.96 604.796 1349.8 606.73Z" fill="black"/>
<path d="M1491.61 464.837C1491.61 464.837 1530.13 436.576 1533.91 467.36L1535.01 475.434L1540.73 514.883V514.966L1540.81 515.807C1540.98 516.985 1540.64 518.079 1539.97 518.92V519.003L1539.89 519.088C1539.63 519.425 1539.3 519.76 1538.88 520.013C1535.76 521.947 1533.75 522.957 1531.22 523.882C1519.78 528.256 1506.58 526.573 1496.49 518.835C1495.73 517.91 1495.31 516.732 1495.39 515.471L1496.07 494.948C1495.39 492.845 1494.97 490.49 1494.72 487.883C1493.46 475.771 1491.61 464.837 1491.61 464.837Z" fill="#FC9D9D"/>
<path d="M1487.23 467.023C1479.66 467.023 1473.52 460.886 1473.52 453.314C1473.52 445.742 1479.66 439.604 1487.23 439.604C1494.81 439.604 1500.94 445.742 1500.94 453.314C1500.94 460.886 1494.81 467.023 1487.23 467.023Z" fill="#21252B"/>
<path d="M1485.47 443.389C1485.47 443.389 1475.54 504.537 1506.75 506.303C1533.75 507.901 1533.58 466.098 1533.58 466.098L1530.3 439.183L1485.47 443.389Z" fill="#FC9D9D"/>
<path d="M1487.49 447.005H1514.91C1518.35 447.005 1521.13 449.781 1521.13 453.229C1521.13 456.678 1523.91 459.454 1527.35 459.454C1528.28 459.454 1529.04 460.211 1529.04 461.136V467.192C1529.04 467.949 1529.62 468.622 1530.47 468.622C1531.14 468.622 1531.73 468.117 1531.81 467.444L1532.65 461.64L1533.75 459.622L1540.48 463.154C1540.48 463.154 1549.73 446.332 1543.67 432.118C1540.22 423.959 1531.73 421.688 1527.86 421.436C1526.6 421.352 1525.42 420.679 1524.66 419.669C1522.9 417.062 1518.69 412.688 1510.11 413.698C1503.55 414.455 1500.1 418.24 1498.5 421.352C1497.49 423.118 1495.31 423.959 1493.37 423.286C1490.51 422.277 1486.39 421.772 1481.93 424.968C1473.19 431.024 1477.9 446.248 1487.49 447.005Z" fill="#21252B"/>
<path opacity="0.15" d="M1535.34 477.453C1535.34 477.453 1532.82 477.874 1531.39 476.864L1536.19 483.257L1535.34 477.453Z" fill="black"/>
<path d="M1532.65 461.556C1532.65 461.556 1534.25 455.753 1540.31 457.94C1547.2 460.379 1547.04 475.771 1535.68 477.453C1529.71 478.378 1530.72 474.846 1531.39 470.136C1532.65 461.556 1532.65 461.556 1532.65 461.556Z" fill="#FC9D9D"/>
<path opacity="0.3" d="M1540.9 461.809C1539.72 461.136 1538.54 460.883 1537.53 461.22C1536.52 461.556 1535.68 462.313 1535.09 463.491C1534.5 464.752 1534.17 466.182 1534.25 467.696V469.042C1534.25 469.463 1534.59 469.715 1535.01 469.715C1535.43 469.715 1535.68 469.378 1535.68 468.958V467.612C1535.6 467.276 1535.77 465.257 1536.35 464.08C1536.77 463.238 1537.36 462.65 1537.95 462.481C1538.54 462.313 1539.3 462.481 1540.22 462.986C1540.56 463.154 1540.98 463.07 1541.15 462.734C1541.32 462.481 1541.23 462.061 1540.9 461.809Z" fill="black"/>
<path d="M1487.4 448.268L1490.6 448.352C1490.93 448.352 1491.27 448.1 1491.27 447.763C1491.27 447.427 1491.02 447.09 1490.68 447.09L1487.49 447.006C1487.07 447.006 1486.64 446.922 1486.31 446.838C1485.55 446.67 1484.04 446.165 1482.52 445.324C1482.19 445.156 1481.85 445.24 1481.68 445.576C1481.51 445.913 1481.6 446.249 1481.93 446.417C1483.53 447.343 1485.21 447.847 1486.06 448.015C1486.39 448.184 1486.9 448.268 1487.4 448.268Z" fill="#FC9D9D"/>
<path opacity="0.15" d="M1495.39 512.022L1495.73 502.266C1498.5 504.789 1506.24 508.069 1514.4 505.462C1514.4 505.462 1514.49 505.378 1514.4 505.462C1519.45 503.779 1522.73 500.667 1524.66 497.976C1524.83 497.724 1525.25 497.639 1525.5 497.808C1525.76 497.976 1525.84 498.396 1525.67 498.649C1523.23 501.929 1518.94 505.882 1512.05 507.312C1503.89 513.704 1495.39 512.022 1495.39 512.022Z" fill="black"/>
<g opacity="0.3">
<path opacity="0.3" d="M1503.47 494.275H1503.55C1505.99 494.275 1507.25 494.275 1507.25 494.275C1507.67 494.275 1508.09 493.939 1508.09 493.434C1508.09 493.013 1507.76 492.593 1507.25 492.593C1507.25 492.593 1505.99 492.593 1503.55 492.593C1503.13 492.593 1502.71 492.929 1502.71 493.434C1502.79 493.855 1503.13 494.191 1503.47 494.275Z" fill="black"/>
</g>
<g opacity="0.3">
<path opacity="0.3" d="M1501.95 490.827C1508.77 491.331 1511.54 487.462 1512.47 485.528C1512.63 485.107 1512.47 484.687 1512.13 484.518C1511.71 484.35 1511.29 484.518 1511.12 484.855C1510.2 486.705 1507.17 490.827 1498.84 488.724C1498.42 488.64 1498 488.892 1497.92 489.313C1497.83 489.733 1498.08 490.154 1498.5 490.238C1499.68 490.574 1500.86 490.742 1501.95 490.827Z" fill="black"/>
</g>
<path d="M1509.78 474.005C1508.43 474.005 1507.34 472.913 1507.34 471.565C1507.34 470.219 1508.43 469.126 1509.78 469.126C1511.12 469.126 1512.21 470.219 1512.21 471.565C1512.21 472.913 1511.12 474.005 1509.78 474.005Z" fill="#21252B"/>
<path d="M1508.6 472.66C1508.32 472.66 1508.09 472.433 1508.09 472.154C1508.09 471.876 1508.32 471.649 1508.6 471.649C1508.88 471.649 1509.1 471.876 1509.1 472.154C1509.1 472.433 1508.88 472.66 1508.6 472.66Z" fill="white"/>
<path d="M1490.26 475.519C1488.91 475.519 1487.82 474.427 1487.82 473.079C1487.82 471.733 1488.91 470.64 1490.26 470.64C1491.61 470.64 1492.7 471.733 1492.7 473.079C1492.7 474.427 1491.61 475.519 1490.26 475.519Z" fill="#21252B"/>
<path d="M1489.08 474.089C1488.81 474.089 1488.58 473.863 1488.58 473.584C1488.58 473.306 1488.81 473.079 1489.08 473.079C1489.36 473.079 1489.59 473.306 1489.59 473.584C1489.59 473.863 1489.36 474.089 1489.08 474.089Z" fill="white"/>
<g opacity="0.3">
<path opacity="0.3" d="M1499.68 484.94H1503.05C1503.47 484.94 1503.8 484.603 1503.8 484.183C1503.8 483.762 1503.47 483.426 1503.05 483.426H1499.68C1498.84 483.426 1498.17 482.753 1498.17 481.912C1498.17 481.071 1498.84 480.398 1499.68 480.398C1500.1 480.398 1500.44 480.061 1500.44 479.641C1500.44 479.22 1500.1 478.884 1499.68 478.884C1498.08 478.884 1496.74 480.23 1496.74 481.828C1496.74 483.594 1498 484.94 1499.68 484.94Z" fill="black"/>
</g>
<path d="M1482.69 467.108L1493.46 466.351L1494.89 466.266L1504.31 465.594H1504.39L1516.5 464.752C1518.44 464.584 1520.2 466.098 1520.29 468.033L1520.46 470.808C1520.79 476.107 1516.84 480.817 1511.46 481.154C1506.16 481.49 1501.45 477.537 1501.11 472.154L1500.94 469.379C1500.86 468.537 1501.11 467.78 1501.53 467.192L1497.75 467.444C1498.25 468.033 1498.59 468.706 1498.67 469.547L1498.84 472.322C1499.18 477.621 1495.22 482.331 1489.84 482.668C1484.54 483.004 1479.83 479.051 1479.5 473.668L1479.33 470.892C1479.24 469.042 1480.76 467.276 1482.69 467.108ZM1502.46 469.379L1502.63 472.154C1502.96 476.696 1506.92 480.145 1511.46 479.808C1516 479.472 1519.45 475.519 1519.11 470.977L1518.94 468.201C1518.86 467.023 1517.85 466.098 1516.67 466.182L1504.56 467.023H1504.48C1503.3 467.108 1502.37 468.201 1502.46 469.379ZM1481.01 473.584C1481.35 478.126 1485.3 481.574 1489.84 481.238C1494.38 480.902 1497.83 476.948 1497.49 472.406L1497.33 469.631C1497.24 468.453 1496.23 467.528 1495.06 467.612L1493.63 467.696L1482.86 468.453C1481.68 468.537 1480.76 469.547 1480.84 470.724L1481.01 473.584Z" fill="#21252B"/>
<path d="M1615.67 913.479H1552.59V645.589C1552.59 640.29 1556.88 636 1562.18 636H1606.08C1611.38 636 1615.67 640.29 1615.67 645.589V913.479Z" fill="#B2B6BB"/>
</g>
</svg>
